<?xml version="1.0" encoding="utf-8" standalone="no"?>
<!DOCTYPE svg PUBLIC "-//W3C//DTD SVG 1.1//EN"
  "http://www.w3.org/Graphics/SVG/1.1/DTD/svg11.dtd">
<svg xmlns:xlink="http://www.w3.org/1999/xlink" width="297.033449pt" height="301.632874pt" viewBox="0 0 297.033449 301.632874" xmlns="http://www.w3.org/2000/svg" version="1.1">
 <metadata>
  <rdf:RDF xmlns:dc="http://purl.org/dc/elements/1.1/" xmlns:cc="http://creativecommons.org/ns#" xmlns:rdf="http://www.w3.org/1999/02/22-rdf-syntax-ns#">
   <cc:Work>
    <dc:type rdf:resource="http://purl.org/dc/dcmitype/StillImage"/>
    <dc:date>2023-06-13T03:34:47.923636</dc:date>
    <dc:format>image/svg+xml</dc:format>
    <dc:creator>
     <cc:Agent>
      <dc:title>Matplotlib v3.6.1, https://matplotlib.org/</dc:title>
     </cc:Agent>
    </dc:creator>
   </cc:Work>
  </rdf:RDF>
 </metadata>
 <defs>
  <style type="text/css">*{stroke-linejoin: round; stroke-linecap: butt}</style>
 </defs>
 <g id="figure_1">
  <g id="patch_1">
   <path d="M 0 301.632874 
L 297.033449 301.632874 
L 297.033449 0 
L 0 0 
z
" style="fill: #ffffff"/>
  </g>
  <g id="patch_2">
   <path d="M 23.665646 288.430125 
L 289.777646 288.430125 
L 289.777646 22.318125 
L 23.665646 22.318125 
z
" style="fill: #ffffff"/>
  </g>
  <g id="pane3d_1">
   <g id="patch_3">
    <path d="M 278.761186 206.176637 
L 160.317754 147.275961 
L 160.317754 41.213854 
L 284.169562 94.895442 
" style="fill: #f2f2f2; opacity: 0.5; stroke: #f2f2f2; stroke-linejoin: miter"/>
   </g>
  </g>
  <g id="pane3d_2">
   <g id="patch_4">
    <path d="M 41.874322 206.176637 
L 160.317754 147.275961 
L 160.317754 41.213854 
L 36.465946 94.895442 
" style="fill: #e6e6e6; opacity: 0.5; stroke: #e6e6e6; stroke-linejoin: miter"/>
   </g>
  </g>
  <g id="pane3d_3">
   <g id="patch_5">
    <path d="M 160.317754 274.122723 
L 278.761186 206.176637 
L 160.317754 147.275961 
L 41.874322 206.176637 
" style="fill: #ececec; opacity: 0.5; stroke: #ececec; stroke-linejoin: miter"/>
   </g>
  </g>
  <g id="axis3d_1">
   <g id="line2d_1">
    <path d="M 278.761186 206.176637 
L 160.317754 274.122723 
" style="fill: none; stroke: #000000; stroke-width: 0.8; stroke-linecap: square"/>
   </g>
   <g id="text_1">
    <!-- X -->
    <g transform="translate(240.892539 273.696013) scale(0.1 -0.1)">
     <defs>
      <path id="DejaVuSans-58" d="M 403 4666 
L 1081 4666 
L 2241 2931 
L 3406 4666 
L 4084 4666 
L 2584 2425 
L 4184 0 
L 3506 0 
L 2194 1984 
L 872 0 
L 191 0 
L 1856 2491 
L 403 4666 
z
" transform="scale(0.015625)"/>
     </defs>
     <use xlink:href="#DejaVuSans-58"/>
    </g>
   </g>
   <g id="Line3DCollection_1">
    <path d="M 168.394353 269.489513 
L 49.912638 202.179267 
L 44.895117 91.241952 
" style="fill: none; stroke: #b0b0b0; stroke-width: 0.8"/>
    <path d="M 195.499018 253.94069 
L 76.929634 188.743998 
L 73.200325 78.973512 
" style="fill: none; stroke: #b0b0b0; stroke-width: 0.8"/>
    <path d="M 221.729083 238.893589 
L 103.134886 175.712401 
L 100.617646 67.089912 
" style="fill: none; stroke: #b0b0b0; stroke-width: 0.8"/>
    <path d="M 247.12621 224.324311 
L 128.564436 163.066553 
L 127.188212 55.573325 
" style="fill: none; stroke: #b0b0b0; stroke-width: 0.8"/>
    <path d="M 271.729451 210.210451 
L 153.252223 150.789575 
L 152.950652 44.407006 
" style="fill: none; stroke: #b0b0b0; stroke-width: 0.8"/>
   </g>
   <g id="xtick_1">
    <g id="line2d_2">
     <path d="M 167.374695 268.910238 
L 170.437413 270.650189 
" style="fill: none; stroke: #000000; stroke-width: 0.8; stroke-linecap: square"/>
    </g>
    <g id="text_2">
     <!-- 0.0 -->
     <g transform="translate(171.019345 292.353187) scale(0.1 -0.1)">
      <defs>
       <path id="DejaVuSans-30" d="M 2034 4250 
Q 1547 4250 1301 3770 
Q 1056 3291 1056 2328 
Q 1056 1369 1301 889 
Q 1547 409 2034 409 
Q 2525 409 2770 889 
Q 3016 1369 3016 2328 
Q 3016 3291 2770 3770 
Q 2525 4250 2034 4250 
z
M 2034 4750 
Q 2819 4750 3233 4129 
Q 3647 3509 3647 2328 
Q 3647 1150 3233 529 
Q 2819 -91 2034 -91 
Q 1250 -91 836 529 
Q 422 1150 422 2328 
Q 422 3509 836 4129 
Q 1250 4750 2034 4750 
z
" transform="scale(0.015625)"/>
       <path id="DejaVuSans-2e" d="M 684 794 
L 1344 794 
L 1344 0 
L 684 0 
L 684 794 
z
" transform="scale(0.015625)"/>
      </defs>
      <use xlink:href="#DejaVuSans-30"/>
      <use xlink:href="#DejaVuSans-2e" x="63.623047"/>
      <use xlink:href="#DejaVuSans-30" x="95.410156"/>
     </g>
    </g>
   </g>
   <g id="xtick_2">
    <g id="line2d_3">
     <path d="M 194.479783 253.380253 
L 197.541168 255.06359 
" style="fill: none; stroke: #000000; stroke-width: 0.8; stroke-linecap: square"/>
    </g>
    <g id="text_3">
     <!-- 0.5 -->
     <g transform="translate(198.015831 276.515757) scale(0.1 -0.1)">
      <defs>
       <path id="DejaVuSans-35" d="M 691 4666 
L 3169 4666 
L 3169 4134 
L 1269 4134 
L 1269 2991 
Q 1406 3038 1543 3061 
Q 1681 3084 1819 3084 
Q 2600 3084 3056 2656 
Q 3513 2228 3513 1497 
Q 3513 744 3044 326 
Q 2575 -91 1722 -91 
Q 1428 -91 1123 -41 
Q 819 9 494 109 
L 494 744 
Q 775 591 1075 516 
Q 1375 441 1709 441 
Q 2250 441 2565 725 
Q 2881 1009 2881 1497 
Q 2881 1984 2565 2268 
Q 2250 2553 1709 2553 
Q 1456 2553 1204 2497 
Q 953 2441 691 2322 
L 691 4666 
z
" transform="scale(0.015625)"/>
      </defs>
      <use xlink:href="#DejaVuSans-30"/>
      <use xlink:href="#DejaVuSans-2e" x="63.623047"/>
      <use xlink:href="#DejaVuSans-35" x="95.410156"/>
     </g>
    </g>
   </g>
   <g id="xtick_3">
    <g id="line2d_4">
     <path d="M 220.710775 238.351085 
L 223.769318 239.980527 
" style="fill: none; stroke: #000000; stroke-width: 0.8; stroke-linecap: square"/>
    </g>
    <g id="text_4">
     <!-- 1.0 -->
     <g transform="translate(224.139131 261.190579) scale(0.1 -0.1)">
      <defs>
       <path id="DejaVuSans-31" d="M 794 531 
L 1825 531 
L 1825 4091 
L 703 3866 
L 703 4441 
L 1819 4666 
L 2450 4666 
L 2450 531 
L 3481 531 
L 3481 0 
L 794 0 
L 794 531 
z
" transform="scale(0.015625)"/>
      </defs>
      <use xlink:href="#DejaVuSans-31"/>
      <use xlink:href="#DejaVuSans-2e" x="63.623047"/>
      <use xlink:href="#DejaVuSans-30" x="95.410156"/>
     </g>
    </g>
   </g>
   <g id="xtick_4">
    <g id="line2d_5">
     <path d="M 246.109283 223.798892 
L 249.163618 225.376987 
" style="fill: none; stroke: #000000; stroke-width: 0.8; stroke-linecap: square"/>
    </g>
    <g id="text_5">
     <!-- 1.5 -->
     <g transform="translate(249.430937 246.353196) scale(0.1 -0.1)">
      <use xlink:href="#DejaVuSans-31"/>
      <use xlink:href="#DejaVuSans-2e" x="63.623047"/>
      <use xlink:href="#DejaVuSans-35" x="95.410156"/>
     </g>
    </g>
   </g>
   <g id="xtick_5">
    <g id="line2d_6">
     <path d="M 270.714319 209.701323 
L 273.763212 211.23046 
" style="fill: none; stroke: #000000; stroke-width: 0.8; stroke-linecap: square"/>
    </g>
    <g id="text_6">
     <!-- 2.0 -->
     <g transform="translate(273.930324 231.980683) scale(0.1 -0.1)">
      <defs>
       <path id="DejaVuSans-32" d="M 1228 531 
L 3431 531 
L 3431 0 
L 469 0 
L 469 531 
Q 828 903 1448 1529 
Q 2069 2156 2228 2338 
Q 2531 2678 2651 2914 
Q 2772 3150 2772 3378 
Q 2772 3750 2511 3984 
Q 2250 4219 1831 4219 
Q 1534 4219 1204 4116 
Q 875 4013 500 3803 
L 500 4441 
Q 881 4594 1212 4672 
Q 1544 4750 1819 4750 
Q 2544 4750 2975 4387 
Q 3406 4025 3406 3419 
Q 3406 3131 3298 2873 
Q 3191 2616 2906 2266 
Q 2828 2175 2409 1742 
Q 1991 1309 1228 531 
z
" transform="scale(0.015625)"/>
      </defs>
      <use xlink:href="#DejaVuSans-32"/>
      <use xlink:href="#DejaVuSans-2e" x="63.623047"/>
      <use xlink:href="#DejaVuSans-30" x="95.410156"/>
     </g>
    </g>
   </g>
  </g>
  <g id="axis3d_2">
   <g id="line2d_7">
    <path d="M 41.874322 206.176637 
L 160.317754 274.122723 
" style="fill: none; stroke: #000000; stroke-width: 0.8; stroke-linecap: square"/>
   </g>
   <g id="text_7">
    <!-- Y -->
    <g transform="translate(73.264063 273.696013) scale(0.1 -0.1)">
     <defs>
      <path id="DejaVuSans-59" d="M -13 4666 
L 666 4666 
L 1959 2747 
L 3244 4666 
L 3922 4666 
L 2272 2222 
L 2272 0 
L 1638 0 
L 1638 2222 
L -13 4666 
z
" transform="scale(0.015625)"/>
     </defs>
     <use xlink:href="#DejaVuSans-59"/>
    </g>
   </g>
   <g id="Line3DCollection_2">
    <path d="M 275.740391 91.241952 
L 270.72287 202.179267 
L 152.241155 269.489513 
" style="fill: none; stroke: #b0b0b0; stroke-width: 0.8"/>
    <path d="M 247.435183 78.973512 
L 243.705874 188.743998 
L 125.136491 253.94069 
" style="fill: none; stroke: #b0b0b0; stroke-width: 0.8"/>
    <path d="M 220.017862 67.089912 
L 217.500622 175.712401 
L 98.906425 238.893589 
" style="fill: none; stroke: #b0b0b0; stroke-width: 0.8"/>
    <path d="M 193.447297 55.573325 
L 192.071073 163.066553 
L 73.509299 224.324311 
" style="fill: none; stroke: #b0b0b0; stroke-width: 0.8"/>
    <path d="M 167.684856 44.407006 
L 167.383285 150.789575 
L 48.906057 210.210451 
" style="fill: none; stroke: #b0b0b0; stroke-width: 0.8"/>
   </g>
   <g id="xtick_6">
    <g id="line2d_8">
     <path d="M 153.260813 268.910238 
L 150.198095 270.650189 
" style="fill: none; stroke: #000000; stroke-width: 0.8; stroke-linecap: square"/>
    </g>
    <g id="text_8">
     <!-- 0.0 -->
     <g transform="translate(133.713038 292.353187) scale(0.1 -0.1)">
      <use xlink:href="#DejaVuSans-30"/>
      <use xlink:href="#DejaVuSans-2e" x="63.623047"/>
      <use xlink:href="#DejaVuSans-30" x="95.410156"/>
     </g>
    </g>
   </g>
   <g id="xtick_7">
    <g id="line2d_9">
     <path d="M 126.155725 253.380253 
L 123.09434 255.06359 
" style="fill: none; stroke: #000000; stroke-width: 0.8; stroke-linecap: square"/>
    </g>
    <g id="text_9">
     <!-- 0.5 -->
     <g transform="translate(106.716553 276.515757) scale(0.1 -0.1)">
      <use xlink:href="#DejaVuSans-30"/>
      <use xlink:href="#DejaVuSans-2e" x="63.623047"/>
      <use xlink:href="#DejaVuSans-35" x="95.410156"/>
     </g>
    </g>
   </g>
   <g id="xtick_8">
    <g id="line2d_10">
     <path d="M 99.924733 238.351085 
L 96.86619 239.980527 
" style="fill: none; stroke: #000000; stroke-width: 0.8; stroke-linecap: square"/>
    </g>
    <g id="text_10">
     <!-- 1.0 -->
     <g transform="translate(80.593252 261.190579) scale(0.1 -0.1)">
      <use xlink:href="#DejaVuSans-31"/>
      <use xlink:href="#DejaVuSans-2e" x="63.623047"/>
      <use xlink:href="#DejaVuSans-30" x="95.410156"/>
     </g>
    </g>
   </g>
   <g id="xtick_9">
    <g id="line2d_11">
     <path d="M 74.526225 223.798892 
L 71.47189 225.376987 
" style="fill: none; stroke: #000000; stroke-width: 0.8; stroke-linecap: square"/>
    </g>
    <g id="text_11">
     <!-- 1.5 -->
     <g transform="translate(55.301447 246.353196) scale(0.1 -0.1)">
      <use xlink:href="#DejaVuSans-31"/>
      <use xlink:href="#DejaVuSans-2e" x="63.623047"/>
      <use xlink:href="#DejaVuSans-35" x="95.410156"/>
     </g>
    </g>
   </g>
   <g id="xtick_10">
    <g id="line2d_12">
     <path d="M 49.92119 209.701323 
L 46.872297 211.23046 
" style="fill: none; stroke: #000000; stroke-width: 0.8; stroke-linecap: square"/>
    </g>
    <g id="text_12">
     <!-- 2.0 -->
     <g transform="translate(30.802059 231.980683) scale(0.1 -0.1)">
      <use xlink:href="#DejaVuSans-32"/>
      <use xlink:href="#DejaVuSans-2e" x="63.623047"/>
      <use xlink:href="#DejaVuSans-30" x="95.410156"/>
     </g>
    </g>
   </g>
  </g>
  <g id="axis3d_3">
   <g id="line2d_13">
    <path d="M 41.874322 206.176637 
L 36.465946 94.895442 
" style="fill: none; stroke: #000000; stroke-width: 0.8; stroke-linecap: square"/>
   </g>
   <g id="text_13">
    <!-- Z -->
    <g transform="translate(-7.876777 154.537392) scale(0.1 -0.1)">
     <defs>
      <path id="DejaVuSans-5a" d="M 359 4666 
L 4025 4666 
L 4025 4184 
L 1075 531 
L 4097 531 
L 4097 0 
L 288 0 
L 288 481 
L 3238 4134 
L 359 4134 
L 359 4666 
z
" transform="scale(0.015625)"/>
     </defs>
     <use xlink:href="#DejaVuSans-5a"/>
    </g>
   </g>
   <g id="Line3DCollection_3">
    <path d="M 41.770787 204.046341 
L 160.317754 145.239524 
L 278.864721 204.046341 
" style="fill: none; stroke: #b0b0b0; stroke-width: 0.8"/>
    <path d="M 40.655051 181.089273 
L 160.317754 123.308943 
L 279.980457 181.089273 
" style="fill: none; stroke: #b0b0b0; stroke-width: 0.8"/>
    <path d="M 39.518114 157.695967 
L 160.317754 100.989882 
L 281.117395 157.695967 
" style="fill: none; stroke: #b0b0b0; stroke-width: 0.8"/>
    <path d="M 38.359364 133.853867 
L 160.317754 78.271927 
L 282.276144 133.853867 
" style="fill: none; stroke: #b0b0b0; stroke-width: 0.8"/>
    <path d="M 37.178169 109.549936 
L 160.317754 55.144287 
L 283.457339 109.549936 
" style="fill: none; stroke: #b0b0b0; stroke-width: 0.8"/>
   </g>
   <g id="xtick_11">
    <g id="line2d_14">
     <path d="M 42.786271 203.542597 
L 39.736338 205.055557 
" style="fill: none; stroke: #000000; stroke-width: 0.8; stroke-linecap: square"/>
    </g>
    <g id="text_14">
     <!-- 20 -->
     <g transform="translate(15.735991 211.644779) scale(0.1 -0.1)">
      <use xlink:href="#DejaVuSans-32"/>
      <use xlink:href="#DejaVuSans-30" x="63.623047"/>
     </g>
    </g>
   </g>
   <g id="xtick_12">
    <g id="line2d_15">
     <path d="M 41.680729 180.594014 
L 38.600144 182.081506 
" style="fill: none; stroke: #000000; stroke-width: 0.8; stroke-linecap: square"/>
    </g>
    <g id="text_15">
     <!-- 40 -->
     <g transform="translate(14.435104 188.687711) scale(0.1 -0.1)">
      <defs>
       <path id="DejaVuSans-34" d="M 2419 4116 
L 825 1625 
L 2419 1625 
L 2419 4116 
z
M 2253 4666 
L 3047 4666 
L 3047 1625 
L 3713 1625 
L 3713 1100 
L 3047 1100 
L 3047 0 
L 2419 0 
L 2419 1100 
L 313 1100 
L 313 1709 
L 2253 4666 
z
" transform="scale(0.015625)"/>
      </defs>
      <use xlink:href="#DejaVuSans-34"/>
      <use xlink:href="#DejaVuSans-30" x="63.623047"/>
     </g>
    </g>
   </g>
   <g id="xtick_13">
    <g id="line2d_16">
     <path d="M 40.554192 157.209608 
L 37.442335 158.670384 
" style="fill: none; stroke: #000000; stroke-width: 0.8; stroke-linecap: square"/>
    </g>
    <g id="text_16">
     <!-- 60 -->
     <g transform="translate(13.109497 165.294404) scale(0.1 -0.1)">
      <defs>
       <path id="DejaVuSans-36" d="M 2113 2584 
Q 1688 2584 1439 2293 
Q 1191 2003 1191 1497 
Q 1191 994 1439 701 
Q 1688 409 2113 409 
Q 2538 409 2786 701 
Q 3034 994 3034 1497 
Q 3034 2003 2786 2293 
Q 2538 2584 2113 2584 
z
M 3366 4563 
L 3366 3988 
Q 3128 4100 2886 4159 
Q 2644 4219 2406 4219 
Q 1781 4219 1451 3797 
Q 1122 3375 1075 2522 
Q 1259 2794 1537 2939 
Q 1816 3084 2150 3084 
Q 2853 3084 3261 2657 
Q 3669 2231 3669 1497 
Q 3669 778 3244 343 
Q 2819 -91 2113 -91 
Q 1303 -91 875 529 
Q 447 1150 447 2328 
Q 447 3434 972 4092 
Q 1497 4750 2381 4750 
Q 2619 4750 2861 4703 
Q 3103 4656 3366 4563 
z
" transform="scale(0.015625)"/>
      </defs>
      <use xlink:href="#DejaVuSans-36"/>
      <use xlink:href="#DejaVuSans-30" x="63.623047"/>
     </g>
    </g>
   </g>
   <g id="xtick_14">
    <g id="line2d_17">
     <path d="M 39.406056 133.376843 
L 36.262287 134.8096 
" style="fill: none; stroke: #000000; stroke-width: 0.8; stroke-linecap: square"/>
    </g>
    <g id="text_17">
     <!-- 80 -->
     <g transform="translate(11.758459 141.452305) scale(0.1 -0.1)">
      <defs>
       <path id="DejaVuSans-38" d="M 2034 2216 
Q 1584 2216 1326 1975 
Q 1069 1734 1069 1313 
Q 1069 891 1326 650 
Q 1584 409 2034 409 
Q 2484 409 2743 651 
Q 3003 894 3003 1313 
Q 3003 1734 2745 1975 
Q 2488 2216 2034 2216 
z
M 1403 2484 
Q 997 2584 770 2862 
Q 544 3141 544 3541 
Q 544 4100 942 4425 
Q 1341 4750 2034 4750 
Q 2731 4750 3128 4425 
Q 3525 4100 3525 3541 
Q 3525 3141 3298 2862 
Q 3072 2584 2669 2484 
Q 3125 2378 3379 2068 
Q 3634 1759 3634 1313 
Q 3634 634 3220 271 
Q 2806 -91 2034 -91 
Q 1263 -91 848 271 
Q 434 634 434 1313 
Q 434 1759 690 2068 
Q 947 2378 1403 2484 
z
M 1172 3481 
Q 1172 3119 1398 2916 
Q 1625 2713 2034 2713 
Q 2441 2713 2670 2916 
Q 2900 3119 2900 3481 
Q 2900 3844 2670 4047 
Q 2441 4250 2034 4250 
Q 1625 4250 1398 4047 
Q 1172 3844 1172 3481 
z
" transform="scale(0.015625)"/>
      </defs>
      <use xlink:href="#DejaVuSans-38"/>
      <use xlink:href="#DejaVuSans-30" x="63.623047"/>
     </g>
    </g>
   </g>
   <g id="xtick_15">
    <g id="line2d_18">
     <path d="M 38.235692 109.0827 
L 35.059355 110.486072 
" style="fill: none; stroke: #000000; stroke-width: 0.8; stroke-linecap: square"/>
    </g>
    <g id="text_18">
     <!-- 100 -->
     <g transform="translate(7.2 117.148373) scale(0.1 -0.1)">
      <use xlink:href="#DejaVuSans-31"/>
      <use xlink:href="#DejaVuSans-30" x="63.623047"/>
      <use xlink:href="#DejaVuSans-30" x="127.246094"/>
     </g>
    </g>
   </g>
  </g>
  <g id="axes_1">
   <g id="Poly3DCollection_1">
    <path d="M 160.317754 68.292226 
L 165.379962 63.904263 
L 160.317754 61.647853 
L 155.259693 66.01743 
z
" clip-path="url(#p8f45b7588f)" style="fill: #f0f921"/>
    <path d="M 155.236477 74.513061 
L 160.317754 68.292226 
L 155.259693 66.01743 
L 150.186194 72.21582 
z
" clip-path="url(#p8f45b7588f)" style="fill: #f5e926"/>
    <path d="M 165.40681 70.580961 
L 170.473121 66.17447 
L 165.379962 63.904263 
L 160.317754 68.292226 
z
" clip-path="url(#p8f45b7588f)" style="fill: #f0f921"/>
    <path d="M 150.144804 82.058333 
L 155.236477 74.513061 
L 150.186194 72.21582 
L 145.104916 79.735714 
z
" clip-path="url(#p8f45b7588f)" style="fill: #fcd025"/>
    <path d="M 145.045086 90.017384 
L 150.144804 82.058333 
L 145.104916 79.735714 
L 140.01642 87.668436 
z
" clip-path="url(#p8f45b7588f)" style="fill: #fdb42f"/>
    <path d="M 160.317754 76.8244 
L 165.40681 70.580961 
L 160.317754 68.292226 
L 155.236477 74.513061 
z
" clip-path="url(#p8f45b7588f)" style="fill: #f5e926"/>
    <path d="M 139.935686 97.887612 
L 145.045086 90.017384 
L 140.01642 87.668436 
L 134.91809 95.512464 
z
" clip-path="url(#p8f45b7588f)" style="fill: #f99a3e"/>
    <path d="M 134.814376 105.512081 
L 139.935686 97.887612 
L 134.91809 95.512464 
L 129.807394 103.111194 
z
" clip-path="url(#p8f45b7588f)" style="fill: #f1814d"/>
    <path d="M 170.527146 72.883765 
L 175.597516 68.458599 
L 170.473121 66.17447 
L 165.40681 70.580961 
z
" clip-path="url(#p8f45b7588f)" style="fill: #f0f921"/>
    <path d="M 155.215655 84.395221 
L 160.317754 76.8244 
L 155.236477 74.513061 
L 150.144804 82.058333 
z
" clip-path="url(#p8f45b7588f)" style="fill: #fcd025"/>
    <path d="M 129.679371 112.878303 
L 134.814376 105.512081 
L 129.807394 103.111194 
L 124.682529 110.452154 
z
" clip-path="url(#p8f45b7588f)" style="fill: #e66c5c"/>
    <path d="M 150.104672 92.380776 
L 155.215655 84.395221 
L 150.144804 82.058333 
L 145.045086 90.017384 
z
" clip-path="url(#p8f45b7588f)" style="fill: #fdb42f"/>
    <path d="M 165.430312 79.149968 
L 170.527146 72.883765 
L 165.40681 70.580961 
L 160.317754 76.8244 
z
" clip-path="url(#p8f45b7588f)" style="fill: #f5e926"/>
    <path d="M 144.984163 100.277377 
L 150.104672 92.380776 
L 145.045086 90.017384 
L 139.935686 97.887612 
z
" clip-path="url(#p8f45b7588f)" style="fill: #f99a3e"/>
    <path d="M 124.529161 120.002116 
L 129.679371 112.878303 
L 124.682529 110.452154 
L 119.542018 117.551142 
z
" clip-path="url(#p8f45b7588f)" style="fill: #da5a6a"/>
    <path d="M 139.852204 107.927759 
L 144.984163 100.277377 
L 139.935686 97.887612 
L 134.814376 105.512081 
z
" clip-path="url(#p8f45b7588f)" style="fill: #f1814d"/>
    <path d="M 175.679052 75.200766 
L 180.753434 70.75678 
L 175.597516 68.458599 
L 170.527146 72.883765 
z
" clip-path="url(#p8f45b7588f)" style="fill: #f0f921"/>
    <path d="M 160.317754 86.74651 
L 165.430312 79.149968 
L 160.317754 76.8244 
L 155.215655 84.395221 
z
" clip-path="url(#p8f45b7588f)" style="fill: #fcd025"/>
    <path d="M 119.362227 126.892498 
L 124.529161 120.002116 
L 119.542018 117.551142 
L 114.384361 124.41711 
z
" clip-path="url(#p8f45b7588f)" style="fill: #cc4977"/>
    <path d="M 134.707032 115.319415 
L 139.852204 107.927759 
L 134.814376 105.512081 
L 129.679371 112.878303 
z
" clip-path="url(#p8f45b7588f)" style="fill: #e66c5c"/>
    <path d="M 155.195465 94.758745 
L 160.317754 86.74651 
L 155.215655 84.395221 
L 150.104672 92.380776 
z
" clip-path="url(#p8f45b7588f)" style="fill: #fdb42f"/>
    <path d="M 114.17697 133.551563 
L 119.362227 126.892498 
L 114.384361 124.41711 
L 109.207972 131.052158 
z
" clip-path="url(#p8f45b7588f)" style="fill: #bf3984"/>
    <path d="M 170.574441 81.489896 
L 175.679052 75.200766 
L 170.527146 72.883765 
L 165.430312 79.149968 
z
" clip-path="url(#p8f45b7588f)" style="fill: #f5e926"/>
    <path d="M 150.063806 102.681895 
L 155.195465 94.758745 
L 150.104672 92.380776 
L 144.984163 100.277377 
z
" clip-path="url(#p8f45b7588f)" style="fill: #f99a3e"/>
    <path d="M 129.547102 122.468225 
L 134.707032 115.319415 
L 129.679371 112.878303 
L 124.529161 120.002116 
z
" clip-path="url(#p8f45b7588f)" style="fill: #da5a6a"/>
    <path d="M 144.921164 110.358365 
L 150.063806 102.681895 
L 144.984163 100.277377 
L 139.852204 107.927759 
z
" clip-path="url(#p8f45b7588f)" style="fill: #f1814d"/>
    <path d="M 180.862821 77.532098 
L 185.941168 73.069143 
L 180.753434 70.75678 
L 175.679052 75.200766 
z
" clip-path="url(#p8f45b7588f)" style="fill: #f0f921"/>
    <path d="M 108.971781 139.981122 
L 114.17697 133.551563 
L 109.207972 131.052158 
L 104.011245 137.458091 
z
" clip-path="url(#p8f45b7588f)" style="fill: #b02991"/>
    <path d="M 165.451392 89.112333 
L 170.574441 81.489896 
L 165.430312 79.149968 
L 160.317754 86.74651 
z
" clip-path="url(#p8f45b7588f)" style="fill: #fcd025"/>
    <path d="M 124.370872 129.383194 
L 129.547102 122.468225 
L 124.529161 120.002116 
L 119.362227 126.892498 
z
" clip-path="url(#p8f45b7588f)" style="fill: #cc4977"/>
    <path d="M 139.765798 117.77563 
L 144.921164 110.358365 
L 139.852204 107.927759 
L 134.707032 115.319415 
z
" clip-path="url(#p8f45b7588f)" style="fill: #e66c5c"/>
    <path d="M 160.317754 97.151426 
L 165.451392 89.112333 
L 160.317754 86.74651 
L 155.195465 94.758745 
z
" clip-path="url(#p8f45b7588f)" style="fill: #fdb42f"/>
    <path d="M 103.74509 146.185414 
L 108.971781 139.981122 
L 104.011245 137.458091 
L 98.792624 143.63913 
z
" clip-path="url(#p8f45b7588f)" style="fill: #a11b9b"/>
    <path d="M 119.176738 136.066444 
L 124.370872 129.383194 
L 119.362227 126.892498 
L 114.17697 133.551563 
z
" clip-path="url(#p8f45b7588f)" style="fill: #bf3984"/>
    <path d="M 175.750434 83.844319 
L 180.862821 77.532098 
L 175.679052 75.200766 
L 170.574441 81.489896 
z
" clip-path="url(#p8f45b7588f)" style="fill: #f5e926"/>
    <path d="M 155.174906 105.101304 
L 160.317754 97.151426 
L 155.195465 94.758745 
L 150.063806 102.681895 
z
" clip-path="url(#p8f45b7588f)" style="fill: #f99a3e"/>
    <path d="M 134.596125 124.94961 
L 139.765798 117.77563 
L 134.707032 115.319415 
L 129.547102 122.468225 
z
" clip-path="url(#p8f45b7588f)" style="fill: #da5a6a"/>
    <path d="M 150.021547 112.804039 
L 155.174906 105.101304 
L 150.063806 102.681895 
L 144.921164 110.358365 
z
" clip-path="url(#p8f45b7588f)" style="fill: #f1814d"/>
    <path d="M 186.078749 79.877892 
L 191.161014 75.395818 
L 185.941168 73.069143 
L 180.862821 77.532098 
z
" clip-path="url(#p8f45b7588f)" style="fill: #f0f921"/>
    <path d="M 113.963081 142.5198 
L 119.176738 136.066444 
L 114.17697 133.551563 
L 108.971781 139.981122 
z
" clip-path="url(#p8f45b7588f)" style="fill: #b02991"/>
    <path d="M 170.616863 91.492826 
L 175.750434 83.844319 
L 170.574441 81.489896 
L 165.451392 89.112333 
z
" clip-path="url(#p8f45b7588f)" style="fill: #fcd025"/>
    <path d="M 98.49532 152.167965 
L 103.74509 146.185414 
L 98.792624 143.63913 
L 93.550544 149.598789 
z
" clip-path="url(#p8f45b7588f)" style="fill: #910ea3"/>
    <path d="M 129.410584 131.889338 
L 134.596125 124.94961 
L 129.547102 122.468225 
L 124.370872 129.383194 
z
" clip-path="url(#p8f45b7588f)" style="fill: #cc4977"/>
    <path d="M 144.855958 120.247087 
L 150.021547 112.804039 
L 144.921164 110.358365 
L 139.765798 117.77563 
z
" clip-path="url(#p8f45b7588f)" style="fill: #e66c5c"/>
    <path d="M 165.471833 99.558956 
L 170.616863 91.492826 
L 165.451392 89.112333 
L 160.317754 97.151426 
z
" clip-path="url(#p8f45b7588f)" style="fill: #fdb42f"/>
    <path d="M 108.72832 148.747515 
L 113.963081 142.5198 
L 108.971781 139.981122 
L 103.74509 146.185414 
z
" clip-path="url(#p8f45b7588f)" style="fill: #a11b9b"/>
    <path d="M 124.207562 138.596947 
L 129.410584 131.889338 
L 124.370872 129.383194 
L 119.176738 136.066444 
z
" clip-path="url(#p8f45b7588f)" style="fill: #bf3984"/>
    <path d="M 180.958588 86.213371 
L 186.078749 79.877892 
L 180.862821 77.532098 
L 175.750434 83.844319 
z
" clip-path="url(#p8f45b7588f)" style="fill: #f5e926"/>
    <path d="M 160.317754 107.535741 
L 165.471833 99.558956 
L 160.317754 97.151426 
L 155.174906 105.101304 
z
" clip-path="url(#p8f45b7588f)" style="fill: #f99a3e"/>
    <path d="M 93.220694 157.924722 
L 98.49532 152.167965 
L 93.550544 149.598789 
L 88.283222 155.333019 
z
" clip-path="url(#p8f45b7588f)" style="fill: #8104a7"/>
    <path d="M 139.676522 127.446414 
L 144.855958 120.247087 
L 139.765798 117.77563 
L 134.596125 124.94961 
z
" clip-path="url(#p8f45b7588f)" style="fill: #da5a6a"/>
    <path d="M 155.153645 115.26492 
L 160.317754 107.535741 
L 155.174906 105.101304 
L 150.021547 112.804039 
z
" clip-path="url(#p8f45b7588f)" style="fill: #f1814d"/>
    <path d="M 191.327136 82.238285 
L 196.413269 77.73694 
L 191.161014 75.395818 
L 186.078749 79.877892 
z
" clip-path="url(#p8f45b7588f)" style="fill: #f0f921"/>
    <path d="M 118.985432 145.074272 
L 124.207562 138.596947 
L 119.176738 136.066444 
L 113.963081 142.5198 
z
" clip-path="url(#p8f45b7588f)" style="fill: #b02991"/>
    <path d="M 175.814462 93.888126 
L 180.958588 86.213371 
L 175.750434 83.844319 
L 170.616863 91.492826 
z
" clip-path="url(#p8f45b7588f)" style="fill: #fcd025"/>
    <path d="M 103.470867 154.753127 
L 108.72832 148.747515 
L 103.74509 146.185414 
L 98.49532 152.167965 
z
" clip-path="url(#p8f45b7588f)" style="fill: #910ea3"/>
    <path d="M 134.481653 134.411075 
L 139.676522 127.446414 
L 134.596125 124.94961 
L 129.410584 131.889338 
z
" clip-path="url(#p8f45b7588f)" style="fill: #cc4977"/>
    <path d="M 87.919141 163.443853 
L 93.220694 157.924722 
L 88.283222 155.333019 
L 82.988571 160.830005 
z
" clip-path="url(#p8f45b7588f)" style="fill: #7201a8"/>
    <path d="M 149.977806 122.733931 
L 155.153645 115.26492 
L 150.021547 112.804039 
L 144.855958 120.247087 
z
" clip-path="url(#p8f45b7588f)" style="fill: #e66c5c"/>
    <path d="M 170.657998 101.981474 
L 175.814462 93.888126 
L 170.616863 91.492826 
L 165.471833 99.558956 
z
" clip-path="url(#p8f45b7588f)" style="fill: #fdb42f"/>
    <path d="M 113.742602 151.325581 
L 118.985432 145.074272 
L 113.963081 142.5198 
L 108.72832 148.747515 
z
" clip-path="url(#p8f45b7588f)" style="fill: #a11b9b"/>
    <path d="M 129.269733 141.143217 
L 134.481653 134.411075 
L 129.410584 131.889338 
L 124.207562 138.596947 
z
" clip-path="url(#p8f45b7588f)" style="fill: #bf3984"/>
    <path d="M 186.199203 88.597188 
L 191.327136 82.238285 
L 186.078749 79.877892 
L 180.958588 86.213371 
z
" clip-path="url(#p8f45b7588f)" style="fill: #f5e926"/>
    <path d="M 165.492649 109.985348 
L 170.657998 101.981474 
L 165.471833 99.558956 
L 160.317754 107.535741 
z
" clip-path="url(#p8f45b7588f)" style="fill: #f99a3e"/>
    <path d="M 98.188947 160.532582 
L 103.470867 154.753127 
L 98.49532 152.167965 
L 93.220694 157.924722 
z
" clip-path="url(#p8f45b7588f)" style="fill: #8104a7"/>
    <path d="M 144.788584 129.95878 
L 149.977806 122.733931 
L 144.855958 120.247087 
L 139.676522 127.446414 
z
" clip-path="url(#p8f45b7588f)" style="fill: #da5a6a"/>
    <path d="M 82.589302 168.740345 
L 87.919141 163.443853 
L 82.988571 160.830005 
L 77.665265 166.1047 
z
" clip-path="url(#p8f45b7588f)" style="fill: #6400a7"/>
    <path d="M 160.317754 117.741151 
L 165.492649 109.985348 
L 160.317754 107.535741 
L 155.153645 115.26492 
z
" clip-path="url(#p8f45b7588f)" style="fill: #f1814d"/>
    <path d="M 196.608287 84.613413 
L 201.698237 80.092643 
L 196.413269 77.73694 
L 191.327136 82.238285 
z
" clip-path="url(#p8f45b7588f)" style="fill: #f0f921"/>
    <path d="M 124.039126 147.644685 
L 129.269733 141.143217 
L 124.207562 138.596947 
L 118.985432 145.074272 
z
" clip-path="url(#p8f45b7588f)" style="fill: #b02991"/>
    <path d="M 181.04449 96.29837 
L 186.199203 88.597188 
L 180.958588 86.213371 
L 175.814462 93.888126 
z
" clip-path="url(#p8f45b7588f)" style="fill: #fcd025"/>
    <path d="M 108.477471 157.354427 
L 113.742602 151.325581 
L 108.72832 148.747515 
L 103.470867 154.753127 
z
" clip-path="url(#p8f45b7588f)" style="fill: #910ea3"/>
    <path d="M 139.584373 136.948551 
L 144.788584 129.95878 
L 139.676522 127.446414 
L 134.481653 134.411075 
z
" clip-path="url(#p8f45b7588f)" style="fill: #cc4977"/>
    <path d="M 92.880509 166.074027 
L 98.188947 160.532582 
L 93.220694 157.924722 
L 87.919141 163.443853 
z
" clip-path="url(#p8f45b7588f)" style="fill: #7201a8"/>
    <path d="M 155.131637 125.236304 
L 160.317754 117.741151 
L 155.153645 115.26492 
L 149.977806 122.733931 
z
" clip-path="url(#p8f45b7588f)" style="fill: #e66c5c"/>
    <path d="M 175.87655 104.419121 
L 181.04449 96.29837 
L 175.814462 93.888126 
L 170.657998 101.981474 
z
" clip-path="url(#p8f45b7588f)" style="fill: #fdb42f"/>
    <path d="M 118.788227 153.919763 
L 124.039126 147.644685 
L 118.985432 145.074272 
L 113.742602 151.325581 
z
" clip-path="url(#p8f45b7588f)" style="fill: #a11b9b"/>
    <path d="M 134.363544 143.705403 
L 139.584373 136.948551 
L 134.481653 134.411075 
L 129.269733 141.143217 
z
" clip-path="url(#p8f45b7588f)" style="fill: #bf3984"/>
    <path d="M 77.234655 173.969918 
L 82.589302 168.740345 
L 77.665265 166.1047 
L 72.317078 171.312501 
z
" clip-path="url(#p8f45b7588f)" style="fill: #5601a4"/>
    <path d="M 191.472585 90.99591 
L 196.608287 84.613413 
L 191.327136 82.238285 
L 186.199203 88.597188 
z
" clip-path="url(#p8f45b7588f)" style="fill: #f5e926"/>
    <path d="M 170.69989 112.450266 
L 175.87655 104.419121 
L 170.657998 101.981474 
L 165.492649 109.985348 
z
" clip-path="url(#p8f45b7588f)" style="fill: #f99a3e"/>
    <path d="M 103.18827 163.156751 
L 108.477471 157.354427 
L 103.470867 154.753127 
L 98.188947 160.532582 
z
" clip-path="url(#p8f45b7588f)" style="fill: #8104a7"/>
    <path d="M 149.932609 132.486854 
L 155.131637 125.236304 
L 149.977806 122.733931 
L 144.788584 129.95878 
z
" clip-path="url(#p8f45b7588f)" style="fill: #da5a6a"/>
    <path d="M 87.54416 171.392486 
L 92.880509 166.074027 
L 87.919141 163.443853 
L 82.589302 168.740345 
z
" clip-path="url(#p8f45b7588f)" style="fill: #6400a7"/>
    <path d="M 165.514176 120.232876 
L 170.69989 112.450266 
L 165.492649 109.985348 
L 160.317754 117.741151 
z
" clip-path="url(#p8f45b7588f)" style="fill: #f1814d"/>
    <path d="M 201.922509 87.003414 
L 207.016225 82.463064 
L 201.698237 80.092643 
L 196.608287 84.613413 
z
" clip-path="url(#p8f45b7588f)" style="fill: #f0f921"/>
    <path d="M 129.124456 150.23119 
L 134.363544 143.705403 
L 129.269733 141.143217 
L 124.039126 147.644685 
z
" clip-path="url(#p8f45b7588f)" style="fill: #b02991"/>
    <path d="M 186.307253 98.7237 
L 191.472585 90.99591 
L 186.199203 88.597188 
L 181.04449 96.29837 
z
" clip-path="url(#p8f45b7588f)" style="fill: #fcd025"/>
    <path d="M 113.515425 159.972015 
L 118.788227 153.919763 
L 113.742602 151.325581 
L 108.477471 157.354427 
z
" clip-path="url(#p8f45b7588f)" style="fill: #910ea3"/>
    <path d="M 144.71904 139.501914 
L 149.932609 132.486854 
L 144.788584 129.95878 
L 139.584373 136.948551 
z
" clip-path="url(#p8f45b7588f)" style="fill: #cc4977"/>
    <path d="M 71.872142 179.625068 
L 77.234655 173.969918 
L 72.317078 171.312501 
L 66.961879 176.944896 
z
" clip-path="url(#p8f45b7588f)" style="fill: #48039f"/>
    <path d="M 97.872965 168.720682 
L 103.18827 163.156751 
L 98.188947 160.532582 
L 92.880509 166.074027 
z
" clip-path="url(#p8f45b7588f)" style="fill: #7201a8"/>
    <path d="M 160.317754 127.754352 
L 165.514176 120.232876 
L 160.317754 117.741151 
L 155.131637 125.236304 
z
" clip-path="url(#p8f45b7588f)" style="fill: #e66c5c"/>
    <path d="M 181.127793 106.872038 
L 186.307253 98.7237 
L 181.04449 96.29837 
L 175.87655 104.419121 
z
" clip-path="url(#p8f45b7588f)" style="fill: #fdb42f"/>
    <path d="M 123.86549 156.530211 
L 129.124456 150.23119 
L 124.039126 147.644685 
L 118.788227 153.919763 
z
" clip-path="url(#p8f45b7588f)" style="fill: #a11b9b"/>
    <path d="M 139.489293 146.283653 
L 144.71904 139.501914 
L 139.584373 136.948551 
L 134.363544 143.705403 
z
" clip-path="url(#p8f45b7588f)" style="fill: #bf3984"/>
    <path d="M 82.183076 176.644004 
L 87.54416 171.392486 
L 82.589302 168.740345 
L 77.234655 173.969918 
z
" clip-path="url(#p8f45b7588f)" style="fill: #5601a4"/>
    <path d="M 196.77904 93.409677 
L 201.922509 87.003414 
L 196.608287 84.613413 
L 191.472585 90.99591 
z
" clip-path="url(#p8f45b7588f)" style="fill: #f5e926"/>
    <path d="M 175.939781 114.93064 
L 181.127793 106.872038 
L 175.87655 104.419121 
L 170.69989 112.450266 
z
" clip-path="url(#p8f45b7588f)" style="fill: #f99a3e"/>
    <path d="M 108.218954 165.797382 
L 113.515425 159.972015 
L 108.477471 157.354427 
L 103.18827 163.156751 
z
" clip-path="url(#p8f45b7588f)" style="fill: #8104a7"/>
    <path d="M 155.108897 135.030785 
L 160.317754 127.754352 
L 155.131637 125.236304 
L 149.932609 132.486854 
z
" clip-path="url(#p8f45b7588f)" style="fill: #da5a6a"/>
    <path d="M 66.538219 186.592468 
L 71.872142 179.625068 
L 66.961879 176.944896 
L 61.637774 183.886766 
z
" clip-path="url(#p8f45b7588f)" style="fill: #330597"/>
    <path d="M 92.530128 174.06128 
L 97.872965 168.720682 
L 92.880509 166.074027 
L 87.54416 171.392486 
z
" clip-path="url(#p8f45b7588f)" style="fill: #6400a7"/>
    <path d="M 170.743214 122.740241 
L 175.939781 114.93064 
L 170.69989 112.450266 
L 165.514176 120.232876 
z
" clip-path="url(#p8f45b7588f)" style="fill: #f1814d"/>
    <path d="M 207.270114 89.408428 
L 212.367542 84.848341 
L 207.016225 82.463064 
L 201.922509 87.003414 
z
" clip-path="url(#p8f45b7588f)" style="fill: #f0f921"/>
    <path d="M 134.24172 152.833936 
L 139.489293 146.283653 
L 134.363544 143.705403 
L 129.124456 150.23119 
z
" clip-path="url(#p8f45b7588f)" style="fill: #b02991"/>
    <path d="M 191.603058 101.164258 
L 196.77904 93.409677 
L 191.472585 90.99591 
L 186.307253 98.7237 
z
" clip-path="url(#p8f45b7588f)" style="fill: #fcd025"/>
    <path d="M 61.261236 195.356522 
L 66.538219 186.592468 
L 61.637774 183.886766 
L 56.373997 192.621571 
z
" clip-path="url(#p8f45b7588f)" style="fill: #0d0887"/>
    <path d="M 118.585025 162.606046 
L 123.86549 156.530211 
L 118.788227 153.919763 
L 113.515425 159.972015 
z
" clip-path="url(#p8f45b7588f)" style="fill: #910ea3"/>
    <path d="M 149.885955 142.071313 
L 155.108897 135.030785 
L 149.932609 132.486854 
L 144.71904 139.501914 
z
" clip-path="url(#p8f45b7588f)" style="fill: #cc4977"/>
    <path d="M 76.813263 182.322083 
L 82.183076 176.644004 
L 77.234655 173.969918 
L 71.872142 179.625068 
z
" clip-path="url(#p8f45b7588f)" style="fill: #48039f"/>
    <path d="M 102.8968 171.383973 
L 108.218954 165.797382 
L 103.18827 163.156751 
L 97.872965 168.720682 
z
" clip-path="url(#p8f45b7588f)" style="fill: #7201a8"/>
    <path d="M 165.53646 130.288223 
L 170.743214 122.740241 
L 165.514176 120.232876 
L 160.317754 127.754352 
z
" clip-path="url(#p8f45b7588f)" style="fill: #e66c5c"/>
    <path d="M 186.412035 109.340369 
L 191.603058 101.164258 
L 186.307253 98.7237 
L 181.127793 106.872038 
z
" clip-path="url(#p8f45b7588f)" style="fill: #fdb42f"/>
    <path d="M 128.97469 159.157079 
L 134.24172 152.833936 
L 129.124456 150.23119 
L 123.86549 156.530211 
z
" clip-path="url(#p8f45b7588f)" style="fill: #a11b9b"/>
    <path d="M 144.647282 148.878119 
L 149.885955 142.071313 
L 144.71904 139.501914 
L 139.489293 146.283653 
z
" clip-path="url(#p8f45b7588f)" style="fill: #bf3984"/>
    <path d="M 87.162633 179.334914 
L 92.530128 174.06128 
L 87.54416 171.392486 
L 82.183076 176.644004 
z
" clip-path="url(#p8f45b7588f)" style="fill: #5601a4"/>
    <path d="M 202.118883 95.83863 
L 207.270114 89.408428 
L 201.922509 87.003414 
L 196.77904 93.409677 
z
" clip-path="url(#p8f45b7588f)" style="fill: #f5e926"/>
    <path d="M 181.212632 117.426616 
L 186.412035 109.340369 
L 181.127793 106.872038 
L 175.939781 114.93064 
z
" clip-path="url(#p8f45b7588f)" style="fill: #f99a3e"/>
    <path d="M 113.281298 168.454631 
L 118.585025 162.606046 
L 113.515425 159.972015 
L 108.218954 165.797382 
z
" clip-path="url(#p8f45b7588f)" style="fill: #8104a7"/>
    <path d="M 160.317754 137.590721 
L 165.53646 130.288223 
L 160.317754 127.754352 
L 155.108897 135.030785 
z
" clip-path="url(#p8f45b7588f)" style="fill: #da5a6a"/>
    <path d="M 71.469502 189.315199 
L 76.813263 182.322083 
L 71.872142 179.625068 
L 66.538219 186.592468 
z
" clip-path="url(#p8f45b7588f)" style="fill: #330597"/>
    <path d="M 97.547501 176.746883 
L 102.8968 171.383973 
L 97.872965 168.720682 
L 92.530128 174.06128 
z
" clip-path="url(#p8f45b7588f)" style="fill: #6400a7"/>
    <path d="M 176.005177 125.263393 
L 181.212632 117.426616 
L 175.939781 114.93064 
L 170.743214 122.740241 
z
" clip-path="url(#p8f45b7588f)" style="fill: #f1814d"/>
    <path d="M 212.651417 91.828598 
L 217.752504 87.248615 
L 212.367542 84.848341 
L 207.270114 89.408428 
z
" clip-path="url(#p8f45b7588f)" style="fill: #f0f921"/>
    <path d="M 139.391221 155.453079 
L 144.647282 148.878119 
L 139.489293 146.283653 
L 134.24172 152.833936 
z
" clip-path="url(#p8f45b7588f)" style="fill: #b02991"/>
    <path d="M 196.932217 103.620187 
L 202.118883 95.83863 
L 196.77904 93.409677 
L 191.603058 101.164258 
z
" clip-path="url(#p8f45b7588f)" style="fill: #fcd025"/>
    <path d="M 66.179253 198.108697 
L 71.469502 189.315199 
L 66.538219 186.592468 
L 61.261236 195.356522 
z
" clip-path="url(#p8f45b7588f)" style="fill: #0d0887"/>
    <path d="M 123.686569 165.256673 
L 128.97469 159.157079 
L 123.86549 156.530211 
L 118.585025 162.606046 
z
" clip-path="url(#p8f45b7588f)" style="fill: #910ea3"/>
    <path d="M 155.085424 144.656901 
L 160.317754 137.590721 
L 155.108897 135.030785 
L 149.885955 142.071313 
z
" clip-path="url(#p8f45b7588f)" style="fill: #cc4977"/>
    <path d="M 81.785533 185.036101 
L 87.162633 179.334914 
L 82.183076 176.644004 
L 76.813263 182.322083 
z
" clip-path="url(#p8f45b7588f)" style="fill: #48039f"/>
    <path d="M 107.952313 174.064056 
L 113.281298 168.454631 
L 108.218954 165.797382 
L 102.8968 171.383973 
z
" clip-path="url(#p8f45b7588f)" style="fill: #7201a8"/>
    <path d="M 170.788063 132.838068 
L 176.005177 125.263393 
L 170.743214 122.740241 
L 165.53646 130.288223 
z
" clip-path="url(#p8f45b7588f)" style="fill: #e66c5c"/>
    <path d="M 191.729589 111.82426 
L 196.932217 103.620187 
L 191.603058 101.164258 
L 186.412035 109.340369 
z
" clip-path="url(#p8f45b7588f)" style="fill: #fdb42f"/>
    <path d="M 134.116128 161.800522 
L 139.391221 155.453079 
L 134.24172 152.833936 
L 128.97469 159.157079 
z
" clip-path="url(#p8f45b7588f)" style="fill: #a11b9b"/>
    <path d="M 149.837815 151.488955 
L 155.085424 144.656901 
L 149.885955 142.071313 
L 144.647282 148.878119 
z
" clip-path="url(#p8f45b7588f)" style="fill: #bf3984"/>
    <path d="M 92.173619 182.042809 
L 97.547501 176.746883 
L 92.530128 174.06128 
L 87.162633 179.334914 
z
" clip-path="url(#p8f45b7588f)" style="fill: #5601a4"/>
    <path d="M 207.492427 98.282914 
L 212.651417 91.828598 
L 207.270114 89.408428 
L 202.118883 95.83863 
z
" clip-path="url(#p8f45b7588f)" style="fill: #f5e926"/>
    <path d="M 186.518753 119.93834 
L 191.729589 111.82426 
L 186.412035 109.340369 
L 181.212632 117.426616 
z
" clip-path="url(#p8f45b7588f)" style="fill: #f99a3e"/>
    <path d="M 118.375599 171.128655 
L 123.686569 165.256673 
L 118.585025 162.606046 
L 113.281298 168.454631 
z
" clip-path="url(#p8f45b7588f)" style="fill: #8104a7"/>
    <path d="M 165.559487 140.166815 
L 170.788063 132.838068 
L 165.53646 130.288223 
L 160.317754 137.590721 
z
" clip-path="url(#p8f45b7588f)" style="fill: #da5a6a"/>
    <path d="M 76.431917 192.055117 
L 81.785533 185.036101 
L 76.813263 182.322083 
L 71.469502 189.315199 
z
" clip-path="url(#p8f45b7588f)" style="fill: #330597"/>
    <path d="M 102.596576 179.449456 
L 107.952313 174.064056 
L 102.8968 171.383973 
L 97.547501 176.746883 
z
" clip-path="url(#p8f45b7588f)" style="fill: #6400a7"/>
    <path d="M 181.300377 127.802483 
L 186.518753 119.93834 
L 181.212632 117.426616 
L 176.005177 125.263393 
z
" clip-path="url(#p8f45b7588f)" style="fill: #f1814d"/>
    <path d="M 218.066738 94.264067 
L 223.171429 89.664027 
L 217.752504 87.248615 
L 212.651417 91.828598 
z
" clip-path="url(#p8f45b7588f)" style="fill: #f0f921"/>
    <path d="M 144.573263 158.088773 
L 149.837815 151.488955 
L 144.647282 148.878119 
L 139.391221 155.453079 
z
" clip-path="url(#p8f45b7588f)" style="fill: #b02991"/>
    <path d="M 202.295048 106.091632 
L 207.492427 98.282914 
L 202.118883 95.83863 
L 196.932217 103.620187 
z
" clip-path="url(#p8f45b7588f)" style="fill: #fcd025"/>
    <path d="M 71.128338 200.878257 
L 76.431917 192.055117 
L 71.469502 189.315199 
L 66.179253 198.108697 
z
" clip-path="url(#p8f45b7588f)" style="fill: #0d0887"/>
    <path d="M 128.82036 167.924056 
L 134.116128 161.800522 
L 128.97469 159.157079 
L 123.686569 165.256673 
z
" clip-path="url(#p8f45b7588f)" style="fill: #910ea3"/>
    <path d="M 160.317754 147.25883 
L 165.559487 140.166815 
L 160.317754 137.590721 
L 155.085424 144.656901 
z
" clip-path="url(#p8f45b7588f)" style="fill: #cc4977"/>
    <path d="M 86.789248 187.767282 
L 92.173619 182.042809 
L 87.162633 179.334914 
L 81.785533 185.036101 
z
" clip-path="url(#p8f45b7588f)" style="fill: #48039f"/>
    <path d="M 113.039804 176.761093 
L 118.375599 171.128655 
L 113.281298 168.454631 
L 107.952313 174.064056 
z
" clip-path="url(#p8f45b7588f)" style="fill: #7201a8"/>
    <path d="M 176.072876 135.404036 
L 181.300377 127.802483 
L 176.005177 125.263393 
L 170.788063 132.838068 
z
" clip-path="url(#p8f45b7588f)" style="fill: #e66c5c"/>
    <path d="M 197.08077 114.323859 
L 202.295048 106.091632 
L 196.932217 103.620187 
L 191.729589 111.82426 
z
" clip-path="url(#p8f45b7588f)" style="fill: #fdb42f"/>
    <path d="M 139.290112 164.460698 
L 144.573263 158.088773 
L 139.391221 155.453079 
L 134.116128 161.800522 
z
" clip-path="url(#p8f45b7588f)" style="fill: #a11b9b"/>
    <path d="M 155.061201 154.116317 
L 160.317754 147.25883 
L 155.085424 144.656901 
L 149.837815 151.488955 
z
" clip-path="url(#p8f45b7588f)" style="fill: #bf3984"/>
    <path d="M 97.216334 184.76785 
L 102.596576 179.449456 
L 97.547501 176.746883 
L 92.173619 182.042809 
z
" clip-path="url(#p8f45b7588f)" style="fill: #5601a4"/>
    <path d="M 212.899995 100.742674 
L 218.066738 94.264067 
L 212.651417 91.828598 
L 207.492427 98.282914 
z
" clip-path="url(#p8f45b7588f)" style="fill: #f5e926"/>
    <path d="M 191.85846 122.465964 
L 197.08077 114.323859 
L 191.729589 111.82426 
L 186.518753 119.93834 
z
" clip-path="url(#p8f45b7588f)" style="fill: #f99a3e"/>
    <path d="M 123.502162 173.819612 
L 128.82036 167.924056 
L 123.686569 165.256673 
L 118.375599 171.128655 
z
" clip-path="url(#p8f45b7588f)" style="fill: #8104a7"/>
    <path d="M 170.834409 142.75922 
L 176.072876 135.404036 
L 170.788063 132.838068 
L 165.559487 140.166815 
z
" clip-path="url(#p8f45b7588f)" style="fill: #da5a6a"/>
    <path d="M 81.425759 194.812388 
L 86.789248 187.767282 
L 81.785533 185.036101 
L 76.431917 192.055117 
z
" clip-path="url(#p8f45b7588f)" style="fill: #330597"/>
    <path d="M 107.677654 182.169158 
L 113.039804 176.761093 
L 107.952313 174.064056 
L 102.596576 179.449456 
z
" clip-path="url(#p8f45b7588f)" style="fill: #6400a7"/>
    <path d="M 186.629128 130.357661 
L 191.85846 122.465964 
L 186.518753 119.93834 
L 181.300377 127.802483 
z
" clip-path="url(#p8f45b7588f)" style="fill: #f1814d"/>
    <path d="M 223.516401 96.714981 
L 228.624638 92.094722 
L 223.171429 89.664027 
L 218.066738 94.264067 
z
" clip-path="url(#p8f45b7588f)" style="fill: #f0f921"/>
    <path d="M 149.788156 160.741175 
L 155.061201 154.116317 
L 149.837815 151.488955 
L 144.573263 158.088773 
z
" clip-path="url(#p8f45b7588f)" style="fill: #b02991"/>
    <path d="M 207.691869 108.578743 
L 212.899995 100.742674 
L 207.492427 98.282914 
L 202.295048 106.091632 
z
" clip-path="url(#p8f45b7588f)" style="fill: #fcd025"/>
    <path d="M 76.108787 203.66537 
L 81.425759 194.812388 
L 76.431917 192.055117 
L 71.128338 200.878257 
z
" clip-path="url(#p8f45b7588f)" style="fill: #0d0887"/>
    <path d="M 133.986706 170.608353 
L 139.290112 164.460698 
L 134.116128 161.800522 
L 128.82036 167.924056 
z
" clip-path="url(#p8f45b7588f)" style="fill: #910ea3"/>
    <path d="M 165.583259 149.877256 
L 170.834409 142.75922 
L 165.559487 140.166815 
L 160.317754 147.25883 
z
" clip-path="url(#p8f45b7588f)" style="fill: #cc4977"/>
    <path d="M 91.824707 190.51579 
L 97.216334 184.76785 
L 92.173619 182.042809 
L 86.789248 187.767282 
z
" clip-path="url(#p8f45b7588f)" style="fill: #48039f"/>
    <path d="M 118.159577 179.475243 
L 123.502162 173.819612 
L 118.375599 171.128655 
L 113.039804 176.761093 
z
" clip-path="url(#p8f45b7588f)" style="fill: #7201a8"/>
    <path d="M 181.391213 137.986283 
L 186.629128 130.357661 
L 181.300377 127.802483 
L 176.072876 135.404036 
z
" clip-path="url(#p8f45b7588f)" style="fill: #e66c5c"/>
    <path d="M 202.465899 116.839316 
L 207.691869 108.578743 
L 202.295048 106.091632 
L 197.08077 114.323859 
z
" clip-path="url(#p8f45b7588f)" style="fill: #fdb42f"/>
    <path d="M 144.49695 167.137766 
L 149.788156 160.741175 
L 144.573263 158.088773 
L 139.290112 164.460698 
z
" clip-path="url(#p8f45b7588f)" style="fill: #a11b9b"/>
    <path d="M 160.317754 156.760361 
L 165.583259 149.877256 
L 160.317754 147.25883 
L 155.061201 154.116317 
z
" clip-path="url(#p8f45b7588f)" style="fill: #bf3984"/>
    <path d="M 102.29108 187.5102 
L 107.677654 182.169158 
L 102.596576 179.449456 
L 97.216334 184.76785 
z
" clip-path="url(#p8f45b7588f)" style="fill: #5601a4"/>
    <path d="M 218.341909 103.218057 
L 223.516401 96.714981 
L 218.066738 94.264067 
L 212.899995 100.742674 
z
" clip-path="url(#p8f45b7588f)" style="fill: #f5e926"/>
    <path d="M 197.232074 125.009637 
L 202.465899 116.839316 
L 197.08077 114.323859 
L 191.85846 122.465964 
z
" clip-path="url(#p8f45b7588f)" style="fill: #f99a3e"/>
    <path d="M 128.661294 176.527666 
L 133.986706 170.608353 
L 128.82036 167.924056 
L 123.502162 173.819612 
z
" clip-path="url(#p8f45b7588f)" style="fill: #8104a7"/>
    <path d="M 176.142836 145.368092 
L 181.391213 137.986283 
L 176.072876 135.404036 
L 170.834409 142.75922 
z
" clip-path="url(#p8f45b7588f)" style="fill: #da5a6a"/>
    <path d="M 86.451327 197.587176 
L 91.824707 190.51579 
L 86.789248 187.767282 
L 81.425759 194.812388 
z
" clip-path="url(#p8f45b7588f)" style="fill: #330597"/>
    <path d="M 112.79104 184.906154 
L 118.159577 179.475243 
L 113.039804 176.761093 
L 107.677654 182.169158 
z
" clip-path="url(#p8f45b7588f)" style="fill: #6400a7"/>
    <path d="M 191.991753 132.929082 
L 197.232074 125.009637 
L 191.85846 122.465964 
L 186.629128 130.357661 
z
" clip-path="url(#p8f45b7588f)" style="fill: #f1814d"/>
    <path d="M 229.000733 99.181486 
L 234.112459 94.540843 
L 228.624638 92.094722 
L 223.516401 96.714981 
z
" clip-path="url(#p8f45b7588f)" style="fill: #f0f921"/>
    <path d="M 155.036214 163.410446 
L 160.317754 156.760361 
L 155.061201 154.116317 
L 149.788156 160.741175 
z
" clip-path="url(#p8f45b7588f)" style="fill: #b02991"/>
    <path d="M 213.123004 111.081667 
L 218.341909 103.218057 
L 212.899995 100.742674 
L 207.691869 108.578743 
z
" clip-path="url(#p8f45b7588f)" style="fill: #fcd025"/>
    <path d="M 81.120899 206.470201 
L 86.451327 197.587176 
L 81.425759 194.812388 
L 76.108787 203.66537 
z
" clip-path="url(#p8f45b7588f)" style="fill: #0d0887"/>
    <path d="M 139.185916 173.309725 
L 144.49695 167.137766 
L 139.290112 164.460698 
L 133.986706 170.608353 
z
" clip-path="url(#p8f45b7588f)" style="fill: #910ea3"/>
    <path d="M 170.882255 152.512336 
L 176.142836 145.368092 
L 170.834409 142.75922 
L 165.583259 149.877256 
z
" clip-path="url(#p8f45b7588f)" style="fill: #cc4977"/>
    <path d="M 96.892214 193.28179 
L 102.29108 187.5102 
L 97.216334 184.76785 
L 91.824707 190.51579 
z
" clip-path="url(#p8f45b7588f)" style="fill: #48039f"/>
    <path d="M 123.311941 182.20667 
L 128.661294 176.527666 
L 123.502162 173.819612 
L 118.159577 179.475243 
z
" clip-path="url(#p8f45b7588f)" style="fill: #7201a8"/>
    <path d="M 186.743396 140.584962 
L 191.991753 132.929082 
L 186.629128 130.357661 
L 181.391213 137.986283 
z
" clip-path="url(#p8f45b7588f)" style="fill: #e66c5c"/>
    <path d="M 207.885299 119.370781 
L 213.123004 111.081667 
L 207.691869 108.578743 
L 202.465899 116.839316 
z
" clip-path="url(#p8f45b7588f)" style="fill: #fdb42f"/>
    <path d="M 149.736957 169.831888 
L 155.036214 163.410446 
L 149.788156 160.741175 
L 144.49695 167.137766 
z
" clip-path="url(#p8f45b7588f)" style="fill: #a11b9b"/>
    <path d="M 165.60779 159.421248 
L 170.882255 152.512336 
L 165.583259 149.877256 
L 160.317754 156.760361 
z
" clip-path="url(#p8f45b7588f)" style="fill: #bf3984"/>
    <path d="M 107.398162 190.270025 
L 112.79104 184.906154 
L 107.677654 182.169158 
L 102.29108 187.5102 
z
" clip-path="url(#p8f45b7588f)" style="fill: #5601a4"/>
    <path d="M 223.818498 105.709213 
L 229.000733 99.181486 
L 223.516401 96.714981 
L 218.341909 103.218057 
z
" clip-path="url(#p8f45b7588f)" style="fill: #f5e926"/>
    <path d="M 202.639918 127.569514 
L 207.885299 119.370781 
L 202.465899 116.839316 
L 197.232074 125.009637 
z
" clip-path="url(#p8f45b7588f)" style="fill: #f99a3e"/>
    <path d="M 133.853306 179.252979 
L 139.185916 173.309725 
L 133.986706 170.608353 
L 128.661294 176.527666 
z
" clip-path="url(#p8f45b7588f)" style="fill: #8104a7"/>
    <path d="M 181.485088 147.993586 
L 186.743396 140.584962 
L 181.391213 137.986283 
L 176.142836 145.368092 
z
" clip-path="url(#p8f45b7588f)" style="fill: #da5a6a"/>
    <path d="M 91.508925 200.379648 
L 96.892214 193.28179 
L 91.824707 190.51579 
L 86.451327 197.587176 
z
" clip-path="url(#p8f45b7588f)" style="fill: #330597"/>
    <path d="M 117.937045 187.660609 
L 123.311941 182.20667 
L 118.159577 179.475243 
L 112.79104 184.906154 
z
" clip-path="url(#p8f45b7588f)" style="fill: #6400a7"/>
    <path d="M 197.388573 135.5169 
L 202.639918 127.569514 
L 197.232074 125.009637 
L 191.991753 132.929082 
z
" clip-path="url(#p8f45b7588f)" style="fill: #f1814d"/>
    <path d="M 234.520065 101.663733 
L 239.635221 97.00254 
L 234.112459 94.540843 
L 229.000733 99.181486 
z
" clip-path="url(#p8f45b7588f)" style="fill: #f0f921"/>
    <path d="M 160.317754 166.096747 
L 165.60779 159.421248 
L 160.317754 156.760361 
L 155.036214 163.410446 
z
" clip-path="url(#p8f45b7588f)" style="fill: #b02991"/>
    <path d="M 218.588783 113.600557 
L 223.818498 105.709213 
L 218.341909 103.218057 
L 213.123004 111.081667 
z
" clip-path="url(#p8f45b7588f)" style="fill: #fcd025"/>
    <path d="M 86.164977 209.292921 
L 91.508925 200.379648 
L 86.451327 197.587176 
L 81.120899 206.470201 
z
" clip-path="url(#p8f45b7588f)" style="fill: #0d0887"/>
    <path d="M 144.418305 176.028337 
L 149.736957 169.831888 
L 144.49695 167.137766 
L 139.185916 173.309725 
z
" clip-path="url(#p8f45b7588f)" style="fill: #910ea3"/>
    <path d="M 176.215062 155.16423 
L 181.485088 147.993586 
L 176.142836 145.368092 
L 170.882255 152.512336 
z
" clip-path="url(#p8f45b7588f)" style="fill: #cc4977"/>
    <path d="M 101.992074 196.06545 
L 107.398162 190.270025 
L 102.29108 187.5102 
L 96.892214 193.28179 
z
" clip-path="url(#p8f45b7588f)" style="fill: #48039f"/>
    <path d="M 128.497207 184.95554 
L 133.853306 179.252979 
L 128.661294 176.527666 
L 123.311941 182.20667 
z
" clip-path="url(#p8f45b7588f)" style="fill: #7201a8"/>
    <path d="M 192.129749 143.200233 
L 197.388573 135.5169 
L 191.991753 132.929082 
L 186.743396 140.584962 
z
" clip-path="url(#p8f45b7588f)" style="fill: #e66c5c"/>
    <path d="M 213.339298 121.918407 
L 218.588783 113.600557 
L 213.123004 111.081667 
L 207.885299 119.370781 
z
" clip-path="url(#p8f45b7588f)" style="fill: #fdb42f"/>
    <path d="M 155.010451 172.543227 
L 160.317754 166.096747 
L 155.036214 163.410446 
L 149.736957 169.831888 
z
" clip-path="url(#p8f45b7588f)" style="fill: #a11b9b"/>
    <path d="M 170.93163 162.099137 
L 176.215062 155.16423 
L 170.882255 152.512336 
L 165.60779 159.421248 
z
" clip-path="url(#p8f45b7588f)" style="fill: #bf3984"/>
    <path d="M 112.537892 193.047491 
L 117.937045 187.660609 
L 112.79104 184.906154 
L 107.398162 190.270025 
z
" clip-path="url(#p8f45b7588f)" style="fill: #5601a4"/>
    <path d="M 229.330095 108.216293 
L 234.520065 101.663733 
L 229.000733 99.181486 
L 223.818498 105.709213 
z
" clip-path="url(#p8f45b7588f)" style="fill: #f5e926"/>
    <path d="M 208.082321 130.145749 
L 213.339298 121.918407 
L 207.885299 119.370781 
L 202.639918 127.569514 
z
" clip-path="url(#p8f45b7588f)" style="fill: #f99a3e"/>
    <path d="M 139.078514 181.995716 
L 144.418305 176.028337 
L 139.185916 173.309725 
L 133.853306 179.252979 
z
" clip-path="url(#p8f45b7588f)" style="fill: #8104a7"/>
    <path d="M 186.86149 150.635864 
L 192.129749 143.200233 
L 186.743396 140.584962 
L 181.485088 147.993586 
z
" clip-path="url(#p8f45b7588f)" style="fill: #da5a6a"/>
    <path d="M 96.59886 203.189975 
L 101.992074 196.06545 
L 96.892214 193.28179 
L 91.508925 200.379648 
z
" clip-path="url(#p8f45b7588f)" style="fill: #330597"/>
    <path d="M 123.11598 190.43269 
L 128.497207 184.95554 
L 123.311941 182.20667 
L 117.937045 187.660609 
z
" clip-path="url(#p8f45b7588f)" style="fill: #6400a7"/>
    <path d="M 202.819918 138.121272 
L 208.082321 130.145749 
L 202.639918 127.569514 
L 197.388573 135.5169 
z
" clip-path="url(#p8f45b7588f)" style="fill: #f1814d"/>
    <path d="M 240.074735 104.161872 
L 245.19326 99.479961 
L 239.635221 97.00254 
L 234.520065 101.663733 
z
" clip-path="url(#p8f45b7588f)" style="fill: #f0f921"/>
    <path d="M 165.633097 168.80024 
L 170.93163 162.099137 
L 165.60779 159.421248 
L 160.317754 166.096747 
z
" clip-path="url(#p8f45b7588f)" style="fill: #b02991"/>
    <path d="M 224.089538 116.135565 
L 229.330095 108.216293 
L 223.818498 105.709213 
L 218.588783 113.600557 
z
" clip-path="url(#p8f45b7588f)" style="fill: #fcd025"/>
    <path d="M 91.241328 212.133701 
L 96.59886 203.189975 
L 91.508925 200.379648 
L 86.164977 209.292921 
z
" clip-path="url(#p8f45b7588f)" style="fill: #0d0887"/>
    <path d="M 149.684192 178.764353 
L 155.010451 172.543227 
L 149.736957 169.831888 
L 144.418305 176.028337 
z
" clip-path="url(#p8f45b7588f)" style="fill: #910ea3"/>
    <path d="M 181.582005 157.8331 
L 186.86149 150.635864 
L 181.485088 147.993586 
L 176.215062 155.16423 
z
" clip-path="url(#p8f45b7588f)" style="fill: #cc4977"/>
    <path d="M 107.1246 198.86694 
L 112.537892 193.047491 
L 107.398162 190.270025 
L 101.992074 196.06545 
z
" clip-path="url(#p8f45b7588f)" style="fill: #48039f"/>
    <path d="M 133.715692 187.72202 
L 139.078514 181.995716 
L 133.853306 179.252979 
L 128.497207 184.95554 
z
" clip-path="url(#p8f45b7588f)" style="fill: #7201a8"/>
    <path d="M 197.5506 145.832253 
L 202.819918 138.121272 
L 197.388573 135.5169 
L 192.129749 143.200233 
z
" clip-path="url(#p8f45b7588f)" style="fill: #e66c5c"/>
    <path d="M 218.82823 124.482351 
L 224.089538 116.135565 
L 218.588783 113.600557 
L 213.339298 121.918407 
z
" clip-path="url(#p8f45b7588f)" style="fill: #fdb42f"/>
    <path d="M 160.317754 175.271949 
L 165.633097 168.80024 
L 160.317754 166.096747 
L 155.010451 172.543227 
z
" clip-path="url(#p8f45b7588f)" style="fill: #a11b9b"/>
    <path d="M 176.2896 164.794194 
L 181.582005 157.8331 
L 176.215062 155.16423 
L 170.93163 162.099137 
z
" clip-path="url(#p8f45b7588f)" style="fill: #bf3984"/>
    <path d="M 117.710582 195.84277 
L 123.11598 190.43269 
L 117.937045 187.660609 
L 112.537892 193.047491 
z
" clip-path="url(#p8f45b7588f)" style="fill: #5601a4"/>
    <path d="M 234.877036 110.73945 
L 240.074735 104.161872 
L 234.520065 101.663733 
L 229.330095 108.216293 
z
" clip-path="url(#p8f45b7588f)" style="fill: #f5e926"/>
    <path d="M 213.559615 132.738501 
L 218.82823 124.482351 
L 213.339298 121.918407 
L 208.082321 130.145749 
z
" clip-path="url(#p8f45b7588f)" style="fill: #f99a3e"/>
    <path d="M 144.337238 184.756045 
L 149.684192 178.764353 
L 144.418305 176.028337 
L 139.078514 181.995716 
z
" clip-path="url(#p8f45b7588f)" style="fill: #8104a7"/>
    <path d="M 192.27237 153.295087 
L 197.5506 145.832253 
L 192.129749 143.200233 
L 186.86149 150.635864 
z
" clip-path="url(#p8f45b7588f)" style="fill: #da5a6a"/>
    <path d="M 101.721443 206.018329 
L 107.1246 198.86694 
L 101.992074 196.06545 
L 96.59886 203.189975 
z
" clip-path="url(#p8f45b7588f)" style="fill: #330597"/>
    <path d="M 128.328164 193.222568 
L 133.715692 187.72202 
L 128.497207 184.95554 
L 123.11598 190.43269 
z
" clip-path="url(#p8f45b7588f)" style="fill: #6400a7"/>
    <path d="M 208.28612 140.742359 
L 213.559615 132.738501 
L 208.082321 130.145749 
L 202.819918 138.121272 
z
" clip-path="url(#p8f45b7588f)" style="fill: #f1814d"/>
    <path d="M 245.665083 106.676057 
L 250.786914 101.973256 
L 245.19326 99.479961 
L 240.074735 104.161872 
z
" clip-path="url(#p8f45b7588f)" style="fill: #f0f921"/>
    <path d="M 170.982569 171.521092 
L 176.2896 164.794194 
L 170.93163 162.099137 
L 165.633097 168.80024 
z
" clip-path="url(#p8f45b7588f)" style="fill: #b02991"/>
    <path d="M 229.625606 118.686846 
L 234.877036 110.73945 
L 229.330095 108.216293 
L 224.089538 116.135565 
z
" clip-path="url(#p8f45b7588f)" style="fill: #fcd025"/>
    <path d="M 96.350263 214.992715 
L 101.721443 206.018329 
L 96.59886 203.189975 
L 91.241328 212.133701 
z
" clip-path="url(#p8f45b7588f)" style="fill: #0d0887"/>
    <path d="M 154.983899 181.517941 
L 160.317754 175.271949 
L 155.010451 172.543227 
L 149.684192 178.764353 
z
" clip-path="url(#p8f45b7588f)" style="fill: #910ea3"/>
    <path d="M 186.983414 160.519108 
L 192.27237 153.295087 
L 186.86149 150.635864 
L 181.582005 157.8331 
z
" clip-path="url(#p8f45b7588f)" style="fill: #cc4977"/>
    <path d="M 112.290105 201.686431 
L 117.710582 195.84277 
L 112.537892 193.047491 
L 107.1246 198.86694 
z
" clip-path="url(#p8f45b7588f)" style="fill: #48039f"/>
    <path d="M 138.967716 190.50628 
L 144.337238 184.756045 
L 139.078514 181.995716 
L 133.715692 187.72202 
z
" clip-path="url(#p8f45b7588f)" style="fill: #7201a8"/>
    <path d="M 203.00628 148.481184 
L 208.28612 140.742359 
L 202.819918 138.121272 
L 197.5506 145.832253 
z
" clip-path="url(#p8f45b7588f)" style="fill: #e66c5c"/>
    <path d="M 224.35243 127.06277 
L 229.625606 118.686846 
L 224.089538 116.135565 
L 218.82823 124.482351 
z
" clip-path="url(#p8f45b7588f)" style="fill: #fdb42f"/>
    <path d="M 165.659192 178.018221 
L 170.982569 171.521092 
L 165.633097 168.80024 
L 160.317754 175.271949 
z
" clip-path="url(#p8f45b7588f)" style="fill: #a11b9b"/>
    <path d="M 181.682028 167.506584 
L 186.983414 160.519108 
L 181.582005 157.8331 
L 176.2896 164.794194 
z
" clip-path="url(#p8f45b7588f)" style="fill: #bf3984"/>
    <path d="M 122.916552 198.656032 
L 128.328164 193.222568 
L 123.11598 190.43269 
L 117.710582 195.84277 
z
" clip-path="url(#p8f45b7588f)" style="fill: #5601a4"/>
    <path d="M 240.459663 113.27884 
L 245.665083 106.676057 
L 240.074735 104.161872 
L 234.877036 110.73945 
z
" clip-path="url(#p8f45b7588f)" style="fill: #f5e926"/>
    <path d="M 219.072136 135.347928 
L 224.35243 127.06277 
L 218.82823 124.482351 
L 213.559615 132.738501 
z
" clip-path="url(#p8f45b7588f)" style="fill: #f99a3e"/>
    <path d="M 149.6298 187.534137 
L 154.983899 181.517941 
L 149.684192 178.764353 
L 144.337238 184.756045 
z
" clip-path="url(#p8f45b7588f)" style="fill: #8104a7"/>
    <path d="M 197.71806 155.971417 
L 203.00628 148.481184 
L 197.5506 145.832253 
L 192.27237 153.295087 
z
" clip-path="url(#p8f45b7588f)" style="fill: #da5a6a"/>
    <path d="M 106.876989 208.864882 
L 112.290105 201.686431 
L 107.1246 198.86694 
L 101.721443 206.018329 
z
" clip-path="url(#p8f45b7588f)" style="fill: #330597"/>
    <path d="M 133.573916 196.030415 
L 138.967716 190.50628 
L 133.715692 187.72202 
L 128.328164 193.222568 
z
" clip-path="url(#p8f45b7588f)" style="fill: #6400a7"/>
    <path d="M 213.787515 143.380321 
L 219.072136 135.347928 
L 213.559615 132.738501 
L 208.28612 140.742359 
z
" clip-path="url(#p8f45b7588f)" style="fill: #f1814d"/>
    <path d="M 251.291453 109.206442 
L 256.416528 104.48258 
L 250.786914 101.973256 
L 245.665083 106.676057 
z
" clip-path="url(#p8f45b7588f)" style="fill: #f0f921"/>
    <path d="M 176.3665 174.259471 
L 181.682028 167.506584 
L 176.2896 164.794194 
L 170.982569 171.521092 
z
" clip-path="url(#p8f45b7588f)" style="fill: #b02991"/>
    <path d="M 235.197327 121.254559 
L 240.459663 113.27884 
L 234.877036 110.73945 
L 229.625606 118.686846 
z
" clip-path="url(#p8f45b7588f)" style="fill: #fcd025"/>
    <path d="M 101.492095 217.87014 
L 106.876989 208.864882 
L 101.721443 206.018329 
L 96.350263 214.992715 
z
" clip-path="url(#p8f45b7588f)" style="fill: #0d0887"/>
    <path d="M 160.317754 184.289272 
L 165.659192 178.018221 
L 160.317754 175.271949 
L 154.983899 181.517941 
z
" clip-path="url(#p8f45b7588f)" style="fill: #910ea3"/>
    <path d="M 192.41962 163.22242 
L 197.71806 155.971417 
L 192.27237 153.295087 
L 186.983414 160.519108 
z
" clip-path="url(#p8f45b7588f)" style="fill: #cc4977"/>
    <path d="M 117.488909 204.524097 
L 122.916552 198.656032 
L 117.710582 195.84277 
L 112.290105 201.686431 
z
" clip-path="url(#p8f45b7588f)" style="fill: #48039f"/>
    <path d="M 144.253604 193.308493 
L 149.6298 187.534137 
L 144.337238 184.756045 
L 138.967716 190.50628 
z
" clip-path="url(#p8f45b7588f)" style="fill: #7201a8"/>
    <path d="M 208.497128 151.14719 
L 213.787515 143.380321 
L 208.28612 140.742359 
L 203.00628 148.481184 
z
" clip-path="url(#p8f45b7588f)" style="fill: #e66c5c"/>
    <path d="M 229.91224 129.659822 
L 235.197327 121.254559 
L 229.625606 118.686846 
L 224.35243 127.06277 
z
" clip-path="url(#p8f45b7588f)" style="fill: #fdb42f"/>
    <path d="M 171.035095 180.782213 
L 176.3665 174.259471 
L 170.982569 171.521092 
L 165.659192 178.018221 
z
" clip-path="url(#p8f45b7588f)" style="fill: #a11b9b"/>
    <path d="M 187.109248 170.236473 
L 192.41962 163.22242 
L 186.983414 160.519108 
L 181.682028 167.506584 
z
" clip-path="url(#p8f45b7588f)" style="fill: #bf3984"/>
    <path d="M 128.156123 201.487453 
L 133.573916 196.030415 
L 128.328164 193.222568 
L 122.916552 198.656032 
z
" clip-path="url(#p8f45b7588f)" style="fill: #5601a4"/>
    <path d="M 246.07832 115.834619 
L 251.291453 109.206442 
L 245.665083 106.676057 
L 240.459663 113.27884 
z
" clip-path="url(#p8f45b7588f)" style="fill: #f5e926"/>
    <path d="M 224.620226 137.974191 
L 229.91224 129.659822 
L 224.35243 127.06277 
L 219.072136 135.347928 
z
" clip-path="url(#p8f45b7588f)" style="fill: #f99a3e"/>
    <path d="M 154.956528 190.330162 
L 160.317754 184.289272 
L 154.983899 181.517941 
L 149.6298 187.534137 
z
" clip-path="url(#p8f45b7588f)" style="fill: #8104a7"/>
    <path d="M 203.198898 158.665021 
L 208.497128 151.14719 
L 203.00628 148.481184 
L 197.71806 155.971417 
z
" clip-path="url(#p8f45b7588f)" style="fill: #da5a6a"/>
    <path d="M 112.065818 211.729811 
L 117.488909 204.524097 
L 112.290105 201.686431 
L 106.876989 208.864882 
z
" clip-path="url(#p8f45b7588f)" style="fill: #330597"/>
    <path d="M 138.853563 198.856403 
L 144.253604 193.308493 
L 138.967716 190.50628 
L 133.573916 196.030415 
z
" clip-path="url(#p8f45b7588f)" style="fill: #6400a7"/>
    <path d="M 219.324445 146.035322 
L 224.620226 137.974191 
L 219.072136 135.347928 
L 213.787515 143.380321 
z
" clip-path="url(#p8f45b7588f)" style="fill: #f1814d"/>
    <path d="M 256.954195 111.753186 
L 262.082449 107.008088 
L 256.416528 104.48258 
L 251.291453 109.206442 
z
" clip-path="url(#p8f45b7588f)" style="fill: #f0f921"/>
    <path d="M 181.785224 177.015546 
L 187.109248 170.236473 
L 181.682028 167.506584 
L 176.3665 174.259471 
z
" clip-path="url(#p8f45b7588f)" style="fill: #b02991"/>
    <path d="M 240.805047 123.838862 
L 246.07832 115.834619 
L 240.459663 113.27884 
L 235.197327 121.254559 
z
" clip-path="url(#p8f45b7588f)" style="fill: #fcd025"/>
    <path d="M 106.667145 220.766153 
L 112.065818 211.729811 
L 106.876989 208.864882 
L 101.492095 217.87014 
z
" clip-path="url(#p8f45b7588f)" style="fill: #0d0887"/>
    <path d="M 165.686088 187.078516 
L 171.035095 180.782213 
L 165.659192 178.018221 
L 160.317754 184.289272 
z
" clip-path="url(#p8f45b7588f)" style="fill: #910ea3"/>
    <path d="M 197.890961 165.943204 
L 203.198898 158.665021 
L 197.71806 155.971417 
L 192.41962 163.22242 
z
" clip-path="url(#p8f45b7588f)" style="fill: #cc4977"/>
    <path d="M 122.721335 207.380116 
L 128.156123 201.487453 
L 122.916552 198.656032 
L 117.488909 204.524097 
z
" clip-path="url(#p8f45b7588f)" style="fill: #48039f"/>
    <path d="M 149.573683 196.128831 
L 154.956528 190.330162 
L 149.6298 187.534137 
L 144.253604 193.308493 
z
" clip-path="url(#p8f45b7588f)" style="fill: #7201a8"/>
    <path d="M 214.023484 153.830437 
L 219.324445 146.035322 
L 213.787515 143.380321 
L 208.497128 151.14719 
z
" clip-path="url(#p8f45b7588f)" style="fill: #e66c5c"/>
    <path d="M 235.508006 132.273669 
L 240.805047 123.838862 
L 235.197327 121.254559 
L 229.91224 129.659822 
z
" clip-path="url(#p8f45b7588f)" style="fill: #fdb42f"/>
    <path d="M 176.445798 183.564097 
L 181.785224 177.015546 
L 176.3665 174.259471 
L 171.035095 180.782213 
z
" clip-path="url(#p8f45b7588f)" style="fill: #a11b9b"/>
    <path d="M 192.571597 172.984033 
L 197.890961 165.943204 
L 192.41962 163.22242 
L 187.109248 170.236473 
z
" clip-path="url(#p8f45b7588f)" style="fill: #bf3984"/>
    <path d="M 133.429622 204.337207 
L 138.853563 198.856403 
L 133.573916 196.030415 
L 128.156123 201.487453 
z
" clip-path="url(#p8f45b7588f)" style="fill: #5601a4"/>
    <path d="M 251.733358 118.406946 
L 256.954195 111.753186 
L 251.291453 109.206442 
L 246.07832 115.834619 
z
" clip-path="url(#p8f45b7588f)" style="fill: #f5e926"/>
    <path d="M 230.20423 140.617455 
L 235.508006 132.273669 
L 229.91224 129.659822 
L 224.620226 137.974191 
z
" clip-path="url(#p8f45b7588f)" style="fill: #f99a3e"/>
    <path d="M 160.317754 193.144296 
L 165.686088 187.078516 
L 160.317754 184.289272 
L 154.956528 190.330162 
z
" clip-path="url(#p8f45b7588f)" style="fill: #8104a7"/>
    <path d="M 208.715225 161.376067 
L 214.023484 153.830437 
L 208.497128 151.14719 
L 203.198898 158.665021 
z
" clip-path="url(#p8f45b7588f)" style="fill: #da5a6a"/>
    <path d="M 117.288253 214.613296 
L 122.721335 207.380116 
L 117.488909 204.524097 
L 112.065818 211.729811 
z
" clip-path="url(#p8f45b7588f)" style="fill: #330597"/>
    <path d="M 144.167435 201.700711 
L 149.573683 196.128831 
L 144.253604 193.308493 
L 138.853563 198.856403 
z
" clip-path="url(#p8f45b7588f)" style="fill: #6400a7"/>
    <path d="M 224.897254 148.707528 
L 230.20423 140.617455 
L 224.620226 137.974191 
L 219.324445 146.035322 
z
" clip-path="url(#p8f45b7588f)" style="fill: #f1814d"/>
    <path d="M 262.653662 114.316446 
L 267.785029 109.549936 
L 262.082449 107.008088 
L 256.954195 111.753186 
z
" clip-path="url(#p8f45b7588f)" style="fill: #f0f921"/>
    <path d="M 187.239078 179.789489 
L 192.571597 172.984033 
L 187.109248 170.236473 
L 181.785224 177.015546 
z
" clip-path="url(#p8f45b7588f)" style="fill: #b02991"/>
    <path d="M 246.449117 126.439916 
L 251.733358 118.406946 
L 246.07832 115.834619 
L 240.805047 123.838862 
z
" clip-path="url(#p8f45b7588f)" style="fill: #fcd025"/>
    <path d="M 111.875735 223.680935 
L 117.288253 214.613296 
L 112.065818 211.729811 
L 106.667145 220.766153 
z
" clip-path="url(#p8f45b7588f)" style="fill: #0d0887"/>
    <path d="M 171.089235 189.885849 
L 176.445798 183.564097 
L 171.035095 180.782213 
L 165.686088 187.078516 
z
" clip-path="url(#p8f45b7588f)" style="fill: #910ea3"/>
    <path d="M 203.39778 168.68163 
L 208.715225 161.376067 
L 203.198898 158.665021 
L 197.890961 165.943204 
z
" clip-path="url(#p8f45b7588f)" style="fill: #cc4977"/>
    <path d="M 127.987709 210.254664 
L 133.429622 204.337207 
L 128.156123 201.487453 
L 122.721335 207.380116 
z
" clip-path="url(#p8f45b7588f)" style="fill: #48039f"/>
    <path d="M 154.928288 198.967473 
L 160.317754 193.144296 
L 154.956528 190.330162 
L 149.573683 196.128831 
z
" clip-path="url(#p8f45b7588f)" style="fill: #7201a8"/>
    <path d="M 219.585693 156.531092 
L 224.897254 148.707528 
L 219.324445 146.035322 
L 214.023484 153.830437 
z
" clip-path="url(#p8f45b7588f)" style="fill: #e66c5c"/>
    <path d="M 241.140076 134.904475 
L 246.449117 126.439916 
L 240.805047 123.838862 
L 235.508006 132.273669 
z
" clip-path="url(#p8f45b7588f)" style="fill: #fdb42f"/>
    <path d="M 181.891641 186.364048 
L 187.239078 179.789489 
L 181.785224 177.015546 
L 176.445798 183.564097 
z
" clip-path="url(#p8f45b7588f)" style="fill: #a11b9b"/>
    <path d="M 198.069419 175.749436 
L 203.39778 168.68163 
L 197.890961 165.943204 
L 192.571597 172.984033 
z
" clip-path="url(#p8f45b7588f)" style="fill: #bf3984"/>
    <path d="M 138.737379 207.205475 
L 144.167435 201.700711 
L 138.853563 198.856403 
L 133.429622 204.337207 
z
" clip-path="url(#p8f45b7588f)" style="fill: #5601a4"/>
    <path d="M 257.425131 120.995984 
L 262.653662 114.316446 
L 256.954195 111.753186 
L 251.733358 118.406946 
z
" clip-path="url(#p8f45b7588f)" style="fill: #f5e926"/>
    <path d="M 235.824497 143.277885 
L 241.140076 134.904475 
L 235.508006 132.273669 
L 230.20423 140.617455 
z
" clip-path="url(#p8f45b7588f)" style="fill: #f99a3e"/>
    <path d="M 165.713815 195.976715 
L 171.089235 189.885849 
L 165.686088 187.078516 
L 160.317754 193.144296 
z
" clip-path="url(#p8f45b7588f)" style="fill: #8104a7"/>
    <path d="M 214.267387 164.104723 
L 219.585693 156.531092 
L 214.023484 153.830437 
L 208.715225 161.376067 
z
" clip-path="url(#p8f45b7588f)" style="fill: #da5a6a"/>
    <path d="M 122.54462 217.515516 
L 127.987709 210.254664 
L 122.721335 207.380116 
L 117.288253 214.613296 
z
" clip-path="url(#p8f45b7588f)" style="fill: #330597"/>
    <path d="M 149.515864 204.563516 
L 154.928288 198.967473 
L 149.573683 196.128831 
L 144.167435 201.700711 
z
" clip-path="url(#p8f45b7588f)" style="fill: #6400a7"/>
    <path d="M 230.506293 151.397106 
L 235.824497 143.277885 
L 230.20423 140.617455 
L 224.897254 148.707528 
z
" clip-path="url(#p8f45b7588f)" style="fill: #f1814d"/>
    <path d="M 192.728407 182.581475 
L 198.069419 175.749436 
L 192.571597 172.984033 
L 187.239078 179.789489 
z
" clip-path="url(#p8f45b7588f)" style="fill: #b02991"/>
    <path d="M 252.12989 129.057885 
L 257.425131 120.995984 
L 251.733358 118.406946 
L 246.449117 126.439916 
z
" clip-path="url(#p8f45b7588f)" style="fill: #fcd025"/>
    <path d="M 117.118191 226.614669 
L 122.54462 217.515516 
L 117.288253 214.613296 
L 111.875735 223.680935 
z
" clip-path="url(#p8f45b7588f)" style="fill: #0d0887"/>
    <path d="M 176.527536 192.711447 
L 181.891641 186.364048 
L 176.445798 183.564097 
L 171.089235 189.885849 
z
" clip-path="url(#p8f45b7588f)" style="fill: #910ea3"/>
    <path d="M 208.940422 171.437871 
L 214.267387 164.104723 
L 208.715225 161.376067 
L 203.39778 168.68163 
z
" clip-path="url(#p8f45b7588f)" style="fill: #cc4977"/>
    <path d="M 133.288364 213.147924 
L 138.737379 207.205475 
L 133.429622 204.337207 
L 127.987709 210.254664 
z
" clip-path="url(#p8f45b7588f)" style="fill: #48039f"/>
    <path d="M 160.317754 201.824595 
L 165.713815 195.976715 
L 160.317754 193.144296 
L 154.928288 198.967473 
z
" clip-path="url(#p8f45b7588f)" style="fill: #7201a8"/>
    <path d="M 225.184107 159.249325 
L 230.506293 151.397106 
L 224.897254 148.707528 
L 219.585693 156.531092 
z
" clip-path="url(#p8f45b7588f)" style="fill: #e66c5c"/>
    <path d="M 246.808806 137.552405 
L 252.12989 129.057885 
L 246.449117 126.439916 
L 241.140076 134.904475 
z
" clip-path="url(#p8f45b7588f)" style="fill: #fdb42f"/>
    <path d="M 187.372966 189.182242 
L 192.728407 182.581475 
L 187.239078 179.789489 
L 181.891641 186.364048 
z
" clip-path="url(#p8f45b7588f)" style="fill: #a11b9b"/>
    <path d="M 203.60306 178.532855 
L 208.940422 171.437871 
L 203.39778 168.68163 
L 198.069419 175.749436 
z
" clip-path="url(#p8f45b7588f)" style="fill: #bf3984"/>
    <path d="M 144.079729 210.092436 
L 149.515864 204.563516 
L 144.167435 201.700711 
L 138.737379 207.205475 
z
" clip-path="url(#p8f45b7588f)" style="fill: #5601a4"/>
    <path d="M 241.481382 145.955649 
L 246.808806 137.552405 
L 241.140076 134.904475 
L 235.824497 143.277885 
z
" clip-path="url(#p8f45b7588f)" style="fill: #f99a3e"/>
    <path d="M 171.145051 198.827597 
L 176.527536 192.711447 
L 171.089235 189.885849 
L 165.713815 195.976715 
z
" clip-path="url(#p8f45b7588f)" style="fill: #8104a7"/>
    <path d="M 219.855734 166.851164 
L 225.184107 159.249325 
L 219.585693 156.531092 
L 214.267387 164.104723 
z
" clip-path="url(#p8f45b7588f)" style="fill: #da5a6a"/>
    <path d="M 127.835253 220.436655 
L 133.288364 213.147924 
L 127.987709 210.254664 
L 122.54462 217.515516 
z
" clip-path="url(#p8f45b7588f)" style="fill: #330597"/>
    <path d="M 154.89919 207.445 
L 160.317754 201.824595 
L 154.928288 198.967473 
L 149.515864 204.563516 
z
" clip-path="url(#p8f45b7588f)" style="fill: #6400a7"/>
    <path d="M 236.151916 154.104227 
L 241.481382 145.955649 
L 235.824497 143.277885 
L 230.506293 151.397106 
z
" clip-path="url(#p8f45b7588f)" style="fill: #f1814d"/>
    <path d="M 198.253556 185.391681 
L 203.60306 178.532855 
L 198.069419 175.749436 
L 192.728407 182.581475 
z
" clip-path="url(#p8f45b7588f)" style="fill: #b02991"/>
    <path d="M 122.394846 229.567542 
L 127.835253 220.436655 
L 122.54462 217.515516 
L 117.118191 226.614669 
z
" clip-path="url(#p8f45b7588f)" style="fill: #0d0887"/>
    <path d="M 182.001335 195.555489 
L 187.372966 189.182242 
L 181.891641 186.364048 
L 176.527536 192.711447 
z
" clip-path="url(#p8f45b7588f)" style="fill: #910ea3"/>
    <path d="M 214.519238 174.2121 
L 219.855734 166.851164 
L 214.267387 164.104723 
L 208.940422 171.437871 
z
" clip-path="url(#p8f45b7588f)" style="fill: #cc4977"/>
    <path d="M 138.623636 216.060079 
L 144.079729 210.092436 
L 138.737379 207.205475 
L 133.288364 213.147924 
z
" clip-path="url(#p8f45b7588f)" style="fill: #48039f"/>
    <path d="M 165.742424 204.700381 
L 171.145051 198.827597 
L 165.713815 195.976715 
L 160.317754 201.824595 
z
" clip-path="url(#p8f45b7588f)" style="fill: #7201a8"/>
    <path d="M 230.819078 161.985309 
L 236.151916 154.104227 
L 230.506293 151.397106 
L 225.184107 159.249325 
z
" clip-path="url(#p8f45b7588f)" style="fill: #e66c5c"/>
    <path d="M 192.890121 192.018858 
L 198.253556 185.391681 
L 192.728407 182.581475 
L 187.372966 189.182242 
z
" clip-path="url(#p8f45b7588f)" style="fill: #a11b9b"/>
    <path d="M 209.17287 181.334468 
L 214.519238 174.2121 
L 208.940422 171.437871 
L 203.60306 178.532855 
z
" clip-path="url(#p8f45b7588f)" style="fill: #bf3984"/>
    <path d="M 149.457012 212.998274 
L 154.89919 207.445 
L 149.515864 204.563516 
L 144.079729 210.092436 
z
" clip-path="url(#p8f45b7588f)" style="fill: #5601a4"/>
    <path d="M 176.611807 201.697124 
L 182.001335 195.555489 
L 176.527536 192.711447 
L 171.145051 198.827597 
z
" clip-path="url(#p8f45b7588f)" style="fill: #8104a7"/>
    <path d="M 225.480622 169.615562 
L 230.819078 161.985309 
L 225.184107 159.249325 
L 219.855734 166.851164 
z
" clip-path="url(#p8f45b7588f)" style="fill: #da5a6a"/>
    <path d="M 133.160487 223.376899 
L 138.623636 216.060079 
L 133.288364 213.147924 
L 127.835253 220.436655 
z
" clip-path="url(#p8f45b7588f)" style="fill: #330597"/>
    <path d="M 160.317754 210.345345 
L 165.742424 204.700381 
L 160.317754 201.824595 
L 154.89919 207.445 
z
" clip-path="url(#p8f45b7588f)" style="fill: #6400a7"/>
    <path d="M 203.814878 188.220284 
L 209.17287 181.334468 
L 203.60306 178.532855 
L 198.253556 185.391681 
z
" clip-path="url(#p8f45b7588f)" style="fill: #b02991"/>
    <path d="M 127.706036 232.53974 
L 133.160487 223.376899 
L 127.835253 220.436655 
L 122.394846 229.567542 
z
" clip-path="url(#p8f45b7588f)" style="fill: #0d0887"/>
    <path d="M 187.51098 198.418155 
L 192.890121 192.018858 
L 187.372966 189.182242 
L 182.001335 195.555489 
z
" clip-path="url(#p8f45b7588f)" style="fill: #910ea3"/>
    <path d="M 220.134583 177.004494 
L 225.480622 169.615562 
L 219.855734 166.851164 
L 214.519238 174.2121 
z
" clip-path="url(#p8f45b7588f)" style="fill: #cc4977"/>
    <path d="M 143.993863 218.991313 
L 149.457012 212.998274 
L 144.079729 210.092436 
L 138.623636 216.060079 
z
" clip-path="url(#p8f45b7588f)" style="fill: #48039f"/>
    <path d="M 171.202644 207.595012 
L 176.611807 201.697124 
L 171.145051 198.827597 
L 165.742424 204.700381 
z
" clip-path="url(#p8f45b7588f)" style="fill: #7201a8"/>
    <path d="M 198.443459 194.874078 
L 203.814878 188.220284 
L 198.253556 185.391681 
L 192.890121 192.018858 
z
" clip-path="url(#p8f45b7588f)" style="fill: #a11b9b"/>
    <path d="M 214.779205 184.154453 
L 220.134583 177.004494 
L 214.519238 174.2121 
L 209.17287 181.334468 
z
" clip-path="url(#p8f45b7588f)" style="fill: #bf3984"/>
    <path d="M 154.869571 215.923176 
L 160.317754 210.345345 
L 154.89919 207.445 
L 149.457012 212.998274 
z
" clip-path="url(#p8f45b7588f)" style="fill: #5601a4"/>
    <path d="M 182.114433 204.585479 
L 187.51098 198.418155 
L 182.001335 195.555489 
L 176.611807 201.697124 
z
" clip-path="url(#p8f45b7588f)" style="fill: #8104a7"/>
    <path d="M 138.520663 226.336435 
L 143.993863 218.991313 
L 138.623636 216.060079 
L 133.160487 223.376899 
z
" clip-path="url(#p8f45b7588f)" style="fill: #330597"/>
    <path d="M 165.771905 213.264739 
L 171.202644 207.595012 
L 165.742424 204.700381 
L 160.317754 210.345345 
z
" clip-path="url(#p8f45b7588f)" style="fill: #6400a7"/>
    <path d="M 209.41273 191.067467 
L 214.779205 184.154453 
L 209.17287 181.334468 
L 203.814878 188.220284 
z
" clip-path="url(#p8f45b7588f)" style="fill: #b02991"/>
    <path d="M 133.052099 235.531454 
L 138.520663 226.336435 
L 133.160487 223.376899 
L 127.706036 232.53974 
z
" clip-path="url(#p8f45b7588f)" style="fill: #0d0887"/>
    <path d="M 193.056826 201.29963 
L 198.443459 194.874078 
L 192.890121 192.018858 
L 187.51098 198.418155 
z
" clip-path="url(#p8f45b7588f)" style="fill: #910ea3"/>
    <path d="M 149.399392 221.941817 
L 154.869571 215.923176 
L 149.457012 212.998274 
L 143.993863 218.991313 
z
" clip-path="url(#p8f45b7588f)" style="fill: #48039f"/>
    <path d="M 176.698764 210.508675 
L 182.114433 204.585479 
L 176.611807 201.697124 
L 171.202644 207.595012 
z
" clip-path="url(#p8f45b7588f)" style="fill: #7201a8"/>
    <path d="M 204.033337 197.748084 
L 209.41273 191.067467 
L 203.814878 188.220284 
L 198.443459 194.874078 
z
" clip-path="url(#p8f45b7588f)" style="fill: #a11b9b"/>
    <path d="M 160.317754 218.867329 
L 165.771905 213.264739 
L 160.317754 210.345345 
L 154.869571 215.923176 
z
" clip-path="url(#p8f45b7588f)" style="fill: #5601a4"/>
    <path d="M 187.653282 207.492848 
L 193.056826 201.29963 
L 187.51098 198.418155 
L 182.114433 204.585479 
z
" clip-path="url(#p8f45b7588f)" style="fill: #8104a7"/>
    <path d="M 143.916126 229.315454 
L 149.399392 221.941817 
L 143.993863 218.991313 
L 138.520663 226.336435 
z
" clip-path="url(#p8f45b7588f)" style="fill: #330597"/>
    <path d="M 171.261993 216.203368 
L 176.698764 210.508675 
L 171.202644 207.595012 
L 165.771905 213.264739 
z
" clip-path="url(#p8f45b7588f)" style="fill: #6400a7"/>
    <path d="M 138.433382 238.542877 
L 143.916126 229.315454 
L 138.520663 226.336435 
L 133.052099 235.531454 
z
" clip-path="url(#p8f45b7588f)" style="fill: #0d0887"/>
    <path d="M 198.639229 204.2001 
L 204.033337 197.748084 
L 198.443459 194.874078 
L 193.056826 201.29963 
z
" clip-path="url(#p8f45b7588f)" style="fill: #910ea3"/>
    <path d="M 154.840571 224.911779 
L 160.317754 218.867329 
L 154.869571 215.923176 
L 149.399392 221.941817 
z
" clip-path="url(#p8f45b7588f)" style="fill: #48039f"/>
    <path d="M 182.231139 213.441558 
L 187.653282 207.492848 
L 182.114433 204.585479 
L 176.698764 210.508675 
z
" clip-path="url(#p8f45b7588f)" style="fill: #7201a8"/>
    <path d="M 165.801915 221.830923 
L 171.261993 216.203368 
L 165.771905 213.264739 
L 160.317754 218.867329 
z
" clip-path="url(#p8f45b7588f)" style="fill: #5601a4"/>
    <path d="M 193.228715 210.41942 
L 198.639229 204.2001 
L 193.056826 201.29963 
L 187.653282 207.492848 
z
" clip-path="url(#p8f45b7588f)" style="fill: #8104a7"/>
    <path d="M 149.347225 232.31415 
L 154.840571 224.911779 
L 149.399392 221.941817 
L 143.916126 229.315454 
z
" clip-path="url(#p8f45b7588f)" style="fill: #330597"/>
    <path d="M 176.788375 219.161425 
L 182.231139 213.441558 
L 176.698764 210.508675 
L 171.261993 216.203368 
z
" clip-path="url(#p8f45b7588f)" style="fill: #6400a7"/>
    <path d="M 143.850232 241.574204 
L 149.347225 232.31415 
L 143.916126 229.315454 
L 138.433382 238.542877 
z
" clip-path="url(#p8f45b7588f)" style="fill: #0d0887"/>
    <path d="M 160.317754 227.901393 
L 165.801915 221.830923 
L 160.317754 218.867329 
L 154.840571 224.911779 
z
" clip-path="url(#p8f45b7588f)" style="fill: #48039f"/>
    <path d="M 187.80013 216.393852 
L 193.228715 210.41942 
L 187.653282 207.492848 
L 182.231139 213.441558 
z
" clip-path="url(#p8f45b7588f)" style="fill: #7201a8"/>
    <path d="M 171.322411 224.814153 
L 176.788375 219.161425 
L 171.261993 216.203368 
L 165.801915 221.830923 
z
" clip-path="url(#p8f45b7588f)" style="fill: #5601a4"/>
    <path d="M 154.814315 235.332717 
L 160.317754 227.901393 
L 154.840571 224.911779 
L 149.347225 232.31415 
z
" clip-path="url(#p8f45b7588f)" style="fill: #330597"/>
    <path d="M 182.351413 222.139101 
L 187.80013 216.393852 
L 182.231139 213.441558 
L 176.788375 219.161425 
z
" clip-path="url(#p8f45b7588f)" style="fill: #6400a7"/>
    <path d="M 149.303005 244.625634 
L 154.814315 235.332717 
L 149.347225 232.31415 
L 143.850232 241.574204 
z
" clip-path="url(#p8f45b7588f)" style="fill: #0d0887"/>
    <path d="M 165.8313 230.910856 
L 171.322411 224.814153 
L 165.801915 221.830923 
L 160.317754 227.901393 
z
" clip-path="url(#p8f45b7588f)" style="fill: #48039f"/>
    <path d="M 176.879604 227.817213 
L 182.351413 222.139101 
L 176.788375 219.161425 
L 171.322411 224.814153 
z
" clip-path="url(#p8f45b7588f)" style="fill: #5601a4"/>
    <path d="M 160.317754 238.371354 
L 165.8313 230.910856 
L 160.317754 227.901393 
L 154.814315 235.332717 
z
" clip-path="url(#p8f45b7588f)" style="fill: #330597"/>
    <path d="M 154.792058 247.697367 
L 160.317754 238.371354 
L 154.814315 235.332717 
L 149.303005 244.625634 
z
" clip-path="url(#p8f45b7588f)" style="fill: #0d0887"/>
    <path d="M 171.381572 233.940364 
L 176.879604 227.817213 
L 171.322411 224.814153 
L 165.8313 230.910856 
z
" clip-path="url(#p8f45b7588f)" style="fill: #48039f"/>
    <path d="M 165.857907 241.430261 
L 171.381572 233.940364 
L 165.8313 230.910856 
L 160.317754 238.371354 
z
" clip-path="url(#p8f45b7588f)" style="fill: #330597"/>
    <path d="M 160.317754 250.789605 
L 165.857907 241.430261 
L 160.317754 238.371354 
L 154.792058 247.697367 
z
" clip-path="url(#p8f45b7588f)" style="fill: #0d0887"/>
   </g>
   <g id="text_19">
    <!-- t = 0.3c -->
    <g transform="translate(132.686959 16.318125) scale(0.12 -0.12)">
     <defs>
      <path id="DejaVuSans-74" d="M 1172 4494 
L 1172 3500 
L 2356 3500 
L 2356 3053 
L 1172 3053 
L 1172 1153 
Q 1172 725 1289 603 
Q 1406 481 1766 481 
L 2356 481 
L 2356 0 
L 1766 0 
Q 1100 0 847 248 
Q 594 497 594 1153 
L 594 3053 
L 172 3053 
L 172 3500 
L 594 3500 
L 594 4494 
L 1172 4494 
z
" transform="scale(0.015625)"/>
      <path id="DejaVuSans-20" transform="scale(0.015625)"/>
      <path id="DejaVuSans-3d" d="M 678 2906 
L 4684 2906 
L 4684 2381 
L 678 2381 
L 678 2906 
z
M 678 1631 
L 4684 1631 
L 4684 1100 
L 678 1100 
L 678 1631 
z
" transform="scale(0.015625)"/>
      <path id="DejaVuSans-33" d="M 2597 2516 
Q 3050 2419 3304 2112 
Q 3559 1806 3559 1356 
Q 3559 666 3084 287 
Q 2609 -91 1734 -91 
Q 1441 -91 1130 -33 
Q 819 25 488 141 
L 488 750 
Q 750 597 1062 519 
Q 1375 441 1716 441 
Q 2309 441 2620 675 
Q 2931 909 2931 1356 
Q 2931 1769 2642 2001 
Q 2353 2234 1838 2234 
L 1294 2234 
L 1294 2753 
L 1863 2753 
Q 2328 2753 2575 2939 
Q 2822 3125 2822 3475 
Q 2822 3834 2567 4026 
Q 2313 4219 1838 4219 
Q 1578 4219 1281 4162 
Q 984 4106 628 3988 
L 628 4550 
Q 988 4650 1302 4700 
Q 1616 4750 1894 4750 
Q 2613 4750 3031 4423 
Q 3450 4097 3450 3541 
Q 3450 3153 3228 2886 
Q 3006 2619 2597 2516 
z
" transform="scale(0.015625)"/>
      <path id="DejaVuSans-63" d="M 3122 3366 
L 3122 2828 
Q 2878 2963 2633 3030 
Q 2388 3097 2138 3097 
Q 1578 3097 1268 2742 
Q 959 2388 959 1747 
Q 959 1106 1268 751 
Q 1578 397 2138 397 
Q 2388 397 2633 464 
Q 2878 531 3122 666 
L 3122 134 
Q 2881 22 2623 -34 
Q 2366 -91 2075 -91 
Q 1284 -91 818 406 
Q 353 903 353 1747 
Q 353 2603 823 3093 
Q 1294 3584 2113 3584 
Q 2378 3584 2631 3529 
Q 2884 3475 3122 3366 
z
" transform="scale(0.015625)"/>
     </defs>
     <use xlink:href="#DejaVuSans-74"/>
     <use xlink:href="#DejaVuSans-20" x="39.208984"/>
     <use xlink:href="#DejaVuSans-3d" x="70.996094"/>
     <use xlink:href="#DejaVuSans-20" x="154.785156"/>
     <use xlink:href="#DejaVuSans-30" x="186.572266"/>
     <use xlink:href="#DejaVuSans-2e" x="250.195312"/>
     <use xlink:href="#DejaVuSans-33" x="281.982422"/>
     <use xlink:href="#DejaVuSans-63" x="345.605469"/>
    </g>
   </g>
  </g>
 </g>
 <defs>
  <clipPath id="p8f45b7588f">
   <rect x="23.665646" y="22.318125" width="266.112" height="266.112"/>
  </clipPath>
 </defs>
</svg>
