<?xml version="1.0" encoding="utf-8" standalone="no"?>
<!DOCTYPE svg PUBLIC "-//W3C//DTD SVG 1.1//EN"
  "http://www.w3.org/Graphics/SVG/1.1/DTD/svg11.dtd">
<svg xmlns:xlink="http://www.w3.org/1999/xlink" width="297.033449pt" height="301.632874pt" viewBox="0 0 297.033449 301.632874" xmlns="http://www.w3.org/2000/svg" version="1.1">
 <metadata>
  <rdf:RDF xmlns:dc="http://purl.org/dc/elements/1.1/" xmlns:cc="http://creativecommons.org/ns#" xmlns:rdf="http://www.w3.org/1999/02/22-rdf-syntax-ns#">
   <cc:Work>
    <dc:type rdf:resource="http://purl.org/dc/dcmitype/StillImage"/>
    <dc:date>2023-06-13T03:34:41.955676</dc:date>
    <dc:format>image/svg+xml</dc:format>
    <dc:creator>
     <cc:Agent>
      <dc:title>Matplotlib v3.6.1, https://matplotlib.org/</dc:title>
     </cc:Agent>
    </dc:creator>
   </cc:Work>
  </rdf:RDF>
 </metadata>
 <defs>
  <style type="text/css">*{stroke-linejoin: round; stroke-linecap: butt}</style>
 </defs>
 <g id="figure_1">
  <g id="patch_1">
   <path d="M 0 301.632874 
L 297.033449 301.632874 
L 297.033449 0 
L 0 0 
z
" style="fill: #ffffff"/>
  </g>
  <g id="patch_2">
   <path d="M 23.665646 288.430125 
L 289.777646 288.430125 
L 289.777646 22.318125 
L 23.665646 22.318125 
z
" style="fill: #ffffff"/>
  </g>
  <g id="pane3d_1">
   <g id="patch_3">
    <path d="M 278.761186 206.176637 
L 160.317754 147.275961 
L 160.317754 41.213854 
L 284.169562 94.895442 
" style="fill: #f2f2f2; opacity: 0.5; stroke: #f2f2f2; stroke-linejoin: miter"/>
   </g>
  </g>
  <g id="pane3d_2">
   <g id="patch_4">
    <path d="M 41.874322 206.176637 
L 160.317754 147.275961 
L 160.317754 41.213854 
L 36.465946 94.895442 
" style="fill: #e6e6e6; opacity: 0.5; stroke: #e6e6e6; stroke-linejoin: miter"/>
   </g>
  </g>
  <g id="pane3d_3">
   <g id="patch_5">
    <path d="M 160.317754 274.122723 
L 278.761186 206.176637 
L 160.317754 147.275961 
L 41.874322 206.176637 
" style="fill: #ececec; opacity: 0.5; stroke: #ececec; stroke-linejoin: miter"/>
   </g>
  </g>
  <g id="axis3d_1">
   <g id="line2d_1">
    <path d="M 278.761186 206.176637 
L 160.317754 274.122723 
" style="fill: none; stroke: #000000; stroke-width: 0.8; stroke-linecap: square"/>
   </g>
   <g id="text_1">
    <!-- X -->
    <g transform="translate(240.892539 273.696013) scale(0.1 -0.1)">
     <defs>
      <path id="DejaVuSans-58" d="M 403 4666 
L 1081 4666 
L 2241 2931 
L 3406 4666 
L 4084 4666 
L 2584 2425 
L 4184 0 
L 3506 0 
L 2194 1984 
L 872 0 
L 191 0 
L 1856 2491 
L 403 4666 
z
" transform="scale(0.015625)"/>
     </defs>
     <use xlink:href="#DejaVuSans-58"/>
    </g>
   </g>
   <g id="Line3DCollection_1">
    <path d="M 168.394353 269.489513 
L 49.912638 202.179267 
L 44.895117 91.241952 
" style="fill: none; stroke: #b0b0b0; stroke-width: 0.8"/>
    <path d="M 195.499018 253.94069 
L 76.929634 188.743998 
L 73.200325 78.973512 
" style="fill: none; stroke: #b0b0b0; stroke-width: 0.8"/>
    <path d="M 221.729083 238.893589 
L 103.134886 175.712401 
L 100.617646 67.089912 
" style="fill: none; stroke: #b0b0b0; stroke-width: 0.8"/>
    <path d="M 247.12621 224.324311 
L 128.564436 163.066553 
L 127.188212 55.573325 
" style="fill: none; stroke: #b0b0b0; stroke-width: 0.8"/>
    <path d="M 271.729451 210.210451 
L 153.252223 150.789575 
L 152.950652 44.407006 
" style="fill: none; stroke: #b0b0b0; stroke-width: 0.8"/>
   </g>
   <g id="xtick_1">
    <g id="line2d_2">
     <path d="M 167.374695 268.910238 
L 170.437413 270.650189 
" style="fill: none; stroke: #000000; stroke-width: 0.8; stroke-linecap: square"/>
    </g>
    <g id="text_2">
     <!-- 0.0 -->
     <g transform="translate(171.019345 292.353187) scale(0.1 -0.1)">
      <defs>
       <path id="DejaVuSans-30" d="M 2034 4250 
Q 1547 4250 1301 3770 
Q 1056 3291 1056 2328 
Q 1056 1369 1301 889 
Q 1547 409 2034 409 
Q 2525 409 2770 889 
Q 3016 1369 3016 2328 
Q 3016 3291 2770 3770 
Q 2525 4250 2034 4250 
z
M 2034 4750 
Q 2819 4750 3233 4129 
Q 3647 3509 3647 2328 
Q 3647 1150 3233 529 
Q 2819 -91 2034 -91 
Q 1250 -91 836 529 
Q 422 1150 422 2328 
Q 422 3509 836 4129 
Q 1250 4750 2034 4750 
z
" transform="scale(0.015625)"/>
       <path id="DejaVuSans-2e" d="M 684 794 
L 1344 794 
L 1344 0 
L 684 0 
L 684 794 
z
" transform="scale(0.015625)"/>
      </defs>
      <use xlink:href="#DejaVuSans-30"/>
      <use xlink:href="#DejaVuSans-2e" x="63.623047"/>
      <use xlink:href="#DejaVuSans-30" x="95.410156"/>
     </g>
    </g>
   </g>
   <g id="xtick_2">
    <g id="line2d_3">
     <path d="M 194.479783 253.380253 
L 197.541168 255.06359 
" style="fill: none; stroke: #000000; stroke-width: 0.8; stroke-linecap: square"/>
    </g>
    <g id="text_3">
     <!-- 0.5 -->
     <g transform="translate(198.015831 276.515757) scale(0.1 -0.1)">
      <defs>
       <path id="DejaVuSans-35" d="M 691 4666 
L 3169 4666 
L 3169 4134 
L 1269 4134 
L 1269 2991 
Q 1406 3038 1543 3061 
Q 1681 3084 1819 3084 
Q 2600 3084 3056 2656 
Q 3513 2228 3513 1497 
Q 3513 744 3044 326 
Q 2575 -91 1722 -91 
Q 1428 -91 1123 -41 
Q 819 9 494 109 
L 494 744 
Q 775 591 1075 516 
Q 1375 441 1709 441 
Q 2250 441 2565 725 
Q 2881 1009 2881 1497 
Q 2881 1984 2565 2268 
Q 2250 2553 1709 2553 
Q 1456 2553 1204 2497 
Q 953 2441 691 2322 
L 691 4666 
z
" transform="scale(0.015625)"/>
      </defs>
      <use xlink:href="#DejaVuSans-30"/>
      <use xlink:href="#DejaVuSans-2e" x="63.623047"/>
      <use xlink:href="#DejaVuSans-35" x="95.410156"/>
     </g>
    </g>
   </g>
   <g id="xtick_3">
    <g id="line2d_4">
     <path d="M 220.710775 238.351085 
L 223.769318 239.980527 
" style="fill: none; stroke: #000000; stroke-width: 0.8; stroke-linecap: square"/>
    </g>
    <g id="text_4">
     <!-- 1.0 -->
     <g transform="translate(224.139131 261.190579) scale(0.1 -0.1)">
      <defs>
       <path id="DejaVuSans-31" d="M 794 531 
L 1825 531 
L 1825 4091 
L 703 3866 
L 703 4441 
L 1819 4666 
L 2450 4666 
L 2450 531 
L 3481 531 
L 3481 0 
L 794 0 
L 794 531 
z
" transform="scale(0.015625)"/>
      </defs>
      <use xlink:href="#DejaVuSans-31"/>
      <use xlink:href="#DejaVuSans-2e" x="63.623047"/>
      <use xlink:href="#DejaVuSans-30" x="95.410156"/>
     </g>
    </g>
   </g>
   <g id="xtick_4">
    <g id="line2d_5">
     <path d="M 246.109283 223.798892 
L 249.163618 225.376987 
" style="fill: none; stroke: #000000; stroke-width: 0.8; stroke-linecap: square"/>
    </g>
    <g id="text_5">
     <!-- 1.5 -->
     <g transform="translate(249.430937 246.353196) scale(0.1 -0.1)">
      <use xlink:href="#DejaVuSans-31"/>
      <use xlink:href="#DejaVuSans-2e" x="63.623047"/>
      <use xlink:href="#DejaVuSans-35" x="95.410156"/>
     </g>
    </g>
   </g>
   <g id="xtick_5">
    <g id="line2d_6">
     <path d="M 270.714319 209.701323 
L 273.763212 211.23046 
" style="fill: none; stroke: #000000; stroke-width: 0.8; stroke-linecap: square"/>
    </g>
    <g id="text_6">
     <!-- 2.0 -->
     <g transform="translate(273.930324 231.980683) scale(0.1 -0.1)">
      <defs>
       <path id="DejaVuSans-32" d="M 1228 531 
L 3431 531 
L 3431 0 
L 469 0 
L 469 531 
Q 828 903 1448 1529 
Q 2069 2156 2228 2338 
Q 2531 2678 2651 2914 
Q 2772 3150 2772 3378 
Q 2772 3750 2511 3984 
Q 2250 4219 1831 4219 
Q 1534 4219 1204 4116 
Q 875 4013 500 3803 
L 500 4441 
Q 881 4594 1212 4672 
Q 1544 4750 1819 4750 
Q 2544 4750 2975 4387 
Q 3406 4025 3406 3419 
Q 3406 3131 3298 2873 
Q 3191 2616 2906 2266 
Q 2828 2175 2409 1742 
Q 1991 1309 1228 531 
z
" transform="scale(0.015625)"/>
      </defs>
      <use xlink:href="#DejaVuSans-32"/>
      <use xlink:href="#DejaVuSans-2e" x="63.623047"/>
      <use xlink:href="#DejaVuSans-30" x="95.410156"/>
     </g>
    </g>
   </g>
  </g>
  <g id="axis3d_2">
   <g id="line2d_7">
    <path d="M 41.874322 206.176637 
L 160.317754 274.122723 
" style="fill: none; stroke: #000000; stroke-width: 0.8; stroke-linecap: square"/>
   </g>
   <g id="text_7">
    <!-- Y -->
    <g transform="translate(73.264063 273.696013) scale(0.1 -0.1)">
     <defs>
      <path id="DejaVuSans-59" d="M -13 4666 
L 666 4666 
L 1959 2747 
L 3244 4666 
L 3922 4666 
L 2272 2222 
L 2272 0 
L 1638 0 
L 1638 2222 
L -13 4666 
z
" transform="scale(0.015625)"/>
     </defs>
     <use xlink:href="#DejaVuSans-59"/>
    </g>
   </g>
   <g id="Line3DCollection_2">
    <path d="M 275.740391 91.241952 
L 270.72287 202.179267 
L 152.241155 269.489513 
" style="fill: none; stroke: #b0b0b0; stroke-width: 0.8"/>
    <path d="M 247.435183 78.973512 
L 243.705874 188.743998 
L 125.136491 253.94069 
" style="fill: none; stroke: #b0b0b0; stroke-width: 0.8"/>
    <path d="M 220.017862 67.089912 
L 217.500622 175.712401 
L 98.906425 238.893589 
" style="fill: none; stroke: #b0b0b0; stroke-width: 0.8"/>
    <path d="M 193.447297 55.573325 
L 192.071073 163.066553 
L 73.509299 224.324311 
" style="fill: none; stroke: #b0b0b0; stroke-width: 0.8"/>
    <path d="M 167.684856 44.407006 
L 167.383285 150.789575 
L 48.906057 210.210451 
" style="fill: none; stroke: #b0b0b0; stroke-width: 0.8"/>
   </g>
   <g id="xtick_6">
    <g id="line2d_8">
     <path d="M 153.260813 268.910238 
L 150.198095 270.650189 
" style="fill: none; stroke: #000000; stroke-width: 0.8; stroke-linecap: square"/>
    </g>
    <g id="text_8">
     <!-- 0.0 -->
     <g transform="translate(133.713038 292.353187) scale(0.1 -0.1)">
      <use xlink:href="#DejaVuSans-30"/>
      <use xlink:href="#DejaVuSans-2e" x="63.623047"/>
      <use xlink:href="#DejaVuSans-30" x="95.410156"/>
     </g>
    </g>
   </g>
   <g id="xtick_7">
    <g id="line2d_9">
     <path d="M 126.155725 253.380253 
L 123.09434 255.06359 
" style="fill: none; stroke: #000000; stroke-width: 0.8; stroke-linecap: square"/>
    </g>
    <g id="text_9">
     <!-- 0.5 -->
     <g transform="translate(106.716553 276.515757) scale(0.1 -0.1)">
      <use xlink:href="#DejaVuSans-30"/>
      <use xlink:href="#DejaVuSans-2e" x="63.623047"/>
      <use xlink:href="#DejaVuSans-35" x="95.410156"/>
     </g>
    </g>
   </g>
   <g id="xtick_8">
    <g id="line2d_10">
     <path d="M 99.924733 238.351085 
L 96.86619 239.980527 
" style="fill: none; stroke: #000000; stroke-width: 0.8; stroke-linecap: square"/>
    </g>
    <g id="text_10">
     <!-- 1.0 -->
     <g transform="translate(80.593252 261.190579) scale(0.1 -0.1)">
      <use xlink:href="#DejaVuSans-31"/>
      <use xlink:href="#DejaVuSans-2e" x="63.623047"/>
      <use xlink:href="#DejaVuSans-30" x="95.410156"/>
     </g>
    </g>
   </g>
   <g id="xtick_9">
    <g id="line2d_11">
     <path d="M 74.526225 223.798892 
L 71.47189 225.376987 
" style="fill: none; stroke: #000000; stroke-width: 0.8; stroke-linecap: square"/>
    </g>
    <g id="text_11">
     <!-- 1.5 -->
     <g transform="translate(55.301447 246.353196) scale(0.1 -0.1)">
      <use xlink:href="#DejaVuSans-31"/>
      <use xlink:href="#DejaVuSans-2e" x="63.623047"/>
      <use xlink:href="#DejaVuSans-35" x="95.410156"/>
     </g>
    </g>
   </g>
   <g id="xtick_10">
    <g id="line2d_12">
     <path d="M 49.92119 209.701323 
L 46.872297 211.23046 
" style="fill: none; stroke: #000000; stroke-width: 0.8; stroke-linecap: square"/>
    </g>
    <g id="text_12">
     <!-- 2.0 -->
     <g transform="translate(30.802059 231.980683) scale(0.1 -0.1)">
      <use xlink:href="#DejaVuSans-32"/>
      <use xlink:href="#DejaVuSans-2e" x="63.623047"/>
      <use xlink:href="#DejaVuSans-30" x="95.410156"/>
     </g>
    </g>
   </g>
  </g>
  <g id="axis3d_3">
   <g id="line2d_13">
    <path d="M 41.874322 206.176637 
L 36.465946 94.895442 
" style="fill: none; stroke: #000000; stroke-width: 0.8; stroke-linecap: square"/>
   </g>
   <g id="text_13">
    <!-- Z -->
    <g transform="translate(-7.876777 154.537392) scale(0.1 -0.1)">
     <defs>
      <path id="DejaVuSans-5a" d="M 359 4666 
L 4025 4666 
L 4025 4184 
L 1075 531 
L 4097 531 
L 4097 0 
L 288 0 
L 288 481 
L 3238 4134 
L 359 4134 
L 359 4666 
z
" transform="scale(0.015625)"/>
     </defs>
     <use xlink:href="#DejaVuSans-5a"/>
    </g>
   </g>
   <g id="Line3DCollection_3">
    <path d="M 41.770787 204.046341 
L 160.317754 145.239524 
L 278.864721 204.046341 
" style="fill: none; stroke: #b0b0b0; stroke-width: 0.8"/>
    <path d="M 40.655051 181.089273 
L 160.317754 123.308943 
L 279.980457 181.089273 
" style="fill: none; stroke: #b0b0b0; stroke-width: 0.8"/>
    <path d="M 39.518114 157.695967 
L 160.317754 100.989882 
L 281.117395 157.695967 
" style="fill: none; stroke: #b0b0b0; stroke-width: 0.8"/>
    <path d="M 38.359364 133.853867 
L 160.317754 78.271927 
L 282.276144 133.853867 
" style="fill: none; stroke: #b0b0b0; stroke-width: 0.8"/>
    <path d="M 37.178169 109.549936 
L 160.317754 55.144287 
L 283.457339 109.549936 
" style="fill: none; stroke: #b0b0b0; stroke-width: 0.8"/>
   </g>
   <g id="xtick_11">
    <g id="line2d_14">
     <path d="M 42.786271 203.542597 
L 39.736338 205.055557 
" style="fill: none; stroke: #000000; stroke-width: 0.8; stroke-linecap: square"/>
    </g>
    <g id="text_14">
     <!-- 20 -->
     <g transform="translate(15.735991 211.644779) scale(0.1 -0.1)">
      <use xlink:href="#DejaVuSans-32"/>
      <use xlink:href="#DejaVuSans-30" x="63.623047"/>
     </g>
    </g>
   </g>
   <g id="xtick_12">
    <g id="line2d_15">
     <path d="M 41.680729 180.594014 
L 38.600144 182.081506 
" style="fill: none; stroke: #000000; stroke-width: 0.8; stroke-linecap: square"/>
    </g>
    <g id="text_15">
     <!-- 40 -->
     <g transform="translate(14.435104 188.687711) scale(0.1 -0.1)">
      <defs>
       <path id="DejaVuSans-34" d="M 2419 4116 
L 825 1625 
L 2419 1625 
L 2419 4116 
z
M 2253 4666 
L 3047 4666 
L 3047 1625 
L 3713 1625 
L 3713 1100 
L 3047 1100 
L 3047 0 
L 2419 0 
L 2419 1100 
L 313 1100 
L 313 1709 
L 2253 4666 
z
" transform="scale(0.015625)"/>
      </defs>
      <use xlink:href="#DejaVuSans-34"/>
      <use xlink:href="#DejaVuSans-30" x="63.623047"/>
     </g>
    </g>
   </g>
   <g id="xtick_13">
    <g id="line2d_16">
     <path d="M 40.554192 157.209608 
L 37.442335 158.670384 
" style="fill: none; stroke: #000000; stroke-width: 0.8; stroke-linecap: square"/>
    </g>
    <g id="text_16">
     <!-- 60 -->
     <g transform="translate(13.109497 165.294404) scale(0.1 -0.1)">
      <defs>
       <path id="DejaVuSans-36" d="M 2113 2584 
Q 1688 2584 1439 2293 
Q 1191 2003 1191 1497 
Q 1191 994 1439 701 
Q 1688 409 2113 409 
Q 2538 409 2786 701 
Q 3034 994 3034 1497 
Q 3034 2003 2786 2293 
Q 2538 2584 2113 2584 
z
M 3366 4563 
L 3366 3988 
Q 3128 4100 2886 4159 
Q 2644 4219 2406 4219 
Q 1781 4219 1451 3797 
Q 1122 3375 1075 2522 
Q 1259 2794 1537 2939 
Q 1816 3084 2150 3084 
Q 2853 3084 3261 2657 
Q 3669 2231 3669 1497 
Q 3669 778 3244 343 
Q 2819 -91 2113 -91 
Q 1303 -91 875 529 
Q 447 1150 447 2328 
Q 447 3434 972 4092 
Q 1497 4750 2381 4750 
Q 2619 4750 2861 4703 
Q 3103 4656 3366 4563 
z
" transform="scale(0.015625)"/>
      </defs>
      <use xlink:href="#DejaVuSans-36"/>
      <use xlink:href="#DejaVuSans-30" x="63.623047"/>
     </g>
    </g>
   </g>
   <g id="xtick_14">
    <g id="line2d_17">
     <path d="M 39.406056 133.376843 
L 36.262287 134.8096 
" style="fill: none; stroke: #000000; stroke-width: 0.8; stroke-linecap: square"/>
    </g>
    <g id="text_17">
     <!-- 80 -->
     <g transform="translate(11.758459 141.452305) scale(0.1 -0.1)">
      <defs>
       <path id="DejaVuSans-38" d="M 2034 2216 
Q 1584 2216 1326 1975 
Q 1069 1734 1069 1313 
Q 1069 891 1326 650 
Q 1584 409 2034 409 
Q 2484 409 2743 651 
Q 3003 894 3003 1313 
Q 3003 1734 2745 1975 
Q 2488 2216 2034 2216 
z
M 1403 2484 
Q 997 2584 770 2862 
Q 544 3141 544 3541 
Q 544 4100 942 4425 
Q 1341 4750 2034 4750 
Q 2731 4750 3128 4425 
Q 3525 4100 3525 3541 
Q 3525 3141 3298 2862 
Q 3072 2584 2669 2484 
Q 3125 2378 3379 2068 
Q 3634 1759 3634 1313 
Q 3634 634 3220 271 
Q 2806 -91 2034 -91 
Q 1263 -91 848 271 
Q 434 634 434 1313 
Q 434 1759 690 2068 
Q 947 2378 1403 2484 
z
M 1172 3481 
Q 1172 3119 1398 2916 
Q 1625 2713 2034 2713 
Q 2441 2713 2670 2916 
Q 2900 3119 2900 3481 
Q 2900 3844 2670 4047 
Q 2441 4250 2034 4250 
Q 1625 4250 1398 4047 
Q 1172 3844 1172 3481 
z
" transform="scale(0.015625)"/>
      </defs>
      <use xlink:href="#DejaVuSans-38"/>
      <use xlink:href="#DejaVuSans-30" x="63.623047"/>
     </g>
    </g>
   </g>
   <g id="xtick_15">
    <g id="line2d_18">
     <path d="M 38.235692 109.0827 
L 35.059355 110.486072 
" style="fill: none; stroke: #000000; stroke-width: 0.8; stroke-linecap: square"/>
    </g>
    <g id="text_18">
     <!-- 100 -->
     <g transform="translate(7.2 117.148373) scale(0.1 -0.1)">
      <use xlink:href="#DejaVuSans-31"/>
      <use xlink:href="#DejaVuSans-30" x="63.623047"/>
      <use xlink:href="#DejaVuSans-30" x="127.246094"/>
     </g>
    </g>
   </g>
  </g>
  <g id="axes_1">
   <g id="Poly3DCollection_1">
    <path d="M 160.317754 71.59572 
L 165.379962 63.904263 
L 160.317754 61.647853 
L 155.266163 69.313787 
z
" clip-path="url(#p7880f90f11)" style="fill: #f0f921"/>
    <path d="M 155.247372 80.020692 
L 160.317754 71.59572 
L 155.266163 69.313787 
L 150.207851 77.7116 
z
" clip-path="url(#p7880f90f11)" style="fill: #fada24"/>
    <path d="M 150.172344 88.992018 
L 155.247372 80.020692 
L 150.207851 77.7116 
L 145.145975 86.654557 
z
" clip-path="url(#p7880f90f11)" style="fill: #feb82c"/>
    <path d="M 145.092674 97.973027 
L 150.172344 88.992018 
L 145.145975 86.654557 
L 140.079485 95.607142 
z
" clip-path="url(#p7880f90f11)" style="fill: #f9983e"/>
    <path d="M 140.005684 106.629098 
L 145.092674 97.973027 
L 140.079485 95.607142 
L 135.005054 104.235439 
z
" clip-path="url(#p7880f90f11)" style="fill: #ee7b51"/>
    <path d="M 134.908291 114.857136 
L 140.005684 106.629098 
L 135.005054 104.235439 
L 129.919405 112.436558 
z
" clip-path="url(#p7880f90f11)" style="fill: #e06363"/>
    <path d="M 165.400261 73.891619 
L 170.473121 66.17447 
L 165.379962 63.904263 
L 160.317754 71.59572 
z
" clip-path="url(#p7880f90f11)" style="fill: #f0f921"/>
    <path d="M 160.317754 82.343924 
L 165.400261 73.891619 
L 160.317754 71.59572 
L 155.247372 80.020692 
z
" clip-path="url(#p7880f90f11)" style="fill: #fada24"/>
    <path d="M 129.797792 122.658377 
L 134.908291 114.857136 
L 129.919405 112.436558 
L 124.819842 120.211717 
z
" clip-path="url(#p7880f90f11)" style="fill: #d14e72"/>
    <path d="M 155.229509 91.343801 
L 160.317754 82.343924 
L 155.247372 80.020692 
L 150.172344 88.992018 
z
" clip-path="url(#p7880f90f11)" style="fill: #feb82c"/>
    <path d="M 150.136593 100.353415 
L 155.229509 91.343801 
L 150.172344 88.992018 
L 145.092674 97.973027 
z
" clip-path="url(#p7880f90f11)" style="fill: #f9983e"/>
    <path d="M 124.671676 130.049929 
L 129.797792 122.658377 
L 124.819842 120.211717 
L 119.703895 127.577974 
z
" clip-path="url(#p7880f90f11)" style="fill: #c03a83"/>
    <path d="M 145.036984 109.037438 
L 150.136593 100.353415 
L 145.092674 97.973027 
L 140.005684 106.629098 
z
" clip-path="url(#p7880f90f11)" style="fill: #ee7b51"/>
    <path d="M 139.927799 117.292571 
L 145.036984 109.037438 
L 140.005684 106.629098 
L 134.908291 114.857136 
z
" clip-path="url(#p7880f90f11)" style="fill: #e06363"/>
    <path d="M 119.527383 137.039833 
L 124.671676 130.049929 
L 119.703895 127.577974 
L 114.569024 134.543341 
z
" clip-path="url(#p7880f90f11)" style="fill: #b02991"/>
    <path d="M 170.513967 76.201611 
L 175.597516 68.458599 
L 170.473121 66.17447 
L 165.400261 73.891619 
z
" clip-path="url(#p7880f90f11)" style="fill: #f0f921"/>
    <path d="M 165.419283 84.681428 
L 170.513967 76.201611 
L 165.400261 73.891619 
L 160.317754 82.343924 
z
" clip-path="url(#p7880f90f11)" style="fill: #fada24"/>
    <path d="M 134.806324 125.120068 
L 139.927799 117.292571 
L 134.908291 114.857136 
L 129.797792 122.658377 
z
" clip-path="url(#p7880f90f11)" style="fill: #d14e72"/>
    <path d="M 114.362319 143.633008 
L 119.527383 137.039833 
L 114.569024 134.543341 
L 109.412652 141.112716 
z
" clip-path="url(#p7880f90f11)" style="fill: #9d189d"/>
    <path d="M 160.317754 93.710037 
L 165.419283 84.681428 
L 160.317754 82.343924 
L 155.229509 91.343801 
z
" clip-path="url(#p7880f90f11)" style="fill: #feb82c"/>
    <path d="M 155.211524 102.748438 
L 160.317754 93.710037 
L 155.229509 91.343801 
L 150.136593 100.353415 
z
" clip-path="url(#p7880f90f11)" style="fill: #f9983e"/>
    <path d="M 129.670011 132.537087 
L 134.806324 125.120068 
L 129.797792 122.658377 
L 124.671676 130.049929 
z
" clip-path="url(#p7880f90f11)" style="fill: #c03a83"/>
    <path d="M 150.099238 111.460594 
L 155.211524 102.748438 
L 150.136593 100.353415 
L 145.036984 109.037438 
z
" clip-path="url(#p7880f90f11)" style="fill: #ee7b51"/>
    <path d="M 109.174024 149.841041 
L 114.362319 143.633008 
L 109.412652 141.112716 
L 104.232347 147.29765 
z
" clip-path="url(#p7880f90f11)" style="fill: #8b0aa5"/>
    <path d="M 144.978211 119.743 
L 150.099238 111.460594 
L 145.036984 109.037438 
L 139.927799 117.292571 
z
" clip-path="url(#p7880f90f11)" style="fill: #e06363"/>
    <path d="M 124.516277 139.551699 
L 129.670011 132.537087 
L 124.671676 130.049929 
L 119.527383 137.039833 
z
" clip-path="url(#p7880f90f11)" style="fill: #b02991"/>
    <path d="M 175.659162 78.525828 
L 180.753434 70.75678 
L 175.597516 68.458599 
L 170.513967 76.201611 
z
" clip-path="url(#p7880f90f11)" style="fill: #f0f921"/>
    <path d="M 170.552246 87.033335 
L 175.659162 78.525828 
L 170.513967 76.201611 
L 165.419283 84.681428 
z
" clip-path="url(#p7880f90f11)" style="fill: #fada24"/>
    <path d="M 139.845723 127.59693 
L 144.978211 119.743 
L 139.927799 117.292571 
L 134.806324 125.120068 
z
" clip-path="url(#p7880f90f11)" style="fill: #d14e72"/>
    <path d="M 119.342512 146.168844 
L 124.516277 139.551699 
L 119.527383 137.039833 
L 114.362319 143.633008 
z
" clip-path="url(#p7880f90f11)" style="fill: #9d189d"/>
    <path d="M 165.437366 96.09086 
L 170.552246 87.033335 
L 165.419283 84.681428 
L 160.317754 93.710037 
z
" clip-path="url(#p7880f90f11)" style="fill: #feb82c"/>
    <path d="M 103.960313 155.685105 
L 109.174024 149.841041 
L 104.232347 147.29765 
L 99.025969 153.119266 
z
" clip-path="url(#p7880f90f11)" style="fill: #7b02a8"/>
    <path d="M 160.317754 105.158233 
L 165.437366 96.09086 
L 160.317754 93.710037 
L 155.211524 102.748438 
z
" clip-path="url(#p7880f90f11)" style="fill: #f9983e"/>
    <path d="M 134.699184 135.039591 
L 139.845723 127.59693 
L 134.806324 125.120068 
L 129.670011 132.537087 
z
" clip-path="url(#p7880f90f11)" style="fill: #c03a83"/>
    <path d="M 155.192731 113.898704 
L 160.317754 105.158233 
L 155.211524 102.748438 
L 150.099238 111.460594 
z
" clip-path="url(#p7880f90f11)" style="fill: #ee7b51"/>
    <path d="M 114.146229 152.400143 
L 119.342512 146.168844 
L 114.362319 143.633008 
L 109.174024 149.841041 
z
" clip-path="url(#p7880f90f11)" style="fill: #8b0aa5"/>
    <path d="M 150.059814 122.208563 
L 155.192731 113.898704 
L 150.099238 111.460594 
L 144.978211 119.743 
z
" clip-path="url(#p7880f90f11)" style="fill: #e06363"/>
    <path d="M 129.53599 142.079082 
L 134.699184 135.039591 
L 129.670011 132.537087 
L 124.516277 139.551699 
z
" clip-path="url(#p7880f90f11)" style="fill: #b02991"/>
    <path d="M 180.836137 80.8644 
L 185.941168 73.069143 
L 180.753434 70.75678 
L 175.659162 78.525828 
z
" clip-path="url(#p7880f90f11)" style="fill: #f0f921"/>
    <path d="M 98.719229 161.190109 
L 103.960313 155.685105 
L 99.025969 153.119266 
L 93.791617 158.602414 
z
" clip-path="url(#p7880f90f11)" style="fill: #6a00a8"/>
    <path d="M 175.716936 89.399778 
L 180.836137 80.8644 
L 175.659162 78.525828 
L 170.552246 87.033335 
z
" clip-path="url(#p7880f90f11)" style="fill: #fada24"/>
    <path d="M 144.916274 130.089103 
L 150.059814 122.208563 
L 144.978211 119.743 
L 139.845723 127.59693 
z
" clip-path="url(#p7880f90f11)" style="fill: #d14e72"/>
    <path d="M 124.353515 148.720368 
L 129.53599 142.079082 
L 124.516277 139.551699 
L 119.342512 146.168844 
z
" clip-path="url(#p7880f90f11)" style="fill: #9d189d"/>
    <path d="M 170.588636 98.486405 
L 175.716936 89.399778 
L 170.552246 87.033335 
L 165.437366 96.09086 
z
" clip-path="url(#p7880f90f11)" style="fill: #feb82c"/>
    <path d="M 108.925192 158.266823 
L 114.146229 152.400143 
L 109.174024 149.841041 
L 103.960313 155.685105 
z
" clip-path="url(#p7880f90f11)" style="fill: #7b02a8"/>
    <path d="M 165.455574 107.582936 
L 170.588636 98.486405 
L 165.437366 96.09086 
L 160.317754 105.158233 
z
" clip-path="url(#p7880f90f11)" style="fill: #f9983e"/>
    <path d="M 139.75948 137.557581 
L 144.916274 130.089103 
L 139.845723 127.59693 
L 134.699184 135.039591 
z
" clip-path="url(#p7880f90f11)" style="fill: #c03a83"/>
    <path d="M 93.448758 166.372353 
L 98.719229 161.190109 
L 93.791617 158.602414 
L 88.527313 163.763352 
z
" clip-path="url(#p7880f90f11)" style="fill: #5c01a6"/>
    <path d="M 160.317754 116.351906 
L 165.455574 107.582936 
L 160.317754 105.158233 
L 155.192731 113.898704 
z
" clip-path="url(#p7880f90f11)" style="fill: #ee7b51"/>
    <path d="M 119.149243 154.975102 
L 124.353515 148.720368 
L 119.342512 146.168844 
L 114.146229 152.400143 
z
" clip-path="url(#p7880f90f11)" style="fill: #8b0aa5"/>
    <path d="M 155.172897 124.689401 
L 160.317754 116.351906 
L 155.192731 113.898704 
L 150.059814 122.208563 
z
" clip-path="url(#p7880f90f11)" style="fill: #e06363"/>
    <path d="M 134.586808 144.622127 
L 139.75948 137.557581 
L 134.699184 135.039591 
L 129.53599 142.079082 
z
" clip-path="url(#p7880f90f11)" style="fill: #b02991"/>
    <path d="M 186.045187 83.217462 
L 191.161014 75.395818 
L 185.941168 73.069143 
L 180.836137 80.8644 
z
" clip-path="url(#p7880f90f11)" style="fill: #f0f921"/>
    <path d="M 103.677393 163.793849 
L 108.925192 158.266823 
L 103.960313 155.685105 
L 98.719229 161.190109 
z
" clip-path="url(#p7880f90f11)" style="fill: #6a00a8"/>
    <path d="M 180.913646 91.780894 
L 186.045187 83.217462 
L 180.836137 80.8644 
L 175.716936 89.399778 
z
" clip-path="url(#p7880f90f11)" style="fill: #fada24"/>
    <path d="M 150.018266 132.59673 
L 155.172897 124.689401 
L 150.059814 122.208563 
L 144.916274 130.089103 
z
" clip-path="url(#p7880f90f11)" style="fill: #d14e72"/>
    <path d="M 88.146509 171.231638 
L 93.448758 166.372353 
L 88.527313 163.763352 
L 83.230672 168.601878 
z
" clip-path="url(#p7880f90f11)" style="fill: #5002a2"/>
    <path d="M 129.395615 151.287726 
L 134.586808 144.622127 
L 129.53599 142.079082 
L 124.353515 148.720368 
z
" clip-path="url(#p7880f90f11)" style="fill: #9d189d"/>
    <path d="M 175.771858 100.89681 
L 180.913646 91.780894 
L 175.716936 89.399778 
L 170.588636 98.486405 
z
" clip-path="url(#p7880f90f11)" style="fill: #feb82c"/>
    <path d="M 113.920891 160.864566 
L 119.149243 154.975102 
L 114.146229 152.400143 
L 108.925192 158.266823 
z
" clip-path="url(#p7880f90f11)" style="fill: #7b02a8"/>
    <path d="M 170.625279 110.022686 
L 175.771858 100.89681 
L 170.588636 98.486405 
L 165.455574 107.582936 
z
" clip-path="url(#p7880f90f11)" style="fill: #f9983e"/>
    <path d="M 144.85119 140.091202 
L 150.018266 132.59673 
L 144.916274 130.089103 
L 139.75948 137.557581 
z
" clip-path="url(#p7880f90f11)" style="fill: #c03a83"/>
    <path d="M 98.40078 168.997564 
L 103.677393 163.793849 
L 98.719229 161.190109 
L 93.448758 166.372353 
z
" clip-path="url(#p7880f90f11)" style="fill: #5c01a6"/>
    <path d="M 165.474601 118.820341 
L 170.625279 110.022686 
L 165.455574 107.582936 
L 160.317754 116.351906 
z
" clip-path="url(#p7880f90f11)" style="fill: #ee7b51"/>
    <path d="M 124.183354 157.566067 
L 129.395615 151.287726 
L 124.353515 148.720368 
L 119.149243 154.975102 
z
" clip-path="url(#p7880f90f11)" style="fill: #8b0aa5"/>
    <path d="M 160.317754 127.185655 
L 165.474601 118.820341 
L 160.317754 116.351906 
L 155.172897 124.689401 
z
" clip-path="url(#p7880f90f11)" style="fill: #e06363"/>
    <path d="M 139.669021 147.180978 
L 144.85119 140.091202 
L 139.75948 137.557581 
L 134.586808 144.622127 
z
" clip-path="url(#p7880f90f11)" style="fill: #b02991"/>
    <path d="M 191.286611 85.585147 
L 196.413269 77.73694 
L 191.161014 75.395818 
L 186.045187 83.217462 
z
" clip-path="url(#p7880f90f11)" style="fill: #f0f921"/>
    <path d="M 108.666394 166.413783 
L 113.920891 160.864566 
L 108.925192 158.266823 
L 103.677393 163.793849 
z
" clip-path="url(#p7880f90f11)" style="fill: #6a00a8"/>
    <path d="M 82.810264 175.774678 
L 88.146509 171.231638 
L 83.230672 168.601878 
L 77.899495 173.124687 
z
" clip-path="url(#p7880f90f11)" style="fill: #44039e"/>
    <path d="M 186.142675 94.176818 
L 191.286611 85.585147 
L 186.045187 83.217462 
L 180.913646 91.780894 
z
" clip-path="url(#p7880f90f11)" style="fill: #fada24"/>
    <path d="M 155.151994 135.119954 
L 160.317754 127.185655 
L 155.172897 124.689401 
L 150.018266 132.59673 
z
" clip-path="url(#p7880f90f11)" style="fill: #d14e72"/>
    <path d="M 93.092955 173.877773 
L 98.40078 168.997564 
L 93.448758 166.372353 
L 88.146509 171.231638 
z
" clip-path="url(#p7880f90f11)" style="fill: #5002a2"/>
    <path d="M 134.469101 153.871065 
L 139.669021 147.180978 
L 134.586808 144.622127 
L 129.395615 151.287726 
z
" clip-path="url(#p7880f90f11)" style="fill: #9d189d"/>
    <path d="M 180.987331 103.322212 
L 186.142675 94.176818 
L 180.913646 91.780894 
L 175.771858 100.89681 
z
" clip-path="url(#p7880f90f11)" style="fill: #feb82c"/>
    <path d="M 118.947696 163.478484 
L 124.183354 157.566067 
L 119.149243 154.975102 
L 113.920891 160.864566 
z
" clip-path="url(#p7880f90f11)" style="fill: #7b02a8"/>
    <path d="M 175.827164 112.477623 
L 180.987331 103.322212 
L 175.771858 100.89681 
L 170.625279 110.022686 
z
" clip-path="url(#p7880f90f11)" style="fill: #f9983e"/>
    <path d="M 149.974607 142.640601 
L 155.151994 135.119954 
L 150.018266 132.59673 
L 144.85119 140.091202 
z
" clip-path="url(#p7880f90f11)" style="fill: #c03a83"/>
    <path d="M 103.383664 171.639135 
L 108.666394 166.413783 
L 103.677393 163.793849 
L 98.40078 168.997564 
z
" clip-path="url(#p7880f90f11)" style="fill: #5c01a6"/>
    <path d="M 170.663568 121.304151 
L 175.827164 112.477623 
L 170.625279 110.022686 
L 165.474601 118.820341 
z
" clip-path="url(#p7880f90f11)" style="fill: #ee7b51"/>
    <path d="M 77.440965 180.101549 
L 82.810264 175.774678 
L 77.899495 173.124687 
L 72.53492 177.431648 
z
" clip-path="url(#p7880f90f11)" style="fill: #3a049a"/>
    <path d="M 129.248854 160.173187 
L 134.469101 153.871065 
L 129.395615 151.287726 
L 124.183354 157.566067 
z
" clip-path="url(#p7880f90f11)" style="fill: #8b0aa5"/>
    <path d="M 165.494683 129.697469 
L 170.663568 121.304151 
L 165.474601 118.820341 
L 160.317754 127.185655 
z
" clip-path="url(#p7880f90f11)" style="fill: #e06363"/>
    <path d="M 144.782923 149.755785 
L 149.974607 142.640601 
L 144.85119 140.091202 
L 139.669021 147.180978 
z
" clip-path="url(#p7880f90f11)" style="fill: #b02991"/>
    <path d="M 196.560713 87.967594 
L 201.698237 80.092643 
L 196.413269 77.73694 
L 191.286611 85.585147 
z
" clip-path="url(#p7880f90f11)" style="fill: #f0f921"/>
    <path d="M 113.68652 169.050062 
L 118.947696 163.478484 
L 113.920891 160.864566 
L 108.666394 166.413783 
z
" clip-path="url(#p7880f90f11)" style="fill: #6a00a8"/>
    <path d="M 87.751682 178.441208 
L 93.092955 173.877773 
L 88.146509 171.231638 
L 82.810264 175.774678 
z
" clip-path="url(#p7880f90f11)" style="fill: #44039e"/>
    <path d="M 191.404327 96.587689 
L 196.560713 87.967594 
L 191.286611 85.585147 
L 186.142675 94.176818 
z
" clip-path="url(#p7880f90f11)" style="fill: #fada24"/>
    <path d="M 160.317754 137.658923 
L 165.494683 129.697469 
L 160.317754 127.185655 
L 155.151994 135.119954 
z
" clip-path="url(#p7880f90f11)" style="fill: #d14e72"/>
    <path d="M 98.070297 176.540435 
L 103.383664 171.639135 
L 98.40078 168.997564 
L 93.092955 173.877773 
z
" clip-path="url(#p7880f90f11)" style="fill: #5002a2"/>
    <path d="M 139.574268 156.470536 
L 144.782923 149.755785 
L 139.669021 147.180978 
L 134.469101 153.871065 
z
" clip-path="url(#p7880f90f11)" style="fill: #9d189d"/>
    <path d="M 186.235356 105.762752 
L 191.404327 96.587689 
L 186.142675 94.176818 
L 180.987331 103.322212 
z
" clip-path="url(#p7880f90f11)" style="fill: #feb82c"/>
    <path d="M 124.0059 166.10873 
L 129.248854 160.173187 
L 124.183354 157.566067 
L 118.947696 163.478484 
z
" clip-path="url(#p7880f90f11)" style="fill: #7b02a8"/>
    <path d="M 181.061533 114.947891 
L 186.235356 105.762752 
L 180.987331 103.322212 
L 175.827164 112.477623 
z
" clip-path="url(#p7880f90f11)" style="fill: #f9983e"/>
    <path d="M 155.130028 145.205925 
L 160.317754 137.658923 
L 155.151994 135.119954 
L 149.974607 142.640601 
z
" clip-path="url(#p7880f90f11)" style="fill: #c03a83"/>
    <path d="M 72.048227 184.529822 
L 77.440965 180.101549 
L 72.53492 177.431648 
L 67.14716 181.839684 
z
" clip-path="url(#p7880f90f11)" style="fill: #2f0596"/>
    <path d="M 108.3977 174.297222 
L 113.68652 169.050062 
L 108.666394 166.413783 
L 103.383664 171.639135 
z
" clip-path="url(#p7880f90f11)" style="fill: #5c01a6"/>
    <path d="M 175.884957 123.803481 
L 181.061533 114.947891 
L 175.827164 112.477623 
L 170.663568 121.304151 
z
" clip-path="url(#p7880f90f11)" style="fill: #ee7b51"/>
    <path d="M 82.377706 182.788155 
L 87.751682 178.441208 
L 82.810264 175.774678 
L 77.440965 180.101549 
z
" clip-path="url(#p7880f90f11)" style="fill: #3a049a"/>
    <path d="M 134.346036 162.796613 
L 139.574268 156.470536 
L 134.469101 153.871065 
L 129.248854 160.173187 
z
" clip-path="url(#p7880f90f11)" style="fill: #8b0aa5"/>
    <path d="M 170.703983 132.22499 
L 175.884957 123.803481 
L 170.663568 121.304151 
L 165.494683 129.697469 
z
" clip-path="url(#p7880f90f11)" style="fill: #e06363"/>
    <path d="M 149.928811 152.346696 
L 155.130028 145.205925 
L 149.974607 142.640601 
L 144.782923 149.755785 
z
" clip-path="url(#p7880f90f11)" style="fill: #b02991"/>
    <path d="M 201.867798 90.364941 
L 207.016225 82.463064 
L 201.698237 80.092643 
L 196.560713 87.967594 
z
" clip-path="url(#p7880f90f11)" style="fill: #f0f921"/>
    <path d="M 118.738065 171.70284 
L 124.0059 166.10873 
L 118.947696 163.478484 
L 113.68652 169.050062 
z
" clip-path="url(#p7880f90f11)" style="fill: #6a00a8"/>
    <path d="M 92.724037 181.124433 
L 98.070297 176.540435 
L 93.092955 173.877773 
L 87.751682 178.441208 
z
" clip-path="url(#p7880f90f11)" style="fill: #44039e"/>
    <path d="M 196.698906 99.013648 
L 201.867798 90.364941 
L 196.560713 87.967594 
L 191.404327 96.587689 
z
" clip-path="url(#p7880f90f11)" style="fill: #fada24"/>
    <path d="M 165.515847 140.213783 
L 170.703983 132.22499 
L 165.494683 129.697469 
L 160.317754 137.658923 
z
" clip-path="url(#p7880f90f11)" style="fill: #d14e72"/>
    <path d="M 103.078826 179.219781 
L 108.3977 174.297222 
L 103.383664 171.639135 
L 98.070297 176.540435 
z
" clip-path="url(#p7880f90f11)" style="fill: #5002a2"/>
    <path d="M 66.651658 189.564118 
L 72.048227 184.529822 
L 67.14716 181.839684 
L 61.756769 186.852398 
z
" clip-path="url(#p7880f90f11)" style="fill: #240691"/>
    <path d="M 144.711413 159.086289 
L 149.928811 152.346696 
L 144.782923 149.755785 
L 139.574268 156.470536 
z
" clip-path="url(#p7880f90f11)" style="fill: #9d189d"/>
    <path d="M 191.51624 108.218573 
L 196.698906 99.013648 
L 191.404327 96.587689 
L 186.235356 105.762752 
z
" clip-path="url(#p7880f90f11)" style="fill: #feb82c"/>
    <path d="M 129.095798 168.755456 
L 134.346036 162.796613 
L 129.248854 160.173187 
L 124.0059 166.10873 
z
" clip-path="url(#p7880f90f11)" style="fill: #7b02a8"/>
    <path d="M 186.32869 117.433632 
L 191.51624 108.218573 
L 186.235356 105.762752 
L 181.061533 114.947891 
z
" clip-path="url(#p7880f90f11)" style="fill: #f9983e"/>
    <path d="M 160.317754 147.787324 
L 165.515847 140.213783 
L 160.317754 137.658923 
L 155.130028 145.205925 
z
" clip-path="url(#p7880f90f11)" style="fill: #c03a83"/>
    <path d="M 76.980032 187.236831 
L 82.377706 182.788155 
L 77.440965 180.101549 
L 72.048227 184.529822 
z
" clip-path="url(#p7880f90f11)" style="fill: #2f0596"/>
    <path d="M 113.443181 176.971978 
L 118.738065 171.70284 
L 113.68652 169.050062 
L 108.3977 174.297222 
z
" clip-path="url(#p7880f90f11)" style="fill: #5c01a6"/>
    <path d="M 181.139073 126.318477 
L 186.32869 117.433632 
L 181.061533 114.947891 
L 175.884957 123.803481 
z
" clip-path="url(#p7880f90f11)" style="fill: #ee7b51"/>
    <path d="M 87.34543 185.491623 
L 92.724037 181.124433 
L 87.751682 178.441208 
L 82.377706 182.788155 
z
" clip-path="url(#p7880f90f11)" style="fill: #3a049a"/>
    <path d="M 139.475199 165.436499 
L 144.711413 159.086289 
L 139.574268 156.470536 
L 134.346036 162.796613 
z
" clip-path="url(#p7880f90f11)" style="fill: #8b0aa5"/>
    <path d="M 175.945959 134.768366 
L 181.139073 126.318477 
L 175.884957 123.803481 
L 170.703983 132.22499 
z
" clip-path="url(#p7880f90f11)" style="fill: #e06363"/>
    <path d="M 155.106987 154.953864 
L 160.317754 147.787324 
L 155.130028 145.205925 
L 149.928811 152.346696 
z
" clip-path="url(#p7880f90f11)" style="fill: #b02991"/>
    <path d="M 207.208177 92.777327 
L 212.367542 84.848341 
L 207.016225 82.463064 
L 201.867798 90.364941 
z
" clip-path="url(#p7880f90f11)" style="fill: #f0f921"/>
    <path d="M 61.261236 195.356522 
L 66.651658 189.564118 
L 61.756769 186.852398 
L 56.373997 192.621571 
z
" clip-path="url(#p7880f90f11)" style="fill: #0d0887"/>
    <path d="M 123.821322 174.372272 
L 129.095798 168.755456 
L 124.0059 166.10873 
L 118.738065 171.70284 
z
" clip-path="url(#p7880f90f11)" style="fill: #6a00a8"/>
    <path d="M 97.727621 183.82451 
L 103.078826 179.219781 
L 98.070297 176.540435 
L 92.724037 181.124433 
z
" clip-path="url(#p7880f90f11)" style="fill: #44039e"/>
    <path d="M 202.026724 101.454836 
L 207.208177 92.777327 
L 201.867798 90.364941 
L 196.698906 99.013648 
z
" clip-path="url(#p7880f90f11)" style="fill: #fada24"/>
    <path d="M 170.746578 142.784684 
L 175.945959 134.768366 
L 170.703983 132.22499 
L 165.515847 140.213783 
z
" clip-path="url(#p7880f90f11)" style="fill: #d14e72"/>
    <path d="M 108.118834 181.915968 
L 113.443181 176.971978 
L 108.3977 174.297222 
L 103.078826 179.219781 
z
" clip-path="url(#p7880f90f11)" style="fill: #5002a2"/>
    <path d="M 71.577314 192.292884 
L 76.980032 187.236831 
L 72.048227 184.529822 
L 66.651658 189.564118 
z
" clip-path="url(#p7880f90f11)" style="fill: #240691"/>
    <path d="M 149.880839 161.718479 
L 155.106987 154.953864 
L 149.928811 152.346696 
L 144.711413 159.086289 
z
" clip-path="url(#p7880f90f11)" style="fill: #9d189d"/>
    <path d="M 196.830292 110.689819 
L 202.026724 101.454836 
L 196.698906 99.013648 
L 191.51624 108.218573 
z
" clip-path="url(#p7880f90f11)" style="fill: #feb82c"/>
    <path d="M 134.217689 171.418819 
L 139.475199 165.436499 
L 134.346036 162.796613 
L 129.095798 168.755456 
z
" clip-path="url(#p7880f90f11)" style="fill: #7b02a8"/>
    <path d="M 191.628944 119.934992 
L 196.830292 110.689819 
L 191.51624 108.218573 
L 186.32869 117.433632 
z
" clip-path="url(#p7880f90f11)" style="fill: #f9983e"/>
    <path d="M 165.538089 150.384949 
L 170.746578 142.784684 
L 165.515847 140.213783 
L 160.317754 147.787324 
z
" clip-path="url(#p7880f90f11)" style="fill: #c03a83"/>
    <path d="M 81.942865 189.960872 
L 87.34543 185.491623 
L 82.377706 182.788155 
L 76.980032 187.236831 
z
" clip-path="url(#p7880f90f11)" style="fill: #2f0596"/>
    <path d="M 118.520404 179.663561 
L 123.821322 174.372272 
L 118.738065 171.70284 
L 113.443181 176.971978 
z
" clip-path="url(#p7880f90f11)" style="fill: #5c01a6"/>
    <path d="M 186.426225 128.849285 
L 191.628944 119.934992 
L 186.32869 117.433632 
L 181.139073 126.318477 
z
" clip-path="url(#p7880f90f11)" style="fill: #ee7b51"/>
    <path d="M 92.344432 188.212111 
L 97.727621 183.82451 
L 92.724037 181.124433 
L 87.34543 185.491623 
z
" clip-path="url(#p7880f90f11)" style="fill: #3a049a"/>
    <path d="M 144.636644 168.093 
L 149.880839 161.718479 
L 144.711413 159.086289 
L 139.475199 165.436499 
z
" clip-path="url(#p7880f90f11)" style="fill: #8b0aa5"/>
    <path d="M 181.220921 137.327745 
L 186.426225 128.849285 
L 181.139073 126.318477 
L 175.945959 134.768366 
z
" clip-path="url(#p7880f90f11)" style="fill: #e06363"/>
    <path d="M 160.317754 157.577441 
L 165.538089 150.384949 
L 160.317754 147.787324 
L 155.106987 154.953864 
z
" clip-path="url(#p7880f90f11)" style="fill: #b02991"/>
    <path d="M 212.582164 95.204895 
L 217.752504 87.248615 
L 212.367542 84.848341 
L 207.208177 92.777327 
z
" clip-path="url(#p7880f90f11)" style="fill: #f0f921"/>
    <path d="M 66.179253 198.108697 
L 71.577314 192.292884 
L 66.651658 189.564118 
L 61.261236 195.356522 
z
" clip-path="url(#p7880f90f11)" style="fill: #0d0887"/>
    <path d="M 128.936593 177.058515 
L 134.217689 171.418819 
L 129.095798 168.755456 
L 123.821322 174.372272 
z
" clip-path="url(#p7880f90f11)" style="fill: #6a00a8"/>
    <path d="M 102.762729 186.541598 
L 108.118834 181.915968 
L 103.078826 179.219781 
L 97.727621 183.82451 
z
" clip-path="url(#p7880f90f11)" style="fill: #44039e"/>
    <path d="M 207.388095 103.911399 
L 212.582164 95.204895 
L 207.208177 92.777327 
L 202.026724 101.454836 
z
" clip-path="url(#p7880f90f11)" style="fill: #fada24"/>
    <path d="M 176.010254 145.371779 
L 181.220921 137.327745 
L 175.945959 134.768366 
L 170.746578 142.784684 
z
" clip-path="url(#p7880f90f11)" style="fill: #d14e72"/>
    <path d="M 113.190621 184.629154 
L 118.520404 179.663561 
L 113.443181 176.971978 
L 108.118834 181.915968 
z
" clip-path="url(#p7880f90f11)" style="fill: #5002a2"/>
    <path d="M 76.534028 195.038855 
L 81.942865 189.960872 
L 76.980032 187.236831 
L 71.577314 192.292884 
z
" clip-path="url(#p7880f90f11)" style="fill: #240691"/>
    <path d="M 155.082849 164.367261 
L 160.317754 157.577441 
L 155.106987 154.953864 
L 149.880839 161.718479 
z
" clip-path="url(#p7880f90f11)" style="fill: #9d189d"/>
    <path d="M 202.177826 113.176634 
L 207.388095 103.911399 
L 202.026724 101.454836 
L 196.830292 110.689819 
z
" clip-path="url(#p7880f90f11)" style="fill: #feb82c"/>
    <path d="M 139.371874 174.098975 
L 144.636644 168.093 
L 139.475199 165.436499 
L 134.217689 171.418819 
z
" clip-path="url(#p7880f90f11)" style="fill: #7b02a8"/>
    <path d="M 196.962609 122.452121 
L 202.177826 113.176634 
L 196.830292 110.689819 
L 191.628944 119.934992 
z
" clip-path="url(#p7880f90f11)" style="fill: #f9983e"/>
    <path d="M 170.791343 152.998954 
L 176.010254 145.371779 
L 170.746578 142.784684 
L 165.538089 150.384949 
z
" clip-path="url(#p7880f90f11)" style="fill: #c03a83"/>
    <path d="M 86.937021 192.702105 
L 92.344432 188.212111 
L 87.34543 185.491623 
L 81.942865 189.960872 
z
" clip-path="url(#p7880f90f11)" style="fill: #2f0596"/>
    <path d="M 123.629668 182.372131 
L 128.936593 177.058515 
L 123.821322 174.372272 
L 118.520404 179.663561 
z
" clip-path="url(#p7880f90f11)" style="fill: #5c01a6"/>
    <path d="M 191.746724 131.396056 
L 196.962609 122.452121 
L 191.628944 119.934992 
L 186.426225 128.849285 
z
" clip-path="url(#p7880f90f11)" style="fill: #ee7b51"/>
    <path d="M 97.375006 190.949782 
L 102.762729 186.541598 
L 97.727621 183.82451 
L 92.344432 188.212111 
z
" clip-path="url(#p7880f90f11)" style="fill: #3a049a"/>
    <path d="M 149.830678 170.766274 
L 155.082849 164.367261 
L 149.880839 161.718479 
L 144.636644 168.093 
z
" clip-path="url(#p7880f90f11)" style="fill: #8b0aa5"/>
    <path d="M 186.52918 139.903281 
L 191.746724 131.396056 
L 186.426225 128.849285 
L 181.220921 137.327745 
z
" clip-path="url(#p7880f90f11)" style="fill: #e06363"/>
    <path d="M 165.561422 160.217584 
L 170.791343 152.998954 
L 165.538089 150.384949 
L 160.317754 157.577441 
z
" clip-path="url(#p7880f90f11)" style="fill: #b02991"/>
    <path d="M 217.990077 97.647788 
L 223.171429 89.664027 
L 217.752504 87.248615 
L 212.582164 95.204895 
z
" clip-path="url(#p7880f90f11)" style="fill: #f0f921"/>
    <path d="M 71.128338 200.878257 
L 76.534028 195.038855 
L 71.577314 192.292884 
L 66.179253 198.108697 
z
" clip-path="url(#p7880f90f11)" style="fill: #0d0887"/>
    <path d="M 134.08418 179.761729 
L 139.371874 174.098975 
L 134.217689 171.418819 
L 128.936593 177.058515 
z
" clip-path="url(#p7880f90f11)" style="fill: #6a00a8"/>
    <path d="M 107.82966 189.275859 
L 113.190621 184.629154 
L 108.118834 181.915968 
L 102.762729 186.541598 
z
" clip-path="url(#p7880f90f11)" style="fill: #44039e"/>
    <path d="M 212.783335 106.38348 
L 217.990077 97.647788 
L 212.582164 95.204895 
L 207.388095 103.911399 
z
" clip-path="url(#p7880f90f11)" style="fill: #fada24"/>
    <path d="M 181.307189 147.975219 
L 186.52918 139.903281 
L 181.220921 137.327745 
L 176.010254 145.371779 
z
" clip-path="url(#p7880f90f11)" style="fill: #d14e72"/>
    <path d="M 118.294487 187.359502 
L 123.629668 182.372131 
L 118.520404 179.663561 
L 113.190621 184.629154 
z
" clip-path="url(#p7880f90f11)" style="fill: #5002a2"/>
    <path d="M 81.522095 197.802195 
L 86.937021 192.702105 
L 81.942865 189.960872 
L 76.534028 195.038855 
z
" clip-path="url(#p7880f90f11)" style="fill: #240691"/>
    <path d="M 160.317754 167.032792 
L 165.561422 160.217584 
L 160.317754 157.577441 
L 155.082849 164.367261 
z
" clip-path="url(#p7880f90f11)" style="fill: #9d189d"/>
    <path d="M 207.559158 115.679167 
L 212.783335 106.38348 
L 207.388095 103.911399 
L 202.177826 113.176634 
z
" clip-path="url(#p7880f90f11)" style="fill: #feb82c"/>
    <path d="M 144.558661 176.796083 
L 149.830678 170.766274 
L 144.636644 168.093 
L 139.371874 174.098975 
z
" clip-path="url(#p7880f90f11)" style="fill: #7b02a8"/>
    <path d="M 202.330001 124.985166 
L 207.559158 115.679167 
L 202.177826 113.176634 
L 196.962609 122.452121 
z
" clip-path="url(#p7880f90f11)" style="fill: #f9983e"/>
    <path d="M 176.077826 155.629494 
L 181.307189 147.975219 
L 176.010254 145.371779 
L 170.791343 152.998954 
z
" clip-path="url(#p7880f90f11)" style="fill: #c03a83"/>
    <path d="M 91.962796 195.460694 
L 97.375006 190.949782 
L 92.344432 188.212111 
L 86.937021 192.702105 
z
" clip-path="url(#p7880f90f11)" style="fill: #2f0596"/>
    <path d="M 128.771279 185.097848 
L 134.08418 179.761729 
L 128.936593 177.058515 
L 123.629668 182.372131 
z
" clip-path="url(#p7880f90f11)" style="fill: #5c01a6"/>
    <path d="M 197.100887 133.958941 
L 202.330001 124.985166 
L 196.962609 122.452121 
L 191.746724 131.396056 
z
" clip-path="url(#p7880f90f11)" style="fill: #ee7b51"/>
    <path d="M 102.437453 193.704799 
L 107.82966 189.275859 
L 102.762729 186.541598 
L 97.375006 190.949782 
z
" clip-path="url(#p7880f90f11)" style="fill: #3a049a"/>
    <path d="M 155.05761 173.45648 
L 160.317754 167.032792 
L 155.082849 164.367261 
L 149.830678 170.766274 
z
" clip-path="url(#p7880f90f11)" style="fill: #8b0aa5"/>
    <path d="M 191.871052 142.495125 
L 197.100887 133.958941 
L 191.746724 131.396056 
L 186.52918 139.903281 
z
" clip-path="url(#p7880f90f11)" style="fill: #e06363"/>
    <path d="M 170.838303 162.87445 
L 176.077826 155.629494 
L 170.791343 152.998954 
L 165.561422 160.217584 
z
" clip-path="url(#p7880f90f11)" style="fill: #b02991"/>
    <path d="M 223.43224 100.106153 
L 228.624638 92.094722 
L 223.171429 89.664027 
L 217.990077 97.647788 
z
" clip-path="url(#p7880f90f11)" style="fill: #f0f921"/>
    <path d="M 76.108787 203.66537 
L 81.522095 197.802195 
L 76.534028 195.038855 
L 71.128338 200.878257 
z
" clip-path="url(#p7880f90f11)" style="fill: #0d0887"/>
    <path d="M 139.264391 182.482075 
L 144.558661 176.796083 
L 139.371874 174.098975 
L 134.08418 179.761729 
z
" clip-path="url(#p7880f90f11)" style="fill: #6a00a8"/>
    <path d="M 112.928716 192.027455 
L 118.294487 187.359502 
L 113.190621 184.629154 
L 107.82966 189.275859 
z
" clip-path="url(#p7880f90f11)" style="fill: #44039e"/>
    <path d="M 218.212768 108.871228 
L 223.43224 100.106153 
L 217.990077 97.647788 
L 212.783335 106.38348 
z
" clip-path="url(#p7880f90f11)" style="fill: #fada24"/>
    <path d="M 186.637698 150.595162 
L 191.871052 142.495125 
L 186.52918 139.903281 
L 181.307189 147.975219 
z
" clip-path="url(#p7880f90f11)" style="fill: #d14e72"/>
    <path d="M 123.430739 190.107174 
L 128.771279 185.097848 
L 123.629668 182.372131 
L 118.294487 187.359502 
z
" clip-path="url(#p7880f90f11)" style="fill: #5002a2"/>
    <path d="M 86.541813 200.58307 
L 91.962796 195.460694 
L 86.937021 192.702105 
L 81.522095 197.802195 
z
" clip-path="url(#p7880f90f11)" style="fill: #240691"/>
    <path d="M 165.585866 169.715232 
L 170.838303 162.87445 
L 165.561422 160.217584 
L 160.317754 167.032792 
z
" clip-path="url(#p7880f90f11)" style="fill: #9d189d"/>
    <path d="M 212.97461 118.197568 
L 218.212768 108.871228 
L 212.783335 106.38348 
L 207.559158 115.679167 
z
" clip-path="url(#p7880f90f11)" style="fill: #feb82c"/>
    <path d="M 149.77836 179.510305 
L 155.05761 173.45648 
L 149.830678 170.766274 
L 144.558661 176.796083 
z
" clip-path="url(#p7880f90f11)" style="fill: #7b02a8"/>
    <path d="M 207.73144 127.534279 
L 212.97461 118.197568 
L 207.559158 115.679167 
L 202.330001 124.985166 
z
" clip-path="url(#p7880f90f11)" style="fill: #f9983e"/>
    <path d="M 181.397856 158.276727 
L 186.637698 150.595162 
L 181.307189 147.975219 
L 176.077826 155.629494 
z
" clip-path="url(#p7880f90f11)" style="fill: #c03a83"/>
    <path d="M 97.020492 198.236803 
L 102.437453 193.704799 
L 97.375006 190.949782 
L 91.962796 195.460694 
z
" clip-path="url(#p7880f90f11)" style="fill: #2f0596"/>
    <path d="M 133.945545 187.840877 
L 139.264391 182.482075 
L 134.08418 179.761729 
L 128.771279 185.097848 
z
" clip-path="url(#p7880f90f11)" style="fill: #5c01a6"/>
    <path d="M 202.489036 136.538094 
L 207.73144 127.534279 
L 202.330001 124.985166 
L 197.100887 133.958941 
z
" clip-path="url(#p7880f90f11)" style="fill: #ee7b51"/>
    <path d="M 107.532077 196.477326 
L 112.928716 192.027455 
L 107.82966 189.275859 
L 102.437453 193.704799 
z
" clip-path="url(#p7880f90f11)" style="fill: #3a049a"/>
    <path d="M 160.317754 176.163779 
L 165.585866 169.715232 
L 160.317754 167.032792 
L 155.05761 173.45648 
z
" clip-path="url(#p7880f90f11)" style="fill: #8b0aa5"/>
    <path d="M 197.246858 145.103434 
L 202.489036 136.538094 
L 197.100887 133.958941 
L 191.871052 142.495125 
z
" clip-path="url(#p7880f90f11)" style="fill: #e06363"/>
    <path d="M 176.148715 165.548197 
L 181.397856 158.276727 
L 176.077826 155.629494 
L 170.838303 162.87445 
z
" clip-path="url(#p7880f90f11)" style="fill: #b02991"/>
    <path d="M 228.908978 102.580136 
L 234.112459 94.540843 
L 228.624638 92.094722 
L 223.43224 100.106153 
z
" clip-path="url(#p7880f90f11)" style="fill: #f0f921"/>
    <path d="M 81.120899 206.470201 
L 86.541813 200.58307 
L 81.522095 197.802195 
L 76.108787 203.66537 
z
" clip-path="url(#p7880f90f11)" style="fill: #0d0887"/>
    <path d="M 144.477537 185.219717 
L 149.77836 179.510305 
L 144.558661 176.796083 
L 139.264391 182.482075 
z
" clip-path="url(#p7880f90f11)" style="fill: #6a00a8"/>
    <path d="M 118.060204 194.796553 
L 123.430739 190.107174 
L 118.294487 187.359502 
L 112.928716 192.027455 
z
" clip-path="url(#p7880f90f11)" style="fill: #44039e"/>
    <path d="M 223.676719 111.374792 
L 228.908978 102.580136 
L 223.43224 100.106153 
L 218.212768 108.871228 
z
" clip-path="url(#p7880f90f11)" style="fill: #fada24"/>
    <path d="M 192.002102 153.231764 
L 197.246858 145.103434 
L 191.871052 142.495125 
L 186.637698 150.595162 
z
" clip-path="url(#p7880f90f11)" style="fill: #d14e72"/>
    <path d="M 128.599684 192.872336 
L 133.945545 187.840877 
L 128.771279 185.097848 
L 123.430739 190.107174 
z
" clip-path="url(#p7880f90f11)" style="fill: #5002a2"/>
    <path d="M 91.593483 203.381646 
L 97.020492 198.236803 
L 91.962796 195.460694 
L 86.541813 200.58307 
z
" clip-path="url(#p7880f90f11)" style="fill: #240691"/>
    <path d="M 170.887502 172.414741 
L 176.148715 165.548197 
L 170.838303 162.87445 
L 165.585866 169.715232 
z
" clip-path="url(#p7880f90f11)" style="fill: #9d189d"/>
    <path d="M 218.424508 120.731987 
L 223.676719 111.374792 
L 218.212768 108.871228 
L 212.97461 118.197568 
z
" clip-path="url(#p7880f90f11)" style="fill: #feb82c"/>
    <path d="M 155.031285 182.241805 
L 160.317754 176.163779 
L 155.05761 173.45648 
L 149.77836 179.510305 
z
" clip-path="url(#p7880f90f11)" style="fill: #7b02a8"/>
    <path d="M 213.167253 130.099614 
L 218.424508 120.731987 
L 212.97461 118.197568 
L 207.73144 127.534279 
z
" clip-path="url(#p7880f90f11)" style="fill: #f9983e"/>
    <path d="M 186.751752 160.940812 
L 192.002102 153.231764 
L 186.637698 150.595162 
L 181.397856 158.276727 
z
" clip-path="url(#p7880f90f11)" style="fill: #c03a83"/>
    <path d="M 102.110414 201.030601 
L 107.532077 196.477326 
L 102.437453 193.704799 
L 97.020492 198.236803 
z
" clip-path="url(#p7880f90f11)" style="fill: #2f0596"/>
    <path d="M 139.152777 190.601382 
L 144.477537 185.219717 
L 139.264391 182.482075 
L 133.945545 187.840877 
z
" clip-path="url(#p7880f90f11)" style="fill: #5c01a6"/>
    <path d="M 207.911494 139.13367 
L 213.167253 130.099614 
L 207.73144 127.534279 
L 202.489036 136.538094 
z
" clip-path="url(#p7880f90f11)" style="fill: #ee7b51"/>
    <path d="M 112.659186 199.267531 
L 118.060204 194.796553 
L 112.928716 192.027455 
L 107.532077 196.477326 
z
" clip-path="url(#p7880f90f11)" style="fill: #3a049a"/>
    <path d="M 165.611427 178.888335 
L 170.887502 172.414741 
L 165.585866 169.715232 
L 160.317754 176.163779 
z
" clip-path="url(#p7880f90f11)" style="fill: #8b0aa5"/>
    <path d="M 202.656922 147.728364 
L 207.911494 139.13367 
L 202.489036 136.538094 
L 197.246858 145.103434 
z
" clip-path="url(#p7880f90f11)" style="fill: #e06363"/>
    <path d="M 181.492976 168.238988 
L 186.751752 160.940812 
L 181.397856 158.276727 
L 176.148715 165.548197 
z
" clip-path="url(#p7880f90f11)" style="fill: #b02991"/>
    <path d="M 234.420621 105.069886 
L 239.635221 97.00254 
L 234.112459 94.540843 
L 228.908978 102.580136 
z
" clip-path="url(#p7880f90f11)" style="fill: #f0f921"/>
    <path d="M 86.164977 209.292921 
L 91.593483 203.381646 
L 86.541813 200.58307 
L 81.120899 206.470201 
z
" clip-path="url(#p7880f90f11)" style="fill: #0d0887"/>
    <path d="M 149.723933 187.974819 
L 155.031285 182.241805 
L 149.77836 179.510305 
L 144.477537 185.219717 
z
" clip-path="url(#p7880f90f11)" style="fill: #6a00a8"/>
    <path d="M 123.224434 197.583319 
L 128.599684 192.872336 
L 123.430739 190.107174 
L 118.060204 194.796553 
z
" clip-path="url(#p7880f90f11)" style="fill: #44039e"/>
    <path d="M 229.175519 113.894324 
L 234.420621 105.069886 
L 228.908978 102.580136 
L 223.676719 111.374792 
z
" clip-path="url(#p7880f90f11)" style="fill: #fada24"/>
    <path d="M 197.400724 155.885184 
L 202.656922 147.728364 
L 197.246858 145.103434 
L 192.002102 153.231764 
z
" clip-path="url(#p7880f90f11)" style="fill: #d14e72"/>
    <path d="M 133.801637 195.655156 
L 139.152777 190.601382 
L 133.945545 187.840877 
L 128.599684 192.872336 
z
" clip-path="url(#p7880f90f11)" style="fill: #5002a2"/>
    <path d="M 96.677414 206.198093 
L 102.110414 201.030601 
L 97.020492 198.236803 
L 91.593483 203.381646 
z
" clip-path="url(#p7880f90f11)" style="fill: #240691"/>
    <path d="M 176.222983 175.131484 
L 181.492976 168.238988 
L 176.148715 165.548197 
L 170.887502 172.414741 
z
" clip-path="url(#p7880f90f11)" style="fill: #9d189d"/>
    <path d="M 223.909182 123.282579 
L 229.175519 113.894324 
L 223.676719 111.374792 
L 218.424508 120.731987 
z
" clip-path="url(#p7880f90f11)" style="fill: #feb82c"/>
    <path d="M 160.317754 184.990748 
L 165.611427 178.888335 
L 160.317754 176.163779 
L 155.031285 182.241805 
z
" clip-path="url(#p7880f90f11)" style="fill: #7b02a8"/>
    <path d="M 218.637768 132.681326 
L 223.909182 123.282579 
L 218.424508 120.731987 
L 213.167253 130.099614 
z
" clip-path="url(#p7880f90f11)" style="fill: #f9983e"/>
    <path d="M 192.13984 163.62191 
L 197.400724 155.885184 
L 192.002102 153.231764 
L 186.751752 160.940812 
z
" clip-path="url(#p7880f90f11)" style="fill: #c03a83"/>
    <path d="M 107.23287 203.842258 
L 112.659186 199.267531 
L 107.532077 196.477326 
L 102.110414 201.030601 
z
" clip-path="url(#p7880f90f11)" style="fill: #2f0596"/>
    <path d="M 144.393292 193.379531 
L 149.723933 187.974819 
L 144.477537 185.219717 
L 139.152777 190.601382 
z
" clip-path="url(#p7880f90f11)" style="fill: #5c01a6"/>
    <path d="M 213.36859 141.745826 
L 218.637768 132.681326 
L 213.167253 130.099614 
L 207.911494 139.13367 
z
" clip-path="url(#p7880f90f11)" style="fill: #ee7b51"/>
    <path d="M 117.819091 202.075585 
L 123.224434 197.583319 
L 118.060204 194.796553 
L 112.659186 199.267531 
z
" clip-path="url(#p7880f90f11)" style="fill: #3a049a"/>
    <path d="M 170.938951 181.630314 
L 176.222983 175.131484 
L 170.887502 172.414741 
L 165.611427 178.888335 
z
" clip-path="url(#p7880f90f11)" style="fill: #8b0aa5"/>
    <path d="M 208.101573 150.370076 
L 213.36859 141.745826 
L 207.911494 139.13367 
L 202.656922 147.728364 
z
" clip-path="url(#p7880f90f11)" style="fill: #e06363"/>
    <path d="M 186.871413 170.946985 
L 192.13984 163.62191 
L 186.751752 160.940812 
L 181.492976 168.238988 
z
" clip-path="url(#p7880f90f11)" style="fill: #b02991"/>
    <path d="M 239.967505 107.575556 
L 245.19326 99.479961 
L 239.635221 97.00254 
L 234.420621 105.069886 
z
" clip-path="url(#p7880f90f11)" style="fill: #f0f921"/>
    <path d="M 91.241328 212.133701 
L 96.677414 206.198093 
L 91.593483 203.381646 
L 86.164977 209.292921 
z
" clip-path="url(#p7880f90f11)" style="fill: #0d0887"/>
    <path d="M 155.003897 190.74755 
L 160.317754 184.990748 
L 155.031285 182.241805 
L 149.723933 187.974819 
z
" clip-path="url(#p7880f90f11)" style="fill: #6a00a8"/>
    <path d="M 128.421721 200.387923 
L 133.801637 195.655156 
L 128.599684 192.872336 
L 123.224434 197.583319 
z
" clip-path="url(#p7880f90f11)" style="fill: #44039e"/>
    <path d="M 234.709501 116.429977 
L 239.967505 107.575556 
L 234.420621 105.069886 
L 229.175519 113.894324 
z
" clip-path="url(#p7880f90f11)" style="fill: #fada24"/>
    <path d="M 202.833894 158.555584 
L 208.101573 150.370076 
L 202.656922 147.728364 
L 197.400724 155.885184 
z
" clip-path="url(#p7880f90f11)" style="fill: #d14e72"/>
    <path d="M 139.036914 198.455802 
L 144.393292 193.379531 
L 139.152777 190.601382 
L 133.801637 195.655156 
z
" clip-path="url(#p7880f90f11)" style="fill: #5002a2"/>
    <path d="M 101.793913 209.032584 
L 107.23287 203.842258 
L 102.110414 201.030601 
L 96.677414 206.198093 
z
" clip-path="url(#p7880f90f11)" style="fill: #240691"/>
    <path d="M 181.592635 177.865626 
L 186.871413 170.946985 
L 181.492976 168.238988 
L 176.222983 175.131484 
z
" clip-path="url(#p7880f90f11)" style="fill: #9d189d"/>
    <path d="M 229.428965 125.849497 
L 234.709501 116.429977 
L 229.175519 113.894324 
L 223.909182 123.282579 
z
" clip-path="url(#p7880f90f11)" style="fill: #feb82c"/>
    <path d="M 165.63809 187.757301 
L 170.938951 181.630314 
L 165.611427 178.888335 
L 160.317754 184.990748 
z
" clip-path="url(#p7880f90f11)" style="fill: #7b02a8"/>
    <path d="M 224.143319 135.279573 
L 229.428965 125.849497 
L 223.909182 123.282579 
L 218.637768 132.681326 
z
" clip-path="url(#p7880f90f11)" style="fill: #f9983e"/>
    <path d="M 197.562448 166.320186 
L 202.833894 158.555584 
L 197.400724 155.885184 
L 192.13984 163.62191 
z
" clip-path="url(#p7880f90f11)" style="fill: #c03a83"/>
    <path d="M 112.388175 206.671944 
L 117.819091 202.075585 
L 112.659186 199.267531 
L 107.23287 203.842258 
z
" clip-path="url(#p7880f90f11)" style="fill: #2f0596"/>
    <path d="M 149.667409 196.175495 
L 155.003897 190.74755 
L 149.723933 187.974819 
L 144.393292 193.379531 
z
" clip-path="url(#p7880f90f11)" style="fill: #5c01a6"/>
    <path d="M 218.860658 144.374722 
L 224.143319 135.279573 
L 218.637768 132.681326 
L 213.36859 141.745826 
z
" clip-path="url(#p7880f90f11)" style="fill: #ee7b51"/>
    <path d="M 123.012108 204.901658 
L 128.421721 200.387923 
L 123.224434 197.583319 
L 117.819091 202.075585 
z
" clip-path="url(#p7880f90f11)" style="fill: #3a049a"/>
    <path d="M 176.300651 184.389882 
L 181.592635 177.865626 
L 176.222983 175.131484 
L 170.938951 181.630314 
z
" clip-path="url(#p7880f90f11)" style="fill: #8b0aa5"/>
    <path d="M 213.581144 153.028731 
L 218.860658 144.374722 
L 213.36859 141.745826 
L 208.101573 150.370076 
z
" clip-path="url(#p7880f90f11)" style="fill: #e06363"/>
    <path d="M 192.284353 173.672355 
L 197.562448 166.320186 
L 192.13984 163.62191 
L 186.871413 170.946985 
z
" clip-path="url(#p7880f90f11)" style="fill: #b02991"/>
    <path d="M 245.549969 110.097298 
L 250.786914 101.973256 
L 245.19326 99.479961 
L 239.967505 107.575556 
z
" clip-path="url(#p7880f90f11)" style="fill: #f0f921"/>
    <path d="M 96.350263 214.992715 
L 101.793913 209.032584 
L 96.677414 206.198093 
L 91.241328 212.133701 
z
" clip-path="url(#p7880f90f11)" style="fill: #0d0887"/>
    <path d="M 160.317754 193.538079 
L 165.63809 187.757301 
L 160.317754 184.990748 
L 155.003897 190.74755 
z
" clip-path="url(#p7880f90f11)" style="fill: #6a00a8"/>
    <path d="M 133.652383 203.210538 
L 139.036914 198.455802 
L 133.801637 195.655156 
L 128.421721 200.387923 
z
" clip-path="url(#p7880f90f11)" style="fill: #44039e"/>
    <path d="M 240.279005 118.981905 
L 245.549969 110.097298 
L 239.967505 107.575556 
L 234.709501 116.429977 
z
" clip-path="url(#p7880f90f11)" style="fill: #fada24"/>
    <path d="M 208.301944 161.243128 
L 213.581144 153.028731 
L 208.101573 150.370076 
L 202.833894 158.555584 
z
" clip-path="url(#p7880f90f11)" style="fill: #d14e72"/>
    <path d="M 144.305836 201.274448 
L 149.667409 196.175495 
L 144.393292 193.379531 
L 139.036914 198.455802 
z
" clip-path="url(#p7880f90f11)" style="fill: #5002a2"/>
    <path d="M 106.943295 211.885292 
L 112.388175 206.671944 
L 107.23287 203.842258 
L 101.793913 209.032584 
z
" clip-path="url(#p7880f90f11)" style="fill: #240691"/>
    <path d="M 186.996786 180.617335 
L 192.284353 173.672355 
L 186.871413 170.946985 
L 181.592635 177.865626 
z
" clip-path="url(#p7880f90f11)" style="fill: #9d189d"/>
    <path d="M 234.984196 128.4329 
L 240.279005 118.981905 
L 234.709501 116.429977 
L 229.428965 125.849497 
z
" clip-path="url(#p7880f90f11)" style="fill: #feb82c"/>
    <path d="M 170.992619 190.541635 
L 176.300651 184.389882 
L 170.938951 181.630314 
L 165.63809 187.757301 
z
" clip-path="url(#p7880f90f11)" style="fill: #7b02a8"/>
    <path d="M 229.684243 137.894514 
L 234.984196 128.4329 
L 229.428965 125.849497 
L 224.143319 135.279573 
z
" clip-path="url(#p7880f90f11)" style="fill: #f9983e"/>
    <path d="M 203.019909 169.035804 
L 208.301944 161.243128 
L 202.833894 158.555584 
L 197.562448 166.320186 
z
" clip-path="url(#p7880f90f11)" style="fill: #c03a83"/>
    <path d="M 117.576645 209.519833 
L 123.012108 204.901658 
L 117.819091 202.075585 
L 112.388175 206.671944 
z
" clip-path="url(#p7880f90f11)" style="fill: #2f0596"/>
    <path d="M 154.975454 198.989443 
L 160.317754 193.538079 
L 155.003897 190.74755 
L 149.667409 196.175495 
z
" clip-path="url(#p7880f90f11)" style="fill: #5c01a6"/>
    <path d="M 224.388034 147.020519 
L 229.684243 137.894514 
L 224.143319 135.279573 
L 218.860658 144.374722 
z
" clip-path="url(#p7880f90f11)" style="fill: #ee7b51"/>
    <path d="M 128.238557 207.745925 
L 133.652383 203.210538 
L 128.421721 200.387923 
L 123.012108 204.901658 
z
" clip-path="url(#p7880f90f11)" style="fill: #3a049a"/>
    <path d="M 181.696857 187.167211 
L 186.996786 180.617335 
L 181.592635 177.865626 
L 176.300651 184.389882 
z
" clip-path="url(#p7880f90f11)" style="fill: #8b0aa5"/>
    <path d="M 219.09597 155.704492 
L 224.388034 147.020519 
L 218.860658 144.374722 
L 213.581144 153.028731 
z
" clip-path="url(#p7880f90f11)" style="fill: #e06363"/>
    <path d="M 197.732131 176.415266 
L 203.019909 169.035804 
L 197.562448 166.320186 
L 192.284353 173.672355 
z
" clip-path="url(#p7880f90f11)" style="fill: #b02991"/>
    <path d="M 251.168355 112.635267 
L 256.416528 104.48258 
L 250.786914 101.973256 
L 245.549969 110.097298 
z
" clip-path="url(#p7880f90f11)" style="fill: #f0f921"/>
    <path d="M 101.492095 217.87014 
L 106.943295 211.885292 
L 101.793913 209.032584 
L 96.350263 214.992715 
z
" clip-path="url(#p7880f90f11)" style="fill: #0d0887"/>
    <path d="M 165.665831 196.346579 
L 170.992619 190.541635 
L 165.63809 187.757301 
L 160.317754 193.538079 
z
" clip-path="url(#p7880f90f11)" style="fill: #6a00a8"/>
    <path d="M 138.916742 206.051337 
L 144.305836 201.274448 
L 139.036914 198.455802 
L 133.652383 203.210538 
z
" clip-path="url(#p7880f90f11)" style="fill: #44039e"/>
    <path d="M 245.884375 121.550267 
L 251.168355 112.635267 
L 245.549969 110.097298 
L 240.279005 118.981905 
z
" clip-path="url(#p7880f90f11)" style="fill: #fada24"/>
    <path d="M 213.805211 163.947981 
L 219.09597 155.704492 
L 213.581144 153.028731 
L 208.301944 161.243128 
z
" clip-path="url(#p7880f90f11)" style="fill: #d14e72"/>
    <path d="M 149.60873 204.111267 
L 154.975454 198.989443 
L 149.667409 196.175495 
L 144.305836 201.274448 
z
" clip-path="url(#p7880f90f11)" style="fill: #5002a2"/>
    <path d="M 112.125879 214.756392 
L 117.576645 209.519833 
L 112.388175 206.671944 
L 106.943295 211.885292 
z
" clip-path="url(#p7880f90f11)" style="fill: #240691"/>
    <path d="M 192.43577 183.38678 
L 197.732131 176.415266 
L 192.284353 173.672355 
L 186.996786 180.617335 
z
" clip-path="url(#p7880f90f11)" style="fill: #9d189d"/>
    <path d="M 240.575217 131.032947 
L 245.884375 121.550267 
L 240.279005 118.981905 
L 234.984196 128.4329 
z
" clip-path="url(#p7880f90f11)" style="fill: #feb82c"/>
    <path d="M 176.381672 193.34392 
L 181.696857 187.167211 
L 176.300651 184.389882 
L 170.992619 190.541635 
z
" clip-path="url(#p7880f90f11)" style="fill: #7b02a8"/>
    <path d="M 235.260882 140.526309 
L 240.575217 131.032947 
L 234.984196 128.4329 
L 229.684243 137.894514 
z
" clip-path="url(#p7880f90f11)" style="fill: #f9983e"/>
    <path d="M 208.512559 171.768932 
L 213.805211 163.947981 
L 208.301944 161.243128 
L 203.019909 169.035804 
z
" clip-path="url(#p7880f90f11)" style="fill: #c03a83"/>
    <path d="M 122.7986 212.386103 
L 128.238557 207.745925 
L 123.012108 204.901658 
L 117.576645 209.519833 
z
" clip-path="url(#p7880f90f11)" style="fill: #2f0596"/>
    <path d="M 160.317754 201.821552 
L 165.665831 196.346579 
L 160.317754 193.538079 
L 154.975454 198.989443 
z
" clip-path="url(#p7880f90f11)" style="fill: #5c01a6"/>
    <path d="M 229.95106 149.683381 
L 235.260882 140.526309 
L 229.684243 137.894514 
L 224.388034 147.020519 
z
" clip-path="url(#p7880f90f11)" style="fill: #ee7b51"/>
    <path d="M 133.498762 210.608563 
L 138.916742 206.051337 
L 133.652383 203.210538 
L 128.238557 207.745925 
z
" clip-path="url(#p7880f90f11)" style="fill: #3a049a"/>
    <path d="M 187.127905 189.962471 
L 192.43577 183.38678 
L 186.996786 180.617335 
L 181.696857 187.167211 
z
" clip-path="url(#p7880f90f11)" style="fill: #8b0aa5"/>
    <path d="M 224.646395 158.397524 
L 229.95106 149.683381 
L 224.388034 147.020519 
L 219.09597 155.704492 
z
" clip-path="url(#p7880f90f11)" style="fill: #e06363"/>
    <path d="M 203.215083 179.175886 
L 208.512559 171.768932 
L 203.019909 169.035804 
L 197.732131 176.415266 
z
" clip-path="url(#p7880f90f11)" style="fill: #b02991"/>
    <path d="M 256.823013 115.189621 
L 262.082449 107.008088 
L 256.416528 104.48258 
L 251.168355 112.635267 
z
" clip-path="url(#p7880f90f11)" style="fill: #f0f921"/>
    <path d="M 106.667145 220.766153 
L 112.125879 214.756392 
L 106.943295 211.885292 
L 101.492095 217.87014 
z
" clip-path="url(#p7880f90f11)" style="fill: #0d0887"/>
    <path d="M 171.048459 199.173223 
L 176.381672 193.34392 
L 170.992619 190.541635 
L 165.665831 196.346579 
z
" clip-path="url(#p7880f90f11)" style="fill: #6a00a8"/>
    <path d="M 144.215126 208.910496 
L 149.60873 204.111267 
L 144.305836 201.274448 
L 138.916742 206.051337 
z
" clip-path="url(#p7880f90f11)" style="fill: #44039e"/>
    <path d="M 251.525956 124.135221 
L 256.823013 115.189621 
L 251.168355 112.635267 
L 245.884375 121.550267 
z
" clip-path="url(#p7880f90f11)" style="fill: #fada24"/>
    <path d="M 219.344036 166.67031 
L 224.646395 158.397524 
L 219.09597 155.704492 
L 213.805211 163.947981 
z
" clip-path="url(#p7880f90f11)" style="fill: #d14e72"/>
    <path d="M 154.945925 206.966435 
L 160.317754 201.821552 
L 154.975454 198.989443 
L 149.60873 204.111267 
z
" clip-path="url(#p7880f90f11)" style="fill: #5002a2"/>
    <path d="M 117.341986 217.646065 
L 122.7986 212.386103 
L 117.576645 209.519833 
L 112.125879 214.756392 
z
" clip-path="url(#p7880f90f11)" style="fill: #240691"/>
    <path d="M 197.909925 186.174134 
L 203.215083 179.175886 
L 197.732131 176.415266 
L 192.43577 183.38678 
z
" clip-path="url(#p7880f90f11)" style="fill: #9d189d"/>
    <path d="M 246.202375 133.649799 
L 251.525956 124.135221 
L 245.884375 121.550267 
L 240.575217 131.032947 
z
" clip-path="url(#p7880f90f11)" style="fill: #feb82c"/>
    <path d="M 181.805584 196.164333 
L 187.127905 189.962471 
L 181.696857 187.167211 
L 176.381672 193.34392 
z
" clip-path="url(#p7880f90f11)" style="fill: #7b02a8"/>
    <path d="M 240.873583 143.175124 
L 246.202375 133.649799 
L 240.575217 131.032947 
L 235.260882 140.526309 
z
" clip-path="url(#p7880f90f11)" style="fill: #f9983e"/>
    <path d="M 214.04074 174.519741 
L 219.344036 166.67031 
L 213.805211 163.947981 
L 208.512559 171.768932 
z
" clip-path="url(#p7880f90f11)" style="fill: #c03a83"/>
    <path d="M 128.054367 215.270932 
L 133.498762 210.608563 
L 128.238557 207.745925 
L 122.7986 212.386103 
z
" clip-path="url(#p7880f90f11)" style="fill: #2f0596"/>
    <path d="M 165.694642 204.671997 
L 171.048459 199.173223 
L 165.665831 196.346579 
L 160.317754 201.821552 
z
" clip-path="url(#p7880f90f11)" style="fill: #5c01a6"/>
    <path d="M 235.550083 152.363473 
L 240.873583 143.175124 
L 235.260882 140.526309 
L 229.95106 149.683381 
z
" clip-path="url(#p7880f90f11)" style="fill: #ee7b51"/>
    <path d="M 138.79305 213.489749 
L 144.215126 208.910496 
L 138.916742 206.051337 
L 133.498762 210.608563 
z
" clip-path="url(#p7880f90f11)" style="fill: #3a049a"/>
    <path d="M 192.594131 192.775837 
L 197.909925 186.174134 
L 192.43577 183.38678 
L 187.127905 189.962471 
z
" clip-path="url(#p7880f90f11)" style="fill: #8b0aa5"/>
    <path d="M 230.232763 161.107996 
L 235.550083 152.363473 
L 229.95106 149.683381 
L 224.646395 158.397524 
z
" clip-path="url(#p7880f90f11)" style="fill: #e06363"/>
    <path d="M 208.733552 181.954388 
L 214.04074 174.519741 
L 208.512559 171.768932 
L 203.215083 179.175886 
z
" clip-path="url(#p7880f90f11)" style="fill: #b02991"/>
    <path d="M 262.514293 117.760519 
L 267.785029 109.549936 
L 262.082449 107.008088 
L 256.823013 115.189621 
z
" clip-path="url(#p7880f90f11)" style="fill: #f0f921"/>
    <path d="M 111.875735 223.680935 
L 117.341986 217.646065 
L 112.125879 214.756392 
L 106.667145 220.766153 
z
" clip-path="url(#p7880f90f11)" style="fill: #0d0887"/>
    <path d="M 176.465973 202.018187 
L 181.805584 196.164333 
L 176.381672 193.34392 
L 171.048459 199.173223 
z
" clip-path="url(#p7880f90f11)" style="fill: #6a00a8"/>
    <path d="M 149.547865 211.788194 
L 154.945925 206.966435 
L 149.60873 204.111267 
L 144.215126 208.910496 
z
" clip-path="url(#p7880f90f11)" style="fill: #44039e"/>
    <path d="M 257.204102 126.736928 
L 262.514293 117.760519 
L 256.823013 115.189621 
L 251.525956 124.135221 
z
" clip-path="url(#p7880f90f11)" style="fill: #fada24"/>
    <path d="M 224.918765 169.410287 
L 230.232763 161.107996 
L 224.646395 158.397524 
L 219.344036 166.67031 
z
" clip-path="url(#p7880f90f11)" style="fill: #d14e72"/>
    <path d="M 160.317754 209.840131 
L 165.694642 204.671997 
L 160.317754 201.821552 
L 154.945925 206.966435 
z
" clip-path="url(#p7880f90f11)" style="fill: #5002a2"/>
    <path d="M 122.591943 220.554489 
L 128.054367 215.270932 
L 122.7986 212.386103 
L 117.341986 217.646065 
z
" clip-path="url(#p7880f90f11)" style="fill: #240691"/>
    <path d="M 203.419593 188.97957 
L 208.733552 181.954388 
L 203.215083 179.175886 
L 197.909925 186.174134 
z
" clip-path="url(#p7880f90f11)" style="fill: #9d189d"/>
    <path d="M 251.866022 136.28362 
L 257.204102 126.736928 
L 251.525956 124.135221 
L 246.202375 133.649799 
z
" clip-path="url(#p7880f90f11)" style="fill: #feb82c"/>
    <path d="M 187.264694 199.003048 
L 192.594131 192.775837 
L 187.127905 189.962471 
L 181.805584 196.164333 
z
" clip-path="url(#p7880f90f11)" style="fill: #7b02a8"/>
    <path d="M 246.522696 145.841122 
L 251.866022 136.28362 
L 246.202375 133.649799 
L 240.873583 143.175124 
z
" clip-path="url(#p7880f90f11)" style="fill: #f9983e"/>
    <path d="M 219.604799 177.288402 
L 224.918765 169.410287 
L 219.344036 166.67031 
L 214.04074 174.519741 
z
" clip-path="url(#p7880f90f11)" style="fill: #c03a83"/>
    <path d="M 133.344274 218.174499 
L 138.79305 213.489749 
L 133.498762 210.608563 
L 128.054367 215.270932 
z
" clip-path="url(#p7880f90f11)" style="fill: #2f0596"/>
    <path d="M 171.106456 207.540957 
L 176.465973 202.018187 
L 171.048459 199.173223 
L 165.694642 204.671997 
z
" clip-path="url(#p7880f90f11)" style="fill: #5c01a6"/>
    <path d="M 241.185452 155.060964 
L 246.522696 145.841122 
L 240.873583 143.175124 
L 235.550083 152.363473 
z
" clip-path="url(#p7880f90f11)" style="fill: #ee7b51"/>
    <path d="M 144.121755 216.389664 
L 149.547865 211.788194 
L 144.215126 208.910496 
L 138.79305 213.489749 
z
" clip-path="url(#p7880f90f11)" style="fill: #3a049a"/>
    <path d="M 198.095879 195.607486 
L 203.419593 188.97957 
L 197.909925 186.174134 
L 192.594131 192.775837 
z
" clip-path="url(#p7880f90f11)" style="fill: #8b0aa5"/>
    <path d="M 235.855425 163.836078 
L 241.185452 155.060964 
L 235.550083 152.363473 
L 230.232763 161.107996 
z
" clip-path="url(#p7880f90f11)" style="fill: #e06363"/>
    <path d="M 214.287883 184.750947 
L 219.604799 177.288402 
L 214.04074 174.519741 
L 208.733552 181.954388 
z
" clip-path="url(#p7880f90f11)" style="fill: #b02991"/>
    <path d="M 117.118191 226.614669 
L 122.591943 220.554489 
L 117.341986 217.646065 
L 111.875735 223.680935 
z
" clip-path="url(#p7880f90f11)" style="fill: #0d0887"/>
    <path d="M 181.918716 204.881651 
L 187.264694 199.003048 
L 181.805584 196.164333 
L 176.465973 202.018187 
z
" clip-path="url(#p7880f90f11)" style="fill: #6a00a8"/>
    <path d="M 154.915295 214.684613 
L 160.317754 209.840131 
L 154.945925 206.966435 
L 149.547865 211.788194 
z
" clip-path="url(#p7880f90f11)" style="fill: #44039e"/>
    <path d="M 230.529749 172.168082 
L 235.855425 163.836078 
L 230.232763 161.107996 
L 224.918765 169.410287 
z
" clip-path="url(#p7880f90f11)" style="fill: #d14e72"/>
    <path d="M 165.724556 212.732536 
L 171.106456 207.540957 
L 165.694642 204.671997 
L 160.317754 209.840131 
z
" clip-path="url(#p7880f90f11)" style="fill: #5002a2"/>
    <path d="M 127.87608 223.48185 
L 133.344274 218.174499 
L 128.054367 215.270932 
L 122.591943 220.554489 
z
" clip-path="url(#p7880f90f11)" style="fill: #240691"/>
    <path d="M 208.965122 191.803266 
L 214.287883 184.750947 
L 208.733552 181.954388 
L 203.419593 188.97957 
z
" clip-path="url(#p7880f90f11)" style="fill: #9d189d"/>
    <path d="M 192.759346 201.860245 
L 198.095879 195.607486 
L 192.594131 192.775837 
L 187.264694 199.003048 
z
" clip-path="url(#p7880f90f11)" style="fill: #7b02a8"/>
    <path d="M 225.205085 180.075089 
L 230.529749 172.168082 
L 224.918765 169.410287 
L 219.604799 177.288402 
z
" clip-path="url(#p7880f90f11)" style="fill: #c03a83"/>
    <path d="M 138.668656 221.096989 
L 144.121755 216.389664 
L 138.79305 213.489749 
L 133.344274 218.174499 
z
" clip-path="url(#p7880f90f11)" style="fill: #2f0596"/>
    <path d="M 176.553536 210.428612 
L 181.918716 204.881651 
L 176.465973 202.018187 
L 171.106456 207.540957 
z
" clip-path="url(#p7880f90f11)" style="fill: #5c01a6"/>
    <path d="M 149.485212 219.308492 
L 154.915295 214.684613 
L 149.547865 211.788194 
L 144.121755 216.389664 
z
" clip-path="url(#p7880f90f11)" style="fill: #3a049a"/>
    <path d="M 203.633497 198.457596 
L 208.965122 191.803266 
L 203.419593 188.97957 
L 198.095879 195.607486 
z
" clip-path="url(#p7880f90f11)" style="fill: #8b0aa5"/>
    <path d="M 219.878427 187.565739 
L 225.205085 180.075089 
L 219.604799 177.288402 
L 214.287883 184.750947 
z
" clip-path="url(#p7880f90f11)" style="fill: #b02991"/>
    <path d="M 122.394846 229.567542 
L 127.87608 223.48185 
L 122.591943 220.554489 
L 117.118191 226.614669 
z
" clip-path="url(#p7880f90f11)" style="fill: #0d0887"/>
    <path d="M 187.40703 207.763795 
L 192.759346 201.860245 
L 187.264694 199.003048 
L 181.918716 204.881651 
z
" clip-path="url(#p7880f90f11)" style="fill: #6a00a8"/>
    <path d="M 160.317754 217.599934 
L 165.724556 212.732536 
L 160.317754 209.840131 
L 154.915295 214.684613 
z
" clip-path="url(#p7880f90f11)" style="fill: #44039e"/>
    <path d="M 171.166674 215.643834 
L 176.553536 210.428612 
L 171.106456 207.540957 
L 165.724556 212.732536 
z
" clip-path="url(#p7880f90f11)" style="fill: #5002a2"/>
    <path d="M 133.194733 226.428331 
L 138.668656 221.096989 
L 133.344274 218.174499 
L 127.87608 223.48185 
z
" clip-path="url(#p7880f90f11)" style="fill: #240691"/>
    <path d="M 214.546862 194.6454 
L 219.878427 187.565739 
L 214.287883 184.750947 
L 208.965122 191.803266 
z
" clip-path="url(#p7880f90f11)" style="fill: #9d189d"/>
    <path d="M 198.289888 204.736104 
L 203.633497 198.457596 
L 198.095879 195.607486 
L 192.759346 201.860245 
z
" clip-path="url(#p7880f90f11)" style="fill: #7b02a8"/>
    <path d="M 144.02785 224.038588 
L 149.485212 219.308492 
L 144.121755 216.389664 
L 138.668656 221.096989 
z
" clip-path="url(#p7880f90f11)" style="fill: #2f0596"/>
    <path d="M 182.036228 213.335147 
L 187.40703 207.763795 
L 181.918716 204.881651 
L 176.553536 210.428612 
z
" clip-path="url(#p7880f90f11)" style="fill: #5c01a6"/>
    <path d="M 154.883763 222.246418 
L 160.317754 217.599934 
L 154.915295 214.684613 
L 149.485212 219.308492 
z
" clip-path="url(#p7880f90f11)" style="fill: #3a049a"/>
    <path d="M 209.207336 201.326349 
L 214.546862 194.6454 
L 208.965122 191.803266 
L 203.633497 198.457596 
z
" clip-path="url(#p7880f90f11)" style="fill: #8b0aa5"/>
    <path d="M 127.706036 232.53974 
L 133.194733 226.428331 
L 127.87608 223.48185 
L 122.394846 229.567542 
z
" clip-path="url(#p7880f90f11)" style="fill: #0d0887"/>
    <path d="M 192.931266 210.664803 
L 198.289888 204.736104 
L 192.759346 201.860245 
L 187.40703 207.763795 
z
" clip-path="url(#p7880f90f11)" style="fill: #6a00a8"/>
    <path d="M 165.755588 220.534345 
L 171.166674 215.643834 
L 165.724556 212.732536 
L 160.317754 217.599934 
z
" clip-path="url(#p7880f90f11)" style="fill: #44039e"/>
    <path d="M 176.644454 218.574209 
L 182.036228 213.335147 
L 176.553536 210.428612 
L 171.166674 215.643834 
z
" clip-path="url(#p7880f90f11)" style="fill: #5002a2"/>
    <path d="M 138.548239 229.394122 
L 144.02785 224.038588 
L 138.668656 221.096989 
L 133.194733 226.428331 
z
" clip-path="url(#p7880f90f11)" style="fill: #240691"/>
    <path d="M 203.856673 207.63081 
L 209.207336 201.326349 
L 203.633497 198.457596 
L 198.289888 204.736104 
z
" clip-path="url(#p7880f90f11)" style="fill: #7b02a8"/>
    <path d="M 149.422199 226.999482 
L 154.883763 222.246418 
L 149.485212 219.308492 
L 144.02785 224.038588 
z
" clip-path="url(#p7880f90f11)" style="fill: #2f0596"/>
    <path d="M 187.554883 216.260746 
L 192.931266 210.664803 
L 187.40703 207.763795 
L 182.036228 213.335147 
z
" clip-path="url(#p7880f90f11)" style="fill: #5c01a6"/>
    <path d="M 160.317754 225.203631 
L 165.755588 220.534345 
L 160.317754 217.599934 
L 154.883763 222.246418 
z
" clip-path="url(#p7880f90f11)" style="fill: #3a049a"/>
    <path d="M 133.052099 235.531454 
L 138.548239 229.394122 
L 133.194733 226.428331 
L 127.706036 232.53974 
z
" clip-path="url(#p7880f90f11)" style="fill: #0d0887"/>
    <path d="M 198.491778 213.584861 
L 203.856673 207.63081 
L 198.289888 204.736104 
L 192.931266 210.664803 
z
" clip-path="url(#p7880f90f11)" style="fill: #6a00a8"/>
    <path d="M 171.229144 223.488032 
L 176.644454 218.574209 
L 171.166674 215.643834 
L 165.755588 220.534345 
z
" clip-path="url(#p7880f90f11)" style="fill: #44039e"/>
    <path d="M 182.158248 221.52385 
L 187.554883 216.260746 
L 182.036228 213.335147 
L 176.644454 218.574209 
z
" clip-path="url(#p7880f90f11)" style="fill: #5002a2"/>
    <path d="M 143.936944 232.379411 
L 149.422199 226.999482 
L 144.02785 224.038588 
L 138.548239 229.394122 
z
" clip-path="url(#p7880f90f11)" style="fill: #240691"/>
    <path d="M 154.85205 229.979864 
L 160.317754 225.203631 
L 154.883763 222.246418 
L 149.422199 226.999482 
z
" clip-path="url(#p7880f90f11)" style="fill: #2f0596"/>
    <path d="M 193.109856 219.205599 
L 198.491778 213.584861 
L 192.931266 210.664803 
L 187.554883 216.260746 
z
" clip-path="url(#p7880f90f11)" style="fill: #5c01a6"/>
    <path d="M 165.787535 228.180321 
L 171.229144 223.488032 
L 165.755588 220.534345 
L 160.317754 225.203631 
z
" clip-path="url(#p7880f90f11)" style="fill: #3a049a"/>
    <path d="M 138.433382 238.542877 
L 143.936944 232.379411 
L 138.548239 229.394122 
L 133.052099 235.531454 
z
" clip-path="url(#p7880f90f11)" style="fill: #0d0887"/>
    <path d="M 176.738776 226.461187 
L 182.158248 221.52385 
L 176.644454 218.574209 
L 171.229144 223.488032 
z
" clip-path="url(#p7880f90f11)" style="fill: #44039e"/>
    <path d="M 187.708413 224.492948 
L 193.109856 219.205599 
L 187.554883 216.260746 
L 182.158248 221.52385 
z
" clip-path="url(#p7880f90f11)" style="fill: #5002a2"/>
    <path d="M 149.361196 235.384394 
L 154.85205 229.979864 
L 149.422199 226.999482 
L 143.936944 232.379411 
z
" clip-path="url(#p7880f90f11)" style="fill: #240691"/>
    <path d="M 160.317754 232.979924 
L 165.787535 228.180321 
L 160.317754 225.203631 
L 154.85205 229.979864 
z
" clip-path="url(#p7880f90f11)" style="fill: #2f0596"/>
    <path d="M 171.293459 231.17668 
L 176.738776 226.461187 
L 171.229144 223.488032 
L 165.787535 228.180321 
z
" clip-path="url(#p7880f90f11)" style="fill: #3a049a"/>
    <path d="M 143.850232 241.574204 
L 149.361196 235.384394 
L 143.936944 232.379411 
L 138.433382 238.542877 
z
" clip-path="url(#p7880f90f11)" style="fill: #0d0887"/>
    <path d="M 182.284842 229.454002 
L 187.708413 224.492948 
L 182.158248 221.52385 
L 176.738776 226.461187 
z
" clip-path="url(#p7880f90f11)" style="fill: #44039e"/>
    <path d="M 154.821346 238.409264 
L 160.317754 232.979924 
L 154.85205 229.979864 
L 149.361196 235.384394 
z
" clip-path="url(#p7880f90f11)" style="fill: #240691"/>
    <path d="M 165.819669 235.99986 
L 171.293459 231.17668 
L 165.787535 228.180321 
L 160.317754 232.979924 
z
" clip-path="url(#p7880f90f11)" style="fill: #2f0596"/>
    <path d="M 176.835888 234.192906 
L 182.284842 229.454002 
L 176.738776 226.461187 
L 171.293459 231.17668 
z
" clip-path="url(#p7880f90f11)" style="fill: #3a049a"/>
    <path d="M 149.303005 244.625634 
L 154.821346 238.409264 
L 149.361196 235.384394 
L 143.850232 241.574204 
z
" clip-path="url(#p7880f90f11)" style="fill: #0d0887"/>
    <path d="M 160.317754 241.45422 
L 165.819669 235.99986 
L 160.317754 232.979924 
L 154.821346 238.409264 
z
" clip-path="url(#p7880f90f11)" style="fill: #240691"/>
    <path d="M 171.358154 239.03987 
L 176.835888 234.192906 
L 171.293459 231.17668 
L 165.819669 235.99986 
z
" clip-path="url(#p7880f90f11)" style="fill: #2f0596"/>
    <path d="M 154.792058 247.697367 
L 160.317754 241.45422 
L 154.821346 238.409264 
L 149.303005 244.625634 
z
" clip-path="url(#p7880f90f11)" style="fill: #0d0887"/>
    <path d="M 165.850781 244.519463 
L 171.358154 239.03987 
L 165.819669 235.99986 
L 160.317754 241.45422 
z
" clip-path="url(#p7880f90f11)" style="fill: #240691"/>
    <path d="M 160.317754 250.789605 
L 165.850781 244.519463 
L 160.317754 241.45422 
L 154.792058 247.697367 
z
" clip-path="url(#p7880f90f11)" style="fill: #0d0887"/>
   </g>
   <g id="text_19">
    <!-- t = 0.2c -->
    <g transform="translate(132.686959 16.318125) scale(0.12 -0.12)">
     <defs>
      <path id="DejaVuSans-74" d="M 1172 4494 
L 1172 3500 
L 2356 3500 
L 2356 3053 
L 1172 3053 
L 1172 1153 
Q 1172 725 1289 603 
Q 1406 481 1766 481 
L 2356 481 
L 2356 0 
L 1766 0 
Q 1100 0 847 248 
Q 594 497 594 1153 
L 594 3053 
L 172 3053 
L 172 3500 
L 594 3500 
L 594 4494 
L 1172 4494 
z
" transform="scale(0.015625)"/>
      <path id="DejaVuSans-20" transform="scale(0.015625)"/>
      <path id="DejaVuSans-3d" d="M 678 2906 
L 4684 2906 
L 4684 2381 
L 678 2381 
L 678 2906 
z
M 678 1631 
L 4684 1631 
L 4684 1100 
L 678 1100 
L 678 1631 
z
" transform="scale(0.015625)"/>
      <path id="DejaVuSans-63" d="M 3122 3366 
L 3122 2828 
Q 2878 2963 2633 3030 
Q 2388 3097 2138 3097 
Q 1578 3097 1268 2742 
Q 959 2388 959 1747 
Q 959 1106 1268 751 
Q 1578 397 2138 397 
Q 2388 397 2633 464 
Q 2878 531 3122 666 
L 3122 134 
Q 2881 22 2623 -34 
Q 2366 -91 2075 -91 
Q 1284 -91 818 406 
Q 353 903 353 1747 
Q 353 2603 823 3093 
Q 1294 3584 2113 3584 
Q 2378 3584 2631 3529 
Q 2884 3475 3122 3366 
z
" transform="scale(0.015625)"/>
     </defs>
     <use xlink:href="#DejaVuSans-74"/>
     <use xlink:href="#DejaVuSans-20" x="39.208984"/>
     <use xlink:href="#DejaVuSans-3d" x="70.996094"/>
     <use xlink:href="#DejaVuSans-20" x="154.785156"/>
     <use xlink:href="#DejaVuSans-30" x="186.572266"/>
     <use xlink:href="#DejaVuSans-2e" x="250.195312"/>
     <use xlink:href="#DejaVuSans-32" x="281.982422"/>
     <use xlink:href="#DejaVuSans-63" x="345.605469"/>
    </g>
   </g>
  </g>
 </g>
 <defs>
  <clipPath id="p7880f90f11">
   <rect x="23.665646" y="22.318125" width="266.112" height="266.112"/>
  </clipPath>
 </defs>
</svg>
