<?xml version="1.0" encoding="utf-8" standalone="no"?>
<!DOCTYPE svg PUBLIC "-//W3C//DTD SVG 1.1//EN"
  "http://www.w3.org/Graphics/SVG/1.1/DTD/svg11.dtd">
<svg xmlns:xlink="http://www.w3.org/1999/xlink" width="297.033449pt" height="301.632874pt" viewBox="0 0 297.033449 301.632874" xmlns="http://www.w3.org/2000/svg" version="1.1">
 <metadata>
  <rdf:RDF xmlns:dc="http://purl.org/dc/elements/1.1/" xmlns:cc="http://creativecommons.org/ns#" xmlns:rdf="http://www.w3.org/1999/02/22-rdf-syntax-ns#">
   <cc:Work>
    <dc:type rdf:resource="http://purl.org/dc/dcmitype/StillImage"/>
    <dc:date>2023-06-13T03:36:05.026077</dc:date>
    <dc:format>image/svg+xml</dc:format>
    <dc:creator>
     <cc:Agent>
      <dc:title>Matplotlib v3.6.1, https://matplotlib.org/</dc:title>
     </cc:Agent>
    </dc:creator>
   </cc:Work>
  </rdf:RDF>
 </metadata>
 <defs>
  <style type="text/css">*{stroke-linejoin: round; stroke-linecap: butt}</style>
 </defs>
 <g id="figure_1">
  <g id="patch_1">
   <path d="M 0 301.632874 
L 297.033449 301.632874 
L 297.033449 0 
L 0 0 
z
" style="fill: #ffffff"/>
  </g>
  <g id="patch_2">
   <path d="M 23.665646 288.430125 
L 289.777646 288.430125 
L 289.777646 22.318125 
L 23.665646 22.318125 
z
" style="fill: #ffffff"/>
  </g>
  <g id="pane3d_1">
   <g id="patch_3">
    <path d="M 278.761186 206.176637 
L 160.317754 147.275961 
L 160.317754 41.213854 
L 284.169562 94.895442 
" style="fill: #f2f2f2; opacity: 0.5; stroke: #f2f2f2; stroke-linejoin: miter"/>
   </g>
  </g>
  <g id="pane3d_2">
   <g id="patch_4">
    <path d="M 41.874322 206.176637 
L 160.317754 147.275961 
L 160.317754 41.213854 
L 36.465946 94.895442 
" style="fill: #e6e6e6; opacity: 0.5; stroke: #e6e6e6; stroke-linejoin: miter"/>
   </g>
  </g>
  <g id="pane3d_3">
   <g id="patch_5">
    <path d="M 160.317754 274.122723 
L 278.761186 206.176637 
L 160.317754 147.275961 
L 41.874322 206.176637 
" style="fill: #ececec; opacity: 0.5; stroke: #ececec; stroke-linejoin: miter"/>
   </g>
  </g>
  <g id="axis3d_1">
   <g id="line2d_1">
    <path d="M 278.761186 206.176637 
L 160.317754 274.122723 
" style="fill: none; stroke: #000000; stroke-width: 0.8; stroke-linecap: square"/>
   </g>
   <g id="text_1">
    <!-- X -->
    <g transform="translate(240.892539 273.696013) scale(0.1 -0.1)">
     <defs>
      <path id="DejaVuSans-58" d="M 403 4666 
L 1081 4666 
L 2241 2931 
L 3406 4666 
L 4084 4666 
L 2584 2425 
L 4184 0 
L 3506 0 
L 2194 1984 
L 872 0 
L 191 0 
L 1856 2491 
L 403 4666 
z
" transform="scale(0.015625)"/>
     </defs>
     <use xlink:href="#DejaVuSans-58"/>
    </g>
   </g>
   <g id="Line3DCollection_1">
    <path d="M 168.394353 269.489513 
L 49.912638 202.179267 
L 44.895117 91.241952 
" style="fill: none; stroke: #b0b0b0; stroke-width: 0.8"/>
    <path d="M 195.499018 253.94069 
L 76.929634 188.743998 
L 73.200325 78.973512 
" style="fill: none; stroke: #b0b0b0; stroke-width: 0.8"/>
    <path d="M 221.729083 238.893589 
L 103.134886 175.712401 
L 100.617646 67.089912 
" style="fill: none; stroke: #b0b0b0; stroke-width: 0.8"/>
    <path d="M 247.12621 224.324311 
L 128.564436 163.066553 
L 127.188212 55.573325 
" style="fill: none; stroke: #b0b0b0; stroke-width: 0.8"/>
    <path d="M 271.729451 210.210451 
L 153.252223 150.789575 
L 152.950652 44.407006 
" style="fill: none; stroke: #b0b0b0; stroke-width: 0.8"/>
   </g>
   <g id="xtick_1">
    <g id="line2d_2">
     <path d="M 167.374695 268.910238 
L 170.437413 270.650189 
" style="fill: none; stroke: #000000; stroke-width: 0.8; stroke-linecap: square"/>
    </g>
    <g id="text_2">
     <!-- 0.0 -->
     <g transform="translate(171.019345 292.353187) scale(0.1 -0.1)">
      <defs>
       <path id="DejaVuSans-30" d="M 2034 4250 
Q 1547 4250 1301 3770 
Q 1056 3291 1056 2328 
Q 1056 1369 1301 889 
Q 1547 409 2034 409 
Q 2525 409 2770 889 
Q 3016 1369 3016 2328 
Q 3016 3291 2770 3770 
Q 2525 4250 2034 4250 
z
M 2034 4750 
Q 2819 4750 3233 4129 
Q 3647 3509 3647 2328 
Q 3647 1150 3233 529 
Q 2819 -91 2034 -91 
Q 1250 -91 836 529 
Q 422 1150 422 2328 
Q 422 3509 836 4129 
Q 1250 4750 2034 4750 
z
" transform="scale(0.015625)"/>
       <path id="DejaVuSans-2e" d="M 684 794 
L 1344 794 
L 1344 0 
L 684 0 
L 684 794 
z
" transform="scale(0.015625)"/>
      </defs>
      <use xlink:href="#DejaVuSans-30"/>
      <use xlink:href="#DejaVuSans-2e" x="63.623047"/>
      <use xlink:href="#DejaVuSans-30" x="95.410156"/>
     </g>
    </g>
   </g>
   <g id="xtick_2">
    <g id="line2d_3">
     <path d="M 194.479783 253.380253 
L 197.541168 255.06359 
" style="fill: none; stroke: #000000; stroke-width: 0.8; stroke-linecap: square"/>
    </g>
    <g id="text_3">
     <!-- 0.5 -->
     <g transform="translate(198.015831 276.515757) scale(0.1 -0.1)">
      <defs>
       <path id="DejaVuSans-35" d="M 691 4666 
L 3169 4666 
L 3169 4134 
L 1269 4134 
L 1269 2991 
Q 1406 3038 1543 3061 
Q 1681 3084 1819 3084 
Q 2600 3084 3056 2656 
Q 3513 2228 3513 1497 
Q 3513 744 3044 326 
Q 2575 -91 1722 -91 
Q 1428 -91 1123 -41 
Q 819 9 494 109 
L 494 744 
Q 775 591 1075 516 
Q 1375 441 1709 441 
Q 2250 441 2565 725 
Q 2881 1009 2881 1497 
Q 2881 1984 2565 2268 
Q 2250 2553 1709 2553 
Q 1456 2553 1204 2497 
Q 953 2441 691 2322 
L 691 4666 
z
" transform="scale(0.015625)"/>
      </defs>
      <use xlink:href="#DejaVuSans-30"/>
      <use xlink:href="#DejaVuSans-2e" x="63.623047"/>
      <use xlink:href="#DejaVuSans-35" x="95.410156"/>
     </g>
    </g>
   </g>
   <g id="xtick_3">
    <g id="line2d_4">
     <path d="M 220.710775 238.351085 
L 223.769318 239.980527 
" style="fill: none; stroke: #000000; stroke-width: 0.8; stroke-linecap: square"/>
    </g>
    <g id="text_4">
     <!-- 1.0 -->
     <g transform="translate(224.139131 261.190579) scale(0.1 -0.1)">
      <defs>
       <path id="DejaVuSans-31" d="M 794 531 
L 1825 531 
L 1825 4091 
L 703 3866 
L 703 4441 
L 1819 4666 
L 2450 4666 
L 2450 531 
L 3481 531 
L 3481 0 
L 794 0 
L 794 531 
z
" transform="scale(0.015625)"/>
      </defs>
      <use xlink:href="#DejaVuSans-31"/>
      <use xlink:href="#DejaVuSans-2e" x="63.623047"/>
      <use xlink:href="#DejaVuSans-30" x="95.410156"/>
     </g>
    </g>
   </g>
   <g id="xtick_4">
    <g id="line2d_5">
     <path d="M 246.109283 223.798892 
L 249.163618 225.376987 
" style="fill: none; stroke: #000000; stroke-width: 0.8; stroke-linecap: square"/>
    </g>
    <g id="text_5">
     <!-- 1.5 -->
     <g transform="translate(249.430937 246.353196) scale(0.1 -0.1)">
      <use xlink:href="#DejaVuSans-31"/>
      <use xlink:href="#DejaVuSans-2e" x="63.623047"/>
      <use xlink:href="#DejaVuSans-35" x="95.410156"/>
     </g>
    </g>
   </g>
   <g id="xtick_5">
    <g id="line2d_6">
     <path d="M 270.714319 209.701323 
L 273.763212 211.23046 
" style="fill: none; stroke: #000000; stroke-width: 0.8; stroke-linecap: square"/>
    </g>
    <g id="text_6">
     <!-- 2.0 -->
     <g transform="translate(273.930324 231.980683) scale(0.1 -0.1)">
      <defs>
       <path id="DejaVuSans-32" d="M 1228 531 
L 3431 531 
L 3431 0 
L 469 0 
L 469 531 
Q 828 903 1448 1529 
Q 2069 2156 2228 2338 
Q 2531 2678 2651 2914 
Q 2772 3150 2772 3378 
Q 2772 3750 2511 3984 
Q 2250 4219 1831 4219 
Q 1534 4219 1204 4116 
Q 875 4013 500 3803 
L 500 4441 
Q 881 4594 1212 4672 
Q 1544 4750 1819 4750 
Q 2544 4750 2975 4387 
Q 3406 4025 3406 3419 
Q 3406 3131 3298 2873 
Q 3191 2616 2906 2266 
Q 2828 2175 2409 1742 
Q 1991 1309 1228 531 
z
" transform="scale(0.015625)"/>
      </defs>
      <use xlink:href="#DejaVuSans-32"/>
      <use xlink:href="#DejaVuSans-2e" x="63.623047"/>
      <use xlink:href="#DejaVuSans-30" x="95.410156"/>
     </g>
    </g>
   </g>
  </g>
  <g id="axis3d_2">
   <g id="line2d_7">
    <path d="M 41.874322 206.176637 
L 160.317754 274.122723 
" style="fill: none; stroke: #000000; stroke-width: 0.8; stroke-linecap: square"/>
   </g>
   <g id="text_7">
    <!-- Y -->
    <g transform="translate(73.264063 273.696013) scale(0.1 -0.1)">
     <defs>
      <path id="DejaVuSans-59" d="M -13 4666 
L 666 4666 
L 1959 2747 
L 3244 4666 
L 3922 4666 
L 2272 2222 
L 2272 0 
L 1638 0 
L 1638 2222 
L -13 4666 
z
" transform="scale(0.015625)"/>
     </defs>
     <use xlink:href="#DejaVuSans-59"/>
    </g>
   </g>
   <g id="Line3DCollection_2">
    <path d="M 275.740391 91.241952 
L 270.72287 202.179267 
L 152.241155 269.489513 
" style="fill: none; stroke: #b0b0b0; stroke-width: 0.8"/>
    <path d="M 247.435183 78.973512 
L 243.705874 188.743998 
L 125.136491 253.94069 
" style="fill: none; stroke: #b0b0b0; stroke-width: 0.8"/>
    <path d="M 220.017862 67.089912 
L 217.500622 175.712401 
L 98.906425 238.893589 
" style="fill: none; stroke: #b0b0b0; stroke-width: 0.8"/>
    <path d="M 193.447297 55.573325 
L 192.071073 163.066553 
L 73.509299 224.324311 
" style="fill: none; stroke: #b0b0b0; stroke-width: 0.8"/>
    <path d="M 167.684856 44.407006 
L 167.383285 150.789575 
L 48.906057 210.210451 
" style="fill: none; stroke: #b0b0b0; stroke-width: 0.8"/>
   </g>
   <g id="xtick_6">
    <g id="line2d_8">
     <path d="M 153.260813 268.910238 
L 150.198095 270.650189 
" style="fill: none; stroke: #000000; stroke-width: 0.8; stroke-linecap: square"/>
    </g>
    <g id="text_8">
     <!-- 0.0 -->
     <g transform="translate(133.713038 292.353187) scale(0.1 -0.1)">
      <use xlink:href="#DejaVuSans-30"/>
      <use xlink:href="#DejaVuSans-2e" x="63.623047"/>
      <use xlink:href="#DejaVuSans-30" x="95.410156"/>
     </g>
    </g>
   </g>
   <g id="xtick_7">
    <g id="line2d_9">
     <path d="M 126.155725 253.380253 
L 123.09434 255.06359 
" style="fill: none; stroke: #000000; stroke-width: 0.8; stroke-linecap: square"/>
    </g>
    <g id="text_9">
     <!-- 0.5 -->
     <g transform="translate(106.716553 276.515757) scale(0.1 -0.1)">
      <use xlink:href="#DejaVuSans-30"/>
      <use xlink:href="#DejaVuSans-2e" x="63.623047"/>
      <use xlink:href="#DejaVuSans-35" x="95.410156"/>
     </g>
    </g>
   </g>
   <g id="xtick_8">
    <g id="line2d_10">
     <path d="M 99.924733 238.351085 
L 96.86619 239.980527 
" style="fill: none; stroke: #000000; stroke-width: 0.8; stroke-linecap: square"/>
    </g>
    <g id="text_10">
     <!-- 1.0 -->
     <g transform="translate(80.593252 261.190579) scale(0.1 -0.1)">
      <use xlink:href="#DejaVuSans-31"/>
      <use xlink:href="#DejaVuSans-2e" x="63.623047"/>
      <use xlink:href="#DejaVuSans-30" x="95.410156"/>
     </g>
    </g>
   </g>
   <g id="xtick_9">
    <g id="line2d_11">
     <path d="M 74.526225 223.798892 
L 71.47189 225.376987 
" style="fill: none; stroke: #000000; stroke-width: 0.8; stroke-linecap: square"/>
    </g>
    <g id="text_11">
     <!-- 1.5 -->
     <g transform="translate(55.301447 246.353196) scale(0.1 -0.1)">
      <use xlink:href="#DejaVuSans-31"/>
      <use xlink:href="#DejaVuSans-2e" x="63.623047"/>
      <use xlink:href="#DejaVuSans-35" x="95.410156"/>
     </g>
    </g>
   </g>
   <g id="xtick_10">
    <g id="line2d_12">
     <path d="M 49.92119 209.701323 
L 46.872297 211.23046 
" style="fill: none; stroke: #000000; stroke-width: 0.8; stroke-linecap: square"/>
    </g>
    <g id="text_12">
     <!-- 2.0 -->
     <g transform="translate(30.802059 231.980683) scale(0.1 -0.1)">
      <use xlink:href="#DejaVuSans-32"/>
      <use xlink:href="#DejaVuSans-2e" x="63.623047"/>
      <use xlink:href="#DejaVuSans-30" x="95.410156"/>
     </g>
    </g>
   </g>
  </g>
  <g id="axis3d_3">
   <g id="line2d_13">
    <path d="M 41.874322 206.176637 
L 36.465946 94.895442 
" style="fill: none; stroke: #000000; stroke-width: 0.8; stroke-linecap: square"/>
   </g>
   <g id="text_13">
    <!-- Z -->
    <g transform="translate(-7.876777 154.537392) scale(0.1 -0.1)">
     <defs>
      <path id="DejaVuSans-5a" d="M 359 4666 
L 4025 4666 
L 4025 4184 
L 1075 531 
L 4097 531 
L 4097 0 
L 288 0 
L 288 481 
L 3238 4134 
L 359 4134 
L 359 4666 
z
" transform="scale(0.015625)"/>
     </defs>
     <use xlink:href="#DejaVuSans-5a"/>
    </g>
   </g>
   <g id="Line3DCollection_3">
    <path d="M 41.770787 204.046341 
L 160.317754 145.239524 
L 278.864721 204.046341 
" style="fill: none; stroke: #b0b0b0; stroke-width: 0.8"/>
    <path d="M 40.655051 181.089273 
L 160.317754 123.308943 
L 279.980457 181.089273 
" style="fill: none; stroke: #b0b0b0; stroke-width: 0.8"/>
    <path d="M 39.518114 157.695967 
L 160.317754 100.989882 
L 281.117395 157.695967 
" style="fill: none; stroke: #b0b0b0; stroke-width: 0.8"/>
    <path d="M 38.359364 133.853867 
L 160.317754 78.271927 
L 282.276144 133.853867 
" style="fill: none; stroke: #b0b0b0; stroke-width: 0.8"/>
    <path d="M 37.178169 109.549936 
L 160.317754 55.144287 
L 283.457339 109.549936 
" style="fill: none; stroke: #b0b0b0; stroke-width: 0.8"/>
   </g>
   <g id="xtick_11">
    <g id="line2d_14">
     <path d="M 42.786271 203.542597 
L 39.736338 205.055557 
" style="fill: none; stroke: #000000; stroke-width: 0.8; stroke-linecap: square"/>
    </g>
    <g id="text_14">
     <!-- 20 -->
     <g transform="translate(15.735991 211.644779) scale(0.1 -0.1)">
      <use xlink:href="#DejaVuSans-32"/>
      <use xlink:href="#DejaVuSans-30" x="63.623047"/>
     </g>
    </g>
   </g>
   <g id="xtick_12">
    <g id="line2d_15">
     <path d="M 41.680729 180.594014 
L 38.600144 182.081506 
" style="fill: none; stroke: #000000; stroke-width: 0.8; stroke-linecap: square"/>
    </g>
    <g id="text_15">
     <!-- 40 -->
     <g transform="translate(14.435104 188.687711) scale(0.1 -0.1)">
      <defs>
       <path id="DejaVuSans-34" d="M 2419 4116 
L 825 1625 
L 2419 1625 
L 2419 4116 
z
M 2253 4666 
L 3047 4666 
L 3047 1625 
L 3713 1625 
L 3713 1100 
L 3047 1100 
L 3047 0 
L 2419 0 
L 2419 1100 
L 313 1100 
L 313 1709 
L 2253 4666 
z
" transform="scale(0.015625)"/>
      </defs>
      <use xlink:href="#DejaVuSans-34"/>
      <use xlink:href="#DejaVuSans-30" x="63.623047"/>
     </g>
    </g>
   </g>
   <g id="xtick_13">
    <g id="line2d_16">
     <path d="M 40.554192 157.209608 
L 37.442335 158.670384 
" style="fill: none; stroke: #000000; stroke-width: 0.8; stroke-linecap: square"/>
    </g>
    <g id="text_16">
     <!-- 60 -->
     <g transform="translate(13.109497 165.294404) scale(0.1 -0.1)">
      <defs>
       <path id="DejaVuSans-36" d="M 2113 2584 
Q 1688 2584 1439 2293 
Q 1191 2003 1191 1497 
Q 1191 994 1439 701 
Q 1688 409 2113 409 
Q 2538 409 2786 701 
Q 3034 994 3034 1497 
Q 3034 2003 2786 2293 
Q 2538 2584 2113 2584 
z
M 3366 4563 
L 3366 3988 
Q 3128 4100 2886 4159 
Q 2644 4219 2406 4219 
Q 1781 4219 1451 3797 
Q 1122 3375 1075 2522 
Q 1259 2794 1537 2939 
Q 1816 3084 2150 3084 
Q 2853 3084 3261 2657 
Q 3669 2231 3669 1497 
Q 3669 778 3244 343 
Q 2819 -91 2113 -91 
Q 1303 -91 875 529 
Q 447 1150 447 2328 
Q 447 3434 972 4092 
Q 1497 4750 2381 4750 
Q 2619 4750 2861 4703 
Q 3103 4656 3366 4563 
z
" transform="scale(0.015625)"/>
      </defs>
      <use xlink:href="#DejaVuSans-36"/>
      <use xlink:href="#DejaVuSans-30" x="63.623047"/>
     </g>
    </g>
   </g>
   <g id="xtick_14">
    <g id="line2d_17">
     <path d="M 39.406056 133.376843 
L 36.262287 134.8096 
" style="fill: none; stroke: #000000; stroke-width: 0.8; stroke-linecap: square"/>
    </g>
    <g id="text_17">
     <!-- 80 -->
     <g transform="translate(11.758459 141.452305) scale(0.1 -0.1)">
      <defs>
       <path id="DejaVuSans-38" d="M 2034 2216 
Q 1584 2216 1326 1975 
Q 1069 1734 1069 1313 
Q 1069 891 1326 650 
Q 1584 409 2034 409 
Q 2484 409 2743 651 
Q 3003 894 3003 1313 
Q 3003 1734 2745 1975 
Q 2488 2216 2034 2216 
z
M 1403 2484 
Q 997 2584 770 2862 
Q 544 3141 544 3541 
Q 544 4100 942 4425 
Q 1341 4750 2034 4750 
Q 2731 4750 3128 4425 
Q 3525 4100 3525 3541 
Q 3525 3141 3298 2862 
Q 3072 2584 2669 2484 
Q 3125 2378 3379 2068 
Q 3634 1759 3634 1313 
Q 3634 634 3220 271 
Q 2806 -91 2034 -91 
Q 1263 -91 848 271 
Q 434 634 434 1313 
Q 434 1759 690 2068 
Q 947 2378 1403 2484 
z
M 1172 3481 
Q 1172 3119 1398 2916 
Q 1625 2713 2034 2713 
Q 2441 2713 2670 2916 
Q 2900 3119 2900 3481 
Q 2900 3844 2670 4047 
Q 2441 4250 2034 4250 
Q 1625 4250 1398 4047 
Q 1172 3844 1172 3481 
z
" transform="scale(0.015625)"/>
      </defs>
      <use xlink:href="#DejaVuSans-38"/>
      <use xlink:href="#DejaVuSans-30" x="63.623047"/>
     </g>
    </g>
   </g>
   <g id="xtick_15">
    <g id="line2d_18">
     <path d="M 38.235692 109.0827 
L 35.059355 110.486072 
" style="fill: none; stroke: #000000; stroke-width: 0.8; stroke-linecap: square"/>
    </g>
    <g id="text_18">
     <!-- 100 -->
     <g transform="translate(7.2 117.148373) scale(0.1 -0.1)">
      <use xlink:href="#DejaVuSans-31"/>
      <use xlink:href="#DejaVuSans-30" x="63.623047"/>
      <use xlink:href="#DejaVuSans-30" x="127.246094"/>
     </g>
    </g>
   </g>
  </g>
  <g id="axes_1">
   <g id="Poly3DCollection_1">
    <path d="M 160.317754 68.33684 
L 165.379962 63.904263 
L 160.317754 61.647853 
L 155.259781 66.061948 
z
" clip-path="url(#pc555d653f2)" style="fill: #f0f921"/>
    <path d="M 155.236939 74.746532 
L 160.317754 68.33684 
L 155.259781 66.061948 
L 150.187112 72.448787 
z
" clip-path="url(#pc555d653f2)" style="fill: #f6e826"/>
    <path d="M 165.406721 70.625672 
L 170.473121 66.17447 
L 165.379962 63.904263 
L 160.317754 68.33684 
z
" clip-path="url(#pc555d653f2)" style="fill: #f0f921"/>
    <path d="M 150.145707 82.285675 
L 155.236939 74.746532 
L 150.187112 72.448787 
L 145.106262 79.962568 
z
" clip-path="url(#pc555d653f2)" style="fill: #fcce25"/>
    <path d="M 145.045926 90.157956 
L 150.145707 82.285675 
L 145.106262 79.962568 
L 140.017534 87.808707 
z
" clip-path="url(#pc555d653f2)" style="fill: #fdb22f"/>
    <path d="M 160.317754 77.058376 
L 165.406721 70.625672 
L 160.317754 68.33684 
L 155.236939 74.746532 
z
" clip-path="url(#pc555d653f2)" style="fill: #f6e826"/>
    <path d="M 139.936314 97.966074 
L 145.045926 90.157956 
L 140.017534 87.808707 
L 134.91887 95.59076 
z
" clip-path="url(#pc555d653f2)" style="fill: #f9983e"/>
    <path d="M 134.814977 105.5719 
L 139.936314 97.966074 
L 134.91887 95.59076 
L 129.808111 103.170886 
z
" clip-path="url(#pc555d653f2)" style="fill: #f1814d"/>
    <path d="M 170.526968 72.928573 
L 175.597516 68.458599 
L 170.473121 66.17447 
L 165.406721 70.625672 
z
" clip-path="url(#pc555d653f2)" style="fill: #f0f921"/>
    <path d="M 155.216109 84.623053 
L 160.317754 77.058376 
L 155.236939 74.746532 
L 150.145707 82.285675 
z
" clip-path="url(#pc555d653f2)" style="fill: #fcce25"/>
    <path d="M 129.680162 112.94356 
L 134.814977 105.5719 
L 129.808111 103.170886 
L 124.683445 110.517274 
z
" clip-path="url(#pc555d653f2)" style="fill: #e66c5c"/>
    <path d="M 150.105236 92.52165 
L 155.216109 84.623053 
L 150.145707 82.285675 
L 145.045926 90.157956 
z
" clip-path="url(#pc555d653f2)" style="fill: #fdb22f"/>
    <path d="M 165.429845 79.384452 
L 170.526968 72.928573 
L 165.406721 70.625672 
L 160.317754 77.058376 
z
" clip-path="url(#pc555d653f2)" style="fill: #f6e826"/>
    <path d="M 144.984637 100.356007 
L 150.105236 92.52165 
L 145.045926 90.157956 
L 139.936314 97.966074 
z
" clip-path="url(#pc555d653f2)" style="fill: #f9983e"/>
    <path d="M 124.530235 120.077785 
L 129.680162 112.94356 
L 124.683445 110.517274 
L 119.543237 117.626652 
z
" clip-path="url(#pc555d653f2)" style="fill: #da5a6a"/>
    <path d="M 139.852688 107.987705 
L 144.984637 100.356007 
L 139.936314 97.966074 
L 134.814977 105.5719 
z
" clip-path="url(#pc555d653f2)" style="fill: #f1814d"/>
    <path d="M 175.678783 75.245672 
L 180.753434 70.75678 
L 175.597516 68.458599 
L 170.526968 72.928573 
z
" clip-path="url(#pc555d653f2)" style="fill: #f0f921"/>
    <path d="M 160.317754 86.974834 
L 165.429845 79.384452 
L 160.317754 77.058376 
L 155.216109 84.623053 
z
" clip-path="url(#pc555d653f2)" style="fill: #fcce25"/>
    <path d="M 119.363563 126.974603 
L 124.530235 120.077785 
L 119.543237 117.626652 
L 114.385855 124.499043 
z
" clip-path="url(#pc555d653f2)" style="fill: #cc4977"/>
    <path d="M 134.707695 115.38481 
L 139.852688 107.987705 
L 134.814977 105.5719 
L 129.680162 112.94356 
z
" clip-path="url(#pc555d653f2)" style="fill: #e66c5c"/>
    <path d="M 155.195749 94.899921 
L 160.317754 86.974834 
L 155.216109 84.623053 
L 150.105236 92.52165 
z
" clip-path="url(#pc555d653f2)" style="fill: #fdb22f"/>
    <path d="M 114.178486 133.633996 
L 119.363563 126.974603 
L 114.385855 124.499043 
L 109.209646 131.13442 
z
" clip-path="url(#pc555d653f2)" style="fill: #bf3984"/>
    <path d="M 170.5735 81.724889 
L 175.678783 75.245672 
L 170.526968 72.928573 
L 165.429845 79.384452 
z
" clip-path="url(#pc555d653f2)" style="fill: #f6e826"/>
    <path d="M 150.064124 102.760693 
L 155.195749 94.899921 
L 150.105236 92.52165 
L 144.984637 100.356007 
z
" clip-path="url(#pc555d653f2)" style="fill: #f9983e"/>
    <path d="M 129.548028 122.544053 
L 134.707695 115.38481 
L 129.680162 112.94356 
L 124.530235 120.077785 
z
" clip-path="url(#pc555d653f2)" style="fill: #da5a6a"/>
    <path d="M 144.92153 110.418439 
L 150.064124 102.760693 
L 144.984637 100.356007 
L 139.852688 107.987705 
z
" clip-path="url(#pc555d653f2)" style="fill: #f1814d"/>
    <path d="M 180.86246 77.577102 
L 185.941168 73.069143 
L 180.753434 70.75678 
L 175.678783 75.245672 
z
" clip-path="url(#pc555d653f2)" style="fill: #f0f921"/>
    <path d="M 108.973354 140.05784 
L 114.178486 133.633996 
L 109.209646 131.13442 
L 104.012965 137.534649 
z
" clip-path="url(#pc555d653f2)" style="fill: #b02991"/>
    <path d="M 165.450932 89.341151 
L 170.5735 81.724889 
L 165.429845 79.384452 
L 160.317754 86.974834 
z
" clip-path="url(#pc555d653f2)" style="fill: #fcce25"/>
    <path d="M 124.372049 129.465471 
L 129.548028 122.544053 
L 124.530235 120.077785 
L 119.363563 126.974603 
z
" clip-path="url(#pc555d653f2)" style="fill: #cc4977"/>
    <path d="M 139.766331 117.841163 
L 144.92153 110.418439 
L 139.852688 107.987705 
L 134.707695 115.38481 
z
" clip-path="url(#pc555d653f2)" style="fill: #e66c5c"/>
    <path d="M 160.317754 97.292906 
L 165.450932 89.341151 
L 160.317754 86.974834 
L 155.195749 94.899921 
z
" clip-path="url(#pc555d653f2)" style="fill: #fdb22f"/>
    <path d="M 103.746572 146.250855 
L 108.973354 140.05784 
L 104.012965 137.534649 
L 98.794232 143.704436 
z
" clip-path="url(#pc555d653f2)" style="fill: #a11b9b"/>
    <path d="M 119.178094 136.14905 
L 124.372049 129.465471 
L 119.363563 126.974603 
L 114.178486 133.633996 
z
" clip-path="url(#pc555d653f2)" style="fill: #bf3984"/>
    <path d="M 175.749014 84.079823 
L 180.86246 77.577102 
L 175.678783 75.245672 
L 170.5735 81.724889 
z
" clip-path="url(#pc555d653f2)" style="fill: #f6e826"/>
    <path d="M 155.175066 105.18027 
L 160.317754 97.292906 
L 155.195749 94.899921 
L 150.064124 102.760693 
z
" clip-path="url(#pc555d653f2)" style="fill: #f9983e"/>
    <path d="M 134.596902 125.025598 
L 139.766331 117.841163 
L 134.707695 115.38481 
L 129.548028 122.544053 
z
" clip-path="url(#pc555d653f2)" style="fill: #da5a6a"/>
    <path d="M 150.021792 112.864241 
L 155.175066 105.18027 
L 150.064124 102.760693 
L 144.92153 110.418439 
z
" clip-path="url(#pc555d653f2)" style="fill: #f1814d"/>
    <path d="M 186.078295 79.922994 
L 191.161014 75.395818 
L 185.941168 73.069143 
L 180.86246 77.577102 
z
" clip-path="url(#pc555d653f2)" style="fill: #f0f921"/>
    <path d="M 113.964506 142.596678 
L 119.178094 136.14905 
L 114.178486 133.633996 
L 108.973354 140.05784 
z
" clip-path="url(#pc555d653f2)" style="fill: #b02991"/>
    <path d="M 170.615937 91.722139 
L 175.749014 84.079823 
L 170.5735 81.724889 
L 165.450932 89.341151 
z
" clip-path="url(#pc555d653f2)" style="fill: #fcce25"/>
    <path d="M 98.496591 152.219182 
L 103.746572 146.250855 
L 98.794232 143.704436 
L 93.551913 149.649901 
z
" clip-path="url(#pc555d653f2)" style="fill: #910ea3"/>
    <path d="M 129.411599 131.971788 
L 134.596902 125.025598 
L 129.548028 122.544053 
L 124.372049 129.465471 
z
" clip-path="url(#pc555d653f2)" style="fill: #cc4977"/>
    <path d="M 144.856361 120.31276 
L 150.021792 112.864241 
L 144.92153 110.418439 
L 139.766331 117.841163 
z
" clip-path="url(#pc555d653f2)" style="fill: #e66c5c"/>
    <path d="M 165.471546 99.700741 
L 170.615937 91.722139 
L 165.450932 89.341151 
L 160.317754 97.292906 
z
" clip-path="url(#pc555d653f2)" style="fill: #fdb22f"/>
    <path d="M 108.729676 148.813092 
L 113.964506 142.596678 
L 108.973354 140.05784 
L 103.746572 146.250855 
z
" clip-path="url(#pc555d653f2)" style="fill: #a11b9b"/>
    <path d="M 124.208756 138.679726 
L 129.411599 131.971788 
L 124.372049 129.465471 
L 119.178094 136.14905 
z
" clip-path="url(#pc555d653f2)" style="fill: #bf3984"/>
    <path d="M 180.956683 86.449388 
L 186.078295 79.922994 
L 180.86246 77.577102 
L 175.749014 84.079823 
z
" clip-path="url(#pc555d653f2)" style="fill: #f6e826"/>
    <path d="M 160.317754 107.614877 
L 165.471546 99.700741 
L 160.317754 97.292906 
L 155.175066 105.18027 
z
" clip-path="url(#pc555d653f2)" style="fill: #f9983e"/>
    <path d="M 93.221863 157.968024 
L 98.496591 152.219182 
L 93.551913 149.649901 
L 88.284473 155.376232 
z
" clip-path="url(#pc555d653f2)" style="fill: #8104a7"/>
    <path d="M 139.677146 127.522563 
L 144.856361 120.31276 
L 139.766331 117.841163 
L 134.596902 125.025598 
z
" clip-path="url(#pc555d653f2)" style="fill: #da5a6a"/>
    <path d="M 155.153768 115.32525 
L 160.317754 107.614877 
L 155.175066 105.18027 
L 150.021792 112.864241 
z
" clip-path="url(#pc555d653f2)" style="fill: #f1814d"/>
    <path d="M 191.326589 82.283486 
L 196.413269 77.73694 
L 191.161014 75.395818 
L 186.078295 79.922994 
z
" clip-path="url(#pc555d653f2)" style="fill: #f0f921"/>
    <path d="M 118.986707 145.15131 
L 124.208756 138.679726 
L 119.178094 136.14905 
L 113.964506 142.596678 
z
" clip-path="url(#pc555d653f2)" style="fill: #b02991"/>
    <path d="M 175.813065 94.117936 
L 180.956683 86.449388 
L 175.749014 84.079823 
L 170.615937 91.722139 
z
" clip-path="url(#pc555d653f2)" style="fill: #fcce25"/>
    <path d="M 103.472039 154.804451 
L 108.729676 148.813092 
L 103.746572 146.250855 
L 98.496591 152.219182 
z
" clip-path="url(#pc555d653f2)" style="fill: #910ea3"/>
    <path d="M 134.482504 134.493698 
L 139.677146 127.522563 
L 134.596902 125.025598 
L 129.411599 131.971788 
z
" clip-path="url(#pc555d653f2)" style="fill: #cc4977"/>
    <path d="M 87.920916 163.504636 
L 93.221863 157.968024 
L 88.284473 155.376232 
L 82.990461 160.890664 
z
" clip-path="url(#pc555d653f2)" style="fill: #7201a8"/>
    <path d="M 149.978076 122.799743 
L 155.153768 115.32525 
L 150.021792 112.864241 
L 144.856361 120.31276 
z
" clip-path="url(#pc555d653f2)" style="fill: #e66c5c"/>
    <path d="M 170.65742 102.123565 
L 175.813065 94.117936 
L 170.615937 91.722139 
L 165.471546 99.700741 
z
" clip-path="url(#pc555d653f2)" style="fill: #fdb22f"/>
    <path d="M 113.74383 151.391295 
L 118.986707 145.15131 
L 113.964506 142.596678 
L 108.729676 148.813092 
z
" clip-path="url(#pc555d653f2)" style="fill: #a11b9b"/>
    <path d="M 129.270762 141.22617 
L 134.482504 134.493698 
L 129.411599 131.971788 
L 124.208756 138.679726 
z
" clip-path="url(#pc555d653f2)" style="fill: #bf3984"/>
    <path d="M 186.196807 88.83372 
L 191.326589 82.283486 
L 186.078295 79.922994 
L 180.956683 86.449388 
z
" clip-path="url(#pc555d653f2)" style="fill: #f6e826"/>
    <path d="M 165.492487 110.064654 
L 170.65742 102.123565 
L 165.471546 99.700741 
L 160.317754 107.614877 
z
" clip-path="url(#pc555d653f2)" style="fill: #f9983e"/>
    <path d="M 98.190033 160.575974 
L 103.472039 154.804451 
L 98.496591 152.219182 
L 93.221863 157.968024 
z
" clip-path="url(#pc555d653f2)" style="fill: #8104a7"/>
    <path d="M 144.789055 130.03509 
L 149.978076 122.799743 
L 144.856361 120.31276 
L 139.677146 127.522563 
z
" clip-path="url(#pc555d653f2)" style="fill: #da5a6a"/>
    <path d="M 82.593157 168.863047 
L 87.920916 163.504636 
L 82.990461 160.890664 
L 77.669351 166.227151 
z
" clip-path="url(#pc555d653f2)" style="fill: #6400a7"/>
    <path d="M 160.317754 117.80161 
L 165.492487 110.064654 
L 160.317754 107.614877 
L 155.153768 115.32525 
z
" clip-path="url(#pc555d653f2)" style="fill: #f1814d"/>
    <path d="M 196.607645 84.658713 
L 201.698237 80.092643 
L 196.413269 77.73694 
L 191.326589 82.283486 
z
" clip-path="url(#pc555d653f2)" style="fill: #f0f921"/>
    <path d="M 124.040248 147.721884 
L 129.270762 141.22617 
L 124.208756 138.679726 
L 118.986707 145.15131 
z
" clip-path="url(#pc555d653f2)" style="fill: #b02991"/>
    <path d="M 181.042616 96.528679 
L 186.196807 88.83372 
L 180.956683 86.449388 
L 175.813065 94.117936 
z
" clip-path="url(#pc555d653f2)" style="fill: #fcce25"/>
    <path d="M 108.478544 157.405857 
L 113.74383 151.391295 
L 108.729676 148.813092 
L 103.472039 154.804451 
z
" clip-path="url(#pc555d653f2)" style="fill: #910ea3"/>
    <path d="M 139.585058 137.031349 
L 144.789055 130.03509 
L 139.677146 127.522563 
L 134.482504 134.493698 
z
" clip-path="url(#pc555d653f2)" style="fill: #cc4977"/>
    <path d="M 92.882167 166.134936 
L 98.190033 160.575974 
L 93.221863 157.968024 
L 87.920916 163.504636 
z
" clip-path="url(#pc555d653f2)" style="fill: #7201a8"/>
    <path d="M 155.131773 125.302256 
L 160.317754 117.80161 
L 155.153768 115.32525 
L 149.978076 122.799743 
z
" clip-path="url(#pc555d653f2)" style="fill: #e66c5c"/>
    <path d="M 175.875677 104.561518 
L 181.042616 96.528679 
L 175.813065 94.117936 
L 170.65742 102.123565 
z
" clip-path="url(#pc555d653f2)" style="fill: #fdb22f"/>
    <path d="M 118.789325 153.985613 
L 124.040248 147.721884 
L 118.986707 145.15131 
L 113.74383 151.391295 
z
" clip-path="url(#pc555d653f2)" style="fill: #a11b9b"/>
    <path d="M 134.364407 143.788529 
L 139.585058 137.031349 
L 134.482504 134.493698 
L 129.270762 141.22617 
z
" clip-path="url(#pc555d653f2)" style="fill: #bf3984"/>
    <path d="M 77.241727 174.180094 
L 82.593157 168.863047 
L 77.669351 166.227151 
L 72.324545 171.522247 
z
" clip-path="url(#pc555d653f2)" style="fill: #5601a4"/>
    <path d="M 191.469691 91.232959 
L 196.607645 84.658713 
L 191.326589 82.283486 
L 186.196807 88.83372 
z
" clip-path="url(#pc555d653f2)" style="fill: #f6e826"/>
    <path d="M 170.699564 112.529742 
L 175.875677 104.561518 
L 170.65742 102.123565 
L 165.492487 110.064654 
z
" clip-path="url(#pc555d653f2)" style="fill: #f9983e"/>
    <path d="M 103.189271 163.200233 
L 108.478544 157.405857 
L 103.472039 154.804451 
L 98.190033 160.575974 
z
" clip-path="url(#pc555d653f2)" style="fill: #8104a7"/>
    <path d="M 149.932925 132.563326 
L 155.131773 125.302256 
L 149.978076 122.799743 
L 144.789055 130.03509 
z
" clip-path="url(#pc555d653f2)" style="fill: #da5a6a"/>
    <path d="M 87.54778 171.51544 
L 92.882167 166.134936 
L 87.920916 163.504636 
L 82.593157 168.863047 
z
" clip-path="url(#pc555d653f2)" style="fill: #6400a7"/>
    <path d="M 165.514051 120.293464 
L 170.699564 112.529742 
L 165.492487 110.064654 
L 160.317754 117.80161 
z
" clip-path="url(#pc555d653f2)" style="fill: #f1814d"/>
    <path d="M 201.92177 87.048813 
L 207.016225 82.463064 
L 201.698237 80.092643 
L 196.607645 84.658713 
z
" clip-path="url(#pc555d653f2)" style="fill: #f0f921"/>
    <path d="M 129.125424 150.30855 
L 134.364407 143.788529 
L 129.270762 141.22617 
L 124.040248 147.721884 
z
" clip-path="url(#pc555d653f2)" style="fill: #b02991"/>
    <path d="M 186.304895 98.95451 
L 191.469691 91.232959 
L 186.196807 88.83372 
L 181.042616 96.528679 
z
" clip-path="url(#pc555d653f2)" style="fill: #fcce25"/>
    <path d="M 113.516397 160.023552 
L 118.789325 153.985613 
L 113.74383 151.391295 
L 108.478544 157.405857 
z
" clip-path="url(#pc555d653f2)" style="fill: #910ea3"/>
    <path d="M 144.719557 139.584886 
L 149.932925 132.563326 
L 144.789055 130.03509 
L 139.585058 137.031349 
z
" clip-path="url(#pc555d653f2)" style="fill: #cc4977"/>
    <path d="M 71.880019 179.844469 
L 77.241727 174.180094 
L 72.324545 171.522247 
L 66.970167 177.16385 
z
" clip-path="url(#pc555d653f2)" style="fill: #46039f"/>
    <path d="M 97.874505 168.781716 
L 103.189271 163.200233 
L 98.190033 160.575974 
L 92.882167 166.134936 
z
" clip-path="url(#pc555d653f2)" style="fill: #7201a8"/>
    <path d="M 160.317754 127.820445 
L 165.514051 120.293464 
L 160.317754 117.80161 
L 155.131773 125.302256 
z
" clip-path="url(#pc555d653f2)" style="fill: #e66c5c"/>
    <path d="M 181.126622 107.014743 
L 186.304895 98.95451 
L 181.042616 96.528679 
L 175.875677 104.561518 
z
" clip-path="url(#pc555d653f2)" style="fill: #fdb22f"/>
    <path d="M 123.866457 156.596198 
L 129.125424 150.30855 
L 124.040248 147.721884 
L 118.789325 153.985613 
z
" clip-path="url(#pc555d653f2)" style="fill: #a11b9b"/>
    <path d="M 139.489988 146.366954 
L 144.719557 139.584886 
L 139.585058 137.031349 
L 134.364407 143.788529 
z
" clip-path="url(#pc555d653f2)" style="fill: #bf3984"/>
    <path d="M 82.189748 176.85461 
L 87.54778 171.51544 
L 82.593157 168.863047 
L 77.241727 174.180094 
z
" clip-path="url(#pc555d653f2)" style="fill: #5601a4"/>
    <path d="M 196.775643 93.647244 
L 201.92177 87.048813 
L 196.607645 84.658713 
L 191.469691 91.232959 
z
" clip-path="url(#pc555d653f2)" style="fill: #f6e826"/>
    <path d="M 175.939289 115.010287 
L 181.126622 107.014743 
L 175.875677 104.561518 
L 170.699564 112.529742 
z
" clip-path="url(#pc555d653f2)" style="fill: #f9983e"/>
    <path d="M 108.219871 165.840953 
L 113.516397 160.023552 
L 108.478544 157.405857 
L 103.189271 163.200233 
z
" clip-path="url(#pc555d653f2)" style="fill: #8104a7"/>
    <path d="M 155.109056 135.107418 
L 160.317754 127.820445 
L 155.131773 125.302256 
L 149.932925 132.563326 
z
" clip-path="url(#pc555d653f2)" style="fill: #da5a6a"/>
    <path d="M 66.539689 186.630998 
L 71.880019 179.844469 
L 66.970167 177.16385 
L 61.639317 183.925217 
z
" clip-path="url(#pc555d653f2)" style="fill: #310597"/>
    <path d="M 92.533511 174.184487 
L 97.874505 168.781716 
L 92.882167 166.134936 
L 87.54778 171.51544 
z
" clip-path="url(#pc555d653f2)" style="fill: #6400a7"/>
    <path d="M 170.742963 122.800959 
L 175.939289 115.010287 
L 170.699564 112.529742 
L 165.514051 120.293464 
z
" clip-path="url(#pc555d653f2)" style="fill: #f1814d"/>
    <path d="M 207.269278 89.453927 
L 212.367542 84.848341 
L 207.016225 82.463064 
L 201.92177 87.048813 
z
" clip-path="url(#pc555d653f2)" style="fill: #f0f921"/>
    <path d="M 134.242532 152.911458 
L 139.489988 146.366954 
L 134.364407 143.788529 
L 129.125424 150.30855 
z
" clip-path="url(#pc555d653f2)" style="fill: #b02991"/>
    <path d="M 191.600211 101.39557 
L 196.775643 93.647244 
L 191.469691 91.232959 
L 186.304895 98.95451 
z
" clip-path="url(#pc555d653f2)" style="fill: #fcce25"/>
    <path d="M 61.261236 195.356522 
L 66.539689 186.630998 
L 61.639317 183.925217 
L 56.373997 192.621571 
z
" clip-path="url(#pc555d653f2)" style="fill: #0d0887"/>
    <path d="M 118.585894 162.65769 
L 123.866457 156.596198 
L 118.789325 153.985613 
L 113.516397 160.023552 
z
" clip-path="url(#pc555d653f2)" style="fill: #910ea3"/>
    <path d="M 149.886302 142.154461 
L 155.109056 135.107418 
L 149.932925 132.563326 
L 144.719557 139.584886 
z
" clip-path="url(#pc555d653f2)" style="fill: #cc4977"/>
    <path d="M 76.820723 182.541932 
L 82.189748 176.85461 
L 77.241727 174.180094 
L 71.880019 179.844469 
z
" clip-path="url(#pc555d653f2)" style="fill: #46039f"/>
    <path d="M 102.898221 171.445133 
L 108.219871 165.840953 
L 103.189271 163.200233 
L 97.874505 168.781716 
z
" clip-path="url(#pc555d653f2)" style="fill: #7201a8"/>
    <path d="M 165.536322 130.354457 
L 170.742963 122.800959 
L 165.514051 120.293464 
L 160.317754 127.820445 
z
" clip-path="url(#pc555d653f2)" style="fill: #e66c5c"/>
    <path d="M 186.410563 109.483383 
L 191.600211 101.39557 
L 186.304895 98.95451 
L 181.126622 107.014743 
z
" clip-path="url(#pc555d653f2)" style="fill: #fdb22f"/>
    <path d="M 128.975524 159.223204 
L 134.242532 152.911458 
L 129.125424 150.30855 
L 123.866457 156.596198 
z
" clip-path="url(#pc555d653f2)" style="fill: #a11b9b"/>
    <path d="M 144.647806 148.961595 
L 149.886302 142.154461 
L 144.719557 139.584886 
L 139.489988 146.366954 
z
" clip-path="url(#pc555d653f2)" style="fill: #bf3984"/>
    <path d="M 87.168899 179.545953 
L 92.533511 174.184487 
L 87.54778 171.51544 
L 82.189748 176.85461 
z
" clip-path="url(#pc555d653f2)" style="fill: #5601a4"/>
    <path d="M 202.114976 96.076718 
L 207.269278 89.453927 
L 201.92177 87.048813 
L 196.775643 93.647244 
z
" clip-path="url(#pc555d653f2)" style="fill: #f6e826"/>
    <path d="M 181.211971 117.506435 
L 186.410563 109.483383 
L 181.126622 107.014743 
L 175.939289 115.010287 
z
" clip-path="url(#pc555d653f2)" style="fill: #f9983e"/>
    <path d="M 113.282128 168.498292 
L 118.585894 162.65769 
L 113.516397 160.023552 
L 108.219871 165.840953 
z
" clip-path="url(#pc555d653f2)" style="fill: #8104a7"/>
    <path d="M 160.317754 137.667518 
L 165.536322 130.354457 
L 160.317754 127.820445 
L 155.109056 135.107418 
z
" clip-path="url(#pc555d653f2)" style="fill: #da5a6a"/>
    <path d="M 71.4709 189.353806 
L 76.820723 182.541932 
L 71.880019 179.844469 
L 66.539689 186.630998 
z
" clip-path="url(#pc555d653f2)" style="fill: #310597"/>
    <path d="M 97.550643 176.870344 
L 102.898221 171.445133 
L 97.874505 168.781716 
L 92.533511 174.184487 
z
" clip-path="url(#pc555d653f2)" style="fill: #6400a7"/>
    <path d="M 176.004798 125.324242 
L 181.211971 117.506435 
L 175.939289 115.010287 
L 170.742963 122.800959 
z
" clip-path="url(#pc555d653f2)" style="fill: #f1814d"/>
    <path d="M 212.650482 91.874197 
L 217.752504 87.248615 
L 212.367542 84.848341 
L 207.269278 89.453927 
z
" clip-path="url(#pc555d653f2)" style="fill: #f0f921"/>
    <path d="M 139.391874 155.530763 
L 144.647806 148.961595 
L 139.489988 146.366954 
L 134.242532 152.911458 
z
" clip-path="url(#pc555d653f2)" style="fill: #b02991"/>
    <path d="M 196.928875 103.852003 
L 202.114976 96.076718 
L 196.775643 93.647244 
L 191.600211 101.39557 
z
" clip-path="url(#pc555d653f2)" style="fill: #fcce25"/>
    <path d="M 66.179253 198.108697 
L 71.4709 189.353806 
L 66.539689 186.630998 
L 61.261236 195.356522 
z
" clip-path="url(#pc555d653f2)" style="fill: #0d0887"/>
    <path d="M 123.687334 165.308425 
L 128.975524 159.223204 
L 123.866457 156.596198 
L 118.585894 162.65769 
z
" clip-path="url(#pc555d653f2)" style="fill: #910ea3"/>
    <path d="M 155.085598 144.740224 
L 160.317754 137.667518 
L 155.109056 135.107418 
L 149.886302 142.154461 
z
" clip-path="url(#pc555d653f2)" style="fill: #cc4977"/>
    <path d="M 81.792571 185.256399 
L 87.168899 179.545953 
L 82.189748 176.85461 
L 76.820723 182.541932 
z
" clip-path="url(#pc555d653f2)" style="fill: #46039f"/>
    <path d="M 107.953613 174.125343 
L 113.282128 168.498292 
L 108.219871 165.840953 
L 102.898221 171.445133 
z
" clip-path="url(#pc555d653f2)" style="fill: #7201a8"/>
    <path d="M 170.787786 132.904443 
L 176.004798 125.324242 
L 170.742963 122.800959 
L 165.536322 130.354457 
z
" clip-path="url(#pc555d653f2)" style="fill: #e66c5c"/>
    <path d="M 191.727811 111.967585 
L 196.928875 103.852003 
L 191.600211 101.39557 
L 186.410563 109.483383 
z
" clip-path="url(#pc555d653f2)" style="fill: #fdb22f"/>
    <path d="M 134.116828 161.866785 
L 139.391874 155.530763 
L 134.242532 152.911458 
L 128.975524 159.223204 
z
" clip-path="url(#pc555d653f2)" style="fill: #a11b9b"/>
    <path d="M 149.838167 151.572607 
L 155.085598 144.740224 
L 149.886302 142.154461 
L 144.647806 148.961595 
z
" clip-path="url(#pc555d653f2)" style="fill: #bf3984"/>
    <path d="M 92.179474 182.254281 
L 97.550643 176.870344 
L 92.533511 174.184487 
L 87.168899 179.545953 
z
" clip-path="url(#pc555d653f2)" style="fill: #5601a4"/>
    <path d="M 207.488004 98.521523 
L 212.650482 91.874197 
L 207.269278 89.453927 
L 202.114976 96.076718 
z
" clip-path="url(#pc555d653f2)" style="fill: #f6e826"/>
    <path d="M 186.517922 120.018331 
L 191.727811 111.967585 
L 186.410563 109.483383 
L 181.211971 117.506435 
z
" clip-path="url(#pc555d653f2)" style="fill: #f9983e"/>
    <path d="M 118.376341 171.172406 
L 123.687334 165.308425 
L 118.585894 162.65769 
L 113.282128 168.498292 
z
" clip-path="url(#pc555d653f2)" style="fill: #8104a7"/>
    <path d="M 165.559326 140.243775 
L 170.787786 132.904443 
L 165.536322 130.354457 
L 160.317754 137.667518 
z
" clip-path="url(#pc555d653f2)" style="fill: #da5a6a"/>
    <path d="M 76.433241 192.093804 
L 81.792571 185.256399 
L 76.820723 182.541932 
L 71.4709 189.353806 
z
" clip-path="url(#pc555d653f2)" style="fill: #310597"/>
    <path d="M 102.599474 179.57317 
L 107.953613 174.125343 
L 102.898221 171.445133 
L 97.550643 176.870344 
z
" clip-path="url(#pc555d653f2)" style="fill: #6400a7"/>
    <path d="M 181.299868 127.863462 
L 186.517922 120.018331 
L 181.211971 117.506435 
L 176.004798 125.324242 
z
" clip-path="url(#pc555d653f2)" style="fill: #f1814d"/>
    <path d="M 218.065703 94.309767 
L 223.171429 89.664027 
L 217.752504 87.248615 
L 212.650482 91.874197 
z
" clip-path="url(#pc555d653f2)" style="fill: #f0f921"/>
    <path d="M 144.573756 158.16662 
L 149.838167 151.572607 
L 144.647806 148.961595 
L 139.391874 155.530763 
z
" clip-path="url(#pc555d653f2)" style="fill: #b02991"/>
    <path d="M 202.291204 106.323955 
L 207.488004 98.521523 
L 202.114976 96.076718 
L 196.928875 103.852003 
z
" clip-path="url(#pc555d653f2)" style="fill: #fcce25"/>
    <path d="M 71.128338 200.878257 
L 76.433241 192.093804 
L 71.4709 189.353806 
L 66.179253 198.108697 
z
" clip-path="url(#pc555d653f2)" style="fill: #0d0887"/>
    <path d="M 128.82102 167.975915 
L 134.116828 161.866785 
L 128.975524 159.223204 
L 123.687334 165.308425 
z
" clip-path="url(#pc555d653f2)" style="fill: #910ea3"/>
    <path d="M 160.317754 147.342329 
L 165.559326 140.243775 
L 160.317754 137.667518 
L 155.085598 144.740224 
z
" clip-path="url(#pc555d653f2)" style="fill: #cc4977"/>
    <path d="M 86.795858 187.988031 
L 92.179474 182.254281 
L 87.168899 179.545953 
L 81.792571 185.256399 
z
" clip-path="url(#pc555d653f2)" style="fill: #46039f"/>
    <path d="M 113.040981 176.822506 
L 118.376341 171.172406 
L 113.282128 168.498292 
L 107.953613 174.125343 
z
" clip-path="url(#pc555d653f2)" style="fill: #7201a8"/>
    <path d="M 176.072458 135.470553 
L 181.299868 127.863462 
L 176.004798 125.324242 
L 170.787786 132.904443 
z
" clip-path="url(#pc555d653f2)" style="fill: #e66c5c"/>
    <path d="M 197.078682 114.467495 
L 202.291204 106.323955 
L 196.928875 103.852003 
L 191.727811 111.967585 
z
" clip-path="url(#pc555d653f2)" style="fill: #fdb22f"/>
    <path d="M 139.290675 164.5271 
L 144.573756 158.16662 
L 139.391874 155.530763 
L 134.116828 161.866785 
z
" clip-path="url(#pc555d653f2)" style="fill: #a11b9b"/>
    <path d="M 155.061378 154.200145 
L 160.317754 147.342329 
L 155.085598 144.740224 
L 149.838167 151.572607 
z
" clip-path="url(#pc555d653f2)" style="fill: #bf3984"/>
    <path d="M 97.221773 184.979756 
L 102.599474 179.57317 
L 97.550643 176.870344 
L 92.179474 182.254281 
z
" clip-path="url(#pc555d653f2)" style="fill: #5601a4"/>
    <path d="M 212.895049 100.981807 
L 218.065703 94.309767 
L 212.650482 91.874197 
L 207.488004 98.521523 
z
" clip-path="url(#pc555d653f2)" style="fill: #f6e826"/>
    <path d="M 191.857457 122.546127 
L 197.078682 114.467495 
L 191.727811 111.967585 
L 186.517922 120.018331 
z
" clip-path="url(#pc555d653f2)" style="fill: #f9983e"/>
    <path d="M 123.502815 173.863455 
L 128.82102 167.975915 
L 123.687334 165.308425 
L 118.376341 171.172406 
z
" clip-path="url(#pc555d653f2)" style="fill: #8104a7"/>
    <path d="M 170.834085 142.836343 
L 176.072458 135.470553 
L 170.787786 132.904443 
L 165.559326 140.243775 
z
" clip-path="url(#pc555d653f2)" style="fill: #da5a6a"/>
    <path d="M 81.427008 194.851153 
L 86.795858 187.988031 
L 81.792571 185.256399 
L 76.433241 192.093804 
z
" clip-path="url(#pc555d653f2)" style="fill: #310597"/>
    <path d="M 107.680305 182.293128 
L 113.040981 176.822506 
L 107.953613 174.125343 
L 102.599474 179.57317 
z
" clip-path="url(#pc555d653f2)" style="fill: #6400a7"/>
    <path d="M 186.628489 130.418772 
L 191.857457 122.546127 
L 186.517922 120.018331 
L 181.299868 127.863462 
z
" clip-path="url(#pc555d653f2)" style="fill: #f1814d"/>
    <path d="M 223.515264 96.760781 
L 228.624638 92.094722 
L 223.171429 89.664027 
L 218.065703 94.309767 
z
" clip-path="url(#pc555d653f2)" style="fill: #f0f921"/>
    <path d="M 149.788487 160.819186 
L 155.061378 154.200145 
L 149.838167 151.572607 
L 144.573756 158.16662 
z
" clip-path="url(#pc555d653f2)" style="fill: #b02991"/>
    <path d="M 207.687517 108.811573 
L 212.895049 100.981807 
L 207.488004 98.521523 
L 202.291204 106.323955 
z
" clip-path="url(#pc555d653f2)" style="fill: #fcce25"/>
    <path d="M 76.108787 203.66537 
L 81.427008 194.851153 
L 76.433241 192.093804 
L 71.128338 200.878257 
z
" clip-path="url(#pc555d653f2)" style="fill: #0d0887"/>
    <path d="M 133.987259 170.66032 
L 139.290675 164.5271 
L 134.116828 161.866785 
L 128.82102 167.975915 
z
" clip-path="url(#pc555d653f2)" style="fill: #910ea3"/>
    <path d="M 165.583082 149.960932 
L 170.834085 142.836343 
L 165.559326 140.243775 
L 160.317754 147.342329 
z
" clip-path="url(#pc555d653f2)" style="fill: #cc4977"/>
    <path d="M 91.830885 190.736992 
L 97.221773 184.979756 
L 92.179474 182.254281 
L 86.795858 187.988031 
z
" clip-path="url(#pc555d653f2)" style="fill: #46039f"/>
    <path d="M 118.16063 179.536783 
L 123.502815 173.863455 
L 118.376341 171.172406 
L 113.040981 176.822506 
z
" clip-path="url(#pc555d653f2)" style="fill: #7201a8"/>
    <path d="M 181.390653 138.052942 
L 186.628489 130.418772 
L 181.299868 127.863462 
L 176.072458 135.470553 
z
" clip-path="url(#pc555d653f2)" style="fill: #e66c5c"/>
    <path d="M 202.463497 116.983264 
L 207.687517 108.811573 
L 202.291204 106.323955 
L 197.078682 114.467495 
z
" clip-path="url(#pc555d653f2)" style="fill: #fdb22f"/>
    <path d="M 144.497375 167.204307 
L 149.788487 160.819186 
L 144.573756 158.16662 
L 139.290675 164.5271 
z
" clip-path="url(#pc555d653f2)" style="fill: #a11b9b"/>
    <path d="M 160.317754 156.844366 
L 165.583082 149.960932 
L 160.317754 147.342329 
L 155.061378 154.200145 
z
" clip-path="url(#pc555d653f2)" style="fill: #bf3984"/>
    <path d="M 102.296097 187.722542 
L 107.680305 182.293128 
L 102.599474 179.57317 
L 97.221773 184.979756 
z
" clip-path="url(#pc555d653f2)" style="fill: #5601a4"/>
    <path d="M 218.336434 103.457716 
L 223.515264 96.760781 
L 218.065703 94.309767 
L 212.895049 100.981807 
z
" clip-path="url(#pc555d653f2)" style="fill: #f6e826"/>
    <path d="M 197.230896 125.089974 
L 202.463497 116.983264 
L 197.078682 114.467495 
L 191.857457 122.546127 
z
" clip-path="url(#pc555d653f2)" style="fill: #f9983e"/>
    <path d="M 128.661858 176.5716 
L 133.987259 170.66032 
L 128.82102 167.975915 
L 123.502815 173.863455 
z
" clip-path="url(#pc555d653f2)" style="fill: #8104a7"/>
    <path d="M 176.142347 145.445379 
L 181.390653 138.052942 
L 176.072458 135.470553 
L 170.834085 142.836343 
z
" clip-path="url(#pc555d653f2)" style="fill: #da5a6a"/>
    <path d="M 86.4525 197.62602 
L 91.830885 190.736992 
L 86.795858 187.988031 
L 81.427008 194.851153 
z
" clip-path="url(#pc555d653f2)" style="fill: #310597"/>
    <path d="M 112.793442 185.030379 
L 118.16063 179.536783 
L 113.040981 176.822506 
L 107.680305 182.293128 
z
" clip-path="url(#pc555d653f2)" style="fill: #6400a7"/>
    <path d="M 191.99098 132.990323 
L 197.230896 125.089974 
L 191.857457 122.546127 
L 186.628489 130.418772 
z
" clip-path="url(#pc555d653f2)" style="fill: #f1814d"/>
    <path d="M 228.999493 99.227388 
L 234.112459 94.540843 
L 228.624638 92.094722 
L 223.515264 96.760781 
z
" clip-path="url(#pc555d653f2)" style="fill: #f0f921"/>
    <path d="M 155.036381 163.488621 
L 160.317754 156.844366 
L 155.061378 154.200145 
L 149.788487 160.819186 
z
" clip-path="url(#pc555d653f2)" style="fill: #b02991"/>
    <path d="M 213.118138 111.315007 
L 218.336434 103.457716 
L 212.895049 100.981807 
L 207.687517 108.811573 
z
" clip-path="url(#pc555d653f2)" style="fill: #fcce25"/>
    <path d="M 81.120899 206.470201 
L 86.4525 197.62602 
L 81.427008 194.851153 
L 76.108787 203.66537 
z
" clip-path="url(#pc555d653f2)" style="fill: #0d0887"/>
    <path d="M 139.186361 173.361801 
L 144.497375 167.204307 
L 139.290675 164.5271 
L 133.987259 170.66032 
z
" clip-path="url(#pc555d653f2)" style="fill: #910ea3"/>
    <path d="M 170.881899 152.59619 
L 176.142347 145.445379 
L 170.834085 142.836343 
L 165.583082 149.960932 
z
" clip-path="url(#pc555d653f2)" style="fill: #cc4977"/>
    <path d="M 96.897952 193.503446 
L 102.296097 187.722542 
L 97.221773 184.979756 
L 91.830885 190.736992 
z
" clip-path="url(#pc555d653f2)" style="fill: #46039f"/>
    <path d="M 123.312868 182.268337 
L 128.661858 176.5716 
L 123.502815 173.863455 
L 118.16063 179.536783 
z
" clip-path="url(#pc555d653f2)" style="fill: #7201a8"/>
    <path d="M 186.742691 140.651764 
L 191.99098 132.990323 
L 186.628489 130.418772 
L 181.390653 138.052942 
z
" clip-path="url(#pc555d653f2)" style="fill: #e66c5c"/>
    <path d="M 207.88258 119.515042 
L 213.118138 111.315007 
L 207.687517 108.811573 
L 202.463497 116.983264 
z
" clip-path="url(#pc555d653f2)" style="fill: #fdb22f"/>
    <path d="M 149.737243 169.898568 
L 155.036381 163.488621 
L 149.788487 160.819186 
L 144.497375 167.204307 
z
" clip-path="url(#pc555d653f2)" style="fill: #a11b9b"/>
    <path d="M 165.607611 159.50543 
L 170.881899 152.59619 
L 165.583082 149.960932 
L 160.317754 156.844366 
z
" clip-path="url(#pc555d653f2)" style="fill: #bf3984"/>
    <path d="M 107.402753 190.482804 
L 112.793442 185.030379 
L 107.680305 182.293128 
L 102.296097 187.722542 
z
" clip-path="url(#pc555d653f2)" style="fill: #5601a4"/>
    <path d="M 223.812488 105.9494 
L 228.999493 99.227388 
L 223.515264 96.760781 
L 218.336434 103.457716 
z
" clip-path="url(#pc555d653f2)" style="fill: #f6e826"/>
    <path d="M 202.638564 127.650025 
L 207.88258 119.515042 
L 202.463497 116.983264 
L 197.230896 125.089974 
z
" clip-path="url(#pc555d653f2)" style="fill: #f9983e"/>
    <path d="M 133.853779 179.297003 
L 139.186361 173.361801 
L 133.987259 170.66032 
L 128.661858 176.5716 
z
" clip-path="url(#pc555d653f2)" style="fill: #8104a7"/>
    <path d="M 181.484431 148.071038 
L 186.742691 140.651764 
L 181.390653 138.052942 
L 176.142347 145.445379 
z
" clip-path="url(#pc555d653f2)" style="fill: #da5a6a"/>
    <path d="M 91.510021 200.418572 
L 96.897952 193.503446 
L 91.830885 190.736992 
L 86.4525 197.62602 
z
" clip-path="url(#pc555d653f2)" style="fill: #310597"/>
    <path d="M 117.939193 187.785091 
L 123.312868 182.268337 
L 118.16063 179.536783 
L 112.793442 185.030379 
z
" clip-path="url(#pc555d653f2)" style="fill: #6400a7"/>
    <path d="M 197.387666 135.578273 
L 202.638564 127.650025 
L 197.230896 125.089974 
L 191.99098 132.990323 
z
" clip-path="url(#pc555d653f2)" style="fill: #f1814d"/>
    <path d="M 234.518722 101.709736 
L 239.635221 97.00254 
L 234.112459 94.540843 
L 228.999493 99.227388 
z
" clip-path="url(#pc555d653f2)" style="fill: #f0f921"/>
    <path d="M 160.317754 166.175086 
L 165.607611 159.50543 
L 160.317754 156.844366 
L 155.036381 163.488621 
z
" clip-path="url(#pc555d653f2)" style="fill: #b02991"/>
    <path d="M 218.583397 113.834407 
L 223.812488 105.9494 
L 218.336434 103.457716 
L 213.118138 111.315007 
z
" clip-path="url(#pc555d653f2)" style="fill: #fcce25"/>
    <path d="M 86.164977 209.292921 
L 91.510021 200.418572 
L 86.4525 197.62602 
L 81.120899 206.470201 
z
" clip-path="url(#pc555d653f2)" style="fill: #0d0887"/>
    <path d="M 144.418641 176.080521 
L 149.737243 169.898568 
L 144.497375 167.204307 
L 139.186361 173.361801 
z
" clip-path="url(#pc555d653f2)" style="fill: #910ea3"/>
    <path d="M 176.214525 155.248262 
L 181.484431 148.071038 
L 176.142347 145.445379 
L 170.881899 152.59619 
z
" clip-path="url(#pc555d653f2)" style="fill: #cc4977"/>
    <path d="M 101.997368 196.287561 
L 107.402753 190.482804 
L 102.296097 187.722542 
L 96.897952 193.503446 
z
" clip-path="url(#pc555d653f2)" style="fill: #46039f"/>
    <path d="M 128.498007 185.017335 
L 133.853779 179.297003 
L 128.661858 176.5716 
L 123.312868 182.268337 
z
" clip-path="url(#pc555d653f2)" style="fill: #7201a8"/>
    <path d="M 192.128897 143.267178 
L 197.387666 135.578273 
L 191.99098 132.990323 
L 186.742691 140.651764 
z
" clip-path="url(#pc555d653f2)" style="fill: #e66c5c"/>
    <path d="M 213.336258 122.062983 
L 218.583397 113.834407 
L 213.118138 111.315007 
L 207.88258 119.515042 
z
" clip-path="url(#pc555d653f2)" style="fill: #fdb22f"/>
    <path d="M 155.010595 172.610047 
L 160.317754 166.175086 
L 155.036381 163.488621 
L 149.737243 169.898568 
z
" clip-path="url(#pc555d653f2)" style="fill: #a11b9b"/>
    <path d="M 170.93127 162.183497 
L 176.214525 155.248262 
L 170.881899 152.59619 
L 165.607611 159.50543 
z
" clip-path="url(#pc555d653f2)" style="fill: #bf3984"/>
    <path d="M 112.54205 193.260709 
L 117.939193 187.785091 
L 112.793442 185.030379 
L 107.402753 190.482804 
z
" clip-path="url(#pc555d653f2)" style="fill: #5601a4"/>
    <path d="M 229.323542 108.457009 
L 234.518722 101.709736 
L 228.999493 99.227388 
L 223.812488 105.9494 
z
" clip-path="url(#pc555d653f2)" style="fill: #f6e826"/>
    <path d="M 208.080788 130.226435 
L 213.336258 122.062983 
L 207.88258 119.515042 
L 202.638564 127.650025 
z
" clip-path="url(#pc555d653f2)" style="fill: #f9983e"/>
    <path d="M 139.078895 182.039832 
L 144.418641 176.080521 
L 139.186361 173.361801 
L 133.853779 179.297003 
z
" clip-path="url(#pc555d653f2)" style="fill: #8104a7"/>
    <path d="M 186.860663 150.713481 
L 192.128897 143.267178 
L 186.742691 140.651764 
L 181.484431 148.071038 
z
" clip-path="url(#pc555d653f2)" style="fill: #da5a6a"/>
    <path d="M 96.599879 203.228978 
L 101.997368 196.287561 
L 96.897952 193.503446 
L 91.510021 200.418572 
z
" clip-path="url(#pc555d653f2)" style="fill: #310597"/>
    <path d="M 123.117872 190.55743 
L 128.498007 185.017335 
L 123.312868 182.268337 
L 117.939193 187.785091 
z
" clip-path="url(#pc555d653f2)" style="fill: #6400a7"/>
    <path d="M 202.818874 138.182778 
L 208.080788 130.226435 
L 202.638564 127.650025 
L 197.387666 135.578273 
z
" clip-path="url(#pc555d653f2)" style="fill: #f1814d"/>
    <path d="M 240.073287 104.207977 
L 245.19326 99.479961 
L 239.635221 97.00254 
L 234.518722 101.709736 
z
" clip-path="url(#pc555d653f2)" style="fill: #f0f921"/>
    <path d="M 165.632929 168.878744 
L 170.93127 162.183497 
L 165.607611 159.50543 
L 160.317754 166.175086 
z
" clip-path="url(#pc555d653f2)" style="fill: #b02991"/>
    <path d="M 224.083624 116.369928 
L 229.323542 108.457009 
L 223.812488 105.9494 
L 218.583397 113.834407 
z
" clip-path="url(#pc555d653f2)" style="fill: #fcce25"/>
    <path d="M 91.241328 212.133701 
L 96.599879 203.228978 
L 91.510021 200.418572 
L 86.164977 209.292921 
z
" clip-path="url(#pc555d653f2)" style="fill: #0d0887"/>
    <path d="M 149.684417 178.816646 
L 155.010595 172.610047 
L 149.737243 169.898568 
L 144.418641 176.080521 
z
" clip-path="url(#pc555d653f2)" style="fill: #910ea3"/>
    <path d="M 181.581285 157.91731 
L 186.860663 150.713481 
L 181.484431 148.071038 
L 176.214525 155.248262 
z
" clip-path="url(#pc555d653f2)" style="fill: #cc4977"/>
    <path d="M 107.129443 199.089507 
L 112.54205 193.260709 
L 107.402753 190.482804 
L 101.997368 196.287561 
z
" clip-path="url(#pc555d653f2)" style="fill: #46039f"/>
    <path d="M 133.716363 187.783943 
L 139.078895 182.039832 
L 133.853779 179.297003 
L 128.498007 185.017335 
z
" clip-path="url(#pc555d653f2)" style="fill: #7201a8"/>
    <path d="M 197.549599 145.899341 
L 202.818874 138.182778 
L 197.387666 135.578273 
L 192.128897 143.267178 
z
" clip-path="url(#pc555d653f2)" style="fill: #e66c5c"/>
    <path d="M 218.824864 124.627242 
L 224.083624 116.369928 
L 218.583397 113.834407 
L 213.336258 122.062983 
z
" clip-path="url(#pc555d653f2)" style="fill: #fdb22f"/>
    <path d="M 160.317754 175.338909 
L 165.632929 168.878744 
L 160.317754 166.175086 
L 155.010595 172.610047 
z
" clip-path="url(#pc555d653f2)" style="fill: #a11b9b"/>
    <path d="M 176.289055 164.878733 
L 181.581285 157.91731 
L 176.214525 155.248262 
L 170.93127 162.183497 
z
" clip-path="url(#pc555d653f2)" style="fill: #bf3984"/>
    <path d="M 117.714302 196.056427 
L 123.117872 190.55743 
L 117.939193 187.785091 
L 112.54205 193.260709 
z
" clip-path="url(#pc555d653f2)" style="fill: #5601a4"/>
    <path d="M 234.869934 110.980698 
L 240.073287 104.207977 
L 234.518722 101.709736 
L 229.323542 108.457009 
z
" clip-path="url(#pc555d653f2)" style="fill: #f6e826"/>
    <path d="M 213.5579 132.819361 
L 218.824864 124.627242 
L 213.336258 122.062983 
L 208.080788 130.226435 
z
" clip-path="url(#pc555d653f2)" style="fill: #f9983e"/>
    <path d="M 144.337525 184.800254 
L 149.684417 178.816646 
L 144.418641 176.080521 
L 139.078895 182.039832 
z
" clip-path="url(#pc555d653f2)" style="fill: #8104a7"/>
    <path d="M 192.271371 153.37287 
L 197.549599 145.899341 
L 192.128897 143.267178 
L 186.860663 150.713481 
z
" clip-path="url(#pc555d653f2)" style="fill: #da5a6a"/>
    <path d="M 101.722383 206.057411 
L 107.129443 199.089507 
L 101.997368 196.287561 
L 96.599879 203.228978 
z
" clip-path="url(#pc555d653f2)" style="fill: #310597"/>
    <path d="M 128.329796 193.347566 
L 133.716363 187.783943 
L 128.498007 185.017335 
L 123.117872 190.55743 
z
" clip-path="url(#pc555d653f2)" style="fill: #6400a7"/>
    <path d="M 208.284938 140.803997 
L 213.5579 132.819361 
L 208.080788 130.226435 
L 202.818874 138.182778 
z
" clip-path="url(#pc555d653f2)" style="fill: #f1814d"/>
    <path d="M 245.663528 106.722264 
L 250.786914 101.973256 
L 245.19326 99.479961 
L 240.073287 104.207977 
z
" clip-path="url(#pc555d653f2)" style="fill: #f0f921"/>
    <path d="M 170.98223 171.599762 
L 176.289055 164.878733 
L 170.93127 162.183497 
L 165.632929 168.878744 
z
" clip-path="url(#pc555d653f2)" style="fill: #b02991"/>
    <path d="M 229.619157 118.921725 
L 234.869934 110.980698 
L 229.323542 108.457009 
L 224.083624 116.369928 
z
" clip-path="url(#pc555d653f2)" style="fill: #fcce25"/>
    <path d="M 96.350263 214.992715 
L 101.722383 206.057411 
L 96.599879 203.228978 
L 91.241328 212.133701 
z
" clip-path="url(#pc555d653f2)" style="fill: #0d0887"/>
    <path d="M 154.984013 181.570344 
L 160.317754 175.338909 
L 155.010595 172.610047 
L 149.684417 178.816646 
z
" clip-path="url(#pc555d653f2)" style="fill: #910ea3"/>
    <path d="M 186.982507 160.603497 
L 192.271371 153.37287 
L 186.860663 150.713481 
L 181.581285 157.91731 
z
" clip-path="url(#pc555d653f2)" style="fill: #cc4977"/>
    <path d="M 112.294492 201.909455 
L 117.714302 196.056427 
L 112.54205 193.260709 
L 107.129443 199.089507 
z
" clip-path="url(#pc555d653f2)" style="fill: #46039f"/>
    <path d="M 138.968256 190.568332 
L 144.337525 184.800254 
L 139.078895 182.039832 
L 133.716363 187.783943 
z
" clip-path="url(#pc555d653f2)" style="fill: #7201a8"/>
    <path d="M 203.00513 148.548417 
L 208.284938 140.803997 
L 202.818874 138.182778 
L 197.549599 145.899341 
z
" clip-path="url(#pc555d653f2)" style="fill: #e66c5c"/>
    <path d="M 224.348735 127.207977 
L 229.619157 118.921725 
L 224.083624 116.369928 
L 218.824864 124.627242 
z
" clip-path="url(#pc555d653f2)" style="fill: #fdb22f"/>
    <path d="M 165.659047 178.085321 
L 170.98223 171.599762 
L 165.632929 168.878744 
L 160.317754 175.338909 
z
" clip-path="url(#pc555d653f2)" style="fill: #a11b9b"/>
    <path d="M 181.681297 167.591301 
L 186.982507 160.603497 
L 181.581285 157.91731 
L 176.289055 164.878733 
z
" clip-path="url(#pc555d653f2)" style="fill: #bf3984"/>
    <path d="M 122.919828 198.87013 
L 128.329796 193.347566 
L 123.117872 190.55743 
L 117.714302 196.056427 
z
" clip-path="url(#pc555d653f2)" style="fill: #5601a4"/>
    <path d="M 240.452004 113.520621 
L 245.663528 106.722264 
L 240.073287 104.207977 
L 234.869934 110.980698 
z
" clip-path="url(#pc555d653f2)" style="fill: #f6e826"/>
    <path d="M 219.070238 135.428964 
L 224.348735 127.207977 
L 218.824864 124.627242 
L 213.5579 132.819361 
z
" clip-path="url(#pc555d653f2)" style="fill: #f9983e"/>
    <path d="M 149.629992 187.578437 
L 154.984013 181.570344 
L 149.684417 178.816646 
L 144.337525 184.800254 
z
" clip-path="url(#pc555d653f2)" style="fill: #8104a7"/>
    <path d="M 197.716888 156.049366 
L 203.00513 148.548417 
L 197.549599 145.899341 
L 192.271371 153.37287 
z
" clip-path="url(#pc555d653f2)" style="fill: #da5a6a"/>
    <path d="M 106.877849 208.904044 
L 112.294492 201.909455 
L 107.129443 199.089507 
L 101.722383 206.057411 
z
" clip-path="url(#pc555d653f2)" style="fill: #310597"/>
    <path d="M 133.575285 196.155671 
L 138.968256 190.568332 
L 133.716363 187.783943 
L 128.329796 193.347566 
z
" clip-path="url(#pc555d653f2)" style="fill: #6400a7"/>
    <path d="M 213.786194 143.442093 
L 219.070238 135.428964 
L 213.5579 132.819361 
L 208.284938 140.803997 
z
" clip-path="url(#pc555d653f2)" style="fill: #f1814d"/>
    <path d="M 251.28979 109.252752 
L 256.416528 104.48258 
L 250.786914 101.973256 
L 245.663528 106.722264 
z
" clip-path="url(#pc555d653f2)" style="fill: #f0f921"/>
    <path d="M 176.365988 174.338306 
L 181.681297 167.591301 
L 176.289055 164.878733 
L 170.98223 171.599762 
z
" clip-path="url(#pc555d653f2)" style="fill: #b02991"/>
    <path d="M 235.190338 121.489954 
L 240.452004 113.520621 
L 234.869934 110.980698 
L 229.619157 118.921725 
z
" clip-path="url(#pc555d653f2)" style="fill: #fcce25"/>
    <path d="M 101.492095 217.87014 
L 106.877849 208.904044 
L 101.722383 206.057411 
L 96.350263 214.992715 
z
" clip-path="url(#pc555d653f2)" style="fill: #0d0887"/>
    <path d="M 160.317754 184.341784 
L 165.659047 178.085321 
L 160.317754 175.338909 
L 154.984013 181.570344 
z
" clip-path="url(#pc555d653f2)" style="fill: #910ea3"/>
    <path d="M 192.418525 163.306989 
L 197.716888 156.049366 
L 192.271371 153.37287 
L 186.982507 160.603497 
z
" clip-path="url(#pc555d653f2)" style="fill: #cc4977"/>
    <path d="M 117.492834 204.74758 
L 122.919828 198.87013 
L 117.714302 196.056427 
L 112.294492 201.909455 
z
" clip-path="url(#pc555d653f2)" style="fill: #46039f"/>
    <path d="M 144.254011 193.370674 
L 149.629992 187.578437 
L 144.337525 184.800254 
L 138.968256 190.568332 
z
" clip-path="url(#pc555d653f2)" style="fill: #7201a8"/>
    <path d="M 208.495825 151.214568 
L 213.786194 143.442093 
L 208.284938 140.803997 
L 203.00513 148.548417 
z
" clip-path="url(#pc555d653f2)" style="fill: #e66c5c"/>
    <path d="M 229.908211 129.805347 
L 235.190338 121.489954 
L 229.619157 118.921725 
L 224.348735 127.207977 
z
" clip-path="url(#pc555d653f2)" style="fill: #fdb22f"/>
    <path d="M 171.034803 180.849454 
L 176.365988 174.338306 
L 170.98223 171.599762 
L 165.659047 178.085321 
z
" clip-path="url(#pc555d653f2)" style="fill: #a11b9b"/>
    <path d="M 187.108328 170.321371 
L 192.418525 163.306989 
L 186.982507 160.603497 
L 181.681297 167.591301 
z
" clip-path="url(#pc555d653f2)" style="fill: #bf3984"/>
    <path d="M 128.158949 201.701993 
L 133.575285 196.155671 
L 128.329796 193.347566 
L 122.919828 198.87013 
z
" clip-path="url(#pc555d653f2)" style="fill: #5601a4"/>
    <path d="M 246.070097 116.076935 
L 251.28979 109.252752 
L 245.663528 106.722264 
L 240.452004 113.520621 
z
" clip-path="url(#pc555d653f2)" style="fill: #f6e826"/>
    <path d="M 224.618142 138.055404 
L 229.908211 129.805347 
L 224.348735 127.207977 
L 219.070238 135.428964 
z
" clip-path="url(#pc555d653f2)" style="fill: #f9983e"/>
    <path d="M 154.956625 190.374555 
L 160.317754 184.341784 
L 154.984013 181.570344 
L 149.629992 187.578437 
z
" clip-path="url(#pc555d653f2)" style="fill: #8104a7"/>
    <path d="M 203.19755 158.743137 
L 208.495825 151.214568 
L 203.00513 148.548417 
L 197.716888 156.049366 
z
" clip-path="url(#pc555d653f2)" style="fill: #da5a6a"/>
    <path d="M 112.066597 211.769054 
L 117.492834 204.74758 
L 112.294492 201.909455 
L 106.877849 208.904044 
z
" clip-path="url(#pc555d653f2)" style="fill: #310597"/>
    <path d="M 138.854666 198.981919 
L 144.254011 193.370674 
L 138.968256 190.568332 
L 133.575285 196.155671 
z
" clip-path="url(#pc555d653f2)" style="fill: #6400a7"/>
    <path d="M 219.322982 146.097228 
L 224.618142 138.055404 
L 219.070238 135.428964 
L 213.786194 143.442093 
z
" clip-path="url(#pc555d653f2)" style="fill: #f1814d"/>
    <path d="M 256.952423 111.799599 
L 262.082449 107.008088 
L 256.416528 104.48258 
L 251.28979 109.252752 
z
" clip-path="url(#pc555d653f2)" style="fill: #f0f921"/>
    <path d="M 181.784536 177.094548 
L 187.108328 170.321371 
L 181.681297 167.591301 
L 176.365988 174.338306 
z
" clip-path="url(#pc555d653f2)" style="fill: #b02991"/>
    <path d="M 240.79751 124.074775 
L 246.070097 116.076935 
L 240.452004 113.520621 
L 235.190338 121.489954 
z
" clip-path="url(#pc555d653f2)" style="fill: #fcce25"/>
    <path d="M 106.667145 220.766153 
L 112.066597 211.769054 
L 106.877849 208.904044 
L 101.492095 217.87014 
z
" clip-path="url(#pc555d653f2)" style="fill: #0d0887"/>
    <path d="M 165.685973 187.131138 
L 171.034803 180.849454 
L 165.659047 178.085321 
L 160.317754 184.341784 
z
" clip-path="url(#pc555d653f2)" style="fill: #910ea3"/>
    <path d="M 197.889676 166.027953 
L 203.19755 158.743137 
L 197.716888 156.049366 
L 192.418525 163.306989 
z
" clip-path="url(#pc555d653f2)" style="fill: #cc4977"/>
    <path d="M 122.724791 207.604059 
L 128.158949 201.701993 
L 122.919828 198.87013 
L 117.492834 204.74758 
z
" clip-path="url(#pc555d653f2)" style="fill: #46039f"/>
    <path d="M 149.573957 196.191142 
L 154.956625 190.374555 
L 149.629992 187.578437 
L 144.254011 193.370674 
z
" clip-path="url(#pc555d653f2)" style="fill: #7201a8"/>
    <path d="M 214.022027 153.89796 
L 219.322982 146.097228 
L 213.786194 143.442093 
L 208.495825 151.214568 
z
" clip-path="url(#pc555d653f2)" style="fill: #e66c5c"/>
    <path d="M 235.503639 132.419513 
L 240.79751 124.074775 
L 235.190338 121.489954 
L 229.908211 129.805347 
z
" clip-path="url(#pc555d653f2)" style="fill: #fdb22f"/>
    <path d="M 176.445357 183.63148 
L 181.784536 177.094548 
L 176.365988 174.338306 
L 171.034803 180.849454 
z
" clip-path="url(#pc555d653f2)" style="fill: #a11b9b"/>
    <path d="M 192.570487 173.069111 
L 197.889676 166.027953 
L 192.418525 163.306989 
L 187.108328 170.321371 
z
" clip-path="url(#pc555d653f2)" style="fill: #bf3984"/>
    <path d="M 133.431992 204.552191 
L 138.854666 198.981919 
L 133.575285 196.155671 
L 128.158949 201.701993 
z
" clip-path="url(#pc555d653f2)" style="fill: #5601a4"/>
    <path d="M 251.724565 118.649799 
L 256.952423 111.799599 
L 251.28979 109.252752 
L 246.070097 116.076935 
z
" clip-path="url(#pc555d653f2)" style="fill: #f6e826"/>
    <path d="M 230.201957 140.698845 
L 235.503639 132.419513 
L 229.908211 129.805347 
L 224.618142 138.055404 
z
" clip-path="url(#pc555d653f2)" style="fill: #f9983e"/>
    <path d="M 160.317754 193.188782 
L 165.685973 187.131138 
L 160.317754 184.341784 
L 154.956625 190.374555 
z
" clip-path="url(#pc555d653f2)" style="fill: #8104a7"/>
    <path d="M 208.713698 161.45435 
L 214.022027 153.89796 
L 208.495825 151.214568 
L 203.19755 158.743137 
z
" clip-path="url(#pc555d653f2)" style="fill: #da5a6a"/>
    <path d="M 117.288949 214.652619 
L 122.724791 207.604059 
L 117.492834 204.74758 
L 112.066597 211.769054 
z
" clip-path="url(#pc555d653f2)" style="fill: #310597"/>
    <path d="M 144.168267 201.826487 
L 149.573957 196.191142 
L 144.254011 193.370674 
L 138.854666 198.981919 
z
" clip-path="url(#pc555d653f2)" style="fill: #6400a7"/>
    <path d="M 224.895648 148.769568 
L 230.201957 140.698845 
L 224.618142 138.055404 
L 219.322982 146.097228 
z
" clip-path="url(#pc555d653f2)" style="fill: #f1814d"/>
    <path d="M 262.65178 114.362962 
L 267.785029 109.549936 
L 262.082449 107.008088 
L 256.952423 111.799599 
z
" clip-path="url(#pc555d653f2)" style="fill: #f0f921"/>
    <path d="M 187.238213 179.868658 
L 192.570487 173.069111 
L 187.108328 170.321371 
L 181.784536 177.094548 
z
" clip-path="url(#pc555d653f2)" style="fill: #b02991"/>
    <path d="M 246.441025 126.67635 
L 251.724565 118.649799 
L 246.070097 116.076935 
L 240.79751 124.074775 
z
" clip-path="url(#pc555d653f2)" style="fill: #fcce25"/>
    <path d="M 111.875735 223.680935 
L 117.288949 214.652619 
L 112.066597 211.769054 
L 106.667145 220.766153 
z
" clip-path="url(#pc555d653f2)" style="fill: #0d0887"/>
    <path d="M 171.089003 189.938581 
L 176.445357 183.63148 
L 171.034803 180.849454 
L 165.685973 187.131138 
z
" clip-path="url(#pc555d653f2)" style="fill: #910ea3"/>
    <path d="M 203.396301 168.76656 
L 208.713698 161.45435 
L 203.19755 158.743137 
L 197.889676 166.027953 
z
" clip-path="url(#pc555d653f2)" style="fill: #cc4977"/>
    <path d="M 127.990691 210.479068 
L 133.431992 204.552191 
L 128.158949 201.701993 
L 122.724791 207.604059 
z
" clip-path="url(#pc555d653f2)" style="fill: #46039f"/>
    <path d="M 154.928425 199.029913 
L 160.317754 193.188782 
L 154.956625 190.374555 
L 149.573957 196.191142 
z
" clip-path="url(#pc555d653f2)" style="fill: #7201a8"/>
    <path d="M 219.58408 156.59876 
L 224.895648 148.769568 
L 219.322982 146.097228 
L 214.022027 153.89796 
z
" clip-path="url(#pc555d653f2)" style="fill: #e66c5c"/>
    <path d="M 241.135367 135.050638 
L 246.441025 126.67635 
L 240.79751 124.074775 
L 235.503639 132.419513 
z
" clip-path="url(#pc555d653f2)" style="fill: #fdb22f"/>
    <path d="M 181.891048 186.431573 
L 187.238213 179.868658 
L 181.784536 177.094548 
L 176.445357 183.63148 
z
" clip-path="url(#pc555d653f2)" style="fill: #a11b9b"/>
    <path d="M 198.068115 175.834694 
L 203.396301 168.76656 
L 197.889676 166.027953 
L 192.570487 173.069111 
z
" clip-path="url(#pc555d653f2)" style="fill: #bf3984"/>
    <path d="M 138.739287 207.420903 
L 144.168267 201.826487 
L 138.854666 198.981919 
L 133.431992 204.552191 
z
" clip-path="url(#pc555d653f2)" style="fill: #5601a4"/>
    <path d="M 257.41576 121.239376 
L 262.65178 114.362962 
L 256.952423 111.799599 
L 251.724565 118.649799 
z
" clip-path="url(#pc555d653f2)" style="fill: #f6e826"/>
    <path d="M 235.822033 143.359452 
L 241.135367 135.050638 
L 235.503639 132.419513 
L 230.201957 140.698845 
z
" clip-path="url(#pc555d653f2)" style="fill: #f9983e"/>
    <path d="M 165.713717 196.021293 
L 171.089003 189.938581 
L 165.685973 187.131138 
L 160.317754 193.188782 
z
" clip-path="url(#pc555d653f2)" style="fill: #8104a7"/>
    <path d="M 214.26568 164.183175 
L 219.58408 156.59876 
L 214.022027 153.89796 
L 208.713698 161.45435 
z
" clip-path="url(#pc555d653f2)" style="fill: #da5a6a"/>
    <path d="M 122.545234 217.55492 
L 127.990691 210.479068 
L 122.724791 207.604059 
L 117.288949 214.652619 
z
" clip-path="url(#pc555d653f2)" style="fill: #310597"/>
    <path d="M 149.516422 204.689553 
L 154.928425 199.029913 
L 149.573957 196.191142 
L 144.168267 201.826487 
z
" clip-path="url(#pc555d653f2)" style="fill: #6400a7"/>
    <path d="M 230.504542 151.459281 
L 235.822033 143.359452 
L 230.201957 140.698845 
L 224.895648 148.769568 
z
" clip-path="url(#pc555d653f2)" style="fill: #f1814d"/>
    <path d="M 192.727362 182.660811 
L 198.068115 175.834694 
L 192.570487 173.069111 
L 187.238213 179.868658 
z
" clip-path="url(#pc555d653f2)" style="fill: #b02991"/>
    <path d="M 252.121237 129.294841 
L 257.41576 121.239376 
L 251.724565 118.649799 
L 246.441025 126.67635 
z
" clip-path="url(#pc555d653f2)" style="fill: #fcce25"/>
    <path d="M 117.118191 226.614669 
L 122.545234 217.55492 
L 117.288949 214.652619 
L 111.875735 223.680935 
z
" clip-path="url(#pc555d653f2)" style="fill: #0d0887"/>
    <path d="M 176.527186 192.76429 
L 181.891048 186.431573 
L 176.445357 183.63148 
L 171.089003 189.938581 
z
" clip-path="url(#pc555d653f2)" style="fill: #910ea3"/>
    <path d="M 208.938748 171.522982 
L 214.26568 164.183175 
L 208.713698 161.45435 
L 203.396301 168.76656 
z
" clip-path="url(#pc555d653f2)" style="fill: #cc4977"/>
    <path d="M 133.290866 213.372791 
L 138.739287 207.420903 
L 133.431992 204.552191 
L 127.990691 210.479068 
z
" clip-path="url(#pc555d653f2)" style="fill: #46039f"/>
    <path d="M 160.317754 201.887165 
L 165.713717 196.021293 
L 160.317754 193.188782 
L 154.928425 199.029913 
z
" clip-path="url(#pc555d653f2)" style="fill: #7201a8"/>
    <path d="M 225.182336 159.317139 
L 230.504542 151.459281 
L 224.895648 148.769568 
L 219.58408 156.59876 
z
" clip-path="url(#pc555d653f2)" style="fill: #e66c5c"/>
    <path d="M 246.80375 137.698889 
L 252.121237 129.294841 
L 246.441025 126.67635 
L 241.135367 135.050638 
z
" clip-path="url(#pc555d653f2)" style="fill: #fdb22f"/>
    <path d="M 187.37222 189.249909 
L 192.727362 182.660811 
L 187.238213 179.868658 
L 181.891048 186.431573 
z
" clip-path="url(#pc555d653f2)" style="fill: #a11b9b"/>
    <path d="M 203.601559 178.618294 
L 208.938748 171.522982 
L 203.396301 168.76656 
L 198.068115 175.834694 
z
" clip-path="url(#pc555d653f2)" style="fill: #bf3984"/>
    <path d="M 144.08117 210.30831 
L 149.516422 204.689553 
L 144.168267 201.826487 
L 138.739287 207.420903 
z
" clip-path="url(#pc555d653f2)" style="fill: #5601a4"/>
    <path d="M 241.478725 146.037394 
L 246.80375 137.698889 
L 241.135367 135.050638 
L 235.822033 143.359452 
z
" clip-path="url(#pc555d653f2)" style="fill: #f9983e"/>
    <path d="M 171.144853 198.872269 
L 176.527186 192.76429 
L 171.089003 189.938581 
L 165.713717 196.021293 
z
" clip-path="url(#pc555d653f2)" style="fill: #8104a7"/>
    <path d="M 219.853844 166.929784 
L 225.182336 159.317139 
L 219.58408 156.59876 
L 214.26568 164.183175 
z
" clip-path="url(#pc555d653f2)" style="fill: #da5a6a"/>
    <path d="M 127.835783 220.47614 
L 133.290866 213.372791 
L 127.990691 210.479068 
L 122.545234 217.55492 
z
" clip-path="url(#pc555d653f2)" style="fill: #310597"/>
    <path d="M 154.899471 207.571298 
L 160.317754 201.887165 
L 154.928425 199.029913 
L 149.516422 204.689553 
z
" clip-path="url(#pc555d653f2)" style="fill: #6400a7"/>
    <path d="M 236.150018 154.166536 
L 241.478725 146.037394 
L 235.822033 143.359452 
L 230.504542 151.459281 
z
" clip-path="url(#pc555d653f2)" style="fill: #f1814d"/>
    <path d="M 198.252329 185.471185 
L 203.601559 178.618294 
L 198.068115 175.834694 
L 192.727362 182.660811 
z
" clip-path="url(#pc555d653f2)" style="fill: #b02991"/>
    <path d="M 122.394846 229.567542 
L 127.835783 220.47614 
L 122.545234 217.55492 
L 117.118191 226.614669 
z
" clip-path="url(#pc555d653f2)" style="fill: #0d0887"/>
    <path d="M 182.000866 195.608442 
L 187.37222 189.249909 
L 181.891048 186.431573 
L 176.527186 192.76429 
z
" clip-path="url(#pc555d653f2)" style="fill: #910ea3"/>
    <path d="M 214.517365 174.297393 
L 219.853844 166.929784 
L 214.26568 164.183175 
L 208.938748 171.522982 
z
" clip-path="url(#pc555d653f2)" style="fill: #cc4977"/>
    <path d="M 138.62565 216.285409 
L 144.08117 210.30831 
L 138.739287 207.420903 
L 133.290866 213.372791 
z
" clip-path="url(#pc555d653f2)" style="fill: #46039f"/>
    <path d="M 165.742285 204.763081 
L 171.144853 198.872269 
L 165.713717 196.021293 
L 160.317754 201.887165 
z
" clip-path="url(#pc555d653f2)" style="fill: #7201a8"/>
    <path d="M 230.817147 162.05327 
L 236.150018 154.166536 
L 230.504542 151.459281 
L 225.182336 159.317139 
z
" clip-path="url(#pc555d653f2)" style="fill: #e66c5c"/>
    <path d="M 192.88922 192.086668 
L 198.252329 185.471185 
L 192.727362 182.660811 
L 187.37222 189.249909 
z
" clip-path="url(#pc555d653f2)" style="fill: #a11b9b"/>
    <path d="M 209.171171 181.420089 
L 214.517365 174.297393 
L 208.938748 171.522982 
L 203.601559 178.618294 
z
" clip-path="url(#pc555d653f2)" style="fill: #bf3984"/>
    <path d="M 149.457978 213.214595 
L 154.899471 207.571298 
L 149.516422 204.689553 
L 144.08117 210.30831 
z
" clip-path="url(#pc555d653f2)" style="fill: #5601a4"/>
    <path d="M 176.611508 201.741889 
L 182.000866 195.608442 
L 176.527186 192.76429 
L 171.144853 198.872269 
z
" clip-path="url(#pc555d653f2)" style="fill: #8104a7"/>
    <path d="M 225.478546 169.694351 
L 230.817147 162.05327 
L 225.182336 159.317139 
L 219.853844 166.929784 
z
" clip-path="url(#pc555d653f2)" style="fill: #da5a6a"/>
    <path d="M 133.160931 223.416465 
L 138.62565 216.285409 
L 133.290866 213.372791 
L 127.835783 220.47614 
z
" clip-path="url(#pc555d653f2)" style="fill: #310597"/>
    <path d="M 160.317754 210.471906 
L 165.742285 204.763081 
L 160.317754 201.887165 
L 154.899471 207.571298 
z
" clip-path="url(#pc555d653f2)" style="fill: #6400a7"/>
    <path d="M 203.813467 188.299957 
L 209.171171 181.420089 
L 203.601559 178.618294 
L 198.252329 185.471185 
z
" clip-path="url(#pc555d653f2)" style="fill: #b02991"/>
    <path d="M 127.706036 232.53974 
L 133.160931 223.416465 
L 127.835783 220.47614 
L 122.394846 229.567542 
z
" clip-path="url(#pc555d653f2)" style="fill: #0d0887"/>
    <path d="M 187.51039 198.47122 
L 192.88922 192.086668 
L 187.37222 189.249909 
L 182.000866 195.608442 
z
" clip-path="url(#pc555d653f2)" style="fill: #910ea3"/>
    <path d="M 220.13251 177.089969 
L 225.478546 169.694351 
L 219.853844 166.929784 
L 214.517365 174.297393 
z
" clip-path="url(#pc555d653f2)" style="fill: #cc4977"/>
    <path d="M 143.995384 219.217109 
L 149.457978 213.214595 
L 144.08117 210.30831 
L 138.62565 216.285409 
z
" clip-path="url(#pc555d653f2)" style="fill: #46039f"/>
    <path d="M 171.202363 207.657843 
L 176.611508 201.741889 
L 171.144853 198.872269 
L 165.742285 204.763081 
z
" clip-path="url(#pc555d653f2)" style="fill: #7201a8"/>
    <path d="M 198.442401 194.942031 
L 203.813467 188.299957 
L 198.252329 185.471185 
L 192.88922 192.086668 
z
" clip-path="url(#pc555d653f2)" style="fill: #a11b9b"/>
    <path d="M 214.777305 184.240256 
L 220.13251 177.089969 
L 214.517365 174.297393 
L 209.171171 181.420089 
z
" clip-path="url(#pc555d653f2)" style="fill: #bf3984"/>
    <path d="M 154.870057 216.139945 
L 160.317754 210.471906 
L 154.899471 207.571298 
L 149.457978 213.214595 
z
" clip-path="url(#pc555d653f2)" style="fill: #5601a4"/>
    <path d="M 182.114032 204.630338 
L 187.51039 198.47122 
L 182.000866 195.608442 
L 176.611508 201.741889 
z
" clip-path="url(#pc555d653f2)" style="fill: #8104a7"/>
    <path d="M 138.521021 226.376082 
L 143.995384 219.217109 
L 138.62565 216.285409 
L 133.160931 223.416465 
z
" clip-path="url(#pc555d653f2)" style="fill: #310597"/>
    <path d="M 165.77162 213.391563 
L 171.202363 207.657843 
L 165.742285 204.763081 
L 160.317754 210.471906 
z
" clip-path="url(#pc555d653f2)" style="fill: #6400a7"/>
    <path d="M 209.411131 191.147309 
L 214.777305 184.240256 
L 209.171171 181.420089 
L 203.813467 188.299957 
z
" clip-path="url(#pc555d653f2)" style="fill: #b02991"/>
    <path d="M 133.052099 235.531454 
L 138.521021 226.376082 
L 133.160931 223.416465 
L 127.706036 232.53974 
z
" clip-path="url(#pc555d653f2)" style="fill: #0d0887"/>
    <path d="M 193.056113 201.352807 
L 198.442401 194.942031 
L 192.88922 192.086668 
L 187.51039 198.47122 
z
" clip-path="url(#pc555d653f2)" style="fill: #910ea3"/>
    <path d="M 149.400412 222.168079 
L 154.870057 216.139945 
L 149.457978 213.214595 
L 143.995384 219.217109 
z
" clip-path="url(#pc555d653f2)" style="fill: #46039f"/>
    <path d="M 176.69834 210.571637 
L 182.114032 204.630338 
L 176.611508 201.741889 
L 171.202363 207.657843 
z
" clip-path="url(#pc555d653f2)" style="fill: #7201a8"/>
    <path d="M 204.03212 197.81618 
L 209.411131 191.147309 
L 203.813467 188.299957 
L 198.442401 194.942031 
z
" clip-path="url(#pc555d653f2)" style="fill: #a11b9b"/>
    <path d="M 160.317754 219.084547 
L 165.77162 213.391563 
L 160.317754 210.471906 
L 154.870057 216.139945 
z
" clip-path="url(#pc555d653f2)" style="fill: #5601a4"/>
    <path d="M 187.652778 207.537801 
L 193.056113 201.352807 
L 187.51039 198.47122 
L 182.114032 204.630338 
z
" clip-path="url(#pc555d653f2)" style="fill: #8104a7"/>
    <path d="M 143.916396 229.355183 
L 149.400412 222.168079 
L 143.995384 219.217109 
L 138.521021 226.376082 
z
" clip-path="url(#pc555d653f2)" style="fill: #310597"/>
    <path d="M 171.26142 216.330457 
L 176.69834 210.571637 
L 171.202363 207.657843 
L 165.77162 213.391563 
z
" clip-path="url(#pc555d653f2)" style="fill: #6400a7"/>
    <path d="M 138.433382 238.542877 
L 143.916396 229.355183 
L 138.521021 226.376082 
L 133.052099 235.531454 
z
" clip-path="url(#pc555d653f2)" style="fill: #0d0887"/>
    <path d="M 198.638391 204.253388 
L 204.03212 197.81618 
L 198.442401 194.942031 
L 193.056113 201.352807 
z
" clip-path="url(#pc555d653f2)" style="fill: #910ea3"/>
    <path d="M 154.841084 225.138509 
L 160.317754 219.084547 
L 154.870057 216.139945 
L 149.400412 222.168079 
z
" clip-path="url(#pc555d653f2)" style="fill: #46039f"/>
    <path d="M 182.23057 213.504652 
L 187.652778 207.537801 
L 182.114032 204.630338 
L 176.69834 210.571637 
z
" clip-path="url(#pc555d653f2)" style="fill: #7201a8"/>
    <path d="M 165.801422 222.048593 
L 171.26142 216.330457 
L 165.77162 213.391563 
L 160.317754 219.084547 
z
" clip-path="url(#pc555d653f2)" style="fill: #5601a4"/>
    <path d="M 193.228106 210.464467 
L 198.638391 204.253388 
L 193.056113 201.352807 
L 187.652778 207.537801 
z
" clip-path="url(#pc555d653f2)" style="fill: #8104a7"/>
    <path d="M 149.347406 232.35396 
L 154.841084 225.138509 
L 149.400412 222.168079 
L 143.916396 229.355183 
z
" clip-path="url(#pc555d653f2)" style="fill: #310597"/>
    <path d="M 176.78751 219.288777 
L 182.23057 213.504652 
L 176.69834 210.571637 
L 171.26142 216.330457 
z
" clip-path="url(#pc555d653f2)" style="fill: #6400a7"/>
    <path d="M 143.850232 241.574204 
L 149.347406 232.35396 
L 143.916396 229.355183 
L 138.433382 238.542877 
z
" clip-path="url(#pc555d653f2)" style="fill: #0d0887"/>
    <path d="M 160.317754 228.128592 
L 165.801422 222.048593 
L 160.317754 219.084547 
L 154.841084 225.138509 
z
" clip-path="url(#pc555d653f2)" style="fill: #46039f"/>
    <path d="M 187.799414 216.457078 
L 193.228106 210.464467 
L 187.652778 207.537801 
L 182.23057 213.504652 
z
" clip-path="url(#pc555d653f2)" style="fill: #7201a8"/>
    <path d="M 171.321418 225.032274 
L 176.78751 219.288777 
L 171.26142 216.330457 
L 165.801422 222.048593 
z
" clip-path="url(#pc555d653f2)" style="fill: #5601a4"/>
    <path d="M 154.814406 235.372609 
L 160.317754 228.128592 
L 154.841084 225.138509 
L 149.347406 232.35396 
z
" clip-path="url(#pc555d653f2)" style="fill: #310597"/>
    <path d="M 182.350251 222.266719 
L 187.799414 216.457078 
L 182.23057 213.504652 
L 176.78751 219.288777 
z
" clip-path="url(#pc555d653f2)" style="fill: #6400a7"/>
    <path d="M 149.303005 244.625634 
L 154.814406 235.372609 
L 149.347406 232.35396 
L 143.850232 241.574204 
z
" clip-path="url(#pc555d653f2)" style="fill: #0d0887"/>
    <path d="M 165.83078 231.138524 
L 171.321418 225.032274 
L 165.801422 222.048593 
L 160.317754 228.128592 
z
" clip-path="url(#pc555d653f2)" style="fill: #46039f"/>
    <path d="M 176.878105 228.035788 
L 182.350251 222.266719 
L 176.78751 219.288777 
L 171.321418 225.032274 
z
" clip-path="url(#pc555d653f2)" style="fill: #5601a4"/>
    <path d="M 160.317754 238.411328 
L 165.83078 231.138524 
L 160.317754 228.128592 
L 154.814406 235.372609 
z
" clip-path="url(#pc555d653f2)" style="fill: #310597"/>
    <path d="M 154.792058 247.697367 
L 160.317754 238.411328 
L 154.814406 235.372609 
L 149.303005 244.625634 
z
" clip-path="url(#pc555d653f2)" style="fill: #0d0887"/>
    <path d="M 171.380524 234.168504 
L 176.878105 228.035788 
L 171.321418 225.032274 
L 165.83078 231.138524 
z
" clip-path="url(#pc555d653f2)" style="fill: #46039f"/>
    <path d="M 165.857814 241.470317 
L 171.380524 234.168504 
L 165.83078 231.138524 
L 160.317754 238.411328 
z
" clip-path="url(#pc555d653f2)" style="fill: #310597"/>
    <path d="M 160.317754 250.789605 
L 165.857814 241.470317 
L 160.317754 238.411328 
L 154.792058 247.697367 
z
" clip-path="url(#pc555d653f2)" style="fill: #0d0887"/>
   </g>
   <g id="text_19">
    <!-- t = 0.3c -->
    <g transform="translate(132.686959 16.318125) scale(0.12 -0.12)">
     <defs>
      <path id="DejaVuSans-74" d="M 1172 4494 
L 1172 3500 
L 2356 3500 
L 2356 3053 
L 1172 3053 
L 1172 1153 
Q 1172 725 1289 603 
Q 1406 481 1766 481 
L 2356 481 
L 2356 0 
L 1766 0 
Q 1100 0 847 248 
Q 594 497 594 1153 
L 594 3053 
L 172 3053 
L 172 3500 
L 594 3500 
L 594 4494 
L 1172 4494 
z
" transform="scale(0.015625)"/>
      <path id="DejaVuSans-20" transform="scale(0.015625)"/>
      <path id="DejaVuSans-3d" d="M 678 2906 
L 4684 2906 
L 4684 2381 
L 678 2381 
L 678 2906 
z
M 678 1631 
L 4684 1631 
L 4684 1100 
L 678 1100 
L 678 1631 
z
" transform="scale(0.015625)"/>
      <path id="DejaVuSans-33" d="M 2597 2516 
Q 3050 2419 3304 2112 
Q 3559 1806 3559 1356 
Q 3559 666 3084 287 
Q 2609 -91 1734 -91 
Q 1441 -91 1130 -33 
Q 819 25 488 141 
L 488 750 
Q 750 597 1062 519 
Q 1375 441 1716 441 
Q 2309 441 2620 675 
Q 2931 909 2931 1356 
Q 2931 1769 2642 2001 
Q 2353 2234 1838 2234 
L 1294 2234 
L 1294 2753 
L 1863 2753 
Q 2328 2753 2575 2939 
Q 2822 3125 2822 3475 
Q 2822 3834 2567 4026 
Q 2313 4219 1838 4219 
Q 1578 4219 1281 4162 
Q 984 4106 628 3988 
L 628 4550 
Q 988 4650 1302 4700 
Q 1616 4750 1894 4750 
Q 2613 4750 3031 4423 
Q 3450 4097 3450 3541 
Q 3450 3153 3228 2886 
Q 3006 2619 2597 2516 
z
" transform="scale(0.015625)"/>
      <path id="DejaVuSans-63" d="M 3122 3366 
L 3122 2828 
Q 2878 2963 2633 3030 
Q 2388 3097 2138 3097 
Q 1578 3097 1268 2742 
Q 959 2388 959 1747 
Q 959 1106 1268 751 
Q 1578 397 2138 397 
Q 2388 397 2633 464 
Q 2878 531 3122 666 
L 3122 134 
Q 2881 22 2623 -34 
Q 2366 -91 2075 -91 
Q 1284 -91 818 406 
Q 353 903 353 1747 
Q 353 2603 823 3093 
Q 1294 3584 2113 3584 
Q 2378 3584 2631 3529 
Q 2884 3475 3122 3366 
z
" transform="scale(0.015625)"/>
     </defs>
     <use xlink:href="#DejaVuSans-74"/>
     <use xlink:href="#DejaVuSans-20" x="39.208984"/>
     <use xlink:href="#DejaVuSans-3d" x="70.996094"/>
     <use xlink:href="#DejaVuSans-20" x="154.785156"/>
     <use xlink:href="#DejaVuSans-30" x="186.572266"/>
     <use xlink:href="#DejaVuSans-2e" x="250.195312"/>
     <use xlink:href="#DejaVuSans-33" x="281.982422"/>
     <use xlink:href="#DejaVuSans-63" x="345.605469"/>
    </g>
   </g>
  </g>
 </g>
 <defs>
  <clipPath id="pc555d653f2">
   <rect x="23.665646" y="22.318125" width="266.112" height="266.112"/>
  </clipPath>
 </defs>
</svg>
