<?xml version="1.0" encoding="utf-8" standalone="no"?>
<!DOCTYPE svg PUBLIC "-//W3C//DTD SVG 1.1//EN"
  "http://www.w3.org/Graphics/SVG/1.1/DTD/svg11.dtd">
<svg xmlns:xlink="http://www.w3.org/1999/xlink" width="297.033449pt" height="301.632874pt" viewBox="0 0 297.033449 301.632874" xmlns="http://www.w3.org/2000/svg" version="1.1">
 <metadata>
  <rdf:RDF xmlns:dc="http://purl.org/dc/elements/1.1/" xmlns:cc="http://creativecommons.org/ns#" xmlns:rdf="http://www.w3.org/1999/02/22-rdf-syntax-ns#">
   <cc:Work>
    <dc:type rdf:resource="http://purl.org/dc/dcmitype/StillImage"/>
    <dc:date>2023-06-13T03:34:35.972550</dc:date>
    <dc:format>image/svg+xml</dc:format>
    <dc:creator>
     <cc:Agent>
      <dc:title>Matplotlib v3.6.1, https://matplotlib.org/</dc:title>
     </cc:Agent>
    </dc:creator>
   </cc:Work>
  </rdf:RDF>
 </metadata>
 <defs>
  <style type="text/css">*{stroke-linejoin: round; stroke-linecap: butt}</style>
 </defs>
 <g id="figure_1">
  <g id="patch_1">
   <path d="M 0 301.632874 
L 297.033449 301.632874 
L 297.033449 0 
L 0 0 
z
" style="fill: #ffffff"/>
  </g>
  <g id="patch_2">
   <path d="M 23.665646 288.430125 
L 289.777646 288.430125 
L 289.777646 22.318125 
L 23.665646 22.318125 
z
" style="fill: #ffffff"/>
  </g>
  <g id="pane3d_1">
   <g id="patch_3">
    <path d="M 278.761186 206.176637 
L 160.317754 147.275961 
L 160.317754 41.213854 
L 284.169562 94.895442 
" style="fill: #f2f2f2; opacity: 0.5; stroke: #f2f2f2; stroke-linejoin: miter"/>
   </g>
  </g>
  <g id="pane3d_2">
   <g id="patch_4">
    <path d="M 41.874322 206.176637 
L 160.317754 147.275961 
L 160.317754 41.213854 
L 36.465946 94.895442 
" style="fill: #e6e6e6; opacity: 0.5; stroke: #e6e6e6; stroke-linejoin: miter"/>
   </g>
  </g>
  <g id="pane3d_3">
   <g id="patch_5">
    <path d="M 160.317754 274.122723 
L 278.761186 206.176637 
L 160.317754 147.275961 
L 41.874322 206.176637 
" style="fill: #ececec; opacity: 0.5; stroke: #ececec; stroke-linejoin: miter"/>
   </g>
  </g>
  <g id="axis3d_1">
   <g id="line2d_1">
    <path d="M 278.761186 206.176637 
L 160.317754 274.122723 
" style="fill: none; stroke: #000000; stroke-width: 0.8; stroke-linecap: square"/>
   </g>
   <g id="text_1">
    <!-- X -->
    <g transform="translate(240.892539 273.696013) scale(0.1 -0.1)">
     <defs>
      <path id="DejaVuSans-58" d="M 403 4666 
L 1081 4666 
L 2241 2931 
L 3406 4666 
L 4084 4666 
L 2584 2425 
L 4184 0 
L 3506 0 
L 2194 1984 
L 872 0 
L 191 0 
L 1856 2491 
L 403 4666 
z
" transform="scale(0.015625)"/>
     </defs>
     <use xlink:href="#DejaVuSans-58"/>
    </g>
   </g>
   <g id="Line3DCollection_1">
    <path d="M 168.394353 269.489513 
L 49.912638 202.179267 
L 44.895117 91.241952 
" style="fill: none; stroke: #b0b0b0; stroke-width: 0.8"/>
    <path d="M 195.499018 253.94069 
L 76.929634 188.743998 
L 73.200325 78.973512 
" style="fill: none; stroke: #b0b0b0; stroke-width: 0.8"/>
    <path d="M 221.729083 238.893589 
L 103.134886 175.712401 
L 100.617646 67.089912 
" style="fill: none; stroke: #b0b0b0; stroke-width: 0.8"/>
    <path d="M 247.12621 224.324311 
L 128.564436 163.066553 
L 127.188212 55.573325 
" style="fill: none; stroke: #b0b0b0; stroke-width: 0.8"/>
    <path d="M 271.729451 210.210451 
L 153.252223 150.789575 
L 152.950652 44.407006 
" style="fill: none; stroke: #b0b0b0; stroke-width: 0.8"/>
   </g>
   <g id="xtick_1">
    <g id="line2d_2">
     <path d="M 167.374695 268.910238 
L 170.437413 270.650189 
" style="fill: none; stroke: #000000; stroke-width: 0.8; stroke-linecap: square"/>
    </g>
    <g id="text_2">
     <!-- 0.0 -->
     <g transform="translate(171.019345 292.353187) scale(0.1 -0.1)">
      <defs>
       <path id="DejaVuSans-30" d="M 2034 4250 
Q 1547 4250 1301 3770 
Q 1056 3291 1056 2328 
Q 1056 1369 1301 889 
Q 1547 409 2034 409 
Q 2525 409 2770 889 
Q 3016 1369 3016 2328 
Q 3016 3291 2770 3770 
Q 2525 4250 2034 4250 
z
M 2034 4750 
Q 2819 4750 3233 4129 
Q 3647 3509 3647 2328 
Q 3647 1150 3233 529 
Q 2819 -91 2034 -91 
Q 1250 -91 836 529 
Q 422 1150 422 2328 
Q 422 3509 836 4129 
Q 1250 4750 2034 4750 
z
" transform="scale(0.015625)"/>
       <path id="DejaVuSans-2e" d="M 684 794 
L 1344 794 
L 1344 0 
L 684 0 
L 684 794 
z
" transform="scale(0.015625)"/>
      </defs>
      <use xlink:href="#DejaVuSans-30"/>
      <use xlink:href="#DejaVuSans-2e" x="63.623047"/>
      <use xlink:href="#DejaVuSans-30" x="95.410156"/>
     </g>
    </g>
   </g>
   <g id="xtick_2">
    <g id="line2d_3">
     <path d="M 194.479783 253.380253 
L 197.541168 255.06359 
" style="fill: none; stroke: #000000; stroke-width: 0.8; stroke-linecap: square"/>
    </g>
    <g id="text_3">
     <!-- 0.5 -->
     <g transform="translate(198.015831 276.515757) scale(0.1 -0.1)">
      <defs>
       <path id="DejaVuSans-35" d="M 691 4666 
L 3169 4666 
L 3169 4134 
L 1269 4134 
L 1269 2991 
Q 1406 3038 1543 3061 
Q 1681 3084 1819 3084 
Q 2600 3084 3056 2656 
Q 3513 2228 3513 1497 
Q 3513 744 3044 326 
Q 2575 -91 1722 -91 
Q 1428 -91 1123 -41 
Q 819 9 494 109 
L 494 744 
Q 775 591 1075 516 
Q 1375 441 1709 441 
Q 2250 441 2565 725 
Q 2881 1009 2881 1497 
Q 2881 1984 2565 2268 
Q 2250 2553 1709 2553 
Q 1456 2553 1204 2497 
Q 953 2441 691 2322 
L 691 4666 
z
" transform="scale(0.015625)"/>
      </defs>
      <use xlink:href="#DejaVuSans-30"/>
      <use xlink:href="#DejaVuSans-2e" x="63.623047"/>
      <use xlink:href="#DejaVuSans-35" x="95.410156"/>
     </g>
    </g>
   </g>
   <g id="xtick_3">
    <g id="line2d_4">
     <path d="M 220.710775 238.351085 
L 223.769318 239.980527 
" style="fill: none; stroke: #000000; stroke-width: 0.8; stroke-linecap: square"/>
    </g>
    <g id="text_4">
     <!-- 1.0 -->
     <g transform="translate(224.139131 261.190579) scale(0.1 -0.1)">
      <defs>
       <path id="DejaVuSans-31" d="M 794 531 
L 1825 531 
L 1825 4091 
L 703 3866 
L 703 4441 
L 1819 4666 
L 2450 4666 
L 2450 531 
L 3481 531 
L 3481 0 
L 794 0 
L 794 531 
z
" transform="scale(0.015625)"/>
      </defs>
      <use xlink:href="#DejaVuSans-31"/>
      <use xlink:href="#DejaVuSans-2e" x="63.623047"/>
      <use xlink:href="#DejaVuSans-30" x="95.410156"/>
     </g>
    </g>
   </g>
   <g id="xtick_4">
    <g id="line2d_5">
     <path d="M 246.109283 223.798892 
L 249.163618 225.376987 
" style="fill: none; stroke: #000000; stroke-width: 0.8; stroke-linecap: square"/>
    </g>
    <g id="text_5">
     <!-- 1.5 -->
     <g transform="translate(249.430937 246.353196) scale(0.1 -0.1)">
      <use xlink:href="#DejaVuSans-31"/>
      <use xlink:href="#DejaVuSans-2e" x="63.623047"/>
      <use xlink:href="#DejaVuSans-35" x="95.410156"/>
     </g>
    </g>
   </g>
   <g id="xtick_5">
    <g id="line2d_6">
     <path d="M 270.714319 209.701323 
L 273.763212 211.23046 
" style="fill: none; stroke: #000000; stroke-width: 0.8; stroke-linecap: square"/>
    </g>
    <g id="text_6">
     <!-- 2.0 -->
     <g transform="translate(273.930324 231.980683) scale(0.1 -0.1)">
      <defs>
       <path id="DejaVuSans-32" d="M 1228 531 
L 3431 531 
L 3431 0 
L 469 0 
L 469 531 
Q 828 903 1448 1529 
Q 2069 2156 2228 2338 
Q 2531 2678 2651 2914 
Q 2772 3150 2772 3378 
Q 2772 3750 2511 3984 
Q 2250 4219 1831 4219 
Q 1534 4219 1204 4116 
Q 875 4013 500 3803 
L 500 4441 
Q 881 4594 1212 4672 
Q 1544 4750 1819 4750 
Q 2544 4750 2975 4387 
Q 3406 4025 3406 3419 
Q 3406 3131 3298 2873 
Q 3191 2616 2906 2266 
Q 2828 2175 2409 1742 
Q 1991 1309 1228 531 
z
" transform="scale(0.015625)"/>
      </defs>
      <use xlink:href="#DejaVuSans-32"/>
      <use xlink:href="#DejaVuSans-2e" x="63.623047"/>
      <use xlink:href="#DejaVuSans-30" x="95.410156"/>
     </g>
    </g>
   </g>
  </g>
  <g id="axis3d_2">
   <g id="line2d_7">
    <path d="M 41.874322 206.176637 
L 160.317754 274.122723 
" style="fill: none; stroke: #000000; stroke-width: 0.8; stroke-linecap: square"/>
   </g>
   <g id="text_7">
    <!-- Y -->
    <g transform="translate(73.264063 273.696013) scale(0.1 -0.1)">
     <defs>
      <path id="DejaVuSans-59" d="M -13 4666 
L 666 4666 
L 1959 2747 
L 3244 4666 
L 3922 4666 
L 2272 2222 
L 2272 0 
L 1638 0 
L 1638 2222 
L -13 4666 
z
" transform="scale(0.015625)"/>
     </defs>
     <use xlink:href="#DejaVuSans-59"/>
    </g>
   </g>
   <g id="Line3DCollection_2">
    <path d="M 275.740391 91.241952 
L 270.72287 202.179267 
L 152.241155 269.489513 
" style="fill: none; stroke: #b0b0b0; stroke-width: 0.8"/>
    <path d="M 247.435183 78.973512 
L 243.705874 188.743998 
L 125.136491 253.94069 
" style="fill: none; stroke: #b0b0b0; stroke-width: 0.8"/>
    <path d="M 220.017862 67.089912 
L 217.500622 175.712401 
L 98.906425 238.893589 
" style="fill: none; stroke: #b0b0b0; stroke-width: 0.8"/>
    <path d="M 193.447297 55.573325 
L 192.071073 163.066553 
L 73.509299 224.324311 
" style="fill: none; stroke: #b0b0b0; stroke-width: 0.8"/>
    <path d="M 167.684856 44.407006 
L 167.383285 150.789575 
L 48.906057 210.210451 
" style="fill: none; stroke: #b0b0b0; stroke-width: 0.8"/>
   </g>
   <g id="xtick_6">
    <g id="line2d_8">
     <path d="M 153.260813 268.910238 
L 150.198095 270.650189 
" style="fill: none; stroke: #000000; stroke-width: 0.8; stroke-linecap: square"/>
    </g>
    <g id="text_8">
     <!-- 0.0 -->
     <g transform="translate(133.713038 292.353187) scale(0.1 -0.1)">
      <use xlink:href="#DejaVuSans-30"/>
      <use xlink:href="#DejaVuSans-2e" x="63.623047"/>
      <use xlink:href="#DejaVuSans-30" x="95.410156"/>
     </g>
    </g>
   </g>
   <g id="xtick_7">
    <g id="line2d_9">
     <path d="M 126.155725 253.380253 
L 123.09434 255.06359 
" style="fill: none; stroke: #000000; stroke-width: 0.8; stroke-linecap: square"/>
    </g>
    <g id="text_9">
     <!-- 0.5 -->
     <g transform="translate(106.716553 276.515757) scale(0.1 -0.1)">
      <use xlink:href="#DejaVuSans-30"/>
      <use xlink:href="#DejaVuSans-2e" x="63.623047"/>
      <use xlink:href="#DejaVuSans-35" x="95.410156"/>
     </g>
    </g>
   </g>
   <g id="xtick_8">
    <g id="line2d_10">
     <path d="M 99.924733 238.351085 
L 96.86619 239.980527 
" style="fill: none; stroke: #000000; stroke-width: 0.8; stroke-linecap: square"/>
    </g>
    <g id="text_10">
     <!-- 1.0 -->
     <g transform="translate(80.593252 261.190579) scale(0.1 -0.1)">
      <use xlink:href="#DejaVuSans-31"/>
      <use xlink:href="#DejaVuSans-2e" x="63.623047"/>
      <use xlink:href="#DejaVuSans-30" x="95.410156"/>
     </g>
    </g>
   </g>
   <g id="xtick_9">
    <g id="line2d_11">
     <path d="M 74.526225 223.798892 
L 71.47189 225.376987 
" style="fill: none; stroke: #000000; stroke-width: 0.8; stroke-linecap: square"/>
    </g>
    <g id="text_11">
     <!-- 1.5 -->
     <g transform="translate(55.301447 246.353196) scale(0.1 -0.1)">
      <use xlink:href="#DejaVuSans-31"/>
      <use xlink:href="#DejaVuSans-2e" x="63.623047"/>
      <use xlink:href="#DejaVuSans-35" x="95.410156"/>
     </g>
    </g>
   </g>
   <g id="xtick_10">
    <g id="line2d_12">
     <path d="M 49.92119 209.701323 
L 46.872297 211.23046 
" style="fill: none; stroke: #000000; stroke-width: 0.8; stroke-linecap: square"/>
    </g>
    <g id="text_12">
     <!-- 2.0 -->
     <g transform="translate(30.802059 231.980683) scale(0.1 -0.1)">
      <use xlink:href="#DejaVuSans-32"/>
      <use xlink:href="#DejaVuSans-2e" x="63.623047"/>
      <use xlink:href="#DejaVuSans-30" x="95.410156"/>
     </g>
    </g>
   </g>
  </g>
  <g id="axis3d_3">
   <g id="line2d_13">
    <path d="M 41.874322 206.176637 
L 36.465946 94.895442 
" style="fill: none; stroke: #000000; stroke-width: 0.8; stroke-linecap: square"/>
   </g>
   <g id="text_13">
    <!-- Z -->
    <g transform="translate(-7.876777 154.537392) scale(0.1 -0.1)">
     <defs>
      <path id="DejaVuSans-5a" d="M 359 4666 
L 4025 4666 
L 4025 4184 
L 1075 531 
L 4097 531 
L 4097 0 
L 288 0 
L 288 481 
L 3238 4134 
L 359 4134 
L 359 4666 
z
" transform="scale(0.015625)"/>
     </defs>
     <use xlink:href="#DejaVuSans-5a"/>
    </g>
   </g>
   <g id="Line3DCollection_3">
    <path d="M 41.770787 204.046341 
L 160.317754 145.239524 
L 278.864721 204.046341 
" style="fill: none; stroke: #b0b0b0; stroke-width: 0.8"/>
    <path d="M 40.655051 181.089273 
L 160.317754 123.308943 
L 279.980457 181.089273 
" style="fill: none; stroke: #b0b0b0; stroke-width: 0.8"/>
    <path d="M 39.518114 157.695967 
L 160.317754 100.989882 
L 281.117395 157.695967 
" style="fill: none; stroke: #b0b0b0; stroke-width: 0.8"/>
    <path d="M 38.359364 133.853867 
L 160.317754 78.271927 
L 282.276144 133.853867 
" style="fill: none; stroke: #b0b0b0; stroke-width: 0.8"/>
    <path d="M 37.178169 109.549936 
L 160.317754 55.144287 
L 283.457339 109.549936 
" style="fill: none; stroke: #b0b0b0; stroke-width: 0.8"/>
   </g>
   <g id="xtick_11">
    <g id="line2d_14">
     <path d="M 42.786271 203.542597 
L 39.736338 205.055557 
" style="fill: none; stroke: #000000; stroke-width: 0.8; stroke-linecap: square"/>
    </g>
    <g id="text_14">
     <!-- 20 -->
     <g transform="translate(15.735991 211.644779) scale(0.1 -0.1)">
      <use xlink:href="#DejaVuSans-32"/>
      <use xlink:href="#DejaVuSans-30" x="63.623047"/>
     </g>
    </g>
   </g>
   <g id="xtick_12">
    <g id="line2d_15">
     <path d="M 41.680729 180.594014 
L 38.600144 182.081506 
" style="fill: none; stroke: #000000; stroke-width: 0.8; stroke-linecap: square"/>
    </g>
    <g id="text_15">
     <!-- 40 -->
     <g transform="translate(14.435104 188.687711) scale(0.1 -0.1)">
      <defs>
       <path id="DejaVuSans-34" d="M 2419 4116 
L 825 1625 
L 2419 1625 
L 2419 4116 
z
M 2253 4666 
L 3047 4666 
L 3047 1625 
L 3713 1625 
L 3713 1100 
L 3047 1100 
L 3047 0 
L 2419 0 
L 2419 1100 
L 313 1100 
L 313 1709 
L 2253 4666 
z
" transform="scale(0.015625)"/>
      </defs>
      <use xlink:href="#DejaVuSans-34"/>
      <use xlink:href="#DejaVuSans-30" x="63.623047"/>
     </g>
    </g>
   </g>
   <g id="xtick_13">
    <g id="line2d_16">
     <path d="M 40.554192 157.209608 
L 37.442335 158.670384 
" style="fill: none; stroke: #000000; stroke-width: 0.8; stroke-linecap: square"/>
    </g>
    <g id="text_16">
     <!-- 60 -->
     <g transform="translate(13.109497 165.294404) scale(0.1 -0.1)">
      <defs>
       <path id="DejaVuSans-36" d="M 2113 2584 
Q 1688 2584 1439 2293 
Q 1191 2003 1191 1497 
Q 1191 994 1439 701 
Q 1688 409 2113 409 
Q 2538 409 2786 701 
Q 3034 994 3034 1497 
Q 3034 2003 2786 2293 
Q 2538 2584 2113 2584 
z
M 3366 4563 
L 3366 3988 
Q 3128 4100 2886 4159 
Q 2644 4219 2406 4219 
Q 1781 4219 1451 3797 
Q 1122 3375 1075 2522 
Q 1259 2794 1537 2939 
Q 1816 3084 2150 3084 
Q 2853 3084 3261 2657 
Q 3669 2231 3669 1497 
Q 3669 778 3244 343 
Q 2819 -91 2113 -91 
Q 1303 -91 875 529 
Q 447 1150 447 2328 
Q 447 3434 972 4092 
Q 1497 4750 2381 4750 
Q 2619 4750 2861 4703 
Q 3103 4656 3366 4563 
z
" transform="scale(0.015625)"/>
      </defs>
      <use xlink:href="#DejaVuSans-36"/>
      <use xlink:href="#DejaVuSans-30" x="63.623047"/>
     </g>
    </g>
   </g>
   <g id="xtick_14">
    <g id="line2d_17">
     <path d="M 39.406056 133.376843 
L 36.262287 134.8096 
" style="fill: none; stroke: #000000; stroke-width: 0.8; stroke-linecap: square"/>
    </g>
    <g id="text_17">
     <!-- 80 -->
     <g transform="translate(11.758459 141.452305) scale(0.1 -0.1)">
      <defs>
       <path id="DejaVuSans-38" d="M 2034 2216 
Q 1584 2216 1326 1975 
Q 1069 1734 1069 1313 
Q 1069 891 1326 650 
Q 1584 409 2034 409 
Q 2484 409 2743 651 
Q 3003 894 3003 1313 
Q 3003 1734 2745 1975 
Q 2488 2216 2034 2216 
z
M 1403 2484 
Q 997 2584 770 2862 
Q 544 3141 544 3541 
Q 544 4100 942 4425 
Q 1341 4750 2034 4750 
Q 2731 4750 3128 4425 
Q 3525 4100 3525 3541 
Q 3525 3141 3298 2862 
Q 3072 2584 2669 2484 
Q 3125 2378 3379 2068 
Q 3634 1759 3634 1313 
Q 3634 634 3220 271 
Q 2806 -91 2034 -91 
Q 1263 -91 848 271 
Q 434 634 434 1313 
Q 434 1759 690 2068 
Q 947 2378 1403 2484 
z
M 1172 3481 
Q 1172 3119 1398 2916 
Q 1625 2713 2034 2713 
Q 2441 2713 2670 2916 
Q 2900 3119 2900 3481 
Q 2900 3844 2670 4047 
Q 2441 4250 2034 4250 
Q 1625 4250 1398 4047 
Q 1172 3844 1172 3481 
z
" transform="scale(0.015625)"/>
      </defs>
      <use xlink:href="#DejaVuSans-38"/>
      <use xlink:href="#DejaVuSans-30" x="63.623047"/>
     </g>
    </g>
   </g>
   <g id="xtick_15">
    <g id="line2d_18">
     <path d="M 38.235692 109.0827 
L 35.059355 110.486072 
" style="fill: none; stroke: #000000; stroke-width: 0.8; stroke-linecap: square"/>
    </g>
    <g id="text_18">
     <!-- 100 -->
     <g transform="translate(7.2 117.148373) scale(0.1 -0.1)">
      <use xlink:href="#DejaVuSans-31"/>
      <use xlink:href="#DejaVuSans-30" x="63.623047"/>
      <use xlink:href="#DejaVuSans-30" x="127.246094"/>
     </g>
    </g>
   </g>
  </g>
  <g id="axes_1">
   <g id="Poly3DCollection_1">
    <path d="M 140.151855 124.883167 
L 145.195224 115.116819 
L 140.215388 112.714949 
L 135.18666 122.451443 
z
" clip-path="url(#pd99166b089)" style="fill: #cb4679"/>
    <path d="M 145.195224 115.116819 
L 150.233579 104.40879 
L 145.237271 102.038736 
L 140.215388 112.714949 
z
" clip-path="url(#pd99166b089)" style="fill: #e16462"/>
    <path d="M 135.098633 133.797217 
L 140.151855 124.883167 
L 135.18666 122.451443 
L 130.146429 131.337377 
z
" clip-path="url(#pd99166b089)" style="fill: #b32c8e"/>
    <path d="M 150.233579 104.40879 
L 155.27199 92.466133 
L 150.25679 90.130526 
L 145.237271 102.038736 
z
" clip-path="url(#pd99166b089)" style="fill: #f48849"/>
    <path d="M 130.030388 141.868015 
L 135.098633 133.797217 
L 130.146429 131.337377 
L 125.089557 139.381742 
z
" clip-path="url(#pd99166b089)" style="fill: #9a169f"/>
    <path d="M 155.27199 92.466133 
L 160.317754 78.848225 
L 155.280366 76.550712 
L 150.25679 90.130526 
z
" clip-path="url(#pd99166b089)" style="fill: #feba2c"/>
    <path d="M 124.94199 149.108095 
L 130.030388 141.868015 
L 125.089557 139.381742 
L 120.010947 146.597018 
z
" clip-path="url(#pd99166b089)" style="fill: #8305a7"/>
    <path d="M 145.147284 127.329697 
L 150.205377 117.533312 
L 145.195224 115.116819 
L 140.151855 124.883167 
z
" clip-path="url(#pd99166b089)" style="fill: #cb4679"/>
    <path d="M 150.205377 117.533312 
L 155.260314 106.793277 
L 150.233579 104.40879 
L 145.195224 115.116819 
z
" clip-path="url(#pd99166b089)" style="fill: #e16462"/>
    <path d="M 119.828854 155.562465 
L 124.94199 149.108095 
L 120.010947 146.597018 
L 114.906114 153.028099 
z
" clip-path="url(#pd99166b089)" style="fill: #6c00a8"/>
    <path d="M 160.317754 78.848225 
L 165.379962 63.904263 
L 160.317754 61.647853 
L 155.280366 76.550712 
z
" clip-path="url(#pd99166b089)" style="fill: #f0f921"/>
    <path d="M 140.081005 136.272043 
L 145.147284 127.329697 
L 140.151855 124.883167 
L 135.098633 133.797217 
z
" clip-path="url(#pd99166b089)" style="fill: #b32c8e"/>
    <path d="M 155.260314 106.793277 
L 160.317754 94.815973 
L 155.27199 92.466133 
L 150.233579 104.40879 
z
" clip-path="url(#pd99166b089)" style="fill: #f48849"/>
    <path d="M 135.001343 144.369447 
L 140.081005 136.272043 
L 135.098633 133.797217 
L 130.030388 141.868015 
z
" clip-path="url(#pd99166b089)" style="fill: #9a169f"/>
    <path d="M 160.317754 94.815973 
L 165.385883 81.159758 
L 160.317754 78.848225 
L 155.27199 92.466133 
z
" clip-path="url(#pd99166b089)" style="fill: #feba2c"/>
    <path d="M 114.687289 161.308729 
L 119.828854 155.562465 
L 114.906114 153.028099 
L 109.771527 158.752414 
z
" clip-path="url(#pd99166b089)" style="fill: #5901a5"/>
    <path d="M 129.903131 151.634498 
L 135.001343 144.369447 
L 130.030388 141.868015 
L 124.94199 149.108095 
z
" clip-path="url(#pd99166b089)" style="fill: #8305a7"/>
    <path d="M 150.173222 129.79117 
L 155.246127 119.964563 
L 150.205377 117.533312 
L 145.147284 127.329697 
z
" clip-path="url(#pd99166b089)" style="fill: #cb4679"/>
    <path d="M 155.246127 119.964563 
L 160.317754 109.192329 
L 155.260314 106.793277 
L 150.205377 117.533312 
z
" clip-path="url(#pd99166b089)" style="fill: #e16462"/>
    <path d="M 124.781685 158.112322 
L 129.903131 151.634498 
L 124.94199 149.108095 
L 119.828854 155.562465 
z
" clip-path="url(#pd99166b089)" style="fill: #6c00a8"/>
    <path d="M 165.385883 81.159758 
L 170.473121 66.17447 
L 165.379962 63.904263 
L 160.317754 78.848225 
z
" clip-path="url(#pd99166b089)" style="fill: #f0f921"/>
    <path d="M 145.093821 138.761991 
L 150.173222 129.79117 
L 145.147284 127.329697 
L 140.081005 136.272043 
z
" clip-path="url(#pd99166b089)" style="fill: #b32c8e"/>
    <path d="M 160.317754 109.192329 
L 165.394362 97.180178 
L 160.317754 94.815973 
L 155.260314 106.793277 
z
" clip-path="url(#pd99166b089)" style="fill: #f48849"/>
    <path d="M 109.51465 166.447464 
L 114.687289 161.308729 
L 109.771527 158.752414 
L 104.604746 163.870323 
z
" clip-path="url(#pd99166b089)" style="fill: #4b03a1"/>
    <path d="M 140.002697 146.886176 
L 145.093821 138.761991 
L 140.081005 136.272043 
L 135.001343 144.369447 
z
" clip-path="url(#pd99166b089)" style="fill: #9a169f"/>
    <path d="M 165.394362 97.180178 
L 170.485036 83.485441 
L 165.385883 81.159758 
L 160.317754 94.815973 
z
" clip-path="url(#pd99166b089)" style="fill: #feba2c"/>
    <path d="M 119.633152 163.880698 
L 124.781685 158.112322 
L 119.828854 155.562465 
L 114.687289 161.308729 
z
" clip-path="url(#pd99166b089)" style="fill: #5901a5"/>
    <path d="M 134.894646 154.17637 
L 140.002697 146.886176 
L 135.001343 144.369447 
L 129.903131 151.634498 
z
" clip-path="url(#pd99166b089)" style="fill: #8305a7"/>
    <path d="M 104.309361 171.091669 
L 109.51465 166.447464 
L 104.604746 163.870323 
L 99.404418 168.494589 
z
" clip-path="url(#pd99166b089)" style="fill: #3e049c"/>
    <path d="M 155.229951 132.267723 
L 160.317754 122.410706 
L 155.246127 119.964563 
L 150.173222 129.79117 
z
" clip-path="url(#pd99166b089)" style="fill: #cb4679"/>
    <path d="M 160.317754 122.410706 
L 165.406181 111.60608 
L 160.317754 109.192329 
L 155.246127 119.964563 
z
" clip-path="url(#pd99166b089)" style="fill: #e16462"/>
    <path d="M 129.764885 160.677814 
L 134.894646 154.17637 
L 129.903131 151.634498 
L 124.781685 158.112322 
z
" clip-path="url(#pd99166b089)" style="fill: #6c00a8"/>
    <path d="M 170.485036 83.485441 
L 175.597516 68.458599 
L 170.473121 66.17447 
L 165.385883 81.159758 
z
" clip-path="url(#pd99166b089)" style="fill: #f0f921"/>
    <path d="M 150.137362 141.2672 
L 155.229951 132.267723 
L 150.173222 129.79117 
L 145.093821 138.761991 
z
" clip-path="url(#pd99166b089)" style="fill: #b32c8e"/>
    <path d="M 165.406181 111.60608 
L 170.502097 99.558878 
L 165.394362 97.180178 
L 160.317754 109.192329 
z
" clip-path="url(#pd99166b089)" style="fill: #f48849"/>
    <path d="M 114.454682 169.040418 
L 119.633152 163.880698 
L 114.687289 161.308729 
L 109.51465 166.447464 
z
" clip-path="url(#pd99166b089)" style="fill: #4b03a1"/>
    <path d="M 145.03473 149.418343 
L 150.137362 141.2672 
L 145.093821 138.761991 
L 140.002697 146.886176 
z
" clip-path="url(#pd99166b089)" style="fill: #9a169f"/>
    <path d="M 170.502097 99.558878 
L 175.615498 85.825405 
L 170.485036 83.485441 
L 165.394362 97.180178 
z
" clip-path="url(#pd99166b089)" style="fill: #feba2c"/>
    <path d="M 124.609395 166.468465 
L 129.764885 160.677814 
L 124.781685 158.112322 
L 119.633152 163.880698 
z
" clip-path="url(#pd99166b089)" style="fill: #5901a5"/>
    <path d="M 139.916816 156.733852 
L 145.03473 149.418343 
L 140.002697 146.886176 
L 134.894646 154.17637 
z
" clip-path="url(#pd99166b089)" style="fill: #8305a7"/>
    <path d="M 99.070845 175.358092 
L 104.309361 171.091669 
L 99.404418 168.494589 
L 94.170197 172.74172 
z
" clip-path="url(#pd99166b089)" style="fill: #330597"/>
    <path d="M 109.244469 173.704721 
L 114.454682 169.040418 
L 109.51465 166.447464 
L 104.309361 171.091669 
z
" clip-path="url(#pd99166b089)" style="fill: #3e049c"/>
    <path d="M 160.317754 134.759494 
L 165.420543 124.871879 
L 160.317754 122.410706 
L 155.229951 132.267723 
z
" clip-path="url(#pd99166b089)" style="fill: #cb4679"/>
    <path d="M 165.420543 124.871879 
L 170.525881 114.034666 
L 165.406181 111.60608 
L 160.317754 122.410706 
z
" clip-path="url(#pd99166b089)" style="fill: #e16462"/>
    <path d="M 134.778733 163.259085 
L 139.916816 156.733852 
L 134.894646 154.17637 
L 129.764885 160.677814 
z
" clip-path="url(#pd99166b089)" style="fill: #6c00a8"/>
    <path d="M 175.615498 85.825405 
L 180.753434 70.75678 
L 175.597516 68.458599 
L 170.485036 83.485441 
z
" clip-path="url(#pd99166b089)" style="fill: #f0f921"/>
    <path d="M 155.211911 143.787811 
L 160.317754 134.759494 
L 155.229951 132.267723 
L 150.137362 141.2672 
z
" clip-path="url(#pd99166b089)" style="fill: #b32c8e"/>
    <path d="M 170.525881 114.034666 
L 175.641247 101.952209 
L 170.502097 99.558878 
L 165.406181 111.60608 
z
" clip-path="url(#pd99166b089)" style="fill: #f48849"/>
    <path d="M 119.42512 171.649333 
L 124.609395 166.468465 
L 119.633152 163.880698 
L 114.454682 169.040418 
z
" clip-path="url(#pd99166b089)" style="fill: #4b03a1"/>
    <path d="M 150.097726 151.96609 
L 155.211911 143.787811 
L 150.137362 141.2672 
L 145.03473 149.418343 
z
" clip-path="url(#pd99166b089)" style="fill: #9a169f"/>
    <path d="M 93.799368 179.359097 
L 99.070845 175.358092 
L 94.170197 172.74172 
L 88.902571 176.723849 
z
" clip-path="url(#pd99166b089)" style="fill: #2a0593"/>
    <path d="M 175.641247 101.952209 
L 180.777559 88.179779 
L 175.615498 85.825405 
L 170.502097 99.558878 
z
" clip-path="url(#pd99166b089)" style="fill: #feba2c"/>
    <path d="M 129.616299 169.072176 
L 134.778733 163.259085 
L 129.764885 160.677814 
L 124.609395 166.468465 
z
" clip-path="url(#pd99166b089)" style="fill: #5901a5"/>
    <path d="M 144.969923 159.307088 
L 150.097726 151.96609 
L 145.03473 149.418343 
L 139.916816 156.733852 
z
" clip-path="url(#pd99166b089)" style="fill: #8305a7"/>
    <path d="M 104.001703 177.990594 
L 109.244469 173.704721 
L 104.309361 171.091669 
L 99.070845 175.358092 
z
" clip-path="url(#pd99166b089)" style="fill: #330597"/>
    <path d="M 114.210021 176.333892 
L 119.42512 171.649333 
L 114.454682 169.040418 
L 109.244469 173.704721 
z
" clip-path="url(#pd99166b089)" style="fill: #3e049c"/>
    <path d="M 165.436919 137.266625 
L 170.554782 127.348221 
L 165.420543 124.871879 
L 160.317754 134.759494 
z
" clip-path="url(#pd99166b089)" style="fill: #cb4679"/>
    <path d="M 170.554782 127.348221 
L 175.677143 116.478223 
L 170.525881 114.034666 
L 165.420543 124.871879 
z
" clip-path="url(#pd99166b089)" style="fill: #e16462"/>
    <path d="M 139.823514 165.85628 
L 144.969923 159.307088 
L 139.916816 156.733852 
L 134.778733 163.259085 
z
" clip-path="url(#pd99166b089)" style="fill: #6c00a8"/>
    <path d="M 180.777559 88.179779 
L 185.941168 73.069143 
L 180.753434 70.75678 
L 175.615498 85.825405 
z
" clip-path="url(#pd99166b089)" style="fill: #f0f921"/>
    <path d="M 160.317754 146.323967 
L 165.436919 137.266625 
L 160.317754 134.759494 
L 155.211911 143.787811 
z
" clip-path="url(#pd99166b089)" style="fill: #b32c8e"/>
    <path d="M 175.677143 116.478223 
L 180.812102 104.360305 
L 175.641247 101.952209 
L 170.525881 114.034666 
z
" clip-path="url(#pd99166b089)" style="fill: #f48849"/>
    <path d="M 124.426244 174.274354 
L 129.616299 169.072176 
L 124.609395 166.468465 
L 119.42512 171.649333 
z
" clip-path="url(#pd99166b089)" style="fill: #4b03a1"/>
    <path d="M 88.495573 183.187744 
L 93.799368 179.359097 
L 88.902571 176.723849 
L 83.602364 180.533849 
z
" clip-path="url(#pd99166b089)" style="fill: #220690"/>
    <path d="M 155.19197 154.529562 
L 160.317754 146.323967 
L 155.211911 143.787811 
L 150.097726 151.96609 
z
" clip-path="url(#pd99166b089)" style="fill: #9a169f"/>
    <path d="M 98.726428 182.010631 
L 104.001703 177.990594 
L 99.070845 175.358092 
L 93.799368 179.359097 
z
" clip-path="url(#pd99166b089)" style="fill: #2a0593"/>
    <path d="M 180.812102 104.360305 
L 185.97151 90.5487 
L 180.777559 88.179779 
L 175.641247 101.952209 
z
" clip-path="url(#pd99166b089)" style="fill: #feba2c"/>
    <path d="M 134.654147 171.691979 
L 139.823514 165.85628 
L 134.778733 163.259085 
L 129.616299 169.072176 
z
" clip-path="url(#pd99166b089)" style="fill: #5901a5"/>
    <path d="M 150.054254 161.896225 
L 155.19197 154.529562 
L 150.097726 151.96609 
L 144.969923 159.307088 
z
" clip-path="url(#pd99166b089)" style="fill: #8305a7"/>
    <path d="M 108.963053 180.639375 
L 114.210021 176.333892 
L 109.244469 173.704721 
L 104.001703 177.990594 
z
" clip-path="url(#pd99166b089)" style="fill: #330597"/>
    <path d="M 119.206298 178.979332 
L 124.426244 174.274354 
L 119.42512 171.649333 
L 114.210021 176.333892 
z
" clip-path="url(#pd99166b089)" style="fill: #3e049c"/>
    <path d="M 170.587736 139.789257 
L 175.720762 129.839872 
L 170.554782 127.348221 
L 165.436919 137.266625 
z
" clip-path="url(#pd99166b089)" style="fill: #cb4679"/>
    <path d="M 175.720762 129.839872 
L 180.86026 118.936892 
L 175.677143 116.478223 
L 170.554782 127.348221 
z
" clip-path="url(#pd99166b089)" style="fill: #e16462"/>
    <path d="M 144.899513 168.469548 
L 150.054254 161.896225 
L 144.969923 159.307088 
L 139.823514 165.85628 
z
" clip-path="url(#pd99166b089)" style="fill: #6c00a8"/>
    <path d="M 185.97151 90.5487 
L 191.161014 75.395818 
L 185.941168 73.069143 
L 180.777559 88.179779 
z
" clip-path="url(#pd99166b089)" style="fill: #f0f921"/>
    <path d="M 165.455182 148.875812 
L 170.587736 139.789257 
L 165.436919 137.266625 
L 160.317754 146.323967 
z
" clip-path="url(#pd99166b089)" style="fill: #b32c8e"/>
    <path d="M 83.159059 186.878626 
L 88.495573 183.187744 
L 83.602364 180.533849 
L 78.269245 184.206241 
z
" clip-path="url(#pd99166b089)" style="fill: #19068c"/>
    <path d="M 180.86026 118.936892 
L 186.014957 106.783304 
L 180.812102 104.360305 
L 175.677143 116.478223 
z
" clip-path="url(#pd99166b089)" style="fill: #f48849"/>
    <path d="M 129.458341 176.915632 
L 134.654147 171.691979 
L 129.616299 169.072176 
L 124.426244 174.274354 
z
" clip-path="url(#pd99166b089)" style="fill: #4b03a1"/>
    <path d="M 93.419103 185.858083 
L 98.726428 182.010631 
L 93.799368 179.359097 
L 88.495573 183.187744 
z
" clip-path="url(#pd99166b089)" style="fill: #220690"/>
    <path d="M 160.317754 157.108905 
L 165.455182 148.875812 
L 160.317754 146.323967 
L 155.19197 154.529562 
z
" clip-path="url(#pd99166b089)" style="fill: #9a169f"/>
    <path d="M 103.684033 184.678603 
L 108.963053 180.639375 
L 104.001703 177.990594 
L 98.726428 182.010631 
z
" clip-path="url(#pd99166b089)" style="fill: #2a0593"/>
    <path d="M 186.014957 106.783304 
L 191.19765 92.9323 
L 185.97151 90.5487 
L 180.812102 104.360305 
z
" clip-path="url(#pd99166b089)" style="fill: #feba2c"/>
    <path d="M 139.723227 174.328023 
L 144.899513 168.469548 
L 139.823514 165.85628 
L 134.654147 171.691979 
z
" clip-path="url(#pd99166b089)" style="fill: #5901a5"/>
    <path d="M 155.1701 164.50141 
L 160.317754 157.108905 
L 155.19197 154.529562 
L 150.054254 161.896225 
z
" clip-path="url(#pd99166b089)" style="fill: #8305a7"/>
    <path d="M 113.955177 183.304585 
L 119.206298 178.979332 
L 114.210021 176.333892 
L 108.963053 180.639375 
z
" clip-path="url(#pd99166b089)" style="fill: #330597"/>
    <path d="M 124.233588 181.641193 
L 129.458341 176.915632 
L 124.426244 174.274354 
L 119.206298 178.979332 
z
" clip-path="url(#pd99166b089)" style="fill: #3e049c"/>
    <path d="M 175.7705 142.327536 
L 180.918779 132.346976 
L 175.720762 129.839872 
L 170.587736 139.789257 
z
" clip-path="url(#pd99166b089)" style="fill: #cb4679"/>
    <path d="M 180.918779 132.346976 
L 186.075528 121.410811 
L 180.86026 118.936892 
L 175.720762 129.839872 
z
" clip-path="url(#pd99166b089)" style="fill: #e16462"/>
    <path d="M 77.784803 190.320556 
L 83.159059 186.878626 
L 78.269245 184.206241 
L 72.897985 187.63006 
z
" clip-path="url(#pd99166b089)" style="fill: #100788"/>
    <path d="M 150.007023 171.099039 
L 155.1701 164.50141 
L 150.054254 161.896225 
L 144.899513 168.469548 
z
" clip-path="url(#pd99166b089)" style="fill: #6c00a8"/>
    <path d="M 191.19765 92.9323 
L 196.413269 77.73694 
L 191.161014 75.395818 
L 185.97151 90.5487 
z
" clip-path="url(#pd99166b089)" style="fill: #f0f921"/>
    <path d="M 170.62449 151.443491 
L 175.7705 142.327536 
L 170.587736 139.789257 
L 165.455182 148.875812 
z
" clip-path="url(#pd99166b089)" style="fill: #b32c8e"/>
    <path d="M 88.079255 189.567614 
L 93.419103 185.858083 
L 88.495573 183.187744 
L 83.159059 186.878626 
z
" clip-path="url(#pd99166b089)" style="fill: #19068c"/>
    <path d="M 186.075528 121.410811 
L 191.250109 109.221344 
L 186.014957 106.783304 
L 180.86026 118.936892 
z
" clip-path="url(#pd99166b089)" style="fill: #f48849"/>
    <path d="M 134.521698 179.573319 
L 139.723227 174.328023 
L 134.654147 171.691979 
L 129.458341 176.915632 
z
" clip-path="url(#pd99166b089)" style="fill: #4b03a1"/>
    <path d="M 98.373235 188.54502 
L 103.684033 184.678603 
L 98.726428 182.010631 
L 93.419103 185.858083 
z
" clip-path="url(#pd99166b089)" style="fill: #220690"/>
    <path d="M 165.475371 159.704267 
L 170.62449 151.443491 
L 165.455182 148.875812 
L 160.317754 157.108905 
z
" clip-path="url(#pd99166b089)" style="fill: #9a169f"/>
    <path d="M 108.672468 187.363167 
L 113.955177 183.304585 
L 108.963053 180.639375 
L 103.684033 184.678603 
z
" clip-path="url(#pd99166b089)" style="fill: #2a0593"/>
    <path d="M 191.250109 109.221344 
L 196.456277 95.330719 
L 191.19765 92.9323 
L 186.014957 106.783304 
z
" clip-path="url(#pd99166b089)" style="fill: #feba2c"/>
    <path d="M 144.823831 176.980461 
L 150.007023 171.099039 
L 144.899513 168.469548 
L 139.723227 174.328023 
z
" clip-path="url(#pd99166b089)" style="fill: #5901a5"/>
    <path d="M 160.317754 167.122794 
L 165.475371 159.704267 
L 160.317754 157.108905 
L 155.1701 164.50141 
z
" clip-path="url(#pd99166b089)" style="fill: #8305a7"/>
    <path d="M 118.978363 185.986379 
L 124.233588 181.641193 
L 119.206298 178.979332 
L 113.955177 183.304585 
z
" clip-path="url(#pd99166b089)" style="fill: #330597"/>
    <path d="M 129.29218 184.319627 
L 134.521698 179.573319 
L 129.458341 176.915632 
L 124.233588 181.641193 
z
" clip-path="url(#pd99166b089)" style="fill: #3e049c"/>
    <path d="M 72.357292 193.138682 
L 77.784803 190.320556 
L 72.897985 187.63006 
L 67.472373 190.4312 
z
" clip-path="url(#pd99166b089)" style="fill: #0d0887"/>
    <path d="M 180.985509 144.881607 
L 186.149132 134.869675 
L 180.918779 132.346976 
L 175.7705 142.327536 
z
" clip-path="url(#pd99166b089)" style="fill: #cb4679"/>
    <path d="M 186.149132 134.869675 
L 191.323247 123.900125 
L 186.075528 121.410811 
L 180.918779 132.346976 
z
" clip-path="url(#pd99166b089)" style="fill: #e16462"/>
    <path d="M 82.70207 193.027816 
L 88.079255 189.567614 
L 83.159059 186.878626 
L 77.784803 190.320556 
z
" clip-path="url(#pd99166b089)" style="fill: #100788"/>
    <path d="M 155.146338 173.744903 
L 160.317754 167.122794 
L 155.1701 164.50141 
L 150.007023 171.099039 
z
" clip-path="url(#pd99166b089)" style="fill: #6c00a8"/>
    <path d="M 196.456277 95.330719 
L 201.698237 80.092643 
L 196.413269 77.73694 
L 191.19765 92.9323 
z
" clip-path="url(#pd99166b089)" style="fill: #f0f921"/>
    <path d="M 175.825974 154.027153 
L 180.985509 144.881607 
L 175.7705 142.327536 
L 170.62449 151.443491 
z
" clip-path="url(#pd99166b089)" style="fill: #b32c8e"/>
    <path d="M 93.030115 192.273361 
L 98.373235 188.54502 
L 93.419103 185.858083 
L 88.079255 189.567614 
z
" clip-path="url(#pd99166b089)" style="fill: #19068c"/>
    <path d="M 191.323247 123.900125 
L 196.517861 111.674565 
L 191.250109 109.221344 
L 186.075528 121.410811 
z
" clip-path="url(#pd99166b089)" style="fill: #f48849"/>
    <path d="M 139.616609 182.247567 
L 144.823831 176.980461 
L 139.723227 174.328023 
L 134.521698 179.573319 
z
" clip-path="url(#pd99166b089)" style="fill: #4b03a1"/>
    <path d="M 103.358257 191.248711 
L 108.672468 187.363167 
L 103.684033 184.678603 
L 98.373235 188.54502 
z
" clip-path="url(#pd99166b089)" style="fill: #220690"/>
    <path d="M 170.665118 162.315797 
L 175.825974 154.027153 
L 170.62449 151.443491 
L 165.475371 159.704267 
z
" clip-path="url(#pd99166b089)" style="fill: #9a169f"/>
    <path d="M 113.692021 190.064477 
L 118.978363 185.986379 
L 113.955177 183.304585 
L 108.672468 187.363167 
z
" clip-path="url(#pd99166b089)" style="fill: #2a0593"/>
    <path d="M 196.517861 111.674565 
L 201.747696 97.744093 
L 196.456277 95.330719 
L 191.250109 109.221344 
z
" clip-path="url(#pd99166b089)" style="fill: #feba2c"/>
    <path d="M 149.956254 179.649445 
L 155.146338 173.744903 
L 150.007023 171.099039 
L 144.823831 176.980461 
z
" clip-path="url(#pd99166b089)" style="fill: #5901a5"/>
    <path d="M 165.497515 169.760527 
L 170.665118 162.315797 
L 165.475371 159.704267 
L 160.317754 167.122794 
z
" clip-path="url(#pd99166b089)" style="fill: #8305a7"/>
    <path d="M 124.032902 188.684911 
L 129.29218 184.319627 
L 124.233588 181.641193 
L 118.978363 185.986379 
z
" clip-path="url(#pd99166b089)" style="fill: #330597"/>
    <path d="M 134.382367 187.014791 
L 139.616609 182.247567 
L 134.521698 179.573319 
L 129.29218 184.319627 
z
" clip-path="url(#pd99166b089)" style="fill: #3e049c"/>
    <path d="M 77.272741 195.863085 
L 82.70207 193.027816 
L 77.784803 190.320556 
L 72.357292 193.138682 
z
" clip-path="url(#pd99166b089)" style="fill: #0d0887"/>
    <path d="M 186.233065 147.451618 
L 191.412123 137.408117 
L 186.149132 134.869675 
L 180.985509 144.881607 
z
" clip-path="url(#pd99166b089)" style="fill: #cb4679"/>
    <path d="M 191.412123 137.408117 
L 196.603722 126.404975 
L 191.323247 123.900125 
L 186.149132 134.869675 
z
" clip-path="url(#pd99166b089)" style="fill: #e16462"/>
    <path d="M 87.650069 195.751997 
L 93.030115 192.273361 
L 88.079255 189.567614 
L 82.70207 193.027816 
z
" clip-path="url(#pd99166b089)" style="fill: #100788"/>
    <path d="M 66.850078 194.761917 
L 72.357292 193.138682 
L 67.472373 190.4312 
L 61.964907 192.039723 
z
" clip-path="url(#pd99166b089)" style="fill: #100788"/>
    <path d="M 160.317754 176.407294 
L 165.497515 169.760527 
L 160.317754 167.122794 
L 155.146338 173.744903 
z
" clip-path="url(#pd99166b089)" style="fill: #6c00a8"/>
    <path d="M 201.747696 97.744093 
L 207.016225 82.463064 
L 201.698237 80.092643 
L 196.456277 95.330719 
z
" clip-path="url(#pd99166b089)" style="fill: #f0f921"/>
    <path d="M 181.059936 156.626948 
L 186.233065 147.451618 
L 180.985509 144.881607 
L 175.825974 154.027153 
z
" clip-path="url(#pd99166b089)" style="fill: #b32c8e"/>
    <path d="M 98.011928 194.996025 
L 103.358257 191.248711 
L 98.373235 188.54502 
L 93.030115 192.273361 
z
" clip-path="url(#pd99166b089)" style="fill: #19068c"/>
    <path d="M 196.603722 126.404975 
L 201.818518 114.14311 
L 196.517861 111.674565 
L 191.323247 123.900125 
z
" clip-path="url(#pd99166b089)" style="fill: #f48849"/>
    <path d="M 144.743368 184.938532 
L 149.956254 179.649445 
L 144.823831 176.980461 
L 139.616609 182.247567 
z
" clip-path="url(#pd99166b089)" style="fill: #4b03a1"/>
    <path d="M 108.374458 193.969312 
L 113.692021 190.064477 
L 108.672468 187.363167 
L 103.358257 191.248711 
z
" clip-path="url(#pd99166b089)" style="fill: #220690"/>
    <path d="M 175.887297 164.943647 
L 181.059936 156.626948 
L 175.825974 154.027153 
L 170.665118 162.315797 
z
" clip-path="url(#pd99166b089)" style="fill: #9a169f"/>
    <path d="M 118.742985 192.78269 
L 124.032902 188.684911 
L 118.978363 185.986379 
L 113.692021 190.064477 
z
" clip-path="url(#pd99166b089)" style="fill: #2a0593"/>
    <path d="M 201.818518 114.14311 
L 207.072214 100.172564 
L 201.747696 97.744093 
L 196.517861 111.674565 
z
" clip-path="url(#pd99166b089)" style="fill: #feba2c"/>
    <path d="M 155.120794 182.335131 
L 160.317754 176.407294 
L 155.146338 173.744903 
L 149.956254 179.649445 
z
" clip-path="url(#pd99166b089)" style="fill: #5901a5"/>
    <path d="M 170.709682 172.414763 
L 175.887297 164.943647 
L 170.665118 162.315797 
L 165.497515 169.760527 
z
" clip-path="url(#pd99166b089)" style="fill: #8305a7"/>
    <path d="M 129.119087 191.40034 
L 134.382367 187.014791 
L 129.29218 184.319627 
L 124.032902 188.684911 
z
" clip-path="url(#pd99166b089)" style="fill: #330597"/>
    <path d="M 139.504446 189.726841 
L 144.743368 184.938532 
L 139.616609 182.247567 
L 134.382367 187.014791 
z
" clip-path="url(#pd99166b089)" style="fill: #3e049c"/>
    <path d="M 82.219006 198.604569 
L 87.650069 195.751997 
L 82.70207 193.027816 
L 77.272741 195.863085 
z
" clip-path="url(#pd99166b089)" style="fill: #0d0887"/>
    <path d="M 191.513473 150.037718 
L 196.70806 139.962449 
L 191.412123 137.408117 
L 186.233065 147.451618 
z
" clip-path="url(#pd99166b089)" style="fill: #cb4679"/>
    <path d="M 196.70806 139.962449 
L 201.917259 128.92551 
L 196.603722 126.404975 
L 191.412123 137.408117 
z
" clip-path="url(#pd99166b089)" style="fill: #e16462"/>
    <path d="M 92.62909 198.493257 
L 98.011928 194.996025 
L 93.030115 192.273361 
L 87.650069 195.751997 
z
" clip-path="url(#pd99166b089)" style="fill: #100788"/>
    <path d="M 71.765889 197.501184 
L 77.272741 195.863085 
L 72.357292 193.138682 
L 66.850078 194.761917 
z
" clip-path="url(#pd99166b089)" style="fill: #100788"/>
    <path d="M 165.521575 179.086368 
L 170.709682 172.414763 
L 165.497515 169.760527 
L 160.317754 176.407294 
z
" clip-path="url(#pd99166b089)" style="fill: #6c00a8"/>
    <path d="M 207.072214 100.172564 
L 212.367542 84.848341 
L 207.016225 82.463064 
L 201.747696 97.744093 
z
" clip-path="url(#pd99166b089)" style="fill: #f0f921"/>
    <path d="M 186.326681 159.243026 
L 191.513473 150.037718 
L 186.233065 147.451618 
L 181.059936 156.626948 
z
" clip-path="url(#pd99166b089)" style="fill: #b32c8e"/>
    <path d="M 103.024984 197.735763 
L 108.374458 193.969312 
L 103.358257 191.248711 
L 98.011928 194.996025 
z
" clip-path="url(#pd99166b089)" style="fill: #19068c"/>
    <path d="M 201.917259 128.92551 
L 207.152389 116.627124 
L 201.818518 114.14311 
L 196.603722 126.404975 
z
" clip-path="url(#pd99166b089)" style="fill: #f48849"/>
    <path d="M 149.902276 187.646372 
L 155.120794 182.335131 
L 149.956254 179.649445 
L 144.743368 184.938532 
z
" clip-path="url(#pd99166b089)" style="fill: #4b03a1"/>
    <path d="M 61.261236 195.356522 
L 66.850078 194.761917 
L 61.964907 192.039723 
L 56.373997 192.621571 
z
" clip-path="url(#pd99166b089)" style="fill: #20068f"/>
    <path d="M 113.422132 196.706982 
L 118.742985 192.78269 
L 113.692021 190.064477 
L 108.374458 193.969312 
z
" clip-path="url(#pd99166b089)" style="fill: #220690"/>
    <path d="M 181.142212 167.58797 
L 186.326681 159.243026 
L 181.059936 156.626948 
L 175.887297 164.943647 
z
" clip-path="url(#pd99166b089)" style="fill: #9a169f"/>
    <path d="M 123.825655 195.517967 
L 129.119087 191.40034 
L 124.032902 188.684911 
L 118.742985 192.78269 
z
" clip-path="url(#pd99166b089)" style="fill: #2a0593"/>
    <path d="M 207.152389 116.627124 
L 212.430144 102.616273 
L 207.072214 100.172564 
L 201.818518 114.14311 
z
" clip-path="url(#pd99166b089)" style="fill: #feba2c"/>
    <path d="M 160.317754 185.037676 
L 165.521575 179.086368 
L 160.317754 176.407294 
L 155.120794 182.335131 
z
" clip-path="url(#pd99166b089)" style="fill: #5901a5"/>
    <path d="M 175.954563 175.085657 
L 181.142212 167.58797 
L 175.887297 164.943647 
L 170.709682 172.414763 
z
" clip-path="url(#pd99166b089)" style="fill: #8305a7"/>
    <path d="M 134.237218 194.132823 
L 139.504446 189.726841 
L 134.382367 187.014791 
L 129.119087 191.40034 
z
" clip-path="url(#pd99166b089)" style="fill: #330597"/>
    <path d="M 144.658718 192.455936 
L 149.902276 187.646372 
L 144.743368 184.938532 
L 139.504446 189.726841 
z
" clip-path="url(#pd99166b089)" style="fill: #3e049c"/>
    <path d="M 87.196378 201.363293 
L 92.62909 198.493257 
L 87.650069 195.751997 
L 82.219006 198.604569 
z
" clip-path="url(#pd99166b089)" style="fill: #0d0887"/>
    <path d="M 196.827043 152.64006 
L 202.037251 142.53282 
L 196.70806 139.962449 
L 191.513473 150.037718 
z
" clip-path="url(#pd99166b089)" style="fill: #cb4679"/>
    <path d="M 202.037251 142.53282 
L 207.26417 131.461876 
L 201.917259 128.92551 
L 196.70806 139.962449 
z
" clip-path="url(#pd99166b089)" style="fill: #e16462"/>
    <path d="M 97.639426 201.251758 
L 103.024984 197.735763 
L 98.011928 194.996025 
L 92.62909 198.493257 
z
" clip-path="url(#pd99166b089)" style="fill: #100788"/>
    <path d="M 76.71263 200.257687 
L 82.219006 198.604569 
L 77.272741 195.863085 
L 71.765889 197.501184 
z
" clip-path="url(#pd99166b089)" style="fill: #100788"/>
    <path d="M 170.758105 181.782282 
L 175.954563 175.085657 
L 170.709682 172.414763 
L 165.521575 179.086368 
z
" clip-path="url(#pd99166b089)" style="fill: #6c00a8"/>
    <path d="M 212.430144 102.616273 
L 217.752504 87.248615 
L 212.367542 84.848341 
L 207.072214 100.172564 
z
" clip-path="url(#pd99166b089)" style="fill: #f0f921"/>
    <path d="M 191.626518 161.875542 
L 196.827043 152.64006 
L 191.513473 150.037718 
L 186.326681 159.243026 
z
" clip-path="url(#pd99166b089)" style="fill: #b32c8e"/>
    <path d="M 108.069579 200.492739 
L 113.422132 196.706982 
L 108.374458 193.969312 
L 103.024984 197.735763 
z
" clip-path="url(#pd99166b089)" style="fill: #19068c"/>
    <path d="M 207.26417 131.461876 
L 212.519787 119.126751 
L 207.152389 116.627124 
L 201.917259 128.92551 
z
" clip-path="url(#pd99166b089)" style="fill: #f48849"/>
    <path d="M 155.093636 190.371245 
L 160.317754 185.037676 
L 155.120794 182.335131 
L 149.902276 187.646372 
z
" clip-path="url(#pd99166b089)" style="fill: #4b03a1"/>
    <path d="M 66.179253 198.108697 
L 71.765889 197.501184 
L 66.850078 194.761917 
L 61.261236 195.356522 
z
" clip-path="url(#pd99166b089)" style="fill: #20068f"/>
    <path d="M 118.501575 199.461883 
L 123.825655 195.517967 
L 118.742985 192.78269 
L 113.422132 196.706982 
z
" clip-path="url(#pd99166b089)" style="fill: #220690"/>
    <path d="M 186.430173 170.248923 
L 191.626518 161.875542 
L 186.326681 159.243026 
L 181.142212 167.58797 
z
" clip-path="url(#pd99166b089)" style="fill: #9a169f"/>
    <path d="M 128.94033 198.270468 
L 134.237218 194.132823 
L 129.119087 191.40034 
L 123.825655 195.517967 
z
" clip-path="url(#pd99166b089)" style="fill: #2a0593"/>
    <path d="M 212.519787 119.126751 
L 217.8218 105.075364 
L 212.430144 102.616273 
L 207.152389 116.627124 
z
" clip-path="url(#pd99166b089)" style="fill: #feba2c"/>
    <path d="M 165.54744 187.75724 
L 170.758105 181.782282 
L 165.521575 179.086368 
L 160.317754 185.037676 
z
" clip-path="url(#pd99166b089)" style="fill: #5901a5"/>
    <path d="M 181.232464 177.773368 
L 186.430173 170.248923 
L 181.142212 167.58797 
L 175.954563 175.085657 
z
" clip-path="url(#pd99166b089)" style="fill: #8305a7"/>
    <path d="M 139.387596 196.882523 
L 144.658718 192.455936 
L 139.504446 189.726841 
L 134.237218 194.132823 
z
" clip-path="url(#pd99166b089)" style="fill: #330597"/>
    <path d="M 149.845487 195.202238 
L 155.093636 190.371245 
L 149.902276 187.646372 
L 144.658718 192.455936 
z
" clip-path="url(#pd99166b089)" style="fill: #3e049c"/>
    <path d="M 92.205152 204.139423 
L 97.639426 201.251758 
L 92.62909 198.493257 
L 87.196378 201.363293 
z
" clip-path="url(#pd99166b089)" style="fill: #0d0887"/>
    <path d="M 202.174089 155.258796 
L 207.400012 145.119382 
L 202.037251 142.53282 
L 196.827043 152.64006 
z
" clip-path="url(#pd99166b089)" style="fill: #cb4679"/>
    <path d="M 207.400012 145.119382 
L 212.644771 134.014223 
L 207.26417 131.461876 
L 202.037251 142.53282 
z
" clip-path="url(#pd99166b089)" style="fill: #e16462"/>
    <path d="M 102.681373 204.027662 
L 108.069579 200.492739 
L 103.024984 197.735763 
L 97.639426 201.251758 
z
" clip-path="url(#pd99166b089)" style="fill: #100788"/>
    <path d="M 81.690594 203.031588 
L 87.196378 201.363293 
L 82.219006 198.604569 
L 76.71263 200.257687 
z
" clip-path="url(#pd99166b089)" style="fill: #100788"/>
    <path d="M 176.027654 184.495194 
L 181.232464 177.773368 
L 175.954563 175.085657 
L 170.758105 181.782282 
z
" clip-path="url(#pd99166b089)" style="fill: #6c00a8"/>
    <path d="M 217.8218 105.075364 
L 223.171429 89.664027 
L 217.752504 87.248615 
L 212.430144 102.616273 
z
" clip-path="url(#pd99166b089)" style="fill: #f0f921"/>
    <path d="M 196.95976 164.524651 
L 202.174089 155.258796 
L 196.827043 152.64006 
L 191.626518 161.875542 
z
" clip-path="url(#pd99166b089)" style="fill: #b32c8e"/>
    <path d="M 113.146012 203.267113 
L 118.501575 199.461883 
L 113.422132 196.706982 
L 108.069579 200.492739 
z
" clip-path="url(#pd99166b089)" style="fill: #19068c"/>
    <path d="M 212.644771 134.014223 
L 217.921029 121.64214 
L 212.519787 119.126751 
L 207.26417 131.461876 
z
" clip-path="url(#pd99166b089)" style="fill: #f48849"/>
    <path d="M 160.317754 193.113313 
L 165.54744 187.75724 
L 160.317754 185.037676 
L 155.093636 190.371245 
z
" clip-path="url(#pd99166b089)" style="fill: #4b03a1"/>
    <path d="M 71.128338 200.878257 
L 76.71263 200.257687 
L 71.765889 197.501184 
L 66.179253 198.108697 
z
" clip-path="url(#pd99166b089)" style="fill: #20068f"/>
    <path d="M 123.613089 202.234178 
L 128.94033 198.270468 
L 123.825655 195.517967 
L 118.501575 199.461883 
z
" clip-path="url(#pd99166b089)" style="fill: #220690"/>
    <path d="M 191.751492 172.926661 
L 196.95976 164.524651 
L 191.626518 161.875542 
L 186.430173 170.248923 
z
" clip-path="url(#pd99166b089)" style="fill: #9a169f"/>
    <path d="M 134.087314 201.040356 
L 139.387596 196.882523 
L 134.237218 194.132823 
L 128.94033 198.270468 
z
" clip-path="url(#pd99166b089)" style="fill: #2a0593"/>
    <path d="M 217.921029 121.64214 
L 223.247502 107.549984 
L 217.8218 105.075364 
L 212.519787 119.126751 
z
" clip-path="url(#pd99166b089)" style="fill: #feba2c"/>
    <path d="M 170.810162 190.493983 
L 176.027654 184.495194 
L 170.758105 181.782282 
L 165.54744 187.75724 
z
" clip-path="url(#pd99166b089)" style="fill: #5901a5"/>
    <path d="M 186.5437 180.478053 
L 191.751492 172.926661 
L 186.430173 170.248923 
L 181.232464 177.773368 
z
" clip-path="url(#pd99166b089)" style="fill: #8305a7"/>
    <path d="M 144.570528 199.649602 
L 149.845487 195.202238 
L 144.658718 192.455936 
L 139.387596 196.882523 
z
" clip-path="url(#pd99166b089)" style="fill: #330597"/>
    <path d="M 155.065062 197.96591 
L 160.317754 193.113313 
L 155.093636 190.371245 
L 149.845487 195.202238 
z
" clip-path="url(#pd99166b089)" style="fill: #3e049c"/>
    <path d="M 97.245626 206.933121 
L 102.681373 204.027662 
L 97.639426 201.251758 
L 92.205152 204.139423 
z
" clip-path="url(#pd99166b089)" style="fill: #0d0887"/>
    <path d="M 207.554928 157.894083 
L 212.796661 147.72229 
L 207.400012 145.119382 
L 202.174089 155.258796 
z
" clip-path="url(#pd99166b089)" style="fill: #cb4679"/>
    <path d="M 212.796661 147.72229 
L 218.059381 136.582703 
L 212.644771 134.014223 
L 207.400012 145.119382 
z
" clip-path="url(#pd99166b089)" style="fill: #e16462"/>
    <path d="M 107.755231 206.821136 
L 113.146012 203.267113 
L 108.069579 200.492739 
L 102.681373 204.027662 
z
" clip-path="url(#pd99166b089)" style="fill: #100788"/>
    <path d="M 86.700077 205.823052 
L 92.205152 204.139423 
L 87.196378 201.363293 
L 81.690594 203.031588 
z
" clip-path="url(#pd99166b089)" style="fill: #100788"/>
    <path d="M 181.330536 187.225268 
L 186.5437 180.478053 
L 181.232464 177.773368 
L 176.027654 184.495194 
z
" clip-path="url(#pd99166b089)" style="fill: #6c00a8"/>
    <path d="M 223.247502 107.549984 
L 228.624638 92.094722 
L 223.171429 89.664027 
L 217.8218 105.075364 
z
" clip-path="url(#pd99166b089)" style="fill: #f0f921"/>
    <path d="M 202.326725 167.190509 
L 207.554928 157.894083 
L 202.174089 155.258796 
L 196.95976 164.524651 
z
" clip-path="url(#pd99166b089)" style="fill: #b32c8e"/>
    <path d="M 118.254583 206.059053 
L 123.613089 202.234178 
L 118.501575 199.461883 
L 113.146012 203.267113 
z
" clip-path="url(#pd99166b089)" style="fill: #19068c"/>
    <path d="M 218.059381 136.582703 
L 223.356437 124.17344 
L 217.921029 121.64214 
L 212.644771 134.014223 
z
" clip-path="url(#pd99166b089)" style="fill: #f48849"/>
    <path d="M 165.574943 195.872739 
L 170.810162 190.493983 
L 165.54744 187.75724 
L 160.317754 193.113313 
z
" clip-path="url(#pd99166b089)" style="fill: #4b03a1"/>
    <path d="M 76.108787 203.66537 
L 81.690594 203.031588 
L 76.71263 200.257687 
L 71.128338 200.878257 
z
" clip-path="url(#pd99166b089)" style="fill: #20068f"/>
    <path d="M 128.756978 205.024033 
L 134.087314 201.040356 
L 128.94033 198.270468 
L 123.613089 202.234178 
z
" clip-path="url(#pd99166b089)" style="fill: #220690"/>
    <path d="M 197.106485 175.621344 
L 202.326725 167.190509 
L 196.95976 164.524651 
L 191.751492 172.926661 
z
" clip-path="url(#pd99166b089)" style="fill: #9a169f"/>
    <path d="M 139.266914 203.827796 
L 144.570528 199.649602 
L 139.387596 196.882523 
L 134.087314 201.040356 
z
" clip-path="url(#pd99166b089)" style="fill: #2a0593"/>
    <path d="M 223.356437 124.17344 
L 228.707573 110.040279 
L 223.247502 107.549984 
L 217.921029 121.64214 
z
" clip-path="url(#pd99166b089)" style="fill: #feba2c"/>
    <path d="M 176.106234 193.248068 
L 181.330536 187.225268 
L 176.027654 184.495194 
L 170.810162 190.493983 
z
" clip-path="url(#pd99166b089)" style="fill: #5901a5"/>
    <path d="M 191.888587 183.199875 
L 197.106485 175.621344 
L 191.751492 172.926661 
L 186.5437 180.478053 
z
" clip-path="url(#pd99166b089)" style="fill: #8305a7"/>
    <path d="M 149.786321 202.434225 
L 155.065062 197.96591 
L 149.845487 195.202238 
L 144.570528 199.649602 
z
" clip-path="url(#pd99166b089)" style="fill: #330597"/>
    <path d="M 160.317754 200.747117 
L 165.574943 195.872739 
L 160.317754 193.113313 
L 155.065062 197.96591 
z
" clip-path="url(#pd99166b089)" style="fill: #3e049c"/>
    <path d="M 102.318101 209.744557 
L 107.755231 206.821136 
L 102.681373 204.027662 
L 97.245626 206.933121 
z
" clip-path="url(#pd99166b089)" style="fill: #0d0887"/>
    <path d="M 212.96988 160.546077 
L 218.227519 150.341697 
L 212.796661 147.72229 
L 207.554928 157.894083 
z
" clip-path="url(#pd99166b089)" style="fill: #cb4679"/>
    <path d="M 218.227519 150.341697 
L 223.508324 139.167469 
L 218.059381 136.582703 
L 212.796661 147.72229 
z
" clip-path="url(#pd99166b089)" style="fill: #e16462"/>
    <path d="M 112.861305 209.632346 
L 118.254583 206.059053 
L 113.146012 203.267113 
L 107.755231 206.821136 
z
" clip-path="url(#pd99166b089)" style="fill: #100788"/>
    <path d="M 91.741379 208.632248 
L 97.245626 206.933121 
L 92.205152 204.139423 
L 86.700077 205.823052 
z
" clip-path="url(#pd99166b089)" style="fill: #100788"/>
    <path d="M 186.667067 189.972665 
L 191.888587 183.199875 
L 186.5437 180.478053 
L 181.330536 187.225268 
z
" clip-path="url(#pd99166b089)" style="fill: #6c00a8"/>
    <path d="M 228.707573 110.040279 
L 234.112459 94.540843 
L 228.624638 92.094722 
L 223.247502 107.549984 
z
" clip-path="url(#pd99166b089)" style="fill: #f0f921"/>
    <path d="M 207.727731 169.873278 
L 212.96988 160.546077 
L 207.554928 157.894083 
L 202.326725 167.190509 
z
" clip-path="url(#pd99166b089)" style="fill: #b32c8e"/>
    <path d="M 123.3956 208.868725 
L 128.756978 205.024033 
L 123.613089 202.234178 
L 118.254583 206.059053 
z
" clip-path="url(#pd99166b089)" style="fill: #19068c"/>
    <path d="M 223.508324 139.167469 
L 228.826336 126.720802 
L 223.356437 124.17344 
L 218.059381 136.582703 
z
" clip-path="url(#pd99166b089)" style="fill: #f48849"/>
    <path d="M 170.865516 198.649688 
L 176.106234 193.248068 
L 170.810162 190.493983 
L 165.574943 195.872739 
z
" clip-path="url(#pd99166b089)" style="fill: #4b03a1"/>
    <path d="M 81.120899 206.470201 
L 86.700077 205.823052 
L 81.690594 203.031588 
L 76.108787 203.66537 
z
" clip-path="url(#pd99166b089)" style="fill: #20068f"/>
    <path d="M 133.933552 207.831613 
L 139.266914 203.827796 
L 134.087314 201.040356 
L 128.756978 205.024033 
z
" clip-path="url(#pd99166b089)" style="fill: #220690"/>
    <path d="M 202.495474 178.333135 
L 207.727731 169.873278 
L 202.326725 167.190509 
L 197.106485 175.621344 
z
" clip-path="url(#pd99166b089)" style="fill: #9a169f"/>
    <path d="M 144.479441 206.632956 
L 149.786321 202.434225 
L 144.570528 199.649602 
L 139.266914 203.827796 
z
" clip-path="url(#pd99166b089)" style="fill: #2a0593"/>
    <path d="M 228.826336 126.720802 
L 234.202341 112.546399 
L 228.707573 110.040279 
L 223.356437 124.17344 
z
" clip-path="url(#pd99166b089)" style="fill: #feba2c"/>
    <path d="M 181.435974 196.019662 
L 186.667067 189.972665 
L 181.330536 187.225268 
L 176.106234 193.248068 
z
" clip-path="url(#pd99166b089)" style="fill: #5901a5"/>
    <path d="M 197.267445 185.938997 
L 202.495474 178.333135 
L 197.106485 175.621344 
L 191.888587 183.199875 
z
" clip-path="url(#pd99166b089)" style="fill: #8305a7"/>
    <path d="M 155.035291 205.236561 
L 160.317754 200.747117 
L 155.065062 197.96591 
L 149.786321 202.434225 
z
" clip-path="url(#pd99166b089)" style="fill: #330597"/>
    <path d="M 165.60388 203.546026 
L 170.865516 198.649688 
L 165.574943 195.872739 
L 160.317754 200.747117 
z
" clip-path="url(#pd99166b089)" style="fill: #3e049c"/>
    <path d="M 107.422884 212.5739 
L 112.861305 209.632346 
L 107.755231 206.821136 
L 102.318101 209.744557 
z
" clip-path="url(#pd99166b089)" style="fill: #0d0887"/>
    <path d="M 218.419272 163.214938 
L 223.692913 152.977761 
L 218.227519 150.341697 
L 212.96988 160.546077 
z
" clip-path="url(#pd99166b089)" style="fill: #cb4679"/>
    <path d="M 223.692913 152.977761 
L 228.991927 141.768676 
L 223.508324 139.167469 
L 218.227519 150.341697 
z
" clip-path="url(#pd99166b089)" style="fill: #e16462"/>
    <path d="M 117.999901 212.461461 
L 123.3956 208.868725 
L 118.254583 206.059053 
L 112.861305 209.632346 
z
" clip-path="url(#pd99166b089)" style="fill: #100788"/>
    <path d="M 96.814805 211.459343 
L 102.318101 209.744557 
L 97.245626 206.933121 
L 91.741379 208.632248 
z
" clip-path="url(#pd99166b089)" style="fill: #100788"/>
    <path d="M 192.037569 192.737551 
L 197.267445 185.938997 
L 191.888587 183.199875 
L 186.667067 189.972665 
z
" clip-path="url(#pd99166b089)" style="fill: #6c00a8"/>
    <path d="M 234.202341 112.546399 
L 239.635221 97.00254 
L 234.112459 94.540843 
L 228.707573 110.040279 
z
" clip-path="url(#pd99166b089)" style="fill: #f0f921"/>
    <path d="M 213.163106 172.573117 
L 218.419272 163.214938 
L 212.96988 160.546077 
L 207.727731 169.873278 
z
" clip-path="url(#pd99166b089)" style="fill: #b32c8e"/>
    <path d="M 128.569373 211.696299 
L 133.933552 207.831613 
L 128.756978 205.024033 
L 123.3956 208.868725 
z
" clip-path="url(#pd99166b089)" style="fill: #19068c"/>
    <path d="M 228.991927 141.768676 
L 234.331054 129.28438 
L 228.826336 126.720802 
L 223.508324 139.167469 
z
" clip-path="url(#pd99166b089)" style="fill: #f48849"/>
    <path d="M 176.189794 201.444328 
L 181.435974 196.019662 
L 176.106234 193.248068 
L 170.865516 198.649688 
z
" clip-path="url(#pd99166b089)" style="fill: #4b03a1"/>
    <path d="M 86.164977 209.292921 
L 91.741379 208.632248 
L 86.700077 205.823052 
L 81.120899 206.470201 
z
" clip-path="url(#pd99166b089)" style="fill: #20068f"/>
    <path d="M 139.143121 210.65709 
L 144.479441 206.632956 
L 139.266914 203.827796 
L 133.933552 207.831613 
z
" clip-path="url(#pd99166b089)" style="fill: #220690"/>
    <path d="M 207.918783 181.062195 
L 213.163106 172.573117 
L 207.727731 169.873278 
L 202.495474 178.333135 
z
" clip-path="url(#pd99166b089)" style="fill: #9a169f"/>
    <path d="M 149.72521 209.456006 
L 155.035291 205.236561 
L 149.786321 202.434225 
L 144.479441 206.632956 
z
" clip-path="url(#pd99166b089)" style="fill: #2a0593"/>
    <path d="M 234.331054 129.28438 
L 239.732138 115.068496 
L 234.202341 112.546399 
L 228.826336 126.720802 
z
" clip-path="url(#pd99166b089)" style="fill: #feba2c"/>
    <path d="M 186.799705 198.808932 
L 192.037569 192.737551 
L 186.667067 189.972665 
L 181.435974 196.019662 
z
" clip-path="url(#pd99166b089)" style="fill: #5901a5"/>
    <path d="M 202.680601 188.695583 
L 207.918783 181.062195 
L 202.495474 178.333135 
L 197.267445 185.938997 
z
" clip-path="url(#pd99166b089)" style="fill: #8305a7"/>
    <path d="M 160.317754 208.056779 
L 165.60388 203.546026 
L 160.317754 200.747117 
L 155.035291 205.236561 
z
" clip-path="url(#pd99166b089)" style="fill: #330597"/>
    <path d="M 170.923761 206.362808 
L 176.189794 201.444328 
L 170.865516 198.649688 
L 165.60388 203.546026 
z
" clip-path="url(#pd99166b089)" style="fill: #3e049c"/>
    <path d="M 112.560284 215.42132 
L 117.999901 212.461461 
L 112.861305 209.632346 
L 107.422884 212.5739 
z
" clip-path="url(#pd99166b089)" style="fill: #0d0887"/>
    <path d="M 223.903434 165.900827 
L 229.193175 155.630643 
L 223.692913 152.977761 
L 218.419272 163.214938 
z
" clip-path="url(#pd99166b089)" style="fill: #cb4679"/>
    <path d="M 229.193175 155.630643 
L 234.510522 144.386482 
L 228.991927 141.768676 
L 223.692913 152.977761 
z
" clip-path="url(#pd99166b089)" style="fill: #e16462"/>
    <path d="M 123.171331 215.308655 
L 128.569373 211.696299 
L 123.3956 208.868725 
L 117.999901 212.461461 
z
" clip-path="url(#pd99166b089)" style="fill: #100788"/>
    <path d="M 101.920662 214.304511 
L 107.422884 212.5739 
L 102.318101 209.744557 
L 96.814805 211.459343 
z
" clip-path="url(#pd99166b089)" style="fill: #100788"/>
    <path d="M 197.442367 195.520093 
L 202.680601 188.695583 
L 197.267445 185.938997 
L 192.037569 192.737551 
z
" clip-path="url(#pd99166b089)" style="fill: #6c00a8"/>
    <path d="M 239.732138 115.068496 
L 245.19326 99.479961 
L 239.635221 97.00254 
L 234.202341 112.546399 
z
" clip-path="url(#pd99166b089)" style="fill: #f0f921"/>
    <path d="M 218.633177 175.290191 
L 223.903434 165.900827 
L 218.419272 163.214938 
L 213.163106 172.573117 
z
" clip-path="url(#pd99166b089)" style="fill: #b32c8e"/>
    <path d="M 133.776216 214.541946 
L 139.143121 210.65709 
L 133.933552 207.831613 
L 128.569373 211.696299 
z
" clip-path="url(#pd99166b089)" style="fill: #19068c"/>
    <path d="M 234.510522 144.386482 
L 239.870926 131.864329 
L 234.331054 129.28438 
L 228.991927 141.768676 
z
" clip-path="url(#pd99166b089)" style="fill: #f48849"/>
    <path d="M 181.548099 204.256828 
L 186.799705 198.808932 
L 181.435974 196.019662 
L 176.189794 201.444328 
z
" clip-path="url(#pd99166b089)" style="fill: #4b03a1"/>
    <path d="M 91.241328 212.133701 
L 96.814805 211.459343 
L 91.741379 208.632248 
L 86.164977 209.292921 
z
" clip-path="url(#pd99166b089)" style="fill: #20068f"/>
    <path d="M 144.386003 213.500635 
L 149.72521 209.456006 
L 144.479441 206.632956 
L 139.143121 210.65709 
z
" clip-path="url(#pd99166b089)" style="fill: #220690"/>
    <path d="M 213.376741 183.808692 
L 218.633177 175.290191 
L 213.163106 172.573117 
L 207.918783 181.062195 
z
" clip-path="url(#pd99166b089)" style="fill: #9a169f"/>
    <path d="M 155.00454 212.297117 
L 160.317754 208.056779 
L 155.035291 205.236561 
L 149.72521 209.456006 
z
" clip-path="url(#pd99166b089)" style="fill: #2a0593"/>
    <path d="M 239.870926 131.864329 
L 245.2973 117.606722 
L 239.732138 115.068496 
L 234.331054 129.28438 
z
" clip-path="url(#pd99166b089)" style="fill: #feba2c"/>
    <path d="M 192.197752 201.616047 
L 197.442367 195.520093 
L 192.037569 192.737551 
L 186.799705 198.808932 
z
" clip-path="url(#pd99166b089)" style="fill: #5901a5"/>
    <path d="M 208.128382 191.469803 
L 213.376741 183.808692 
L 207.918783 181.062195 
L 202.680601 188.695583 
z
" clip-path="url(#pd99166b089)" style="fill: #8305a7"/>
    <path d="M 165.634033 210.89505 
L 170.923761 206.362808 
L 165.60388 203.546026 
L 160.317754 208.056779 
z
" clip-path="url(#pd99166b089)" style="fill: #330597"/>
    <path d="M 176.27772 209.197634 
L 181.548099 204.256828 
L 176.189794 201.444328 
L 170.923761 206.362808 
z
" clip-path="url(#pd99166b089)" style="fill: #3e049c"/>
    <path d="M 117.730614 218.286992 
L 123.171331 215.308655 
L 117.999901 212.461461 
L 112.560284 215.42132 
z
" clip-path="url(#pd99166b089)" style="fill: #0d0887"/>
    <path d="M 229.422698 168.603908 
L 234.728637 158.300503 
L 229.193175 155.630643 
L 223.903434 165.900827 
z
" clip-path="url(#pd99166b089)" style="fill: #cb4679"/>
    <path d="M 234.728637 158.300503 
L 240.064444 147.021046 
L 234.510522 144.386482 
L 229.193175 155.630643 
z
" clip-path="url(#pd99166b089)" style="fill: #e16462"/>
    <path d="M 128.375912 218.174099 
L 133.776216 214.541946 
L 128.569373 211.696299 
L 123.171331 215.308655 
z
" clip-path="url(#pd99166b089)" style="fill: #100788"/>
    <path d="M 107.059263 217.167925 
L 112.560284 215.42132 
L 107.422884 212.5739 
L 101.920662 214.304511 
z
" clip-path="url(#pd99166b089)" style="fill: #100788"/>
    <path d="M 202.881791 198.320462 
L 208.128382 191.469803 
L 202.680601 188.695583 
L 197.442367 195.520093 
z
" clip-path="url(#pd99166b089)" style="fill: #6c00a8"/>
    <path d="M 245.2973 117.606722 
L 250.786914 101.973256 
L 245.19326 99.479961 
L 239.732138 115.068496 
z
" clip-path="url(#pd99166b089)" style="fill: #f0f921"/>
    <path d="M 224.138278 178.024665 
L 229.422698 168.603908 
L 223.903434 165.900827 
L 218.633177 175.290191 
z
" clip-path="url(#pd99166b089)" style="fill: #b32c8e"/>
    <path d="M 139.016447 217.40584 
L 144.386003 213.500635 
L 139.143121 210.65709 
L 133.776216 214.541946 
z
" clip-path="url(#pd99166b089)" style="fill: #19068c"/>
    <path d="M 240.064444 147.021046 
L 245.44629 134.460807 
L 239.870926 131.864329 
L 234.510522 144.386482 
z
" clip-path="url(#pd99166b089)" style="fill: #f48849"/>
    <path d="M 186.940758 207.087361 
L 192.197752 201.616047 
L 186.799705 198.808932 
L 181.548099 204.256828 
z
" clip-path="url(#pd99166b089)" style="fill: #4b03a1"/>
    <path d="M 96.350263 214.992715 
L 101.920662 214.304511 
L 96.814805 211.459343 
L 91.241328 212.133701 
z
" clip-path="url(#pd99166b089)" style="fill: #20068f"/>
    <path d="M 149.662519 216.362421 
L 155.00454 212.297117 
L 149.72521 209.456006 
L 144.386003 213.500635 
z
" clip-path="url(#pd99166b089)" style="fill: #220690"/>
    <path d="M 218.869681 186.572791 
L 224.138278 178.024665 
L 218.633177 175.290191 
L 213.376741 183.808692 
z
" clip-path="url(#pd99166b089)" style="fill: #9a169f"/>
    <path d="M 160.317754 215.156463 
L 165.634033 210.89505 
L 160.317754 208.056779 
L 155.00454 212.297117 
z
" clip-path="url(#pd99166b089)" style="fill: #2a0593"/>
    <path d="M 245.44629 134.460807 
L 250.898167 120.161233 
L 245.2973 117.606722 
L 239.870926 131.864329 
z
" clip-path="url(#pd99166b089)" style="fill: #feba2c"/>
    <path d="M 197.630446 204.44118 
L 202.881791 198.320462 
L 197.442367 195.520093 
L 192.197752 201.616047 
z
" clip-path="url(#pd99166b089)" style="fill: #5901a5"/>
    <path d="M 213.611123 194.261825 
L 218.869681 186.572791 
L 213.376741 183.808692 
L 208.128382 191.469803 
z
" clip-path="url(#pd99166b089)" style="fill: #8305a7"/>
    <path d="M 170.984452 213.751548 
L 176.27772 209.197634 
L 170.923761 206.362808 
L 165.634033 210.89505 
z
" clip-path="url(#pd99166b089)" style="fill: #330597"/>
    <path d="M 181.666085 212.050678 
L 186.940758 207.087361 
L 181.548099 204.256828 
L 176.27772 209.197634 
z
" clip-path="url(#pd99166b089)" style="fill: #3e049c"/>
    <path d="M 122.934193 221.171092 
L 128.375912 218.174099 
L 123.171331 215.308655 
L 117.730614 218.286992 
z
" clip-path="url(#pd99166b089)" style="fill: #0d0887"/>
    <path d="M 234.977403 171.324346 
L 240.29964 160.987505 
L 234.728637 158.300503 
L 229.422698 168.603908 
z
" clip-path="url(#pd99166b089)" style="fill: #cb4679"/>
    <path d="M 240.29964 160.987505 
L 245.654035 149.67253 
L 240.064444 147.021046 
L 234.728637 158.300503 
z
" clip-path="url(#pd99166b089)" style="fill: #e16462"/>
    <path d="M 133.613963 221.057971 
L 139.016447 217.40584 
L 133.776216 214.541946 
L 128.375912 218.174099 
z
" clip-path="url(#pd99166b089)" style="fill: #100788"/>
    <path d="M 112.230923 220.04976 
L 117.730614 218.286992 
L 112.560284 215.42132 
L 107.059263 217.167925 
z
" clip-path="url(#pd99166b089)" style="fill: #100788"/>
    <path d="M 208.356175 201.13883 
L 213.611123 194.261825 
L 208.128382 191.469803 
L 202.881791 198.320462 
z
" clip-path="url(#pd99166b089)" style="fill: #6c00a8"/>
    <path d="M 250.898167 120.161233 
L 256.416528 104.48258 
L 250.786914 101.973256 
L 245.2973 117.606722 
z
" clip-path="url(#pd99166b089)" style="fill: #f0f921"/>
    <path d="M 229.678747 180.776706 
L 234.977403 171.324346 
L 229.422698 168.603908 
L 224.138278 178.024665 
z
" clip-path="url(#pd99166b089)" style="fill: #b32c8e"/>
    <path d="M 144.290387 220.288157 
L 149.662519 216.362421 
L 144.386003 213.500635 
L 139.016447 217.40584 
z
" clip-path="url(#pd99166b089)" style="fill: #19068c"/>
    <path d="M 245.654035 149.67253 
L 251.057487 137.073973 
L 245.44629 134.460807 
L 240.064444 147.021046 
z
" clip-path="url(#pd99166b089)" style="fill: #f48849"/>
    <path d="M 192.368103 209.9361 
L 197.630446 204.44118 
L 192.197752 201.616047 
L 186.940758 207.087361 
z
" clip-path="url(#pd99166b089)" style="fill: #4b03a1"/>
    <path d="M 101.492095 217.87014 
L 107.059263 217.167925 
L 101.920662 214.304511 
L 96.350263 214.992715 
z
" clip-path="url(#pd99166b089)" style="fill: #20068f"/>
    <path d="M 154.972993 219.242624 
L 160.317754 215.156463 
L 155.00454 212.297117 
L 149.662519 216.362421 
z
" clip-path="url(#pd99166b089)" style="fill: #220690"/>
    <path d="M 224.397941 189.354664 
L 229.678747 180.776706 
L 224.138278 178.024665 
L 218.869681 186.572791 
z
" clip-path="url(#pd99166b089)" style="fill: #9a169f"/>
    <path d="M 165.66518 218.03422 
L 170.984452 213.751548 
L 165.634033 210.89505 
L 160.317754 215.156463 
z
" clip-path="url(#pd99166b089)" style="fill: #2a0593"/>
    <path d="M 251.057487 137.073973 
L 256.535084 122.732187 
L 250.898167 120.161233 
L 245.44629 134.460807 
z
" clip-path="url(#pd99166b089)" style="fill: #feba2c"/>
    <path d="M 203.098121 207.284503 
L 208.356175 201.13883 
L 202.881791 198.320462 
L 197.630446 204.44118 
z
" clip-path="url(#pd99166b089)" style="fill: #5901a5"/>
    <path d="M 219.12916 197.071822 
L 224.397941 189.354664 
L 218.869681 186.572791 
L 213.611123 194.261825 
z
" clip-path="url(#pd99166b089)" style="fill: #8305a7"/>
    <path d="M 176.369342 216.62645 
L 181.666085 212.050678 
L 176.27772 209.197634 
L 170.984452 213.751548 
z
" clip-path="url(#pd99166b089)" style="fill: #330597"/>
    <path d="M 187.089191 214.922116 
L 192.368103 209.9361 
L 186.940758 207.087361 
L 181.666085 212.050678 
z
" clip-path="url(#pd99166b089)" style="fill: #3e049c"/>
    <path d="M 128.171342 224.073799 
L 133.613963 221.057971 
L 128.375912 218.174099 
L 122.934193 221.171092 
z
" clip-path="url(#pd99166b089)" style="fill: #0d0887"/>
    <path d="M 240.567892 174.06231 
L 245.906527 163.691814 
L 240.29964 160.987505 
L 234.977403 171.324346 
z
" clip-path="url(#pd99166b089)" style="fill: #cb4679"/>
    <path d="M 245.906527 163.691814 
L 251.279639 152.341097 
L 245.654035 149.67253 
L 240.29964 160.987505 
z
" clip-path="url(#pd99166b089)" style="fill: #e16462"/>
    <path d="M 138.885808 223.960449 
L 144.290387 220.288157 
L 139.016447 217.40584 
L 133.613963 221.057971 
z
" clip-path="url(#pd99166b089)" style="fill: #100788"/>
    <path d="M 117.435963 222.950196 
L 122.934193 221.171092 
L 117.730614 218.286992 
L 112.230923 220.04976 
z
" clip-path="url(#pd99166b089)" style="fill: #100788"/>
    <path d="M 213.865856 203.975369 
L 219.12916 197.071822 
L 213.611123 194.261825 
L 208.356175 201.13883 
z
" clip-path="url(#pd99166b089)" style="fill: #6c00a8"/>
    <path d="M 256.535084 122.732187 
L 262.082449 107.008088 
L 256.416528 104.48258 
L 250.898167 120.161233 
z
" clip-path="url(#pd99166b089)" style="fill: #f0f921"/>
    <path d="M 235.254925 183.546485 
L 240.567892 174.06231 
L 234.977403 171.324346 
L 229.678747 180.776706 
z
" clip-path="url(#pd99166b089)" style="fill: #b32c8e"/>
    <path d="M 149.598364 223.189076 
L 154.972993 219.242624 
L 149.662519 216.362421 
L 144.290387 220.288157 
z
" clip-path="url(#pd99166b089)" style="fill: #19068c"/>
    <path d="M 251.279639 152.341097 
L 256.704864 139.703988 
L 251.057487 137.073973 
L 245.654035 149.67253 
z
" clip-path="url(#pd99166b089)" style="fill: #f48849"/>
    <path d="M 197.83047 212.803221 
L 203.098121 207.284503 
L 197.630446 204.44118 
L 192.368103 209.9361 
z
" clip-path="url(#pd99166b089)" style="fill: #4b03a1"/>
    <path d="M 106.667145 220.766153 
L 112.230923 220.04976 
L 107.059263 217.167925 
L 101.492095 217.87014 
z
" clip-path="url(#pd99166b089)" style="fill: #20068f"/>
    <path d="M 160.317754 222.141424 
L 165.66518 218.03422 
L 160.317754 215.156463 
L 154.972993 219.242624 
z
" clip-path="url(#pd99166b089)" style="fill: #220690"/>
    <path d="M 229.961862 192.154482 
L 235.254925 183.546485 
L 229.678747 180.776706 
L 224.397941 189.354664 
z
" clip-path="url(#pd99166b089)" style="fill: #9a169f"/>
    <path d="M 171.047148 220.930566 
L 176.369342 216.62645 
L 170.984452 213.751548 
L 165.66518 218.03422 
z
" clip-path="url(#pd99166b089)" style="fill: #2a0593"/>
    <path d="M 256.704864 139.703988 
L 262.2084 125.319741 
L 256.535084 122.732187 
L 251.057487 137.073973 
z
" clip-path="url(#pd99166b089)" style="fill: #feba2c"/>
    <path d="M 208.601116 210.146194 
L 213.865856 203.975369 
L 208.356175 201.13883 
L 203.098121 207.284503 
z
" clip-path="url(#pd99166b089)" style="fill: #5901a5"/>
    <path d="M 224.682836 199.899967 
L 229.961862 192.154482 
L 224.397941 189.354664 
L 219.12916 197.071822 
z
" clip-path="url(#pd99166b089)" style="fill: #8305a7"/>
    <path d="M 181.789038 219.519933 
L 187.089191 214.922116 
L 181.666085 212.050678 
L 176.369342 216.62645 
z
" clip-path="url(#pd99166b089)" style="fill: #330597"/>
    <path d="M 192.547373 217.812127 
L 197.83047 212.803221 
L 192.368103 209.9361 
L 187.089191 214.922116 
z
" clip-path="url(#pd99166b089)" style="fill: #3e049c"/>
    <path d="M 133.442386 226.995292 
L 138.885808 223.960449 
L 133.613963 221.057971 
L 128.171342 224.073799 
z
" clip-path="url(#pd99166b089)" style="fill: #0d0887"/>
    <path d="M 144.191775 226.881713 
L 149.598364 223.189076 
L 144.290387 220.288157 
L 138.885808 223.960449 
z
" clip-path="url(#pd99166b089)" style="fill: #100788"/>
    <path d="M 122.674707 225.869413 
L 128.171342 224.073799 
L 122.934193 221.171092 
L 117.435963 222.950196 
z
" clip-path="url(#pd99166b089)" style="fill: #100788"/>
    <path d="M 219.411178 206.830258 
L 224.682836 199.899967 
L 219.12916 197.071822 
L 213.865856 203.975369 
z
" clip-path="url(#pd99166b089)" style="fill: #6c00a8"/>
    <path d="M 262.2084 125.319741 
L 267.785029 109.549936 
L 262.082449 107.008088 
L 256.535084 122.732187 
z
" clip-path="url(#pd99166b089)" style="fill: #f0f921"/>
    <path d="M 154.940708 226.108778 
L 160.317754 222.141424 
L 154.972993 219.242624 
L 149.598364 223.189076 
z
" clip-path="url(#pd99166b089)" style="fill: #19068c"/>
    <path d="M 203.328198 215.688903 
L 208.601116 210.146194 
L 203.098121 207.284503 
L 197.83047 212.803221 
z
" clip-path="url(#pd99166b089)" style="fill: #4b03a1"/>
    <path d="M 111.875735 223.680935 
L 117.435963 222.950196 
L 112.230923 220.04976 
L 106.667145 220.766153 
z
" clip-path="url(#pd99166b089)" style="fill: #20068f"/>
    <path d="M 165.697135 225.059 
L 171.047148 220.930566 
L 165.66518 218.03422 
L 160.317754 222.141424 
z
" clip-path="url(#pd99166b089)" style="fill: #220690"/>
    <path d="M 176.463995 223.845683 
L 181.789038 219.519933 
L 176.369342 216.62645 
L 171.047148 220.930566 
z
" clip-path="url(#pd99166b089)" style="fill: #2a0593"/>
    <path d="M 214.139775 213.026431 
L 219.411178 206.830258 
L 213.865856 203.975369 
L 208.601116 210.146194 
z
" clip-path="url(#pd99166b089)" style="fill: #5901a5"/>
    <path d="M 187.243877 222.432179 
L 192.547373 217.812127 
L 187.089191 214.922116 
L 181.789038 219.519933 
z
" clip-path="url(#pd99166b089)" style="fill: #330597"/>
    <path d="M 198.040974 220.72089 
L 203.328198 215.688903 
L 197.83047 212.803221 
L 192.547373 217.812127 
z
" clip-path="url(#pd99166b089)" style="fill: #3e049c"/>
    <path d="M 138.747657 229.935756 
L 144.191775 226.881713 
L 138.885808 223.960449 
L 133.442386 226.995292 
z
" clip-path="url(#pd99166b089)" style="fill: #0d0887"/>
    <path d="M 149.532197 229.821946 
L 154.940708 226.108778 
L 149.598364 223.189076 
L 144.191775 226.881713 
z
" clip-path="url(#pd99166b089)" style="fill: #100788"/>
    <path d="M 127.947483 228.807594 
L 133.442386 226.995292 
L 128.171342 224.073799 
L 122.674707 225.869413 
z
" clip-path="url(#pd99166b089)" style="fill: #100788"/>
    <path d="M 160.317754 229.047444 
L 165.697135 225.059 
L 160.317754 222.141424 
L 154.940708 226.108778 
z
" clip-path="url(#pd99166b089)" style="fill: #19068c"/>
    <path d="M 208.861633 218.593326 
L 214.139775 213.026431 
L 208.601116 210.146194 
L 203.328198 215.688903 
z
" clip-path="url(#pd99166b089)" style="fill: #4b03a1"/>
    <path d="M 117.118191 226.614669 
L 122.674707 225.869413 
L 117.435963 222.950196 
L 111.875735 223.680935 
z
" clip-path="url(#pd99166b089)" style="fill: #20068f"/>
    <path d="M 171.111474 227.995536 
L 176.463995 223.845683 
L 171.047148 220.930566 
L 165.697135 225.059 
z
" clip-path="url(#pd99166b089)" style="fill: #220690"/>
    <path d="M 181.91606 226.779752 
L 187.243877 222.432179 
L 181.789038 219.519933 
L 176.463995 223.845683 
z
" clip-path="url(#pd99166b089)" style="fill: #2a0593"/>
    <path d="M 192.734202 225.363371 
L 198.040974 220.72089 
L 192.547373 217.812127 
L 187.243877 222.432179 
z
" clip-path="url(#pd99166b089)" style="fill: #330597"/>
    <path d="M 203.570339 223.648591 
L 208.861633 218.593326 
L 203.328198 215.688903 
L 198.040974 220.72089 
z
" clip-path="url(#pd99166b089)" style="fill: #3e049c"/>
    <path d="M 144.087488 232.895374 
L 149.532197 229.821946 
L 144.191775 226.881713 
L 138.747657 229.935756 
z
" clip-path="url(#pd99166b089)" style="fill: #0d0887"/>
    <path d="M 154.907409 232.781334 
L 160.317754 229.047444 
L 154.940708 226.108778 
L 149.532197 229.821946 
z
" clip-path="url(#pd99166b089)" style="fill: #100788"/>
    <path d="M 133.254623 231.764924 
L 138.747657 229.935756 
L 133.442386 226.995292 
L 127.947483 228.807594 
z
" clip-path="url(#pd99166b089)" style="fill: #100788"/>
    <path d="M 165.729841 232.005261 
L 171.111474 227.995536 
L 165.697135 225.059 
L 160.317754 229.047444 
z
" clip-path="url(#pd99166b089)" style="fill: #19068c"/>
    <path d="M 122.394846 229.567542 
L 127.947483 228.807594 
L 122.674707 225.869413 
L 117.118191 226.614669 
z
" clip-path="url(#pd99166b089)" style="fill: #20068f"/>
    <path d="M 176.561112 230.951217 
L 181.91606 226.779752 
L 176.463995 223.845683 
L 171.111474 227.995536 
z
" clip-path="url(#pd99166b089)" style="fill: #220690"/>
    <path d="M 187.403689 229.732961 
L 192.734202 225.363371 
L 187.243877 222.432179 
L 181.91606 226.779752 
z
" clip-path="url(#pd99166b089)" style="fill: #2a0593"/>
    <path d="M 198.260362 228.313694 
L 203.570339 223.648591 
L 198.040974 220.72089 
L 192.734202 225.363371 
z
" clip-path="url(#pd99166b089)" style="fill: #330597"/>
    <path d="M 149.462218 235.874336 
L 154.907409 232.781334 
L 149.532197 229.821946 
L 144.087488 232.895374 
z
" clip-path="url(#pd99166b089)" style="fill: #0d0887"/>
    <path d="M 160.317754 235.760064 
L 165.729841 232.005261 
L 160.317754 229.047444 
L 154.907409 232.781334 
z
" clip-path="url(#pd99166b089)" style="fill: #100788"/>
    <path d="M 138.596466 234.741592 
L 144.087488 232.895374 
L 138.747657 229.935756 
L 133.254623 231.764924 
z
" clip-path="url(#pd99166b089)" style="fill: #100788"/>
    <path d="M 171.177312 234.982417 
L 176.561112 230.951217 
L 171.111474 227.995536 
L 165.729841 232.005261 
z
" clip-path="url(#pd99166b089)" style="fill: #19068c"/>
    <path d="M 127.706036 232.53974 
L 133.254623 231.764924 
L 127.947483 228.807594 
L 122.394846 229.567542 
z
" clip-path="url(#pd99166b089)" style="fill: #20068f"/>
    <path d="M 182.046396 233.926231 
L 187.403689 229.732961 
L 181.91606 226.779752 
L 176.561112 230.951217 
z
" clip-path="url(#pd99166b089)" style="fill: #220690"/>
    <path d="M 192.92723 232.705496 
L 198.260362 228.313694 
L 192.734202 225.363371 
L 187.403689 229.732961 
z
" clip-path="url(#pd99166b089)" style="fill: #2a0593"/>
    <path d="M 154.872191 238.872831 
L 160.317754 235.760064 
L 154.907409 232.781334 
L 149.462218 235.874336 
z
" clip-path="url(#pd99166b089)" style="fill: #0d0887"/>
    <path d="M 165.763577 238.758327 
L 171.177312 234.982417 
L 165.729841 232.005261 
L 160.317754 235.760064 
z
" clip-path="url(#pd99166b089)" style="fill: #100788"/>
    <path d="M 143.973352 237.737787 
L 149.462218 235.874336 
L 144.087488 232.895374 
L 138.596466 234.741592 
z
" clip-path="url(#pd99166b089)" style="fill: #100788"/>
    <path d="M 176.660516 237.979101 
L 182.046396 233.926231 
L 176.561112 230.951217 
L 171.177312 234.982417 
z
" clip-path="url(#pd99166b089)" style="fill: #19068c"/>
    <path d="M 133.052099 235.531454 
L 138.596466 234.741592 
L 133.254623 231.764924 
L 127.706036 232.53974 
z
" clip-path="url(#pd99166b089)" style="fill: #20068f"/>
    <path d="M 187.567676 236.920768 
L 192.92723 232.705496 
L 187.403689 229.732961 
L 182.046396 233.926231 
z
" clip-path="url(#pd99166b089)" style="fill: #220690"/>
    <path d="M 160.317754 241.891052 
L 165.763577 238.758327 
L 160.317754 235.760064 
L 154.872191 238.872831 
z
" clip-path="url(#pd99166b089)" style="fill: #0d0887"/>
    <path d="M 171.245227 241.776315 
L 176.660516 237.979101 
L 171.177312 234.982417 
L 165.763577 238.758327 
z
" clip-path="url(#pd99166b089)" style="fill: #100788"/>
    <path d="M 149.385628 240.753702 
L 154.872191 238.872831 
L 149.462218 235.874336 
L 143.973352 237.737787 
z
" clip-path="url(#pd99166b089)" style="fill: #100788"/>
    <path d="M 182.179806 240.995506 
L 187.567676 236.920768 
L 182.046396 233.926231 
L 176.660516 237.979101 
z
" clip-path="url(#pd99166b089)" style="fill: #19068c"/>
    <path d="M 138.433382 238.542877 
L 143.973352 237.737787 
L 138.596466 234.741592 
L 133.052099 235.531454 
z
" clip-path="url(#pd99166b089)" style="fill: #20068f"/>
    <path d="M 165.79926 244.929194 
L 171.245227 241.776315 
L 165.763577 238.758327 
L 160.317754 241.891052 
z
" clip-path="url(#pd99166b089)" style="fill: #0d0887"/>
    <path d="M 176.76306 244.814225 
L 182.179806 240.995506 
L 176.660516 237.979101 
L 171.245227 241.776315 
z
" clip-path="url(#pd99166b089)" style="fill: #100788"/>
    <path d="M 154.833643 243.789533 
L 160.317754 241.891052 
L 154.872191 238.872831 
L 149.385628 240.753702 
z
" clip-path="url(#pd99166b089)" style="fill: #100788"/>
    <path d="M 143.850232 241.574204 
L 149.385628 240.753702 
L 143.973352 237.737787 
L 138.433382 238.542877 
z
" clip-path="url(#pd99166b089)" style="fill: #20068f"/>
    <path d="M 171.317066 247.987455 
L 176.76306 244.814225 
L 171.245227 241.776315 
L 165.79926 244.929194 
z
" clip-path="url(#pd99166b089)" style="fill: #0d0887"/>
    <path d="M 160.317754 246.845477 
L 165.79926 244.929194 
L 160.317754 241.891052 
L 154.833643 243.789533 
z
" clip-path="url(#pd99166b089)" style="fill: #100788"/>
    <path d="M 149.303005 244.625634 
L 154.833643 243.789533 
L 149.385628 240.753702 
L 143.850232 241.574204 
z
" clip-path="url(#pd99166b089)" style="fill: #20068f"/>
    <path d="M 165.83832 249.921735 
L 171.317066 247.987455 
L 165.79926 244.929194 
L 160.317754 246.845477 
z
" clip-path="url(#pd99166b089)" style="fill: #100788"/>
    <path d="M 154.792058 247.697367 
L 160.317754 246.845477 
L 154.833643 243.789533 
L 149.303005 244.625634 
z
" clip-path="url(#pd99166b089)" style="fill: #20068f"/>
    <path d="M 160.317754 250.789605 
L 165.83832 249.921735 
L 160.317754 246.845477 
L 154.792058 247.697367 
z
" clip-path="url(#pd99166b089)" style="fill: #20068f"/>
   </g>
   <g id="text_19">
    <!-- t = 0.1c -->
    <g transform="translate(132.686959 16.318125) scale(0.12 -0.12)">
     <defs>
      <path id="DejaVuSans-74" d="M 1172 4494 
L 1172 3500 
L 2356 3500 
L 2356 3053 
L 1172 3053 
L 1172 1153 
Q 1172 725 1289 603 
Q 1406 481 1766 481 
L 2356 481 
L 2356 0 
L 1766 0 
Q 1100 0 847 248 
Q 594 497 594 1153 
L 594 3053 
L 172 3053 
L 172 3500 
L 594 3500 
L 594 4494 
L 1172 4494 
z
" transform="scale(0.015625)"/>
      <path id="DejaVuSans-20" transform="scale(0.015625)"/>
      <path id="DejaVuSans-3d" d="M 678 2906 
L 4684 2906 
L 4684 2381 
L 678 2381 
L 678 2906 
z
M 678 1631 
L 4684 1631 
L 4684 1100 
L 678 1100 
L 678 1631 
z
" transform="scale(0.015625)"/>
      <path id="DejaVuSans-63" d="M 3122 3366 
L 3122 2828 
Q 2878 2963 2633 3030 
Q 2388 3097 2138 3097 
Q 1578 3097 1268 2742 
Q 959 2388 959 1747 
Q 959 1106 1268 751 
Q 1578 397 2138 397 
Q 2388 397 2633 464 
Q 2878 531 3122 666 
L 3122 134 
Q 2881 22 2623 -34 
Q 2366 -91 2075 -91 
Q 1284 -91 818 406 
Q 353 903 353 1747 
Q 353 2603 823 3093 
Q 1294 3584 2113 3584 
Q 2378 3584 2631 3529 
Q 2884 3475 3122 3366 
z
" transform="scale(0.015625)"/>
     </defs>
     <use xlink:href="#DejaVuSans-74"/>
     <use xlink:href="#DejaVuSans-20" x="39.208984"/>
     <use xlink:href="#DejaVuSans-3d" x="70.996094"/>
     <use xlink:href="#DejaVuSans-20" x="154.785156"/>
     <use xlink:href="#DejaVuSans-30" x="186.572266"/>
     <use xlink:href="#DejaVuSans-2e" x="250.195312"/>
     <use xlink:href="#DejaVuSans-31" x="281.982422"/>
     <use xlink:href="#DejaVuSans-63" x="345.605469"/>
    </g>
   </g>
  </g>
 </g>
 <defs>
  <clipPath id="pd99166b089">
   <rect x="23.665646" y="22.318125" width="266.112" height="266.112"/>
  </clipPath>
 </defs>
</svg>
