<?xml version="1.0" encoding="utf-8" standalone="no"?>
<!DOCTYPE svg PUBLIC "-//W3C//DTD SVG 1.1//EN"
  "http://www.w3.org/Graphics/SVG/1.1/DTD/svg11.dtd">
<svg xmlns:xlink="http://www.w3.org/1999/xlink" width="297.033449pt" height="301.632874pt" viewBox="0 0 297.033449 301.632874" xmlns="http://www.w3.org/2000/svg" version="1.1">
 <metadata>
  <rdf:RDF xmlns:dc="http://purl.org/dc/elements/1.1/" xmlns:cc="http://creativecommons.org/ns#" xmlns:rdf="http://www.w3.org/1999/02/22-rdf-syntax-ns#">
   <cc:Work>
    <dc:type rdf:resource="http://purl.org/dc/dcmitype/StillImage"/>
    <dc:date>2023-06-13T03:35:53.148980</dc:date>
    <dc:format>image/svg+xml</dc:format>
    <dc:creator>
     <cc:Agent>
      <dc:title>Matplotlib v3.6.1, https://matplotlib.org/</dc:title>
     </cc:Agent>
    </dc:creator>
   </cc:Work>
  </rdf:RDF>
 </metadata>
 <defs>
  <style type="text/css">*{stroke-linejoin: round; stroke-linecap: butt}</style>
 </defs>
 <g id="figure_1">
  <g id="patch_1">
   <path d="M 0 301.632874 
L 297.033449 301.632874 
L 297.033449 0 
L 0 0 
z
" style="fill: #ffffff"/>
  </g>
  <g id="patch_2">
   <path d="M 23.665646 288.430125 
L 289.777646 288.430125 
L 289.777646 22.318125 
L 23.665646 22.318125 
z
" style="fill: #ffffff"/>
  </g>
  <g id="pane3d_1">
   <g id="patch_3">
    <path d="M 278.761186 206.176637 
L 160.317754 147.275961 
L 160.317754 41.213854 
L 284.169562 94.895442 
" style="fill: #f2f2f2; opacity: 0.5; stroke: #f2f2f2; stroke-linejoin: miter"/>
   </g>
  </g>
  <g id="pane3d_2">
   <g id="patch_4">
    <path d="M 41.874322 206.176637 
L 160.317754 147.275961 
L 160.317754 41.213854 
L 36.465946 94.895442 
" style="fill: #e6e6e6; opacity: 0.5; stroke: #e6e6e6; stroke-linejoin: miter"/>
   </g>
  </g>
  <g id="pane3d_3">
   <g id="patch_5">
    <path d="M 160.317754 274.122723 
L 278.761186 206.176637 
L 160.317754 147.275961 
L 41.874322 206.176637 
" style="fill: #ececec; opacity: 0.5; stroke: #ececec; stroke-linejoin: miter"/>
   </g>
  </g>
  <g id="axis3d_1">
   <g id="line2d_1">
    <path d="M 278.761186 206.176637 
L 160.317754 274.122723 
" style="fill: none; stroke: #000000; stroke-width: 0.8; stroke-linecap: square"/>
   </g>
   <g id="text_1">
    <!-- X -->
    <g transform="translate(240.892539 273.696013) scale(0.1 -0.1)">
     <defs>
      <path id="DejaVuSans-58" d="M 403 4666 
L 1081 4666 
L 2241 2931 
L 3406 4666 
L 4084 4666 
L 2584 2425 
L 4184 0 
L 3506 0 
L 2194 1984 
L 872 0 
L 191 0 
L 1856 2491 
L 403 4666 
z
" transform="scale(0.015625)"/>
     </defs>
     <use xlink:href="#DejaVuSans-58"/>
    </g>
   </g>
   <g id="Line3DCollection_1">
    <path d="M 168.394353 269.489513 
L 49.912638 202.179267 
L 44.895117 91.241952 
" style="fill: none; stroke: #b0b0b0; stroke-width: 0.8"/>
    <path d="M 195.499018 253.94069 
L 76.929634 188.743998 
L 73.200325 78.973512 
" style="fill: none; stroke: #b0b0b0; stroke-width: 0.8"/>
    <path d="M 221.729083 238.893589 
L 103.134886 175.712401 
L 100.617646 67.089912 
" style="fill: none; stroke: #b0b0b0; stroke-width: 0.8"/>
    <path d="M 247.12621 224.324311 
L 128.564436 163.066553 
L 127.188212 55.573325 
" style="fill: none; stroke: #b0b0b0; stroke-width: 0.8"/>
    <path d="M 271.729451 210.210451 
L 153.252223 150.789575 
L 152.950652 44.407006 
" style="fill: none; stroke: #b0b0b0; stroke-width: 0.8"/>
   </g>
   <g id="xtick_1">
    <g id="line2d_2">
     <path d="M 167.374695 268.910238 
L 170.437413 270.650189 
" style="fill: none; stroke: #000000; stroke-width: 0.8; stroke-linecap: square"/>
    </g>
    <g id="text_2">
     <!-- 0.0 -->
     <g transform="translate(171.019345 292.353187) scale(0.1 -0.1)">
      <defs>
       <path id="DejaVuSans-30" d="M 2034 4250 
Q 1547 4250 1301 3770 
Q 1056 3291 1056 2328 
Q 1056 1369 1301 889 
Q 1547 409 2034 409 
Q 2525 409 2770 889 
Q 3016 1369 3016 2328 
Q 3016 3291 2770 3770 
Q 2525 4250 2034 4250 
z
M 2034 4750 
Q 2819 4750 3233 4129 
Q 3647 3509 3647 2328 
Q 3647 1150 3233 529 
Q 2819 -91 2034 -91 
Q 1250 -91 836 529 
Q 422 1150 422 2328 
Q 422 3509 836 4129 
Q 1250 4750 2034 4750 
z
" transform="scale(0.015625)"/>
       <path id="DejaVuSans-2e" d="M 684 794 
L 1344 794 
L 1344 0 
L 684 0 
L 684 794 
z
" transform="scale(0.015625)"/>
      </defs>
      <use xlink:href="#DejaVuSans-30"/>
      <use xlink:href="#DejaVuSans-2e" x="63.623047"/>
      <use xlink:href="#DejaVuSans-30" x="95.410156"/>
     </g>
    </g>
   </g>
   <g id="xtick_2">
    <g id="line2d_3">
     <path d="M 194.479783 253.380253 
L 197.541168 255.06359 
" style="fill: none; stroke: #000000; stroke-width: 0.8; stroke-linecap: square"/>
    </g>
    <g id="text_3">
     <!-- 0.5 -->
     <g transform="translate(198.015831 276.515757) scale(0.1 -0.1)">
      <defs>
       <path id="DejaVuSans-35" d="M 691 4666 
L 3169 4666 
L 3169 4134 
L 1269 4134 
L 1269 2991 
Q 1406 3038 1543 3061 
Q 1681 3084 1819 3084 
Q 2600 3084 3056 2656 
Q 3513 2228 3513 1497 
Q 3513 744 3044 326 
Q 2575 -91 1722 -91 
Q 1428 -91 1123 -41 
Q 819 9 494 109 
L 494 744 
Q 775 591 1075 516 
Q 1375 441 1709 441 
Q 2250 441 2565 725 
Q 2881 1009 2881 1497 
Q 2881 1984 2565 2268 
Q 2250 2553 1709 2553 
Q 1456 2553 1204 2497 
Q 953 2441 691 2322 
L 691 4666 
z
" transform="scale(0.015625)"/>
      </defs>
      <use xlink:href="#DejaVuSans-30"/>
      <use xlink:href="#DejaVuSans-2e" x="63.623047"/>
      <use xlink:href="#DejaVuSans-35" x="95.410156"/>
     </g>
    </g>
   </g>
   <g id="xtick_3">
    <g id="line2d_4">
     <path d="M 220.710775 238.351085 
L 223.769318 239.980527 
" style="fill: none; stroke: #000000; stroke-width: 0.8; stroke-linecap: square"/>
    </g>
    <g id="text_4">
     <!-- 1.0 -->
     <g transform="translate(224.139131 261.190579) scale(0.1 -0.1)">
      <defs>
       <path id="DejaVuSans-31" d="M 794 531 
L 1825 531 
L 1825 4091 
L 703 3866 
L 703 4441 
L 1819 4666 
L 2450 4666 
L 2450 531 
L 3481 531 
L 3481 0 
L 794 0 
L 794 531 
z
" transform="scale(0.015625)"/>
      </defs>
      <use xlink:href="#DejaVuSans-31"/>
      <use xlink:href="#DejaVuSans-2e" x="63.623047"/>
      <use xlink:href="#DejaVuSans-30" x="95.410156"/>
     </g>
    </g>
   </g>
   <g id="xtick_4">
    <g id="line2d_5">
     <path d="M 246.109283 223.798892 
L 249.163618 225.376987 
" style="fill: none; stroke: #000000; stroke-width: 0.8; stroke-linecap: square"/>
    </g>
    <g id="text_5">
     <!-- 1.5 -->
     <g transform="translate(249.430937 246.353196) scale(0.1 -0.1)">
      <use xlink:href="#DejaVuSans-31"/>
      <use xlink:href="#DejaVuSans-2e" x="63.623047"/>
      <use xlink:href="#DejaVuSans-35" x="95.410156"/>
     </g>
    </g>
   </g>
   <g id="xtick_5">
    <g id="line2d_6">
     <path d="M 270.714319 209.701323 
L 273.763212 211.23046 
" style="fill: none; stroke: #000000; stroke-width: 0.8; stroke-linecap: square"/>
    </g>
    <g id="text_6">
     <!-- 2.0 -->
     <g transform="translate(273.930324 231.980683) scale(0.1 -0.1)">
      <defs>
       <path id="DejaVuSans-32" d="M 1228 531 
L 3431 531 
L 3431 0 
L 469 0 
L 469 531 
Q 828 903 1448 1529 
Q 2069 2156 2228 2338 
Q 2531 2678 2651 2914 
Q 2772 3150 2772 3378 
Q 2772 3750 2511 3984 
Q 2250 4219 1831 4219 
Q 1534 4219 1204 4116 
Q 875 4013 500 3803 
L 500 4441 
Q 881 4594 1212 4672 
Q 1544 4750 1819 4750 
Q 2544 4750 2975 4387 
Q 3406 4025 3406 3419 
Q 3406 3131 3298 2873 
Q 3191 2616 2906 2266 
Q 2828 2175 2409 1742 
Q 1991 1309 1228 531 
z
" transform="scale(0.015625)"/>
      </defs>
      <use xlink:href="#DejaVuSans-32"/>
      <use xlink:href="#DejaVuSans-2e" x="63.623047"/>
      <use xlink:href="#DejaVuSans-30" x="95.410156"/>
     </g>
    </g>
   </g>
  </g>
  <g id="axis3d_2">
   <g id="line2d_7">
    <path d="M 41.874322 206.176637 
L 160.317754 274.122723 
" style="fill: none; stroke: #000000; stroke-width: 0.8; stroke-linecap: square"/>
   </g>
   <g id="text_7">
    <!-- Y -->
    <g transform="translate(73.264063 273.696013) scale(0.1 -0.1)">
     <defs>
      <path id="DejaVuSans-59" d="M -13 4666 
L 666 4666 
L 1959 2747 
L 3244 4666 
L 3922 4666 
L 2272 2222 
L 2272 0 
L 1638 0 
L 1638 2222 
L -13 4666 
z
" transform="scale(0.015625)"/>
     </defs>
     <use xlink:href="#DejaVuSans-59"/>
    </g>
   </g>
   <g id="Line3DCollection_2">
    <path d="M 275.740391 91.241952 
L 270.72287 202.179267 
L 152.241155 269.489513 
" style="fill: none; stroke: #b0b0b0; stroke-width: 0.8"/>
    <path d="M 247.435183 78.973512 
L 243.705874 188.743998 
L 125.136491 253.94069 
" style="fill: none; stroke: #b0b0b0; stroke-width: 0.8"/>
    <path d="M 220.017862 67.089912 
L 217.500622 175.712401 
L 98.906425 238.893589 
" style="fill: none; stroke: #b0b0b0; stroke-width: 0.8"/>
    <path d="M 193.447297 55.573325 
L 192.071073 163.066553 
L 73.509299 224.324311 
" style="fill: none; stroke: #b0b0b0; stroke-width: 0.8"/>
    <path d="M 167.684856 44.407006 
L 167.383285 150.789575 
L 48.906057 210.210451 
" style="fill: none; stroke: #b0b0b0; stroke-width: 0.8"/>
   </g>
   <g id="xtick_6">
    <g id="line2d_8">
     <path d="M 153.260813 268.910238 
L 150.198095 270.650189 
" style="fill: none; stroke: #000000; stroke-width: 0.8; stroke-linecap: square"/>
    </g>
    <g id="text_8">
     <!-- 0.0 -->
     <g transform="translate(133.713038 292.353187) scale(0.1 -0.1)">
      <use xlink:href="#DejaVuSans-30"/>
      <use xlink:href="#DejaVuSans-2e" x="63.623047"/>
      <use xlink:href="#DejaVuSans-30" x="95.410156"/>
     </g>
    </g>
   </g>
   <g id="xtick_7">
    <g id="line2d_9">
     <path d="M 126.155725 253.380253 
L 123.09434 255.06359 
" style="fill: none; stroke: #000000; stroke-width: 0.8; stroke-linecap: square"/>
    </g>
    <g id="text_9">
     <!-- 0.5 -->
     <g transform="translate(106.716553 276.515757) scale(0.1 -0.1)">
      <use xlink:href="#DejaVuSans-30"/>
      <use xlink:href="#DejaVuSans-2e" x="63.623047"/>
      <use xlink:href="#DejaVuSans-35" x="95.410156"/>
     </g>
    </g>
   </g>
   <g id="xtick_8">
    <g id="line2d_10">
     <path d="M 99.924733 238.351085 
L 96.86619 239.980527 
" style="fill: none; stroke: #000000; stroke-width: 0.8; stroke-linecap: square"/>
    </g>
    <g id="text_10">
     <!-- 1.0 -->
     <g transform="translate(80.593252 261.190579) scale(0.1 -0.1)">
      <use xlink:href="#DejaVuSans-31"/>
      <use xlink:href="#DejaVuSans-2e" x="63.623047"/>
      <use xlink:href="#DejaVuSans-30" x="95.410156"/>
     </g>
    </g>
   </g>
   <g id="xtick_9">
    <g id="line2d_11">
     <path d="M 74.526225 223.798892 
L 71.47189 225.376987 
" style="fill: none; stroke: #000000; stroke-width: 0.8; stroke-linecap: square"/>
    </g>
    <g id="text_11">
     <!-- 1.5 -->
     <g transform="translate(55.301447 246.353196) scale(0.1 -0.1)">
      <use xlink:href="#DejaVuSans-31"/>
      <use xlink:href="#DejaVuSans-2e" x="63.623047"/>
      <use xlink:href="#DejaVuSans-35" x="95.410156"/>
     </g>
    </g>
   </g>
   <g id="xtick_10">
    <g id="line2d_12">
     <path d="M 49.92119 209.701323 
L 46.872297 211.23046 
" style="fill: none; stroke: #000000; stroke-width: 0.8; stroke-linecap: square"/>
    </g>
    <g id="text_12">
     <!-- 2.0 -->
     <g transform="translate(30.802059 231.980683) scale(0.1 -0.1)">
      <use xlink:href="#DejaVuSans-32"/>
      <use xlink:href="#DejaVuSans-2e" x="63.623047"/>
      <use xlink:href="#DejaVuSans-30" x="95.410156"/>
     </g>
    </g>
   </g>
  </g>
  <g id="axis3d_3">
   <g id="line2d_13">
    <path d="M 41.874322 206.176637 
L 36.465946 94.895442 
" style="fill: none; stroke: #000000; stroke-width: 0.8; stroke-linecap: square"/>
   </g>
   <g id="text_13">
    <!-- Z -->
    <g transform="translate(-7.876777 154.537392) scale(0.1 -0.1)">
     <defs>
      <path id="DejaVuSans-5a" d="M 359 4666 
L 4025 4666 
L 4025 4184 
L 1075 531 
L 4097 531 
L 4097 0 
L 288 0 
L 288 481 
L 3238 4134 
L 359 4134 
L 359 4666 
z
" transform="scale(0.015625)"/>
     </defs>
     <use xlink:href="#DejaVuSans-5a"/>
    </g>
   </g>
   <g id="Line3DCollection_3">
    <path d="M 41.770787 204.046341 
L 160.317754 145.239524 
L 278.864721 204.046341 
" style="fill: none; stroke: #b0b0b0; stroke-width: 0.8"/>
    <path d="M 40.655051 181.089273 
L 160.317754 123.308943 
L 279.980457 181.089273 
" style="fill: none; stroke: #b0b0b0; stroke-width: 0.8"/>
    <path d="M 39.518114 157.695967 
L 160.317754 100.989882 
L 281.117395 157.695967 
" style="fill: none; stroke: #b0b0b0; stroke-width: 0.8"/>
    <path d="M 38.359364 133.853867 
L 160.317754 78.271927 
L 282.276144 133.853867 
" style="fill: none; stroke: #b0b0b0; stroke-width: 0.8"/>
    <path d="M 37.178169 109.549936 
L 160.317754 55.144287 
L 283.457339 109.549936 
" style="fill: none; stroke: #b0b0b0; stroke-width: 0.8"/>
   </g>
   <g id="xtick_11">
    <g id="line2d_14">
     <path d="M 42.786271 203.542597 
L 39.736338 205.055557 
" style="fill: none; stroke: #000000; stroke-width: 0.8; stroke-linecap: square"/>
    </g>
    <g id="text_14">
     <!-- 20 -->
     <g transform="translate(15.735991 211.644779) scale(0.1 -0.1)">
      <use xlink:href="#DejaVuSans-32"/>
      <use xlink:href="#DejaVuSans-30" x="63.623047"/>
     </g>
    </g>
   </g>
   <g id="xtick_12">
    <g id="line2d_15">
     <path d="M 41.680729 180.594014 
L 38.600144 182.081506 
" style="fill: none; stroke: #000000; stroke-width: 0.8; stroke-linecap: square"/>
    </g>
    <g id="text_15">
     <!-- 40 -->
     <g transform="translate(14.435104 188.687711) scale(0.1 -0.1)">
      <defs>
       <path id="DejaVuSans-34" d="M 2419 4116 
L 825 1625 
L 2419 1625 
L 2419 4116 
z
M 2253 4666 
L 3047 4666 
L 3047 1625 
L 3713 1625 
L 3713 1100 
L 3047 1100 
L 3047 0 
L 2419 0 
L 2419 1100 
L 313 1100 
L 313 1709 
L 2253 4666 
z
" transform="scale(0.015625)"/>
      </defs>
      <use xlink:href="#DejaVuSans-34"/>
      <use xlink:href="#DejaVuSans-30" x="63.623047"/>
     </g>
    </g>
   </g>
   <g id="xtick_13">
    <g id="line2d_16">
     <path d="M 40.554192 157.209608 
L 37.442335 158.670384 
" style="fill: none; stroke: #000000; stroke-width: 0.8; stroke-linecap: square"/>
    </g>
    <g id="text_16">
     <!-- 60 -->
     <g transform="translate(13.109497 165.294404) scale(0.1 -0.1)">
      <defs>
       <path id="DejaVuSans-36" d="M 2113 2584 
Q 1688 2584 1439 2293 
Q 1191 2003 1191 1497 
Q 1191 994 1439 701 
Q 1688 409 2113 409 
Q 2538 409 2786 701 
Q 3034 994 3034 1497 
Q 3034 2003 2786 2293 
Q 2538 2584 2113 2584 
z
M 3366 4563 
L 3366 3988 
Q 3128 4100 2886 4159 
Q 2644 4219 2406 4219 
Q 1781 4219 1451 3797 
Q 1122 3375 1075 2522 
Q 1259 2794 1537 2939 
Q 1816 3084 2150 3084 
Q 2853 3084 3261 2657 
Q 3669 2231 3669 1497 
Q 3669 778 3244 343 
Q 2819 -91 2113 -91 
Q 1303 -91 875 529 
Q 447 1150 447 2328 
Q 447 3434 972 4092 
Q 1497 4750 2381 4750 
Q 2619 4750 2861 4703 
Q 3103 4656 3366 4563 
z
" transform="scale(0.015625)"/>
      </defs>
      <use xlink:href="#DejaVuSans-36"/>
      <use xlink:href="#DejaVuSans-30" x="63.623047"/>
     </g>
    </g>
   </g>
   <g id="xtick_14">
    <g id="line2d_17">
     <path d="M 39.406056 133.376843 
L 36.262287 134.8096 
" style="fill: none; stroke: #000000; stroke-width: 0.8; stroke-linecap: square"/>
    </g>
    <g id="text_17">
     <!-- 80 -->
     <g transform="translate(11.758459 141.452305) scale(0.1 -0.1)">
      <defs>
       <path id="DejaVuSans-38" d="M 2034 2216 
Q 1584 2216 1326 1975 
Q 1069 1734 1069 1313 
Q 1069 891 1326 650 
Q 1584 409 2034 409 
Q 2484 409 2743 651 
Q 3003 894 3003 1313 
Q 3003 1734 2745 1975 
Q 2488 2216 2034 2216 
z
M 1403 2484 
Q 997 2584 770 2862 
Q 544 3141 544 3541 
Q 544 4100 942 4425 
Q 1341 4750 2034 4750 
Q 2731 4750 3128 4425 
Q 3525 4100 3525 3541 
Q 3525 3141 3298 2862 
Q 3072 2584 2669 2484 
Q 3125 2378 3379 2068 
Q 3634 1759 3634 1313 
Q 3634 634 3220 271 
Q 2806 -91 2034 -91 
Q 1263 -91 848 271 
Q 434 634 434 1313 
Q 434 1759 690 2068 
Q 947 2378 1403 2484 
z
M 1172 3481 
Q 1172 3119 1398 2916 
Q 1625 2713 2034 2713 
Q 2441 2713 2670 2916 
Q 2900 3119 2900 3481 
Q 2900 3844 2670 4047 
Q 2441 4250 2034 4250 
Q 1625 4250 1398 4047 
Q 1172 3844 1172 3481 
z
" transform="scale(0.015625)"/>
      </defs>
      <use xlink:href="#DejaVuSans-38"/>
      <use xlink:href="#DejaVuSans-30" x="63.623047"/>
     </g>
    </g>
   </g>
   <g id="xtick_15">
    <g id="line2d_18">
     <path d="M 38.235692 109.0827 
L 35.059355 110.486072 
" style="fill: none; stroke: #000000; stroke-width: 0.8; stroke-linecap: square"/>
    </g>
    <g id="text_18">
     <!-- 100 -->
     <g transform="translate(7.2 117.148373) scale(0.1 -0.1)">
      <use xlink:href="#DejaVuSans-31"/>
      <use xlink:href="#DejaVuSans-30" x="63.623047"/>
      <use xlink:href="#DejaVuSans-30" x="127.246094"/>
     </g>
    </g>
   </g>
  </g>
  <g id="axes_1">
   <g id="Poly3DCollection_1">
    <path d="M 140.15337 125.072398 
L 145.195984 115.243907 
L 140.216396 112.841773 
L 135.188542 122.640284 
z
" clip-path="url(#p2f42d8109f)" style="fill: #ca457a"/>
    <path d="M 145.195984 115.243907 
L 150.233742 104.449722 
L 145.237513 102.079582 
L 140.216396 112.841773 
z
" clip-path="url(#p2f42d8109f)" style="fill: #e16462"/>
    <path d="M 135.100686 134.001451 
L 140.15337 125.072398 
L 135.188542 122.640284 
L 130.148878 131.541192 
z
" clip-path="url(#p2f42d8109f)" style="fill: #b22b8f"/>
    <path d="M 150.233742 104.449722 
L 155.272026 92.484092 
L 150.256861 90.148447 
L 145.237513 102.079582 
z
" clip-path="url(#p2f42d8109f)" style="fill: #f48849"/>
    <path d="M 130.0326 142.050654 
L 135.100686 134.001451 
L 130.148878 131.541192 
L 125.092121 139.564009 
z
" clip-path="url(#p2f42d8109f)" style="fill: #99159f"/>
    <path d="M 155.272026 92.484092 
L 160.317754 78.978681 
L 155.280622 76.680889 
L 150.256861 90.148447 
z
" clip-path="url(#p2f42d8109f)" style="fill: #feb82c"/>
    <path d="M 124.943995 149.249444 
L 130.0326 142.050654 
L 125.092121 139.564009 
L 120.013224 146.738081 
z
" clip-path="url(#p2f42d8109f)" style="fill: #8104a7"/>
    <path d="M 145.148427 127.51932 
L 150.205887 117.660665 
L 145.195984 115.243907 
L 140.15337 125.072398 
z
" clip-path="url(#p2f42d8109f)" style="fill: #ca457a"/>
    <path d="M 150.205887 117.660665 
L 155.260396 106.834295 
L 150.233742 104.449722 
L 145.195984 115.243907 
z
" clip-path="url(#p2f42d8109f)" style="fill: #e16462"/>
    <path d="M 119.830384 155.656476 
L 124.943995 149.249444 
L 120.013224 146.738081 
L 114.907825 153.121921 
z
" clip-path="url(#p2f42d8109f)" style="fill: #6c00a8"/>
    <path d="M 160.317754 78.978681 
L 165.379962 63.904263 
L 160.317754 61.647853 
L 155.280622 76.680889 
z
" clip-path="url(#p2f42d8109f)" style="fill: #f0f921"/>
    <path d="M 140.082657 136.476696 
L 145.148427 127.51932 
L 140.15337 125.072398 
L 135.100686 134.001451 
z
" clip-path="url(#p2f42d8109f)" style="fill: #b22b8f"/>
    <path d="M 155.260396 106.834295 
L 160.317754 94.83397 
L 155.272026 92.484092 
L 150.233742 104.449722 
z
" clip-path="url(#p2f42d8109f)" style="fill: #f48849"/>
    <path d="M 135.003197 144.552459 
L 140.082657 136.476696 
L 135.100686 134.001451 
L 130.0326 142.050654 
z
" clip-path="url(#p2f42d8109f)" style="fill: #99159f"/>
    <path d="M 160.317754 94.83397 
L 165.385625 81.290494 
L 160.317754 78.978681 
L 155.272026 92.484092 
z
" clip-path="url(#p2f42d8109f)" style="fill: #feb82c"/>
    <path d="M 114.688203 161.358472 
L 119.830384 155.656476 
L 114.907825 153.121921 
L 109.772537 158.802057 
z
" clip-path="url(#p2f42d8109f)" style="fill: #5901a5"/>
    <path d="M 129.90486 151.776135 
L 135.003197 144.552459 
L 130.0326 142.050654 
L 124.943995 149.249444 
z
" clip-path="url(#p2f42d8109f)" style="fill: #8104a7"/>
    <path d="M 150.173989 129.981186 
L 155.246384 120.092182 
L 150.205887 117.660665 
L 145.148427 127.51932 
z
" clip-path="url(#p2f42d8109f)" style="fill: #ca457a"/>
    <path d="M 155.246384 120.092182 
L 160.317754 109.233433 
L 155.260396 106.834295 
L 150.205887 117.660665 
z
" clip-path="url(#p2f42d8109f)" style="fill: #e16462"/>
    <path d="M 124.783032 158.206524 
L 129.90486 151.776135 
L 124.943995 149.249444 
L 119.830384 155.656476 
z
" clip-path="url(#p2f42d8109f)" style="fill: #6c00a8"/>
    <path d="M 165.385625 81.290494 
L 170.473121 66.17447 
L 165.379962 63.904263 
L 160.317754 78.978681 
z
" clip-path="url(#p2f42d8109f)" style="fill: #f0f921"/>
    <path d="M 145.095068 138.967066 
L 150.173989 129.981186 
L 145.148427 127.51932 
L 140.082657 136.476696 
z
" clip-path="url(#p2f42d8109f)" style="fill: #b22b8f"/>
    <path d="M 160.317754 109.233433 
L 165.394326 97.198213 
L 160.317754 94.83397 
L 155.260396 106.834295 
z
" clip-path="url(#p2f42d8109f)" style="fill: #f48849"/>
    <path d="M 109.514931 166.461132 
L 114.688203 161.358472 
L 109.772537 158.802057 
L 104.605052 163.883964 
z
" clip-path="url(#p2f42d8109f)" style="fill: #4903a0"/>
    <path d="M 140.004189 147.069563 
L 145.095068 138.967066 
L 140.082657 136.476696 
L 135.003197 144.552459 
z
" clip-path="url(#p2f42d8109f)" style="fill: #99159f"/>
    <path d="M 165.394326 97.198213 
L 170.484516 83.616458 
L 165.385625 81.290494 
L 160.317754 94.83397 
z
" clip-path="url(#p2f42d8109f)" style="fill: #feb82c"/>
    <path d="M 119.63397 163.930542 
L 124.783032 158.206524 
L 119.830384 155.656476 
L 114.688203 161.358472 
z
" clip-path="url(#p2f42d8109f)" style="fill: #5901a5"/>
    <path d="M 134.896096 154.318296 
L 140.004189 147.069563 
L 135.003197 144.552459 
L 129.90486 151.776135 
z
" clip-path="url(#p2f42d8109f)" style="fill: #8104a7"/>
    <path d="M 104.30907 171.078834 
L 109.514931 166.461132 
L 104.605052 163.883964 
L 99.404102 168.481779 
z
" clip-path="url(#p2f42d8109f)" style="fill: #3e049c"/>
    <path d="M 155.230337 132.458132 
L 160.317754 122.538592 
L 155.246384 120.092182 
L 150.173989 129.981186 
z
" clip-path="url(#p2f42d8109f)" style="fill: #ca457a"/>
    <path d="M 160.317754 122.538592 
L 165.406098 111.647271 
L 160.317754 109.233433 
L 155.246384 120.092182 
z
" clip-path="url(#p2f42d8109f)" style="fill: #e16462"/>
    <path d="M 129.766046 160.772207 
L 134.896096 154.318296 
L 129.90486 151.776135 
L 124.783032 158.206524 
z
" clip-path="url(#p2f42d8109f)" style="fill: #6c00a8"/>
    <path d="M 170.484516 83.616458 
L 175.597516 68.458599 
L 170.473121 66.17447 
L 165.385625 81.290494 
z
" clip-path="url(#p2f42d8109f)" style="fill: #f0f921"/>
    <path d="M 150.138198 141.472697 
L 155.230337 132.458132 
L 150.173989 129.981186 
L 145.095068 138.967066 
z
" clip-path="url(#p2f42d8109f)" style="fill: #b22b8f"/>
    <path d="M 165.406098 111.647271 
L 170.502024 99.576952 
L 165.394326 97.198213 
L 160.317754 109.233433 
z
" clip-path="url(#p2f42d8109f)" style="fill: #f48849"/>
    <path d="M 114.454936 169.054115 
L 119.63397 163.930542 
L 114.688203 161.358472 
L 109.514931 166.461132 
z
" clip-path="url(#p2f42d8109f)" style="fill: #4903a0"/>
    <path d="M 145.035856 149.602106 
L 150.138198 141.472697 
L 145.095068 138.967066 
L 140.004189 147.069563 
z
" clip-path="url(#p2f42d8109f)" style="fill: #99159f"/>
    <path d="M 170.502024 99.576952 
L 175.614713 85.956704 
L 170.484516 83.616458 
L 165.394326 97.198213 
z
" clip-path="url(#p2f42d8109f)" style="fill: #feb82c"/>
    <path d="M 124.610115 166.51841 
L 129.766046 160.772207 
L 124.783032 158.206524 
L 119.63397 163.930542 
z
" clip-path="url(#p2f42d8109f)" style="fill: #5901a5"/>
    <path d="M 139.917982 156.876067 
L 145.035856 149.602106 
L 140.004189 147.069563 
L 134.896096 154.318296 
z
" clip-path="url(#p2f42d8109f)" style="fill: #8104a7"/>
    <path d="M 99.070038 175.325565 
L 104.30907 171.078834 
L 99.404102 168.481779 
L 94.169328 172.709258 
z
" clip-path="url(#p2f42d8109f)" style="fill: #310597"/>
    <path d="M 109.244203 173.69186 
L 114.454936 169.054115 
L 109.514931 166.461132 
L 104.30907 171.078834 
z
" clip-path="url(#p2f42d8109f)" style="fill: #3e049c"/>
    <path d="M 160.317754 134.950299 
L 165.420283 125.000032 
L 160.317754 122.538592 
L 155.230337 132.458132 
z
" clip-path="url(#p2f42d8109f)" style="fill: #ca457a"/>
    <path d="M 165.420283 125.000032 
L 170.525715 114.075944 
L 165.406098 111.647271 
L 160.317754 122.538592 
z
" clip-path="url(#p2f42d8109f)" style="fill: #e16462"/>
    <path d="M 134.779707 163.35367 
L 139.917982 156.876067 
L 134.896096 154.318296 
L 129.766046 160.772207 
z
" clip-path="url(#p2f42d8109f)" style="fill: #6c00a8"/>
    <path d="M 175.614713 85.956704 
L 180.753434 70.75678 
L 175.597516 68.458599 
L 170.484516 83.616458 
z
" clip-path="url(#p2f42d8109f)" style="fill: #f0f921"/>
    <path d="M 155.212332 143.993733 
L 160.317754 134.950299 
L 155.230337 132.458132 
L 150.138198 141.472697 
z
" clip-path="url(#p2f42d8109f)" style="fill: #b22b8f"/>
    <path d="M 170.525715 114.075944 
L 175.641137 101.970321 
L 170.502024 99.576952 
L 165.406098 111.647271 
z
" clip-path="url(#p2f42d8109f)" style="fill: #f48849"/>
    <path d="M 119.425347 171.663056 
L 124.610115 166.51841 
L 119.63397 163.930542 
L 114.454936 169.054115 
z
" clip-path="url(#p2f42d8109f)" style="fill: #4903a0"/>
    <path d="M 150.098481 152.15023 
L 155.212332 143.993733 
L 150.138198 141.472697 
L 145.035856 149.602106 
z
" clip-path="url(#p2f42d8109f)" style="fill: #99159f"/>
    <path d="M 93.797934 179.305978 
L 99.070038 175.325565 
L 94.169328 172.709258 
L 88.901036 176.670837 
z
" clip-path="url(#p2f42d8109f)" style="fill: #280592"/>
    <path d="M 175.641137 101.970321 
L 180.776505 88.311362 
L 175.614713 85.956704 
L 170.502024 99.576952 
z
" clip-path="url(#p2f42d8109f)" style="fill: #feb82c"/>
    <path d="M 129.61692 169.122222 
L 134.779707 163.35367 
L 129.766046 160.772207 
L 124.610115 166.51841 
z
" clip-path="url(#p2f42d8109f)" style="fill: #5901a5"/>
    <path d="M 144.970803 159.449594 
L 150.098481 152.15023 
L 145.035856 149.602106 
L 139.917982 156.876067 
z
" clip-path="url(#p2f42d8109f)" style="fill: #8104a7"/>
    <path d="M 104.000959 177.958001 
L 109.244203 173.69186 
L 104.30907 171.078834 
L 99.070038 175.325565 
z
" clip-path="url(#p2f42d8109f)" style="fill: #310597"/>
    <path d="M 114.20978 176.321005 
L 119.425347 171.663056 
L 114.454936 169.054115 
L 109.244203 173.69186 
z
" clip-path="url(#p2f42d8109f)" style="fill: #3e049c"/>
    <path d="M 165.436528 137.457827 
L 170.554259 127.476643 
L 165.420283 125.000032 
L 160.317754 134.950299 
z
" clip-path="url(#p2f42d8109f)" style="fill: #ca457a"/>
    <path d="M 170.554259 127.476643 
L 175.676892 116.519589 
L 170.525715 114.075944 
L 165.420283 125.000032 
z
" clip-path="url(#p2f42d8109f)" style="fill: #e16462"/>
    <path d="M 139.824298 165.951058 
L 144.970803 159.449594 
L 139.917982 156.876067 
L 134.779707 163.35367 
z
" clip-path="url(#p2f42d8109f)" style="fill: #6c00a8"/>
    <path d="M 180.776505 88.311362 
L 185.941168 73.069143 
L 180.753434 70.75678 
L 175.614713 85.956704 
z
" clip-path="url(#p2f42d8109f)" style="fill: #f0f921"/>
    <path d="M 160.317754 146.530314 
L 165.436528 137.457827 
L 160.317754 134.950299 
L 155.212332 143.993733 
z
" clip-path="url(#p2f42d8109f)" style="fill: #b22b8f"/>
    <path d="M 175.676892 116.519589 
L 180.811955 104.378456 
L 175.641137 101.970321 
L 170.525715 114.075944 
z
" clip-path="url(#p2f42d8109f)" style="fill: #f48849"/>
    <path d="M 124.426444 174.288105 
L 129.61692 169.122222 
L 124.610115 166.51841 
L 119.425347 171.663056 
z
" clip-path="url(#p2f42d8109f)" style="fill: #4903a0"/>
    <path d="M 155.19235 154.714081 
L 160.317754 146.530314 
L 155.212332 143.993733 
L 150.098481 152.15023 
z
" clip-path="url(#p2f42d8109f)" style="fill: #99159f"/>
    <path d="M 88.493048 183.101256 
L 93.797934 179.305978 
L 88.901036 176.670837 
L 83.599676 180.447535 
z
" clip-path="url(#p2f42d8109f)" style="fill: #20068f"/>
    <path d="M 98.725096 181.957406 
L 104.000959 177.958001 
L 99.070038 175.325565 
L 93.797934 179.305978 
z
" clip-path="url(#p2f42d8109f)" style="fill: #280592"/>
    <path d="M 180.811955 104.378456 
L 185.970185 90.680566 
L 180.776505 88.311362 
L 175.641137 101.970321 
z
" clip-path="url(#p2f42d8109f)" style="fill: #feb82c"/>
    <path d="M 134.654667 171.742127 
L 139.824298 165.951058 
L 134.779707 163.35367 
L 129.61692 169.122222 
z
" clip-path="url(#p2f42d8109f)" style="fill: #5901a5"/>
    <path d="M 150.054845 162.039022 
L 155.19235 154.714081 
L 150.098481 152.15023 
L 144.970803 159.449594 
z
" clip-path="url(#p2f42d8109f)" style="fill: #8104a7"/>
    <path d="M 108.962372 180.606716 
L 114.20978 176.321005 
L 109.244203 173.69186 
L 104.000959 177.958001 
z
" clip-path="url(#p2f42d8109f)" style="fill: #310597"/>
    <path d="M 119.206083 178.966419 
L 124.426444 174.288105 
L 119.425347 171.663056 
L 114.20978 176.321005 
z
" clip-path="url(#p2f42d8109f)" style="fill: #3e049c"/>
    <path d="M 170.58695 139.980857 
L 175.719973 129.968563 
L 170.554259 127.476643 
L 165.436528 137.457827 
z
" clip-path="url(#p2f42d8109f)" style="fill: #ca457a"/>
    <path d="M 175.719973 129.968563 
L 180.859923 118.978344 
L 175.676892 116.519589 
L 170.554259 127.476643 
z
" clip-path="url(#p2f42d8109f)" style="fill: #e16462"/>
    <path d="M 144.900105 168.564519 
L 150.054845 162.039022 
L 144.970803 159.449594 
L 139.824298 165.951058 
z
" clip-path="url(#p2f42d8109f)" style="fill: #6c00a8"/>
    <path d="M 185.970185 90.680566 
L 191.161014 75.395818 
L 185.941168 73.069143 
L 180.776505 88.311362 
z
" clip-path="url(#p2f42d8109f)" style="fill: #f0f921"/>
    <path d="M 165.454757 149.082585 
L 170.58695 139.980857 
L 165.436528 137.457827 
L 160.317754 146.530314 
z
" clip-path="url(#p2f42d8109f)" style="fill: #b22b8f"/>
    <path d="M 83.154668 186.738824 
L 88.493048 183.101256 
L 83.599676 180.447535 
L 78.26459 184.06672 
z
" clip-path="url(#p2f42d8109f)" style="fill: #19068c"/>
    <path d="M 180.859923 118.978344 
L 186.014772 106.801493 
L 180.811955 104.378456 
L 175.676892 116.519589 
z
" clip-path="url(#p2f42d8109f)" style="fill: #f48849"/>
    <path d="M 129.458513 176.929411 
L 134.654667 171.742127 
L 129.61692 169.122222 
L 124.426444 174.288105 
z
" clip-path="url(#p2f42d8109f)" style="fill: #4903a0"/>
    <path d="M 160.317754 157.293803 
L 165.454757 149.082585 
L 160.317754 146.530314 
L 155.19235 154.714081 
z
" clip-path="url(#p2f42d8109f)" style="fill: #99159f"/>
    <path d="M 93.416743 185.771422 
L 98.725096 181.957406 
L 93.797934 179.305978 
L 88.493048 183.101256 
z
" clip-path="url(#p2f42d8109f)" style="fill: #20068f"/>
    <path d="M 103.682805 184.625271 
L 108.962372 180.606716 
L 104.000959 177.958001 
L 98.725096 181.957406 
z
" clip-path="url(#p2f42d8109f)" style="fill: #280592"/>
    <path d="M 186.014772 106.801493 
L 191.196049 93.064452 
L 185.970185 90.680566 
L 180.811955 104.378456 
z
" clip-path="url(#p2f42d8109f)" style="fill: #feb82c"/>
    <path d="M 139.723646 174.378273 
L 144.900105 168.564519 
L 139.824298 165.951058 
L 134.654667 171.742127 
z
" clip-path="url(#p2f42d8109f)" style="fill: #5901a5"/>
    <path d="M 155.170397 164.644499 
L 160.317754 157.293803 
L 155.19235 154.714081 
L 150.054845 162.039022 
z
" clip-path="url(#p2f42d8109f)" style="fill: #8104a7"/>
    <path d="M 113.95456 183.271861 
L 119.206083 178.966419 
L 114.20978 176.321005 
L 108.962372 180.606716 
z
" clip-path="url(#p2f42d8109f)" style="fill: #310597"/>
    <path d="M 124.233399 181.628254 
L 129.458513 176.929411 
L 124.426444 174.288105 
L 119.206083 178.966419 
z
" clip-path="url(#p2f42d8109f)" style="fill: #3e049c"/>
    <path d="M 175.769314 142.519535 
L 180.917721 132.475937 
L 175.719973 129.968563 
L 170.58695 139.980857 
z
" clip-path="url(#p2f42d8109f)" style="fill: #ca457a"/>
    <path d="M 180.917721 132.475937 
L 186.075104 121.452352 
L 180.859923 118.978344 
L 175.719973 129.968563 
z
" clip-path="url(#p2f42d8109f)" style="fill: #e16462"/>
    <path d="M 150.00742 171.194203 
L 155.170397 164.644499 
L 150.054845 162.039022 
L 144.900105 168.564519 
z
" clip-path="url(#p2f42d8109f)" style="fill: #6c00a8"/>
    <path d="M 191.196049 93.064452 
L 196.413269 77.73694 
L 191.161014 75.395818 
L 185.970185 90.680566 
z
" clip-path="url(#p2f42d8109f)" style="fill: #f0f921"/>
    <path d="M 77.778434 190.131243 
L 83.154668 186.738824 
L 78.26459 184.06672 
L 72.891259 187.441126 
z
" clip-path="url(#p2f42d8109f)" style="fill: #100788"/>
    <path d="M 170.623633 151.650693 
L 175.769314 142.519535 
L 170.58695 139.980857 
L 165.454757 149.082585 
z
" clip-path="url(#p2f42d8109f)" style="fill: #b22b8f"/>
    <path d="M 88.075131 189.427532 
L 93.416743 185.771422 
L 88.493048 183.101256 
L 83.154668 186.738824 
z
" clip-path="url(#p2f42d8109f)" style="fill: #19068c"/>
    <path d="M 186.075104 121.452352 
L 191.249887 109.239572 
L 186.014772 106.801493 
L 180.859923 118.978344 
z
" clip-path="url(#p2f42d8109f)" style="fill: #f48849"/>
    <path d="M 134.521843 179.587126 
L 139.723646 174.378273 
L 134.654667 171.742127 
L 129.458513 176.929411 
z
" clip-path="url(#p2f42d8109f)" style="fill: #4903a0"/>
    <path d="M 165.474986 159.889545 
L 170.623633 151.650693 
L 165.454757 149.082585 
L 160.317754 157.293803 
z
" clip-path="url(#p2f42d8109f)" style="fill: #99159f"/>
    <path d="M 98.371044 188.458185 
L 103.682805 184.625271 
L 98.725096 181.957406 
L 93.416743 185.771422 
z
" clip-path="url(#p2f42d8109f)" style="fill: #20068f"/>
    <path d="M 108.671344 187.309727 
L 113.95456 183.271861 
L 108.962372 180.606716 
L 103.682805 184.625271 
z
" clip-path="url(#p2f42d8109f)" style="fill: #280592"/>
    <path d="M 191.249887 109.239572 
L 196.454398 95.463156 
L 191.196049 93.064452 
L 186.014772 106.801493 
z
" clip-path="url(#p2f42d8109f)" style="fill: #feb82c"/>
    <path d="M 144.824148 177.030813 
L 150.00742 171.194203 
L 144.900105 168.564519 
L 139.723646 174.378273 
z
" clip-path="url(#p2f42d8109f)" style="fill: #5901a5"/>
    <path d="M 160.317754 167.266176 
L 165.474986 159.889545 
L 160.317754 157.293803 
L 155.170397 164.644499 
z
" clip-path="url(#p2f42d8109f)" style="fill: #8104a7"/>
    <path d="M 118.977811 185.953588 
L 124.233399 181.628254 
L 119.206083 178.966419 
L 113.95456 183.271861 
z
" clip-path="url(#p2f42d8109f)" style="fill: #310597"/>
    <path d="M 129.292017 184.306662 
L 134.521843 179.587126 
L 129.458513 176.929411 
L 124.233399 181.628254 
z
" clip-path="url(#p2f42d8109f)" style="fill: #3e049c"/>
    <path d="M 180.983917 145.074007 
L 186.147801 134.998908 
L 180.917721 132.475937 
L 175.769314 142.519535 
z
" clip-path="url(#p2f42d8109f)" style="fill: #ca457a"/>
    <path d="M 72.351853 192.987185 
L 77.778434 190.131243 
L 72.891259 187.441126 
L 67.46665 190.280007 
z
" clip-path="url(#p2f42d8109f)" style="fill: #0d0887"/>
    <path d="M 186.147801 134.998908 
L 191.322735 123.941753 
L 186.075104 121.452352 
L 180.917721 132.475937 
z
" clip-path="url(#p2f42d8109f)" style="fill: #e16462"/>
    <path d="M 155.146537 173.840261 
L 160.317754 167.266176 
L 155.170397 164.644499 
L 150.00742 171.194203 
z
" clip-path="url(#p2f42d8109f)" style="fill: #6c00a8"/>
    <path d="M 196.454398 95.463156 
L 201.698237 80.092643 
L 196.413269 77.73694 
L 191.196049 93.064452 
z
" clip-path="url(#p2f42d8109f)" style="fill: #f0f921"/>
    <path d="M 82.696061 192.838123 
L 88.075131 189.427532 
L 83.154668 186.738824 
L 77.778434 190.131243 
z
" clip-path="url(#p2f42d8109f)" style="fill: #100788"/>
    <path d="M 175.82468 154.234784 
L 180.983917 145.074007 
L 175.769314 142.519535 
L 170.623633 151.650693 
z
" clip-path="url(#p2f42d8109f)" style="fill: #b22b8f"/>
    <path d="M 93.026262 192.132997 
L 98.371044 188.458185 
L 93.416743 185.771422 
L 88.075131 189.427532 
z
" clip-path="url(#p2f42d8109f)" style="fill: #19068c"/>
    <path d="M 191.322735 123.941753 
L 196.5176 111.692832 
L 191.249887 109.239572 
L 186.075104 121.452352 
z
" clip-path="url(#p2f42d8109f)" style="fill: #f48849"/>
    <path d="M 139.616725 182.261402 
L 144.824148 177.030813 
L 139.723646 174.378273 
L 134.521843 179.587126 
z
" clip-path="url(#p2f42d8109f)" style="fill: #4903a0"/>
    <path d="M 170.664344 162.501457 
L 175.82468 154.234784 
L 170.623633 151.650693 
L 165.474986 159.889545 
z
" clip-path="url(#p2f42d8109f)" style="fill: #99159f"/>
    <path d="M 103.356236 191.1617 
L 108.671344 187.309727 
L 103.682805 184.625271 
L 98.371044 188.458185 
z
" clip-path="url(#p2f42d8109f)" style="fill: #20068f"/>
    <path d="M 113.691004 190.010929 
L 118.977811 185.953588 
L 113.95456 183.271861 
L 108.671344 187.309727 
z
" clip-path="url(#p2f42d8109f)" style="fill: #280592"/>
    <path d="M 196.5176 111.692832 
L 201.745536 97.876817 
L 196.454398 95.463156 
L 191.249887 109.239572 
z
" clip-path="url(#p2f42d8109f)" style="fill: #feb82c"/>
    <path d="M 149.956466 179.699899 
L 155.146537 173.840261 
L 150.00742 171.194203 
L 144.824148 177.030813 
z
" clip-path="url(#p2f42d8109f)" style="fill: #5901a5"/>
    <path d="M 165.497214 169.904203 
L 170.664344 162.501457 
L 165.474986 159.889545 
L 160.317754 167.266176 
z
" clip-path="url(#p2f42d8109f)" style="fill: #8104a7"/>
    <path d="M 124.032416 188.652055 
L 129.292017 184.306662 
L 124.233399 181.628254 
L 118.977811 185.953588 
z
" clip-path="url(#p2f42d8109f)" style="fill: #310597"/>
    <path d="M 134.38223 187.001799 
L 139.616725 182.261402 
L 134.521843 179.587126 
L 129.292017 184.306662 
z
" clip-path="url(#p2f42d8109f)" style="fill: #3e049c"/>
    <path d="M 186.231063 147.644419 
L 191.410516 137.537622 
L 186.147801 134.998908 
L 180.983917 145.074007 
z
" clip-path="url(#p2f42d8109f)" style="fill: #ca457a"/>
    <path d="M 77.26759 195.711284 
L 82.696061 192.838123 
L 77.778434 190.131243 
L 72.351853 192.987185 
z
" clip-path="url(#p2f42d8109f)" style="fill: #0d0887"/>
    <path d="M 191.410516 137.537622 
L 196.60312 126.446693 
L 191.322735 123.941753 
L 186.147801 134.998908 
z
" clip-path="url(#p2f42d8109f)" style="fill: #e16462"/>
    <path d="M 160.317754 176.502847 
L 165.497214 169.904203 
L 160.317754 167.266176 
L 155.146537 173.840261 
z
" clip-path="url(#p2f42d8109f)" style="fill: #6c00a8"/>
    <path d="M 66.851535 194.800078 
L 72.351853 192.987185 
L 67.46665 190.280007 
L 61.966435 192.077808 
z
" clip-path="url(#p2f42d8109f)" style="fill: #100788"/>
    <path d="M 201.745536 97.876817 
L 207.016225 82.463064 
L 201.698237 80.092643 
L 196.454398 95.463156 
z
" clip-path="url(#p2f42d8109f)" style="fill: #f0f921"/>
    <path d="M 87.644425 195.561922 
L 93.026262 192.132997 
L 88.075131 189.427532 
L 82.696061 192.838123 
z
" clip-path="url(#p2f42d8109f)" style="fill: #100788"/>
    <path d="M 181.0582 156.835009 
L 186.231063 147.644419 
L 180.983917 145.074007 
L 175.82468 154.234784 
z
" clip-path="url(#p2f42d8109f)" style="fill: #b22b8f"/>
    <path d="M 98.008349 194.855379 
L 103.356236 191.1617 
L 98.371044 188.458185 
L 93.026262 192.132997 
z
" clip-path="url(#p2f42d8109f)" style="fill: #19068c"/>
    <path d="M 196.60312 126.446693 
L 201.818218 114.161417 
L 196.5176 111.692832 
L 191.322735 123.941753 
z
" clip-path="url(#p2f42d8109f)" style="fill: #f48849"/>
    <path d="M 144.743456 184.952396 
L 149.956466 179.699899 
L 144.824148 177.030813 
L 139.616725 182.261402 
z
" clip-path="url(#p2f42d8109f)" style="fill: #4903a0"/>
    <path d="M 175.886128 165.12969 
L 181.0582 156.835009 
L 175.82468 154.234784 
L 170.664344 162.501457 
z
" clip-path="url(#p2f42d8109f)" style="fill: #99159f"/>
    <path d="M 108.372609 193.882126 
L 113.691004 190.010929 
L 108.671344 187.309727 
L 103.356236 191.1617 
z
" clip-path="url(#p2f42d8109f)" style="fill: #20068f"/>
    <path d="M 118.742075 192.729035 
L 124.032416 188.652055 
L 118.977811 185.953588 
L 113.691004 190.010929 
z
" clip-path="url(#p2f42d8109f)" style="fill: #280592"/>
    <path d="M 201.818218 114.161417 
L 207.069769 100.305576 
L 201.745536 97.876817 
L 196.5176 111.692832 
z
" clip-path="url(#p2f42d8109f)" style="fill: #feb82c"/>
    <path d="M 155.120901 182.385688 
L 160.317754 176.502847 
L 155.146537 173.840261 
L 149.956466 179.699899 
z
" clip-path="url(#p2f42d8109f)" style="fill: #5901a5"/>
    <path d="M 170.709077 172.558734 
L 175.886128 165.12969 
L 170.664344 162.501457 
L 165.497214 169.904203 
z
" clip-path="url(#p2f42d8109f)" style="fill: #8104a7"/>
    <path d="M 129.118668 191.367417 
L 134.38223 187.001799 
L 129.292017 184.306662 
L 124.032416 188.652055 
z
" clip-path="url(#p2f42d8109f)" style="fill: #310597"/>
    <path d="M 139.504336 189.713823 
L 144.743456 184.952396 
L 139.616725 182.261402 
L 134.38223 187.001799 
z
" clip-path="url(#p2f42d8109f)" style="fill: #3e049c"/>
    <path d="M 191.511056 150.230923 
L 196.706173 140.092226 
L 191.410516 137.537622 
L 186.231063 147.644419 
z
" clip-path="url(#p2f42d8109f)" style="fill: #ca457a"/>
    <path d="M 82.214146 198.452462 
L 87.644425 195.561922 
L 82.696061 192.838123 
L 77.26759 195.711284 
z
" clip-path="url(#p2f42d8109f)" style="fill: #0d0887"/>
    <path d="M 196.706173 140.092226 
L 201.916567 128.967316 
L 196.60312 126.446693 
L 191.410516 137.537622 
z
" clip-path="url(#p2f42d8109f)" style="fill: #e16462"/>
    <path d="M 165.521373 179.182116 
L 170.709077 172.558734 
L 165.497214 169.904203 
L 160.317754 176.502847 
z
" clip-path="url(#p2f42d8109f)" style="fill: #6c00a8"/>
    <path d="M 71.767274 197.539423 
L 77.26759 195.711284 
L 72.351853 192.987185 
L 66.851535 194.800078 
z
" clip-path="url(#p2f42d8109f)" style="fill: #100788"/>
    <path d="M 207.069769 100.305576 
L 212.367542 84.848341 
L 207.016225 82.463064 
L 201.745536 97.876817 
z
" clip-path="url(#p2f42d8109f)" style="fill: #f0f921"/>
    <path d="M 92.623817 198.3028 
L 98.008349 194.855379 
L 93.026262 192.132997 
L 87.644425 195.561922 
z
" clip-path="url(#p2f42d8109f)" style="fill: #100788"/>
    <path d="M 186.324498 159.451519 
L 191.511056 150.230923 
L 186.231063 147.644419 
L 181.0582 156.835009 
z
" clip-path="url(#p2f42d8109f)" style="fill: #b22b8f"/>
    <path d="M 103.021683 197.594834 
L 108.372609 193.882126 
L 103.356236 191.1617 
L 98.008349 194.855379 
z
" clip-path="url(#p2f42d8109f)" style="fill: #19068c"/>
    <path d="M 201.916567 128.967316 
L 207.152049 116.64547 
L 201.818218 114.161417 
L 196.60312 126.446693 
z
" clip-path="url(#p2f42d8109f)" style="fill: #f48849"/>
    <path d="M 149.902335 187.660263 
L 155.120901 182.385688 
L 149.956466 179.699899 
L 144.743456 184.952396 
z
" clip-path="url(#p2f42d8109f)" style="fill: #4903a0"/>
    <path d="M 61.261236 195.356522 
L 66.851535 194.800078 
L 61.966435 192.077808 
L 56.373997 192.621571 
z
" clip-path="url(#p2f42d8109f)" style="fill: #1d068e"/>
    <path d="M 181.140644 167.774397 
L 186.324498 159.451519 
L 181.0582 156.835009 
L 175.886128 165.12969 
z
" clip-path="url(#p2f42d8109f)" style="fill: #99159f"/>
    <path d="M 113.420457 196.619621 
L 118.742075 192.729035 
L 113.691004 190.010929 
L 108.372609 193.882126 
z
" clip-path="url(#p2f42d8109f)" style="fill: #20068f"/>
    <path d="M 123.824853 195.464203 
L 129.118668 191.367417 
L 124.032416 188.652055 
L 118.742075 192.729035 
z
" clip-path="url(#p2f42d8109f)" style="fill: #280592"/>
    <path d="M 207.152049 116.64547 
L 212.42741 102.749574 
L 207.069769 100.305576 
L 201.818218 114.161417 
z
" clip-path="url(#p2f42d8109f)" style="fill: #feb82c"/>
    <path d="M 160.317754 185.088336 
L 165.521373 179.182116 
L 160.317754 176.502847 
L 155.120901 182.385688 
z
" clip-path="url(#p2f42d8109f)" style="fill: #5901a5"/>
    <path d="M 175.953649 175.229924 
L 181.140644 167.774397 
L 175.886128 165.12969 
L 170.709077 172.558734 
z
" clip-path="url(#p2f42d8109f)" style="fill: #8104a7"/>
    <path d="M 134.236867 194.099833 
L 139.504336 189.713823 
L 134.38223 187.001799 
L 129.118668 191.367417 
z
" clip-path="url(#p2f42d8109f)" style="fill: #310597"/>
    <path d="M 144.658635 192.442892 
L 149.902335 187.660263 
L 144.743456 184.952396 
L 139.504336 189.713823 
z
" clip-path="url(#p2f42d8109f)" style="fill: #3e049c"/>
    <path d="M 196.824205 152.833669 
L 202.035081 142.662871 
L 196.706173 140.092226 
L 191.511056 150.230923 
z
" clip-path="url(#p2f42d8109f)" style="fill: #ca457a"/>
    <path d="M 87.191814 201.210881 
L 92.623817 198.3028 
L 87.644425 195.561922 
L 82.214146 198.452462 
z
" clip-path="url(#p2f42d8109f)" style="fill: #0d0887"/>
    <path d="M 202.035081 142.662871 
L 207.263387 131.503771 
L 201.916567 128.967316 
L 196.706173 140.092226 
z
" clip-path="url(#p2f42d8109f)" style="fill: #e16462"/>
    <path d="M 170.757698 181.878225 
L 175.953649 175.229924 
L 170.709077 172.558734 
L 165.521373 179.182116 
z
" clip-path="url(#p2f42d8109f)" style="fill: #6c00a8"/>
    <path d="M 76.713942 200.296002 
L 82.214146 198.452462 
L 77.26759 195.711284 
L 71.767274 197.539423 
z
" clip-path="url(#p2f42d8109f)" style="fill: #100788"/>
    <path d="M 212.42741 102.749574 
L 217.752504 87.248615 
L 212.367542 84.848341 
L 207.069769 100.305576 
z
" clip-path="url(#p2f42d8109f)" style="fill: #f0f921"/>
    <path d="M 97.634528 201.060917 
L 103.021683 197.594834 
L 98.008349 194.855379 
L 92.623817 198.3028 
z
" clip-path="url(#p2f42d8109f)" style="fill: #100788"/>
    <path d="M 191.623882 162.084469 
L 196.824205 152.833669 
L 191.511056 150.230923 
L 186.324498 159.451519 
z
" clip-path="url(#p2f42d8109f)" style="fill: #b22b8f"/>
    <path d="M 108.066559 200.351525 
L 113.420457 196.619621 
L 108.372609 193.882126 
L 103.021683 197.594834 
z
" clip-path="url(#p2f42d8109f)" style="fill: #19068c"/>
    <path d="M 207.263387 131.503771 
L 212.519407 119.145136 
L 207.152049 116.64547 
L 201.916567 128.967316 
z
" clip-path="url(#p2f42d8109f)" style="fill: #f48849"/>
    <path d="M 155.093665 190.385165 
L 160.317754 185.088336 
L 155.120901 182.385688 
L 149.902335 187.660263 
z
" clip-path="url(#p2f42d8109f)" style="fill: #4903a0"/>
    <path d="M 66.179253 198.108697 
L 71.767274 197.539423 
L 66.851535 194.800078 
L 61.261236 195.356522 
z
" clip-path="url(#p2f42d8109f)" style="fill: #1d068e"/>
    <path d="M 186.4282 170.435734 
L 191.623882 162.084469 
L 186.324498 159.451519 
L 181.140644 167.774397 
z
" clip-path="url(#p2f42d8109f)" style="fill: #99159f"/>
    <path d="M 118.500077 199.374346 
L 123.824853 195.464203 
L 118.742075 192.729035 
L 113.420457 196.619621 
z
" clip-path="url(#p2f42d8109f)" style="fill: #20068f"/>
    <path d="M 128.939638 198.216595 
L 134.236867 194.099833 
L 129.118668 191.367417 
L 123.824853 195.464203 
z
" clip-path="url(#p2f42d8109f)" style="fill: #280592"/>
    <path d="M 212.519407 119.145136 
L 217.818773 105.208956 
L 212.42741 102.749574 
L 207.152049 116.64547 
z
" clip-path="url(#p2f42d8109f)" style="fill: #feb82c"/>
    <path d="M 165.547332 187.808003 
L 170.757698 181.878225 
L 165.521373 179.182116 
L 160.317754 185.088336 
z
" clip-path="url(#p2f42d8109f)" style="fill: #5901a5"/>
    <path d="M 181.231238 177.917931 
L 186.4282 170.435734 
L 181.140644 167.774397 
L 175.953649 175.229924 
z
" clip-path="url(#p2f42d8109f)" style="fill: #8104a7"/>
    <path d="M 139.387314 196.849466 
L 144.658635 192.442892 
L 139.504336 189.713823 
L 134.236867 194.099833 
z
" clip-path="url(#p2f42d8109f)" style="fill: #310597"/>
    <path d="M 149.845431 195.189167 
L 155.093665 190.385165 
L 149.902335 187.660263 
L 144.658635 192.442892 
z
" clip-path="url(#p2f42d8109f)" style="fill: #3e049c"/>
    <path d="M 202.170825 155.452811 
L 207.397556 145.249708 
L 202.035081 142.662871 
L 196.824205 152.833669 
z
" clip-path="url(#p2f42d8109f)" style="fill: #ca457a"/>
    <path d="M 92.200887 203.986703 
L 97.634528 201.060917 
L 92.623817 198.3028 
L 87.191814 201.210881 
z
" clip-path="url(#p2f42d8109f)" style="fill: #0d0887"/>
    <path d="M 207.397556 145.249708 
L 212.643896 134.056207 
L 207.263387 131.503771 
L 202.035081 142.662871 
z
" clip-path="url(#p2f42d8109f)" style="fill: #e16462"/>
    <path d="M 176.02704 184.591335 
L 181.231238 177.917931 
L 175.953649 175.229924 
L 170.757698 181.878225 
z
" clip-path="url(#p2f42d8109f)" style="fill: #6c00a8"/>
    <path d="M 81.691831 203.06998 
L 87.191814 201.210881 
L 82.214146 198.452462 
L 76.713942 200.296002 
z
" clip-path="url(#p2f42d8109f)" style="fill: #100788"/>
    <path d="M 217.818773 105.208956 
L 223.171429 89.664027 
L 217.752504 87.248615 
L 212.42741 102.749574 
z
" clip-path="url(#p2f42d8109f)" style="fill: #f0f921"/>
    <path d="M 102.676855 203.836437 
L 108.066559 200.351525 
L 103.021683 197.594834 
L 97.634528 201.060917 
z
" clip-path="url(#p2f42d8109f)" style="fill: #100788"/>
    <path d="M 196.956665 164.734012 
L 202.170825 155.452811 
L 196.824205 152.833669 
L 191.623882 162.084469 
z
" clip-path="url(#p2f42d8109f)" style="fill: #b22b8f"/>
    <path d="M 113.143276 203.125616 
L 118.500077 199.374346 
L 113.420457 196.619621 
L 108.066559 200.351525 
z
" clip-path="url(#p2f42d8109f)" style="fill: #19068c"/>
    <path d="M 212.643896 134.056207 
L 217.920608 121.660565 
L 212.519407 119.145136 
L 207.263387 131.503771 
z
" clip-path="url(#p2f42d8109f)" style="fill: #f48849"/>
    <path d="M 160.317754 193.127261 
L 165.547332 187.808003 
L 160.317754 185.088336 
L 155.093665 190.385165 
z
" clip-path="url(#p2f42d8109f)" style="fill: #4903a0"/>
    <path d="M 71.128338 200.878257 
L 76.713942 200.296002 
L 71.767274 197.539423 
L 66.179253 198.108697 
z
" clip-path="url(#p2f42d8109f)" style="fill: #1d068e"/>
    <path d="M 191.74911 173.113859 
L 196.956665 164.734012 
L 191.623882 162.084469 
L 186.4282 170.435734 
z
" clip-path="url(#p2f42d8109f)" style="fill: #99159f"/>
    <path d="M 123.61177 202.146464 
L 128.939638 198.216595 
L 123.824853 195.464203 
L 118.500077 199.374346 
z
" clip-path="url(#p2f42d8109f)" style="fill: #20068f"/>
    <path d="M 134.086734 200.986374 
L 139.387314 196.849466 
L 134.236867 194.099833 
L 128.939638 198.216595 
z
" clip-path="url(#p2f42d8109f)" style="fill: #280592"/>
    <path d="M 217.920608 121.660565 
L 223.244179 107.683867 
L 217.818773 105.208956 
L 212.519407 119.145136 
z
" clip-path="url(#p2f42d8109f)" style="fill: #feb82c"/>
    <path d="M 170.809944 190.544849 
L 176.02704 184.591335 
L 170.757698 181.878225 
L 165.547332 187.808003 
z
" clip-path="url(#p2f42d8109f)" style="fill: #5901a5"/>
    <path d="M 186.542157 180.622914 
L 191.74911 173.113859 
L 186.4282 170.435734 
L 181.231238 177.917931 
z
" clip-path="url(#p2f42d8109f)" style="fill: #8104a7"/>
    <path d="M 144.570314 199.616478 
L 149.845431 195.189167 
L 144.658635 192.442892 
L 139.387314 196.849466 
z
" clip-path="url(#p2f42d8109f)" style="fill: #310597"/>
    <path d="M 155.065034 197.952813 
L 160.317754 193.127261 
L 155.093665 190.385165 
L 149.845431 195.189167 
z
" clip-path="url(#p2f42d8109f)" style="fill: #3e049c"/>
    <path d="M 207.551232 158.088504 
L 212.793914 147.852891 
L 207.397556 145.249708 
L 202.170825 155.452811 
z
" clip-path="url(#p2f42d8109f)" style="fill: #ca457a"/>
    <path d="M 97.241664 206.780094 
L 102.676855 203.836437 
L 97.634528 201.060917 
L 92.200887 203.986703 
z
" clip-path="url(#p2f42d8109f)" style="fill: #0d0887"/>
    <path d="M 212.793914 147.852891 
L 218.058412 136.624777 
L 212.643896 134.056207 
L 207.397556 145.249708 
z
" clip-path="url(#p2f42d8109f)" style="fill: #e16462"/>
    <path d="M 181.329712 187.321605 
L 186.542157 180.622914 
L 181.231238 177.917931 
L 176.02704 184.591335 
z
" clip-path="url(#p2f42d8109f)" style="fill: #6c00a8"/>
    <path d="M 86.701239 205.861522 
L 92.200887 203.986703 
L 87.191814 201.210881 
L 81.691831 203.06998 
z
" clip-path="url(#p2f42d8109f)" style="fill: #100788"/>
    <path d="M 223.244179 107.683867 
L 228.624638 92.094722 
L 223.171429 89.664027 
L 217.818773 105.208956 
z
" clip-path="url(#p2f42d8109f)" style="fill: #f0f921"/>
    <path d="M 107.751098 206.629525 
L 113.143276 203.125616 
L 108.066559 200.351525 
L 102.676855 203.836437 
z
" clip-path="url(#p2f42d8109f)" style="fill: #100788"/>
    <path d="M 202.323165 167.400307 
L 207.551232 158.088504 
L 202.170825 155.452811 
L 196.956665 164.734012 
z
" clip-path="url(#p2f42d8109f)" style="fill: #b22b8f"/>
    <path d="M 118.252136 205.91727 
L 123.61177 202.146464 
L 118.500077 199.374346 
L 113.143276 203.125616 
z
" clip-path="url(#p2f42d8109f)" style="fill: #19068c"/>
    <path d="M 218.058412 136.624777 
L 223.355975 124.191904 
L 217.920608 121.660565 
L 212.643896 134.056207 
z
" clip-path="url(#p2f42d8109f)" style="fill: #f48849"/>
    <path d="M 165.574913 195.886715 
L 170.809944 190.544849 
L 165.547332 187.808003 
L 160.317754 193.127261 
z
" clip-path="url(#p2f42d8109f)" style="fill: #4903a0"/>
    <path d="M 76.108787 203.66537 
L 81.691831 203.06998 
L 76.713942 200.296002 
L 71.128338 200.878257 
z
" clip-path="url(#p2f42d8109f)" style="fill: #1d068e"/>
    <path d="M 197.103688 175.80893 
L 202.323165 167.400307 
L 196.956665 164.734012 
L 191.74911 173.113859 
z
" clip-path="url(#p2f42d8109f)" style="fill: #99159f"/>
    <path d="M 128.755841 204.936141 
L 134.086734 200.986374 
L 128.939638 198.216595 
L 123.61177 202.146464 
z
" clip-path="url(#p2f42d8109f)" style="fill: #20068f"/>
    <path d="M 139.266447 203.773705 
L 144.570314 199.616478 
L 139.387314 196.849466 
L 134.086734 200.986374 
z
" clip-path="url(#p2f42d8109f)" style="fill: #280592"/>
    <path d="M 223.355975 124.191904 
L 228.70395 110.174454 
L 223.244179 107.683867 
L 217.920608 121.660565 
z
" clip-path="url(#p2f42d8109f)" style="fill: #feb82c"/>
    <path d="M 176.105906 193.299039 
L 181.329712 187.321605 
L 176.02704 184.591335 
L 170.809944 190.544849 
z
" clip-path="url(#p2f42d8109f)" style="fill: #5901a5"/>
    <path d="M 191.886724 183.345034 
L 197.103688 175.80893 
L 191.74911 173.113859 
L 186.542157 180.622914 
z
" clip-path="url(#p2f42d8109f)" style="fill: #8104a7"/>
    <path d="M 149.786178 202.401035 
L 155.065034 197.952813 
L 149.845431 195.189167 
L 144.570314 199.616478 
z
" clip-path="url(#p2f42d8109f)" style="fill: #310597"/>
    <path d="M 160.317754 200.733993 
L 165.574913 195.886715 
L 160.317754 193.127261 
L 155.065034 197.952813 
z
" clip-path="url(#p2f42d8109f)" style="fill: #3e049c"/>
    <path d="M 212.965748 160.740906 
L 218.224479 150.472575 
L 212.793914 147.852891 
L 207.551232 158.088504 
z
" clip-path="url(#p2f42d8109f)" style="fill: #ca457a"/>
    <path d="M 102.314447 209.591221 
L 107.751098 206.629525 
L 102.676855 203.836437 
L 97.241664 206.780094 
z
" clip-path="url(#p2f42d8109f)" style="fill: #0d0887"/>
    <path d="M 218.224479 150.472575 
L 223.50726 139.209632 
L 218.058412 136.624777 
L 212.793914 147.852891 
z
" clip-path="url(#p2f42d8109f)" style="fill: #e16462"/>
    <path d="M 186.66603 190.069199 
L 191.886724 183.345034 
L 186.542157 180.622914 
L 181.329712 187.321605 
z
" clip-path="url(#p2f42d8109f)" style="fill: #6c00a8"/>
    <path d="M 91.742465 208.670795 
L 97.241664 206.780094 
L 92.200887 203.986703 
L 86.701239 205.861522 
z
" clip-path="url(#p2f42d8109f)" style="fill: #100788"/>
    <path d="M 228.70395 110.174454 
L 234.112459 94.540843 
L 228.624638 92.094722 
L 223.244179 107.683867 
z
" clip-path="url(#p2f42d8109f)" style="fill: #f0f921"/>
    <path d="M 112.857561 209.440349 
L 118.252136 205.91727 
L 113.143276 203.125616 
L 107.751098 206.629525 
z
" clip-path="url(#p2f42d8109f)" style="fill: #100788"/>
    <path d="M 207.723702 170.083512 
L 212.965748 160.740906 
L 207.551232 158.088504 
L 202.323165 167.400307 
z
" clip-path="url(#p2f42d8109f)" style="fill: #b22b8f"/>
    <path d="M 123.393446 208.726656 
L 128.755841 204.936141 
L 123.61177 202.146464 
L 118.252136 205.91727 
z
" clip-path="url(#p2f42d8109f)" style="fill: #19068c"/>
    <path d="M 223.50726 139.209632 
L 228.825832 126.739306 
L 223.355975 124.191904 
L 218.058412 136.624777 
z
" clip-path="url(#p2f42d8109f)" style="fill: #f48849"/>
    <path d="M 170.865456 198.663693 
L 176.105906 193.299039 
L 170.809944 190.544849 
L 165.574913 195.886715 
z
" clip-path="url(#p2f42d8109f)" style="fill: #4903a0"/>
    <path d="M 81.120899 206.470201 
L 86.701239 205.861522 
L 81.691831 203.06998 
L 76.108787 203.66537 
z
" clip-path="url(#p2f42d8109f)" style="fill: #1d068e"/>
    <path d="M 202.492258 178.521109 
L 207.723702 170.083512 
L 202.323165 167.400307 
L 197.103688 175.80893 
z
" clip-path="url(#p2f42d8109f)" style="fill: #99159f"/>
    <path d="M 133.932597 207.743544 
L 139.266447 203.773705 
L 134.086734 200.986374 
L 128.755841 204.936141 
z
" clip-path="url(#p2f42d8109f)" style="fill: #20068f"/>
    <path d="M 144.479089 206.578756 
L 149.786178 202.401035 
L 144.570314 199.616478 
L 139.266447 203.773705 
z
" clip-path="url(#p2f42d8109f)" style="fill: #280592"/>
    <path d="M 228.825832 126.739306 
L 234.198415 112.680867 
L 228.70395 110.174454 
L 223.355975 124.191904 
z
" clip-path="url(#p2f42d8109f)" style="fill: #feb82c"/>
    <path d="M 181.435534 196.070737 
L 186.66603 190.069199 
L 181.329712 187.321605 
L 176.105906 193.299039 
z
" clip-path="url(#p2f42d8109f)" style="fill: #5901a5"/>
    <path d="M 197.265258 186.084454 
L 202.492258 178.521109 
L 197.103688 175.80893 
L 191.886724 183.345034 
z
" clip-path="url(#p2f42d8109f)" style="fill: #8104a7"/>
    <path d="M 155.035219 205.203304 
L 160.317754 200.733993 
L 155.065034 197.952813 
L 149.786178 202.401035 
z
" clip-path="url(#p2f42d8109f)" style="fill: #310597"/>
    <path d="M 165.603909 203.532876 
L 170.865456 198.663693 
L 165.574913 195.886715 
L 160.317754 200.733993 
z
" clip-path="url(#p2f42d8109f)" style="fill: #3e049c"/>
    <path d="M 218.414698 163.410176 
L 223.689576 153.108917 
L 218.224479 150.472575 
L 212.965748 160.740906 
z
" clip-path="url(#p2f42d8109f)" style="fill: #ca457a"/>
    <path d="M 107.419541 212.420254 
L 112.857561 209.440349 
L 107.751098 206.629525 
L 102.314447 209.591221 
z
" clip-path="url(#p2f42d8109f)" style="fill: #0d0887"/>
    <path d="M 223.689576 153.108917 
L 228.990767 141.81093 
L 223.50726 139.209632 
L 218.224479 150.472575 
z
" clip-path="url(#p2f42d8109f)" style="fill: #e16462"/>
    <path d="M 192.036317 192.834283 
L 197.265258 186.084454 
L 191.886724 183.345034 
L 186.66603 190.069199 
z
" clip-path="url(#p2f42d8109f)" style="fill: #6c00a8"/>
    <path d="M 96.815814 211.497969 
L 102.314447 209.591221 
L 97.241664 206.780094 
L 91.742465 208.670795 
z
" clip-path="url(#p2f42d8109f)" style="fill: #100788"/>
    <path d="M 234.198415 112.680867 
L 239.635221 97.00254 
L 234.112459 94.540843 
L 228.70395 110.174454 
z
" clip-path="url(#p2f42d8109f)" style="fill: #f0f921"/>
    <path d="M 117.996551 212.269077 
L 123.393446 208.726656 
L 118.252136 205.91727 
L 112.857561 209.440349 
z
" clip-path="url(#p2f42d8109f)" style="fill: #100788"/>
    <path d="M 213.1586 172.78379 
L 218.414698 163.410176 
L 212.965748 160.740906 
L 207.723702 170.083512 
z
" clip-path="url(#p2f42d8109f)" style="fill: #b22b8f"/>
    <path d="M 128.567515 211.553942 
L 133.932597 207.743544 
L 128.755841 204.936141 
L 123.393446 208.726656 
z
" clip-path="url(#p2f42d8109f)" style="fill: #19068c"/>
    <path d="M 228.990767 141.81093 
L 234.330508 129.302924 
L 228.825832 126.739306 
L 223.50726 139.209632 
z
" clip-path="url(#p2f42d8109f)" style="fill: #f48849"/>
    <path d="M 176.189703 201.458361 
L 181.435534 196.070737 
L 176.105906 193.299039 
L 170.865456 198.663693 
z
" clip-path="url(#p2f42d8109f)" style="fill: #4903a0"/>
    <path d="M 86.164977 209.292921 
L 91.742465 208.670795 
L 86.701239 205.861522 
L 81.120899 206.470201 
z
" clip-path="url(#p2f42d8109f)" style="fill: #1d068e"/>
    <path d="M 207.915141 181.250559 
L 213.1586 172.78379 
L 207.723702 170.083512 
L 202.492258 178.521109 
z
" clip-path="url(#p2f42d8109f)" style="fill: #99159f"/>
    <path d="M 139.142353 210.568843 
L 144.479089 206.578756 
L 139.266447 203.773705 
L 133.932597 207.743544 
z
" clip-path="url(#p2f42d8109f)" style="fill: #20068f"/>
    <path d="M 149.724974 209.401696 
L 155.035219 205.203304 
L 149.786178 202.401035 
L 144.479089 206.578756 
z
" clip-path="url(#p2f42d8109f)" style="fill: #280592"/>
    <path d="M 234.330508 129.302924 
L 239.727905 115.203258 
L 234.198415 112.680867 
L 228.825832 126.739306 
z
" clip-path="url(#p2f42d8109f)" style="fill: #feb82c"/>
    <path d="M 186.79915 198.860111 
L 192.036317 192.834283 
L 186.66603 190.069199 
L 181.435534 196.070737 
z
" clip-path="url(#p2f42d8109f)" style="fill: #5901a5"/>
    <path d="M 202.678085 188.841341 
L 207.915141 181.250559 
L 202.492258 178.521109 
L 197.265258 186.084454 
z
" clip-path="url(#p2f42d8109f)" style="fill: #8104a7"/>
    <path d="M 160.317754 208.023454 
L 165.603909 203.532876 
L 160.317754 200.733993 
L 155.035219 205.203304 
z
" clip-path="url(#p2f42d8109f)" style="fill: #310597"/>
    <path d="M 170.923818 206.349631 
L 176.189703 201.458361 
L 170.865456 198.663693 
L 165.603909 203.532876 
z
" clip-path="url(#p2f42d8109f)" style="fill: #3e049c"/>
    <path d="M 223.898412 166.096476 
L 229.189536 155.762076 
L 223.689576 153.108917 
L 218.414698 163.410176 
z
" clip-path="url(#p2f42d8109f)" style="fill: #ca457a"/>
    <path d="M 112.557255 215.267364 
L 117.996551 212.269077 
L 112.857561 209.440349 
L 107.419541 212.420254 
z
" clip-path="url(#p2f42d8109f)" style="fill: #0d0887"/>
    <path d="M 229.189536 155.762076 
L 234.509265 144.428826 
L 228.990767 141.81093 
L 223.689576 153.108917 
z
" clip-path="url(#p2f42d8109f)" style="fill: #e16462"/>
    <path d="M 197.440897 195.617025 
L 202.678085 188.841341 
L 197.265258 186.084454 
L 192.036317 192.834283 
z
" clip-path="url(#p2f42d8109f)" style="fill: #6c00a8"/>
    <path d="M 101.921593 214.343215 
L 107.419541 212.420254 
L 102.314447 209.591221 
L 96.815814 211.497969 
z
" clip-path="url(#p2f42d8109f)" style="fill: #100788"/>
    <path d="M 239.727905 115.203258 
L 245.19326 99.479961 
L 239.635221 97.00254 
L 234.198415 112.680867 
z
" clip-path="url(#p2f42d8109f)" style="fill: #f0f921"/>
    <path d="M 123.168382 215.115882 
L 128.567515 211.553942 
L 123.393446 208.726656 
L 117.996551 212.269077 
z
" clip-path="url(#p2f42d8109f)" style="fill: #100788"/>
    <path d="M 218.628189 175.501304 
L 223.898412 166.096476 
L 218.414698 163.410176 
L 213.1586 172.78379 
z
" clip-path="url(#p2f42d8109f)" style="fill: #b22b8f"/>
    <path d="M 133.774657 214.399301 
L 139.142353 210.568843 
L 133.932597 207.743544 
L 128.567515 211.553942 
z
" clip-path="url(#p2f42d8109f)" style="fill: #19068c"/>
    <path d="M 234.509265 144.428826 
L 239.870338 131.882914 
L 234.330508 129.302924 
L 228.990767 141.81093 
z
" clip-path="url(#p2f42d8109f)" style="fill: #f48849"/>
    <path d="M 181.547977 204.27089 
L 186.79915 198.860111 
L 181.435534 196.070737 
L 176.189703 201.458361 
z
" clip-path="url(#p2f42d8109f)" style="fill: #4903a0"/>
    <path d="M 91.241328 212.133701 
L 96.815814 211.497969 
L 91.742465 208.670795 
L 86.164977 209.292921 
z
" clip-path="url(#p2f42d8109f)" style="fill: #1d068e"/>
    <path d="M 213.372669 183.997446 
L 218.628189 175.501304 
L 213.1586 172.78379 
L 207.915141 181.250559 
z
" clip-path="url(#p2f42d8109f)" style="fill: #99159f"/>
    <path d="M 144.385424 213.412208 
L 149.724974 209.401696 
L 144.479089 206.578756 
L 139.142353 210.568843 
z
" clip-path="url(#p2f42d8109f)" style="fill: #20068f"/>
    <path d="M 155.004421 212.242697 
L 160.317754 208.023454 
L 155.035219 205.203304 
L 149.724974 209.401696 
z
" clip-path="url(#p2f42d8109f)" style="fill: #280592"/>
    <path d="M 239.870338 131.882914 
L 245.292755 117.74178 
L 239.727905 115.203258 
L 234.330508 129.302924 
z
" clip-path="url(#p2f42d8109f)" style="fill: #feb82c"/>
    <path d="M 192.197082 201.667331 
L 197.440897 195.617025 
L 192.036317 192.834283 
L 186.79915 198.860111 
z
" clip-path="url(#p2f42d8109f)" style="fill: #5901a5"/>
    <path d="M 208.125534 191.615862 
L 213.372669 183.997446 
L 207.915141 181.250559 
L 202.678085 188.841341 
z
" clip-path="url(#p2f42d8109f)" style="fill: #8104a7"/>
    <path d="M 165.634106 210.861657 
L 170.923818 206.349631 
L 165.603909 203.532876 
L 160.317754 208.023454 
z
" clip-path="url(#p2f42d8109f)" style="fill: #310597"/>
    <path d="M 176.277806 209.184431 
L 181.547977 204.27089 
L 176.189703 201.458361 
L 170.923818 206.349631 
z
" clip-path="url(#p2f42d8109f)" style="fill: #3e049c"/>
    <path d="M 229.417223 168.799969 
L 234.724693 158.432215 
L 229.189536 155.762076 
L 223.898412 166.096476 
z
" clip-path="url(#p2f42d8109f)" style="fill: #ca457a"/>
    <path d="M 117.727905 218.132725 
L 123.168382 215.115882 
L 117.996551 212.269077 
L 112.557255 215.267364 
z
" clip-path="url(#p2f42d8109f)" style="fill: #0d0887"/>
    <path d="M 234.724693 158.432215 
L 240.063089 147.063481 
L 234.509265 144.428826 
L 229.189536 155.762076 
z
" clip-path="url(#p2f42d8109f)" style="fill: #e16462"/>
    <path d="M 202.8801 198.417593 
L 208.125534 191.615862 
L 202.678085 188.841341 
L 197.440897 195.617025 
z
" clip-path="url(#p2f42d8109f)" style="fill: #6c00a8"/>
    <path d="M 107.060114 217.206707 
L 112.557255 215.267364 
L 107.419541 212.420254 
L 101.921593 214.343215 
z
" clip-path="url(#p2f42d8109f)" style="fill: #100788"/>
    <path d="M 245.292755 117.74178 
L 250.786914 101.973256 
L 245.19326 99.479961 
L 239.727905 115.203258 
z
" clip-path="url(#p2f42d8109f)" style="fill: #f0f921"/>
    <path d="M 128.373368 217.980937 
L 133.774657 214.399301 
L 128.567515 211.553942 
L 123.168382 215.115882 
z
" clip-path="url(#p2f42d8109f)" style="fill: #100788"/>
    <path d="M 224.132801 178.236219 
L 229.417223 168.799969 
L 223.898412 166.096476 
L 218.628189 175.501304 
z
" clip-path="url(#p2f42d8109f)" style="fill: #b22b8f"/>
    <path d="M 139.015192 217.262907 
L 144.385424 213.412208 
L 139.142353 210.568843 
L 133.774657 214.399301 
z
" clip-path="url(#p2f42d8109f)" style="fill: #19068c"/>
    <path d="M 240.063089 147.063481 
L 245.445658 134.479432 
L 239.870338 131.882914 
L 234.509265 144.428826 
z
" clip-path="url(#p2f42d8109f)" style="fill: #f48849"/>
    <path d="M 186.940604 207.101452 
L 192.197082 201.667331 
L 186.79915 198.860111 
L 181.547977 204.27089 
z
" clip-path="url(#p2f42d8109f)" style="fill: #4903a0"/>
    <path d="M 96.350263 214.992715 
L 101.921593 214.343215 
L 96.815814 211.497969 
L 91.241328 212.133701 
z
" clip-path="url(#p2f42d8109f)" style="fill: #1d068e"/>
    <path d="M 218.865173 186.761938 
L 224.132801 178.236219 
L 218.628189 175.501304 
L 213.372669 183.997446 
z
" clip-path="url(#p2f42d8109f)" style="fill: #99159f"/>
    <path d="M 149.66213 216.273815 
L 155.004421 212.242697 
L 149.724974 209.401696 
L 144.385424 213.412208 
z
" clip-path="url(#p2f42d8109f)" style="fill: #20068f"/>
    <path d="M 160.317754 215.101932 
L 165.634106 210.861657 
L 160.317754 208.023454 
L 155.004421 212.242697 
z
" clip-path="url(#p2f42d8109f)" style="fill: #280592"/>
    <path d="M 245.445658 134.479432 
L 250.893307 120.296587 
L 245.292755 117.74178 
L 239.870338 131.882914 
z
" clip-path="url(#p2f42d8109f)" style="fill: #feb82c"/>
    <path d="M 197.629659 204.492569 
L 202.8801 198.417593 
L 197.440897 195.617025 
L 192.197082 201.667331 
z
" clip-path="url(#p2f42d8109f)" style="fill: #5901a5"/>
    <path d="M 213.607938 194.408186 
L 218.865173 186.761938 
L 213.372669 183.997446 
L 208.125534 191.615862 
z
" clip-path="url(#p2f42d8109f)" style="fill: #8104a7"/>
    <path d="M 170.984599 213.718087 
L 176.277806 209.184431 
L 170.923818 206.349631 
L 165.634106 210.861657 
z
" clip-path="url(#p2f42d8109f)" style="fill: #310597"/>
    <path d="M 181.666202 212.037447 
L 186.940604 207.101452 
L 181.547977 204.27089 
L 176.277806 209.184431 
z
" clip-path="url(#p2f42d8109f)" style="fill: #3e049c"/>
    <path d="M 234.971469 171.520821 
L 240.295387 161.119497 
L 234.724693 158.432215 
L 229.417223 168.799969 
z
" clip-path="url(#p2f42d8109f)" style="fill: #ca457a"/>
    <path d="M 122.931807 221.016513 
L 128.373368 217.980937 
L 123.168382 215.115882 
L 117.727905 218.132725 
z
" clip-path="url(#p2f42d8109f)" style="fill: #0d0887"/>
    <path d="M 240.295387 161.119497 
L 245.65258 149.715056 
L 240.063089 147.063481 
L 234.724693 158.432215 
z
" clip-path="url(#p2f42d8109f)" style="fill: #e16462"/>
    <path d="M 208.35426 201.23616 
L 213.607938 194.408186 
L 208.125534 191.615862 
L 202.8801 198.417593 
z
" clip-path="url(#p2f42d8109f)" style="fill: #6c00a8"/>
    <path d="M 112.231694 220.088621 
L 117.727905 218.132725 
L 112.557255 215.267364 
L 107.060114 217.206707 
z
" clip-path="url(#p2f42d8109f)" style="fill: #100788"/>
    <path d="M 250.893307 120.296587 
L 256.416528 104.48258 
L 250.786914 101.973256 
L 245.292755 117.74178 
z
" clip-path="url(#p2f42d8109f)" style="fill: #f0f921"/>
    <path d="M 133.611829 220.864418 
L 139.015192 217.262907 
L 133.774657 214.399301 
L 128.373368 217.980937 
z
" clip-path="url(#p2f42d8109f)" style="fill: #100788"/>
    <path d="M 229.672775 180.988703 
L 234.971469 171.520821 
L 229.417223 168.799969 
L 224.132801 178.236219 
z
" clip-path="url(#p2f42d8109f)" style="fill: #b22b8f"/>
    <path d="M 144.28944 220.144935 
L 149.66213 216.273815 
L 144.385424 213.412208 
L 139.015192 217.262907 
z
" clip-path="url(#p2f42d8109f)" style="fill: #19068c"/>
    <path d="M 245.65258 149.715056 
L 251.056811 137.092638 
L 245.445658 134.479432 
L 240.063089 147.063481 
z
" clip-path="url(#p2f42d8109f)" style="fill: #f48849"/>
    <path d="M 192.367917 209.950219 
L 197.629659 204.492569 
L 192.197082 201.667331 
L 186.940604 207.101452 
z
" clip-path="url(#p2f42d8109f)" style="fill: #4903a0"/>
    <path d="M 101.492095 217.87014 
L 107.060114 217.206707 
L 101.921593 214.343215 
L 96.350263 214.992715 
z
" clip-path="url(#p2f42d8109f)" style="fill: #1d068e"/>
    <path d="M 224.392991 189.544204 
L 229.672775 180.988703 
L 224.132801 178.236219 
L 218.865173 186.761938 
z
" clip-path="url(#p2f42d8109f)" style="fill: #99159f"/>
    <path d="M 154.972797 219.153839 
L 160.317754 215.101932 
L 155.004421 212.242697 
L 149.66213 216.273815 
z
" clip-path="url(#p2f42d8109f)" style="fill: #20068f"/>
    <path d="M 165.6653 217.979578 
L 170.984599 213.718087 
L 165.634106 210.861657 
L 160.317754 215.101932 
z
" clip-path="url(#p2f42d8109f)" style="fill: #280592"/>
    <path d="M 251.056811 137.092638 
L 256.529905 122.867837 
L 250.893307 120.296587 
L 245.445658 134.479432 
z
" clip-path="url(#p2f42d8109f)" style="fill: #feb82c"/>
    <path d="M 203.097216 207.335997 
L 208.35426 201.23616 
L 202.8801 198.417593 
L 197.629659 204.492569 
z
" clip-path="url(#p2f42d8109f)" style="fill: #5901a5"/>
    <path d="M 219.125634 197.218485 
L 224.392991 189.544204 
L 218.865173 186.761938 
L 213.607938 194.408186 
z
" clip-path="url(#p2f42d8109f)" style="fill: #8104a7"/>
    <path d="M 176.369564 216.592921 
L 181.666202 212.037447 
L 176.277806 209.184431 
L 170.984599 213.718087 
z
" clip-path="url(#p2f42d8109f)" style="fill: #310597"/>
    <path d="M 187.089337 214.908858 
L 192.367917 209.950219 
L 186.940604 207.101452 
L 181.666202 212.037447 
z
" clip-path="url(#p2f42d8109f)" style="fill: #3e049c"/>
    <path d="M 240.561493 174.259199 
L 245.901961 163.824087 
L 240.295387 161.119497 
L 234.971469 171.520821 
z
" clip-path="url(#p2f42d8109f)" style="fill: #ca457a"/>
    <path d="M 128.169283 223.918907 
L 133.611829 220.864418 
L 128.373368 217.980937 
L 122.931807 221.016513 
z
" clip-path="url(#p2f42d8109f)" style="fill: #0d0887"/>
    <path d="M 245.901961 163.824087 
L 251.278083 152.383714 
L 245.65258 149.715056 
L 240.295387 161.119497 
z
" clip-path="url(#p2f42d8109f)" style="fill: #e16462"/>
    <path d="M 213.863715 204.0729 
L 219.125634 197.218485 
L 213.607938 194.408186 
L 208.35426 201.23616 
z
" clip-path="url(#p2f42d8109f)" style="fill: #6c00a8"/>
    <path d="M 117.436653 222.989136 
L 122.931807 221.016513 
L 117.727905 218.132725 
L 112.231694 220.088621 
z
" clip-path="url(#p2f42d8109f)" style="fill: #100788"/>
    <path d="M 256.529905 122.867837 
L 262.082449 107.008088 
L 256.416528 104.48258 
L 250.893307 120.296587 
z
" clip-path="url(#p2f42d8109f)" style="fill: #f0f921"/>
    <path d="M 138.88409 223.766504 
L 144.28944 220.144935 
L 139.015192 217.262907 
L 133.611829 220.864418 
z
" clip-path="url(#p2f42d8109f)" style="fill: #100788"/>
    <path d="M 235.248453 183.758926 
L 240.561493 174.259199 
L 234.971469 171.520821 
L 229.672775 180.988703 
z
" clip-path="url(#p2f42d8109f)" style="fill: #b22b8f"/>
    <path d="M 149.597729 223.045564 
L 154.972797 219.153839 
L 149.66213 216.273815 
L 144.28944 220.144935 
z
" clip-path="url(#p2f42d8109f)" style="fill: #19068c"/>
    <path d="M 251.278083 152.383714 
L 256.704144 139.722694 
L 251.056811 137.092638 
L 245.65258 149.715056 
z
" clip-path="url(#p2f42d8109f)" style="fill: #f48849"/>
    <path d="M 197.830252 212.817369 
L 203.097216 207.335997 
L 197.629659 204.492569 
L 192.367917 209.950219 
z
" clip-path="url(#p2f42d8109f)" style="fill: #4903a0"/>
    <path d="M 106.667145 220.766153 
L 112.231694 220.088621 
L 107.060114 217.206707 
L 101.492095 217.87014 
z
" clip-path="url(#p2f42d8109f)" style="fill: #1d068e"/>
    <path d="M 229.956465 192.344416 
L 235.248453 183.758926 
L 229.672775 180.988703 
L 224.392991 189.544204 
z
" clip-path="url(#p2f42d8109f)" style="fill: #99159f"/>
    <path d="M 160.317754 222.052459 
L 165.6653 217.979578 
L 160.317754 215.101932 
L 154.972797 219.153839 
z
" clip-path="url(#p2f42d8109f)" style="fill: #20068f"/>
    <path d="M 171.04739 220.875814 
L 176.369564 216.592921 
L 170.984599 213.718087 
L 165.6653 217.979578 
z
" clip-path="url(#p2f42d8109f)" style="fill: #280592"/>
    <path d="M 256.704144 139.722694 
L 262.202898 125.45569 
L 256.529905 122.867837 
L 251.056811 137.092638 
z
" clip-path="url(#p2f42d8109f)" style="fill: #feb82c"/>
    <path d="M 208.600092 210.197794 
L 213.863715 204.0729 
L 208.35426 201.23616 
L 203.097216 207.335997 
z
" clip-path="url(#p2f42d8109f)" style="fill: #5901a5"/>
    <path d="M 224.678964 200.046934 
L 229.956465 192.344416 
L 224.392991 189.544204 
L 219.125634 197.218485 
z
" clip-path="url(#p2f42d8109f)" style="fill: #8104a7"/>
    <path d="M 181.789335 219.486336 
L 187.089337 214.908858 
L 181.666202 212.037447 
L 176.369564 216.592921 
z
" clip-path="url(#p2f42d8109f)" style="fill: #310597"/>
    <path d="M 192.54755 217.798842 
L 197.830252 212.817369 
L 192.367917 209.950219 
L 187.089337 214.908858 
z
" clip-path="url(#p2f42d8109f)" style="fill: #3e049c"/>
    <path d="M 133.44066 226.840087 
L 138.88409 223.766504 
L 133.611829 220.864418 
L 128.169283 223.918907 
z
" clip-path="url(#p2f42d8109f)" style="fill: #0d0887"/>
    <path d="M 219.408808 206.927989 
L 224.678964 200.046934 
L 219.125634 197.218485 
L 213.863715 204.0729 
z
" clip-path="url(#p2f42d8109f)" style="fill: #6c00a8"/>
    <path d="M 122.675314 225.908432 
L 128.169283 223.918907 
L 122.931807 221.016513 
L 117.436653 222.989136 
z
" clip-path="url(#p2f42d8109f)" style="fill: #100788"/>
    <path d="M 262.202898 125.45569 
L 267.785029 109.549936 
L 262.082449 107.008088 
L 256.529905 122.867837 
z
" clip-path="url(#p2f42d8109f)" style="fill: #f0f921"/>
    <path d="M 144.190478 226.687375 
L 149.597729 223.045564 
L 144.28944 220.144935 
L 138.88409 223.766504 
z
" clip-path="url(#p2f42d8109f)" style="fill: #100788"/>
    <path d="M 154.940389 225.964974 
L 160.317754 222.052459 
L 154.972797 219.153839 
L 149.597729 223.045564 
z
" clip-path="url(#p2f42d8109f)" style="fill: #19068c"/>
    <path d="M 203.327947 215.70308 
L 208.600092 210.197794 
L 203.097216 207.335997 
L 197.830252 212.817369 
z
" clip-path="url(#p2f42d8109f)" style="fill: #4903a0"/>
    <path d="M 111.875735 223.680935 
L 117.436653 222.989136 
L 112.231694 220.088621 
L 106.667145 220.766153 
z
" clip-path="url(#p2f42d8109f)" style="fill: #1d068e"/>
    <path d="M 165.697333 224.969854 
L 171.04739 220.875814 
L 165.6653 217.979578 
L 160.317754 222.052459 
z
" clip-path="url(#p2f42d8109f)" style="fill: #20068f"/>
    <path d="M 176.464361 223.790819 
L 181.789335 219.486336 
L 176.369564 216.592921 
L 171.04739 220.875814 
z
" clip-path="url(#p2f42d8109f)" style="fill: #280592"/>
    <path d="M 214.13863 213.078137 
L 219.408808 206.927989 
L 213.863715 204.0729 
L 208.600092 210.197794 
z
" clip-path="url(#p2f42d8109f)" style="fill: #5901a5"/>
    <path d="M 187.244251 222.398514 
L 192.54755 217.798842 
L 187.089337 214.908858 
L 181.789335 219.486336 
z
" clip-path="url(#p2f42d8109f)" style="fill: #310597"/>
    <path d="M 198.041181 220.707579 
L 203.327947 215.70308 
L 197.830252 212.817369 
L 192.54755 217.798842 
z
" clip-path="url(#p2f42d8109f)" style="fill: #3e049c"/>
    <path d="M 138.746267 229.780235 
L 144.190478 226.687375 
L 138.88409 223.766504 
L 133.44066 226.840087 
z
" clip-path="url(#p2f42d8109f)" style="fill: #0d0887"/>
    <path d="M 127.948007 228.846692 
L 133.44066 226.840087 
L 128.169283 223.918907 
L 122.675314 225.908432 
z
" clip-path="url(#p2f42d8109f)" style="fill: #100788"/>
    <path d="M 149.531327 229.627214 
L 154.940389 225.964974 
L 149.597729 223.045564 
L 144.190478 226.687375 
z
" clip-path="url(#p2f42d8109f)" style="fill: #100788"/>
    <path d="M 160.317754 228.903349 
L 165.697333 224.969854 
L 160.317754 222.052459 
L 154.940389 225.964974 
z
" clip-path="url(#p2f42d8109f)" style="fill: #19068c"/>
    <path d="M 208.861349 218.607532 
L 214.13863 213.078137 
L 208.600092 210.197794 
L 203.327947 215.70308 
z
" clip-path="url(#p2f42d8109f)" style="fill: #4903a0"/>
    <path d="M 117.118191 226.614669 
L 122.675314 225.908432 
L 117.436653 222.989136 
L 111.875735 223.680935 
z
" clip-path="url(#p2f42d8109f)" style="fill: #1d068e"/>
    <path d="M 171.111873 227.906209 
L 176.464361 223.790819 
L 171.04739 220.875814 
L 165.697333 224.969854 
z
" clip-path="url(#p2f42d8109f)" style="fill: #20068f"/>
    <path d="M 181.916551 226.724777 
L 187.244251 222.398514 
L 181.789335 219.486336 
L 176.464361 223.790819 
z
" clip-path="url(#p2f42d8109f)" style="fill: #280592"/>
    <path d="M 192.734655 225.329637 
L 198.041181 220.707579 
L 192.54755 217.798842 
L 187.244251 222.398514 
z
" clip-path="url(#p2f42d8109f)" style="fill: #310597"/>
    <path d="M 203.570577 223.635252 
L 208.861349 218.607532 
L 203.327947 215.70308 
L 198.041181 220.707579 
z
" clip-path="url(#p2f42d8109f)" style="fill: #3e049c"/>
    <path d="M 144.086438 232.739539 
L 149.531327 229.627214 
L 144.190478 226.687375 
L 138.746267 229.780235 
z
" clip-path="url(#p2f42d8109f)" style="fill: #0d0887"/>
    <path d="M 133.255063 231.804102 
L 138.746267 229.780235 
L 133.44066 226.840087 
L 127.948007 228.846692 
z
" clip-path="url(#p2f42d8109f)" style="fill: #100788"/>
    <path d="M 154.906971 232.586207 
L 160.317754 228.903349 
L 154.940389 225.964974 
L 149.531327 229.627214 
z
" clip-path="url(#p2f42d8109f)" style="fill: #100788"/>
    <path d="M 165.730165 231.860873 
L 171.111873 227.906209 
L 165.697333 224.969854 
L 160.317754 228.903349 
z
" clip-path="url(#p2f42d8109f)" style="fill: #19068c"/>
    <path d="M 122.394846 229.567542 
L 127.948007 228.846692 
L 122.675314 225.908432 
L 117.118191 226.614669 
z
" clip-path="url(#p2f42d8109f)" style="fill: #1d068e"/>
    <path d="M 176.561715 230.861709 
L 181.916551 226.724777 
L 176.464361 223.790819 
L 171.111873 227.906209 
z
" clip-path="url(#p2f42d8109f)" style="fill: #20068f"/>
    <path d="M 187.404307 229.677874 
L 192.734655 225.329637 
L 187.244251 222.398514 
L 181.916551 226.724777 
z
" clip-path="url(#p2f42d8109f)" style="fill: #280592"/>
    <path d="M 198.260893 228.279891 
L 203.570577 223.635252 
L 198.041181 220.707579 
L 192.734655 225.329637 
z
" clip-path="url(#p2f42d8109f)" style="fill: #310597"/>
    <path d="M 149.461514 235.718184 
L 154.906971 232.586207 
L 149.531327 229.627214 
L 144.086438 232.739539 
z
" clip-path="url(#p2f42d8109f)" style="fill: #0d0887"/>
    <path d="M 138.59682 234.780849 
L 144.086438 232.739539 
L 138.746267 229.780235 
L 133.255063 231.804102 
z
" clip-path="url(#p2f42d8109f)" style="fill: #100788"/>
    <path d="M 160.317754 235.564542 
L 165.730165 231.860873 
L 160.317754 228.903349 
L 154.906971 232.586207 
z
" clip-path="url(#p2f42d8109f)" style="fill: #100788"/>
    <path d="M 171.177965 234.837736 
L 176.561715 230.861709 
L 171.111873 227.906209 
L 165.730165 231.860873 
z
" clip-path="url(#p2f42d8109f)" style="fill: #19068c"/>
    <path d="M 127.706036 232.53974 
L 133.255063 231.804102 
L 127.948007 228.846692 
L 122.394846 229.567542 
z
" clip-path="url(#p2f42d8109f)" style="fill: #1d068e"/>
    <path d="M 182.047205 233.836541 
L 187.404307 229.677874 
L 181.916551 226.724777 
L 176.561715 230.861709 
z
" clip-path="url(#p2f42d8109f)" style="fill: #20068f"/>
    <path d="M 192.927977 232.650296 
L 198.260893 228.279891 
L 192.734655 225.329637 
L 187.404307 229.677874 
z
" clip-path="url(#p2f42d8109f)" style="fill: #280592"/>
    <path d="M 154.871837 238.716362 
L 160.317754 235.564542 
L 154.906971 232.586207 
L 149.461514 235.718184 
z
" clip-path="url(#p2f42d8109f)" style="fill: #0d0887"/>
    <path d="M 143.97362 237.777123 
L 149.461514 235.718184 
L 144.086438 232.739539 
L 138.59682 234.780849 
z
" clip-path="url(#p2f42d8109f)" style="fill: #100788"/>
    <path d="M 165.76402 238.562408 
L 171.177965 234.837736 
L 165.730165 231.860873 
L 160.317754 235.564542 
z
" clip-path="url(#p2f42d8109f)" style="fill: #100788"/>
    <path d="M 176.661501 237.834126 
L 182.047205 233.836541 
L 176.561715 230.861709 
L 171.177965 234.837736 
z
" clip-path="url(#p2f42d8109f)" style="fill: #19068c"/>
    <path d="M 133.052099 235.531454 
L 138.59682 234.780849 
L 133.255063 231.804102 
L 127.706036 232.53974 
z
" clip-path="url(#p2f42d8109f)" style="fill: #1d068e"/>
    <path d="M 187.568694 236.830895 
L 192.927977 232.650296 
L 187.404307 229.677874 
L 182.047205 233.836541 
z
" clip-path="url(#p2f42d8109f)" style="fill: #20068f"/>
    <path d="M 160.317754 241.734266 
L 165.76402 238.562408 
L 160.317754 235.564542 
L 154.871837 238.716362 
z
" clip-path="url(#p2f42d8109f)" style="fill: #0d0887"/>
    <path d="M 149.385807 240.793118 
L 154.871837 238.716362 
L 149.461514 235.718184 
L 143.97362 237.777123 
z
" clip-path="url(#p2f42d8109f)" style="fill: #100788"/>
    <path d="M 171.24612 241.579999 
L 176.661501 237.834126 
L 171.177965 234.837736 
L 165.76402 238.562408 
z
" clip-path="url(#p2f42d8109f)" style="fill: #100788"/>
    <path d="M 182.181128 240.850237 
L 187.568694 236.830895 
L 182.047205 233.836541 
L 176.661501 237.834126 
z
" clip-path="url(#p2f42d8109f)" style="fill: #19068c"/>
    <path d="M 138.433382 238.542877 
L 143.97362 237.777123 
L 138.59682 234.780849 
L 133.052099 235.531454 
z
" clip-path="url(#p2f42d8109f)" style="fill: #1d068e"/>
    <path d="M 165.799619 244.77209 
L 171.24612 241.579999 
L 165.76402 238.562408 
L 160.317754 241.734266 
z
" clip-path="url(#p2f42d8109f)" style="fill: #0d0887"/>
    <path d="M 154.833734 243.829029 
L 160.317754 241.734266 
L 154.871837 238.716362 
L 149.385807 240.793118 
z
" clip-path="url(#p2f42d8109f)" style="fill: #100788"/>
    <path d="M 176.764409 244.617509 
L 182.181128 240.850237 
L 176.661501 237.834126 
L 171.24612 241.579999 
z
" clip-path="url(#p2f42d8109f)" style="fill: #100788"/>
    <path d="M 143.850232 241.574204 
L 149.385807 240.793118 
L 143.97362 237.777123 
L 138.433382 238.542877 
z
" clip-path="url(#p2f42d8109f)" style="fill: #1d068e"/>
    <path d="M 171.317789 247.830032 
L 176.764409 244.617509 
L 171.24612 241.579999 
L 165.799619 244.77209 
z
" clip-path="url(#p2f42d8109f)" style="fill: #0d0887"/>
    <path d="M 160.317754 246.885054 
L 165.799619 244.77209 
L 160.317754 241.734266 
L 154.833734 243.829029 
z
" clip-path="url(#p2f42d8109f)" style="fill: #100788"/>
    <path d="M 149.303005 244.625634 
L 154.833734 243.829029 
L 149.385807 240.793118 
L 143.850232 241.574204 
z
" clip-path="url(#p2f42d8109f)" style="fill: #1d068e"/>
    <path d="M 165.838228 249.961393 
L 171.317789 247.830032 
L 165.799619 244.77209 
L 160.317754 246.885054 
z
" clip-path="url(#p2f42d8109f)" style="fill: #100788"/>
    <path d="M 154.792058 247.697367 
L 160.317754 246.885054 
L 154.833734 243.829029 
L 149.303005 244.625634 
z
" clip-path="url(#p2f42d8109f)" style="fill: #1d068e"/>
    <path d="M 160.317754 250.789605 
L 165.838228 249.961393 
L 160.317754 246.885054 
L 154.792058 247.697367 
z
" clip-path="url(#p2f42d8109f)" style="fill: #1d068e"/>
   </g>
   <g id="text_19">
    <!-- t = 0.1c -->
    <g transform="translate(132.686959 16.318125) scale(0.12 -0.12)">
     <defs>
      <path id="DejaVuSans-74" d="M 1172 4494 
L 1172 3500 
L 2356 3500 
L 2356 3053 
L 1172 3053 
L 1172 1153 
Q 1172 725 1289 603 
Q 1406 481 1766 481 
L 2356 481 
L 2356 0 
L 1766 0 
Q 1100 0 847 248 
Q 594 497 594 1153 
L 594 3053 
L 172 3053 
L 172 3500 
L 594 3500 
L 594 4494 
L 1172 4494 
z
" transform="scale(0.015625)"/>
      <path id="DejaVuSans-20" transform="scale(0.015625)"/>
      <path id="DejaVuSans-3d" d="M 678 2906 
L 4684 2906 
L 4684 2381 
L 678 2381 
L 678 2906 
z
M 678 1631 
L 4684 1631 
L 4684 1100 
L 678 1100 
L 678 1631 
z
" transform="scale(0.015625)"/>
      <path id="DejaVuSans-63" d="M 3122 3366 
L 3122 2828 
Q 2878 2963 2633 3030 
Q 2388 3097 2138 3097 
Q 1578 3097 1268 2742 
Q 959 2388 959 1747 
Q 959 1106 1268 751 
Q 1578 397 2138 397 
Q 2388 397 2633 464 
Q 2878 531 3122 666 
L 3122 134 
Q 2881 22 2623 -34 
Q 2366 -91 2075 -91 
Q 1284 -91 818 406 
Q 353 903 353 1747 
Q 353 2603 823 3093 
Q 1294 3584 2113 3584 
Q 2378 3584 2631 3529 
Q 2884 3475 3122 3366 
z
" transform="scale(0.015625)"/>
     </defs>
     <use xlink:href="#DejaVuSans-74"/>
     <use xlink:href="#DejaVuSans-20" x="39.208984"/>
     <use xlink:href="#DejaVuSans-3d" x="70.996094"/>
     <use xlink:href="#DejaVuSans-20" x="154.785156"/>
     <use xlink:href="#DejaVuSans-30" x="186.572266"/>
     <use xlink:href="#DejaVuSans-2e" x="250.195312"/>
     <use xlink:href="#DejaVuSans-31" x="281.982422"/>
     <use xlink:href="#DejaVuSans-63" x="345.605469"/>
    </g>
   </g>
  </g>
 </g>
 <defs>
  <clipPath id="p2f42d8109f">
   <rect x="23.665646" y="22.318125" width="266.112" height="266.112"/>
  </clipPath>
 </defs>
</svg>
